<svg class="img-fluid" id="outputsvg" xmlns="http://www.w3.org/2000/svg" style="transform: none; transform-origin: 50% 50%; cursor: move; max-height: 395.86px;" width="132" height="132" viewBox="0 0 1320 1320"><g id="lf3q34vdCaB9SJ6wY14vPX" fill="rgb(254,254,254)" style="transform: none;"><g><path id="pQppvglIy" d="M490 1305 c-234 -64 -416 -250 -476 -485 -25 -98 -16 -292 18 -382 37 -100 85 -174 158 -248 73 -72 147 -120 248 -159 62 -23 79 -25 222 -25 143 0 160 2 222 25 101 39 175 87 248 159 72 73 120 147 159 248 23 62 25 79 25 222 0 143 -2 160 -25 222 -39 101 -87 175 -159 248 -74 73 -148 120 -248 158 -57 21 -87 26 -202 28 -98 3 -150 0 -190 -11z m255 -120 c22 -4 45 -10 50 -14 6 -4 37 -18 69 -31 74 -30 131 -77 116 -95 -6 -8 -10 -35 -8 -61 3 -43 6 -49 41 -67 20 -10 37 -25 37 -33 0 -10 13 -14 43 -14 40 0 45 -3 65 -39 12 -21 22 -49 22 -62 1 -13 7 -35 15 -49 33 -58 7 -203 -54 -292 -29 -42 -30 -42 -88 -43 -56 0 -58 -1 -61 -27 -2 -16 -8 -28 -13 -28 -12 0 -12 -83 1 -96 14 -14 -20 -44 -92 -83 -105 -56 -247 -78 -306 -47 -15 8 -45 17 -66 21 -49 10 -138 53 -151 74 -5 9 -9 41 -10 73 0 47 -4 60 -24 77 -30 26 -96 29 -109 5 -8 -14 -13 -11 -35 17 -44 59 -57 106 -62 223 -4 94 -1 123 17 186 12 41 26 77 30 78 4 2 8 17 8 33 0 19 5 29 15 29 8 0 15 4 15 10 0 10 15 29 58 76 20 23 24 24 38 10 10 -11 34 -16 67 -16 48 0 53 2 65 30 8 16 12 49 10 72 -2 41 -1 43 32 52 19 5 38 14 41 19 8 11 112 26 154 21 17 -2 48 -6 70 -9z"></path><path id="pqEd6KnWg" d="M542 1114 c-20 -13 -22 -24 -22 -95 0 -98 15 -119 88 -120 41 0 44 -2 25 -11 -17 -8 -23 -20 -23 -44 0 -31 2 -33 44 -39 24 -4 58 -4 75 0 26 6 31 12 37 51 3 24 3 60 -1 80 -3 20 -6 67 -6 105 0 57 -3 70 -19 79 -31 16 -172 12 -198 -6z"></path><path id="p5PzE2Lay" d="M266 883 c-27 -43 -36 -68 -36 -100 0 -42 0 -43 35 -43 19 0 35 -4 35 -10 0 -5 11 -10 25 -10 14 0 25 -4 25 -10 0 -16 67 -12 84 6 9 9 16 32 16 55 0 37 -2 39 -30 39 -31 0 -56 30 -32 38 7 2 12 23 12 48 l0 44 -49 0 c-49 0 -50 0 -85 -57z"></path><path id="pET9KfgXi" d="M410 896 c0 -38 12 -46 71 -46 38 0 39 1 39 34 0 37 -15 46 -77 46 -31 0 -33 -2 -33 -34z"></path><path id="paFfv4cJw" d="M790 870 l0 -60 35 0 c19 0 35 -4 35 -10 0 -5 17 -11 38 -11 20 -1 30 -3 21 -6 -19 -5 -29 -32 -29 -80 0 -23 5 -33 20 -38 11 -3 20 -11 20 -16 0 -5 14 -9 30 -9 24 0 30 -4 30 -21 0 -17 5 -20 37 -17 33 3 39 7 47 36 5 17 15 32 22 32 17 0 19 58 3 113 -7 26 -16 37 -28 37 -11 0 -21 6 -24 13 -3 7 -23 19 -46 27 -23 7 -41 17 -41 22 0 4 -15 8 -34 8 -26 0 -36 5 -41 20 -5 16 -15 20 -51 20 l-44 0 0 -60z"></path><path id="pwGpx2iqE" d="M577 463 c-4 -3 -7 -22 -7 -40 0 -33 1 -34 38 -31 35 3 37 5 40 41 3 36 2 37 -31 37 -18 0 -37 -3 -40 -7z"></path><path id="p1A7QFGfGv" d="M470 361 l0 -51 46 0 45 0 -3 48 -3 47 -42 3 -43 3 0 -50z"></path><path id="pMYPkGccC" d="M653 393 c-18 -7 -16 -69 3 -87 9 -9 32 -16 55 -16 l39 0 0 55 0 55 -42 -1 c-24 0 -49 -3 -55 -6z"></path><path id="pDU4SWjGc" d="M792 365 c-7 -14 -12 -48 -12 -75 l0 -50 45 0 45 0 0 75 0 75 -33 0 c-26 0 -36 -6 -45 -25z"></path></g></g><g id="l4x9z2aXsrPHKSnvMDt0a8t" fill="rgb(236,233,240)" style="transform: none;"><g><path id="pNSMYtNhK" d="M508 1213 c-10 -2 -18 -8 -18 -13 0 -4 -15 -11 -34 -14 -49 -9 -62 -29 -48 -70 21 -58 -20 -107 -67 -77 -19 12 3 24 29 16 15 -5 20 -2 20 13 0 61 -77 47 -149 -27 -27 -28 -46 -53 -43 -56 3 -3 -2 -5 -11 -5 -10 0 -14 -6 -11 -14 3 -8 -4 -16 -17 -19 -17 -5 -20 -11 -15 -31 5 -20 3 -26 -10 -26 -11 0 -15 -6 -11 -20 3 -11 2 -20 -3 -20 -4 0 -8 -6 -7 -12 1 -35 -5 -48 -20 -48 -15 0 -15 -2 -4 -9 8 -5 11 -16 8 -25 -5 -12 0 -16 18 -16 21 0 25 5 25 30 0 33 28 101 48 113 6 4 12 17 12 27 0 11 5 20 10 20 6 0 10 5 10 11 0 18 74 79 81 67 10 -15 109 -24 109 -9 0 6 6 11 14 11 22 0 30 19 36 79 l5 54 58 20 c86 31 73 73 -15 50z"></path><path id="pEC8G7N9a" d="M782 1184 c2 -22 13 -30 61 -48 31 -12 72 -33 91 -48 31 -25 33 -29 28 -82 -4 -47 -2 -56 12 -56 9 0 16 -6 16 -14 0 -8 8 -21 18 -28 10 -7 21 -23 24 -35 5 -20 4 -21 -16 -10 -11 7 -24 16 -27 21 -4 4 -26 10 -51 13 l-44 5 -11 60 c-13 66 -56 138 -83 138 -10 0 -20 9 -23 20 -7 27 -46 40 -122 40 -83 0 -115 -14 -115 -52 0 -18 -5 -28 -15 -28 -12 0 -15 -13 -15 -60 0 -53 2 -60 20 -60 12 0 20 -7 20 -16 0 -14 -7 -16 -42 -10 -24 4 -73 10 -110 13 -59 5 -68 3 -68 -11 0 -10 -8 -16 -24 -16 -36 0 -75 -56 -83 -118 -12 -100 18 -142 102 -142 66 0 135 27 135 52 0 11 8 18 20 18 15 0 20 7 20 27 0 25 1 26 20 8 20 -18 67 -17 125 3 17 6 49 15 73 20 40 9 42 8 42 -14 0 -21 5 -24 35 -24 24 0 35 -5 35 -15 0 -8 7 -15 14 -15 11 0 16 -14 18 -47 3 -44 5 -47 36 -55 25 -7 32 -14 32 -33 0 -24 3 -25 61 -25 65 0 76 6 103 57 22 43 23 163 1 163 -8 0 -15 6 -15 13 0 8 20 12 61 13 33 1 63 4 66 7 3 4 -6 26 -21 50 -19 34 -33 46 -56 49 -16 3 -30 1 -30 -4 0 -4 -4 -8 -10 -8 -5 0 -10 6 -10 14 0 8 -17 23 -37 34 -43 21 -54 64 -19 70 16 4 18 0 13 -27 -8 -36 15 -44 33 -12 16 32 13 40 -46 101 -41 43 -73 65 -122 86 -37 15 -71 31 -76 36 -6 4 -18 8 -29 8 -14 0 -18 -6 -15 -26z m-71 -95 c30 -16 12 -30 -30 -23 -42 7 -94 -12 -71 -26 9 -6 9 -12 1 -29 -10 -18 -9 -21 9 -21 12 0 19 4 16 8 -2 4 -1 14 3 21 7 11 16 10 47 -5 22 -9 41 -19 42 -20 8 -6 -10 -44 -19 -39 -5 4 -19 -1 -31 -9 -31 -22 -84 -20 -108 4 -30 30 -28 113 2 134 26 18 109 21 139 5z m29 -191 c0 -6 -7 -20 -17 -30 -13 -14 -13 -18 -2 -19 8 0 3 -5 -11 -10 -17 -7 -26 -7 -28 1 -2 5 -8 8 -13 4 -5 -3 -9 -1 -9 4 0 6 7 12 15 16 8 3 15 13 15 21 0 9 4 14 9 11 5 -3 12 1 15 10 6 16 26 10 26 -8z m-370 -1 c0 -7 -9 -18 -20 -25 -11 -7 -20 -21 -20 -32 0 -12 -7 -23 -15 -26 -8 -4 -12 -10 -9 -15 3 -5 -2 -9 -10 -9 -9 0 -16 -4 -16 -10 0 -5 -4 -10 -10 -10 -18 0 -10 25 26 83 23 37 42 57 55 57 10 0 19 -6 19 -13z m483 -9 c6 -21 -4 -48 -19 -48 -9 0 -14 11 -14 30 0 30 24 43 33 18z m77 -36 c0 -5 18 -15 41 -22 23 -8 43 -20 46 -27 3 -7 13 -13 23 -13 23 0 37 -39 19 -51 -11 -7 -10 -9 4 -9 9 0 17 -7 17 -15 0 -8 -6 -15 -14 -15 -8 0 -17 -13 -21 -30 -10 -44 -29 -51 -21 -8 8 45 -7 84 -35 93 -21 7 -21 9 -6 20 16 11 15 14 -7 29 -14 9 -39 16 -56 16 -33 0 -36 4 -17 25 14 16 27 19 27 7z m-510 -80 c3 -3 -1 -7 -8 -9 -6 -3 -10 -8 -7 -13 3 -4 -2 -10 -10 -14 -10 -4 -15 1 -15 14 0 11 -5 20 -11 20 -5 0 -7 -4 -4 -10 3 -5 -3 -10 -14 -10 -20 0 -28 19 -15 33 6 6 76 -3 84 -11z m534 -38 c4 -10 14 -14 26 -11 11 3 20 1 20 -4 0 -5 -4 -9 -10 -9 -5 0 -10 -9 -10 -20 0 -24 -6 -25 -26 -6 -7 8 -18 16 -24 18 -11 3 -2 48 10 48 4 0 11 -7 14 -16z"></path><path id="pjHmZ4XtY" d="M1200 690 c0 -99 -30 -230 -52 -230 -5 0 -14 -15 -22 -32 l-14 -33 -1 38 c-1 35 -2 37 -35 37 -34 0 -66 -21 -66 -43 0 -7 -13 -25 -30 -40 -16 -16 -30 -36 -30 -45 -1 -25 -59 89 -60 116 0 19 -5 22 -38 22 -36 0 -40 -2 -50 -39 -7 -21 -12 -47 -13 -57 0 -15 -2 -16 -7 -4 -21 45 -38 60 -69 60 -31 0 -33 2 -33 34 0 37 -12 46 -64 46 -41 0 -56 -16 -56 -60 l0 -35 -47 0 -48 0 0 -63 c0 -53 -2 -60 -13 -45 -7 10 -21 27 -31 39 -10 12 -21 42 -25 68 l-7 46 -45 0 c-43 0 -44 -1 -44 -33 0 -18 5 -38 12 -45 9 -9 2 -12 -34 -12 -26 0 -53 -3 -61 -6 -28 -10 -53 43 -80 174 -8 39 -15 52 -28 52 -12 0 -16 -5 -13 -15 4 -10 0 -15 -12 -16 -18 0 -17 -1 1 -9 11 -5 14 -9 8 -9 -38 -2 23 -165 86 -231 57 -59 85 -67 117 -35 20 20 24 21 25 7 2 -30 -2 -47 -18 -64 -14 -16 -13 -20 18 -49 39 -37 112 -74 165 -84 21 -4 51 -13 66 -21 36 -19 174 -18 250 1 32 9 86 30 118 48 58 31 130 90 130 107 0 4 -11 15 -25 24 -14 9 -25 23 -25 30 0 12 6 12 30 3 28 -11 33 -9 71 28 95 93 139 195 139 325 0 79 -10 120 -30 120 -6 0 -10 -31 -10 -70z m-672 -333 c2 -10 -3 -17 -12 -17 -10 0 -16 9 -16 21 0 24 23 21 28 -4z m112 -7 c0 -38 27 -70 60 -70 23 0 23 -1 -11 -24 -66 -45 -134 -43 -186 6 -33 31 -29 38 22 38 l45 0 0 40 c0 39 1 40 35 40 32 0 35 -2 35 -30z m80 -5 c0 -29 -12 -32 -35 -9 -13 14 -14 19 -3 25 24 15 38 9 38 -16z m120 -30 c0 -33 -4 -45 -15 -45 -8 0 -15 9 -15 20 0 18 20 70 27 70 1 0 3 -20 3 -45z m226 34 c3 -6 1 -16 -4 -21 -13 -13 -45 8 -36 23 7 12 31 11 40 -2z m-782 -15 c13 -5 14 -9 5 -20 -15 -18 -39 -18 -39 -1 0 12 9 27 16 27 1 0 10 -3 18 -6z m663 -137 c-27 -23 -132 -73 -170 -81 l-28 -7 22 31 c13 16 26 30 29 30 4 0 12 11 18 25 10 23 17 25 72 25 41 0 60 4 60 13 0 8 4 7 10 -3 7 -11 4 -20 -13 -33z m-496 -24 c13 -15 12 -15 -11 -3 -34 17 -36 20 -18 20 9 0 22 -7 29 -17z"></path><path id="pnUiQ05Bm" d="M90 706 c0 -8 -6 -17 -12 -20 -10 -5 -10 -7 0 -12 6 -3 12 -12 12 -20 0 -8 5 -14 10 -14 6 0 10 18 10 40 0 22 -4 40 -10 40 -5 0 -10 -6 -10 -14z"></path></g></g><g id="l3DvQ6rweFUcKfDHQoV5hsz" fill="rgb(224,222,231)" style="transform: none;"><g><path id="p1DoMJl4FI" d="M770 1197 c0 -49 11 -67 41 -67 37 0 97 -25 126 -52 20 -19 22 -28 17 -75 -7 -51 -6 -54 30 -86 20 -18 36 -35 36 -38 0 -2 -20 -3 -45 -1 -28 3 -45 0 -45 -7 0 -6 7 -11 15 -11 8 0 15 -3 15 -8 0 -13 84 -45 88 -33 2 6 17 11 34 11 l30 0 -26 31 c-14 17 -26 37 -26 45 0 7 -16 29 -36 47 -29 26 -35 38 -30 55 4 13 16 22 27 22 30 0 23 14 -34 66 -33 31 -74 56 -108 68 -30 10 -58 24 -64 30 -5 7 -18 15 -27 19 -14 5 -18 1 -18 -16z"></path><path id="p18dsrNT3A" d="M473 1187 c-53 -20 -65 -37 -52 -76 10 -29 9 -36 -11 -62 l-22 -30 39 3 38 3 3 57 c2 46 7 58 22 63 13 4 20 15 20 31 0 13 -1 24 -2 23 -2 0 -17 -6 -35 -12z"></path><path id="pm4VnLt1W" d="M737 1108 c4 -7 8 -17 8 -23 0 -5 9 -11 20 -13 11 -2 26 -11 33 -20 10 -13 12 -11 12 20 0 38 -12 48 -56 48 -18 0 -23 -4 -17 -12z"></path><path id="p1FOHCwjdV" d="M303 1084 c-34 -17 -51 -44 -28 -44 8 0 15 -7 15 -15 0 -10 11 -15 35 -15 19 0 35 5 35 10 0 6 -7 10 -15 10 -9 0 -15 9 -15 21 0 18 4 20 30 14 34 -7 37 -3 14 19 -19 20 -31 20 -71 0z"></path><path id="pIv6l9yxT" d="M625 1057 c-14 -17 -13 -59 2 -64 7 -3 10 3 6 15 -5 22 -1 26 41 36 23 6 27 4 23 -8 -4 -10 -1 -16 7 -16 33 0 29 -64 -5 -75 -10 -4 -19 -10 -19 -14 0 -4 -16 -13 -35 -20 -28 -10 -35 -18 -35 -38 0 -20 3 -23 13 -14 8 6 17 8 20 4 4 -3 7 0 7 7 0 7 3 11 6 7 6 -5 28 10 66 46 28 26 24 92 -7 122 -26 27 -73 33 -90 12z"></path><path id="p18Eb8ejzE" d="M750 959 c0 -39 -5 -80 -11 -91 -8 -15 -8 -22 1 -28 9 -6 10 -12 1 -26 -9 -17 -10 -17 -11 -2 0 15 -4 16 -26 8 -14 -6 -30 -8 -35 -5 -5 4 -30 -3 -55 -15 l-47 -20 -43 44 c-28 30 -54 47 -78 52 -42 7 -90 -2 -80 -17 3 -6 -2 -16 -12 -23 -16 -12 -15 -14 13 -20 33 -8 63 -43 63 -73 0 -12 -15 -25 -40 -36 -68 -29 -102 -20 -130 34 -16 29 -30 23 -30 -13 0 -58 76 -99 152 -84 39 8 58 23 58 47 0 15 7 19 35 19 31 0 35 3 35 27 0 25 1 25 18 10 22 -21 70 -22 91 -3 9 7 37 16 64 19 45 4 47 3 47 -20 0 -23 3 -25 45 -21 25 2 45 0 45 -4 0 -5 7 -8 15 -8 11 0 15 -11 15 -40 0 -38 -1 -40 -31 -40 l-31 0 6 -82 c5 -58 2 -103 -8 -148 -8 -36 -15 -57 -15 -47 -1 16 -21 25 -21 10 0 -5 -9 -19 -19 -33 -19 -24 -20 -24 -40 -6 -27 25 -26 34 6 68 l27 28 -27 0 c-23 0 -27 4 -27 30 0 17 -4 30 -10 30 -5 0 -10 -7 -10 -15 0 -8 -5 -15 -11 -15 -6 0 -9 -6 -6 -14 8 -19 -25 -31 -38 -14 -6 8 -32 13 -70 13 l-60 0 1 -65 c1 -36 0 -57 -3 -47 -2 9 -9 17 -14 17 -5 0 -9 9 -9 20 0 11 -4 20 -9 20 -12 0 -27 50 -36 113 -6 45 -7 47 -40 47 -20 0 -35 -6 -39 -15 -3 -8 -12 -15 -21 -15 -9 0 -29 -7 -45 -15 -25 -13 -30 -21 -30 -54 0 -22 5 -41 13 -44 8 -3 5 -7 -7 -13 -12 -5 -21 -3 -23 3 -2 6 -13 21 -24 34 -10 12 -19 31 -19 41 0 27 -18 58 -35 58 -17 0 -32 -43 -16 -48 6 -2 9 -8 5 -13 -3 -5 0 -9 6 -9 6 0 8 -4 5 -10 -14 -22 84 -160 114 -160 6 0 10 13 9 33 -3 28 0 32 22 35 35 4 67 -29 75 -77 4 -25 12 -41 20 -41 10 0 13 -10 10 -35 -5 -32 -2 -37 28 -49 86 -36 134 -39 122 -8 -4 10 -8 22 -9 29 -3 18 -52 53 -74 53 -38 0 -52 11 -52 41 0 16 -4 29 -9 29 -5 0 -11 11 -13 25 -4 17 -1 25 8 25 8 0 14 -4 14 -9 0 -5 26 -36 58 -69 63 -67 96 -79 183 -69 54 7 125 49 157 95 15 21 52 133 52 158 0 2 5 4 11 4 5 0 8 -4 5 -8 -3 -5 10 -42 29 -81 46 -96 45 -133 -4 -102 -8 5 -21 5 -30 1 -9 -5 -29 -11 -44 -15 -15 -3 -25 -10 -22 -15 3 -4 -16 -31 -43 -58 -32 -35 -58 -52 -82 -56 -19 -4 -55 -10 -80 -15 l-45 -8 28 -11 c39 -16 160 -15 235 3 74 18 127 43 201 98 l54 40 -29 15 c-36 18 -44 30 -44 64 0 16 11 37 29 54 17 15 32 38 35 50 3 12 14 25 23 28 15 6 16 5 6 -5 -15 -15 -18 -59 -5 -59 5 0 13 -10 19 -22 l10 -23 31 32 c18 17 32 38 32 47 0 8 6 19 13 23 6 4 18 18 25 31 l12 22 -86 0 c-47 0 -94 -5 -104 -10 -11 -6 -24 -28 -30 -49 -6 -21 -17 -42 -25 -45 -17 -6 -21 19 -5 29 19 11 12 84 -10 102 -26 23 -25 33 4 33 13 0 38 3 55 6 27 6 31 11 30 38 0 17 -3 25 -6 19 -5 -14 -73 -18 -73 -5 0 5 14 21 30 37 36 35 43 98 12 114 -23 12 -89 15 -121 5 -18 -5 -23 -4 -19 7 3 8 27 19 54 25 36 7 44 12 31 17 -28 11 -78 8 -120 -8 -38 -13 -39 -13 -32 8 4 12 9 50 12 85 5 56 2 67 -21 102 -14 22 -28 40 -31 40 -3 0 -5 -32 -5 -71z m-282 -179 c-2 -17 -5 -15 -14 15 -10 32 -10 35 3 22 8 -8 13 -24 11 -37z m492 -39 c0 -5 10 -11 22 -13 33 -4 34 -35 3 -64 -24 -23 -55 -25 -87 -7 -15 8 -8 47 14 70 22 23 48 31 48 14z m-595 -337 c3 -20 4 -39 1 -42 -3 -3 -6 3 -6 14 0 11 -7 30 -16 42 -13 19 -13 22 -1 22 9 0 17 -14 22 -36z m163 -16 c7 -7 12 -23 12 -36 0 -19 -5 -23 -22 -20 -23 3 -34 28 -24 54 7 17 18 18 34 2z m119 -60 c7 -37 12 -43 36 -46 18 -2 27 -9 27 -21 0 -15 -12 -19 -65 -25 -68 -7 -119 7 -146 40 -9 12 -6 14 20 14 37 0 57 16 67 54 4 19 13 26 29 26 20 0 25 -7 32 -42z m273 -143 c0 -2 -18 -13 -40 -24 -37 -18 -39 -18 -30 -1 5 10 15 21 22 23 17 7 48 8 48 2z"></path><path id="p15WG9xnLe" d="M410 931 c0 -12 6 -21 14 -21 7 0 28 -3 46 -6 29 -6 31 -5 28 17 -2 20 -9 24 -45 27 -38 3 -43 1 -43 -17z"></path><path id="ptUaCadDA" d="M1100 894 c0 -14 3 -15 18 -3 9 7 19 15 21 16 2 2 -5 3 -17 3 -14 0 -22 -6 -22 -16z"></path><path id="pYTfpwZGU" d="M550 865 c7 -8 9 -15 4 -16 -5 0 0 -4 11 -8 25 -11 35 -5 35 20 0 15 -7 19 -31 19 -27 0 -30 -2 -19 -15z"></path><path id="pkqWgvSzq" d="M87 700 c-7 -28 3 -60 19 -60 10 0 14 13 14 40 0 43 -23 57 -33 20z"></path><path id="pyLh93qAm" d="M1070 662 c-24 -28 -24 -52 0 -52 16 0 20 6 20 35 0 40 -1 41 -20 17z"></path><path id="pKFHhtLz7" d="M1180 530 c0 -45 23 -57 34 -17 11 41 7 57 -14 57 -17 0 -20 -7 -20 -40z"></path><path id="pL6acUb3Y" d="M1014 312 c3 -20 34 -28 48 -14 6 6 -1 13 -20 20 -26 9 -30 8 -28 -6z"></path></g></g><g id="lMlUx4tKmVOk7wbsAe08jn" fill="rgb(212,210,222)" style="transform: none;"><g><path id="p12EBbIOMX" d="M760 1155 c0 -65 0 -65 50 -115 41 -41 57 -50 85 -50 31 0 35 -3 35 -25 0 -17 11 -32 37 -50 l38 -25 -38 0 c-51 0 -47 -21 7 -43 25 -10 56 -30 70 -44 l26 -26 0 27 c0 16 5 26 15 26 8 0 15 -7 15 -16 0 -12 9 -14 43 -12 41 3 42 4 42 37 0 19 -6 36 -12 39 -7 2 -13 -3 -13 -12 0 -27 -34 -37 -61 -18 -37 25 -49 39 -49 56 0 8 -14 24 -30 36 -17 12 -28 26 -25 31 4 5 2 9 -4 9 -13 0 5 51 22 62 34 21 -146 141 -188 124 -9 -3 -15 0 -15 9 0 15 -27 45 -41 45 -5 0 -9 -29 -9 -65z"></path><path id="paEM60xea" d="M475 1182 c-27 -16 -49 -32 -48 -38 1 -5 4 -25 8 -45 6 -34 4 -38 -28 -58 -27 -17 -40 -19 -60 -12 -30 11 -30 41 -1 52 32 13 -6 10 -41 -2 -18 -7 -37 -20 -44 -30 -10 -17 -8 -19 14 -19 18 0 25 -5 25 -19 0 -20 25 -31 73 -31 17 0 27 -5 27 -15 0 -8 -4 -15 -10 -15 -5 0 -10 -6 -10 -14 0 -15 45 -30 61 -20 5 3 15 1 22 -4 7 -5 24 -12 40 -14 23 -4 27 -2 27 18 0 12 -6 25 -12 27 -8 3 -7 6 4 6 11 1 18 -8 20 -26 3 -24 8 -28 41 -31 42 -4 52 17 15 33 -13 6 -32 29 -43 52 -11 23 -25 42 -31 43 -10 0 -50 99 -42 104 2 1 15 10 31 19 17 11 27 26 27 42 0 31 -4 31 -65 -3z"></path><path id="p2Ucl9iqT" d="M550 1104 c0 -21 4 -33 10 -29 6 3 10 13 10 21 0 8 3 13 8 11 4 -3 16 4 26 14 19 19 19 19 -17 19 -36 0 -37 -1 -37 -36z"></path><path id="pfimjqPa3" d="M630 1055 c0 -17 16 -20 25 -5 10 15 22 12 45 -12 11 -12 23 -18 27 -14 5 4 -3 16 -16 27 -28 23 -81 26 -81 4z"></path><path id="p7kBeGlrS" d="M730 994 c0 -9 -8 -29 -17 -45 -19 -33 -9 -54 13 -25 13 18 20 86 9 86 -3 0 -5 -7 -5 -16z"></path><path id="p2EGbY8dI" d="M760 951 c0 -83 -59 -167 -110 -156 -18 4 -35 -1 -53 -15 l-26 -21 -31 43 c-33 46 -74 68 -124 68 l-31 0 45 -28 c40 -23 46 -32 49 -64 1 -22 -2 -38 -8 -38 -6 0 -11 13 -11 28 0 41 -20 62 -65 68 l-40 6 45 -28 c24 -15 39 -29 34 -31 -6 -2 -9 -14 -7 -28 7 -34 -36 -78 -76 -78 -85 0 -125 92 -74 170 15 22 14 23 -15 23 -34 0 -42 -16 -42 -91 0 -102 4 -109 99 -146 l24 -9 -30 -13 c-16 -6 -41 -29 -54 -50 -16 -26 -37 -43 -66 -54 l-41 -15 -11 44 c-7 25 -17 44 -25 44 -19 0 -31 -51 -14 -61 7 -4 9 -11 6 -15 -4 -4 -1 -16 7 -28 8 -11 15 -30 15 -43 0 -12 7 -29 16 -37 8 -9 13 -16 9 -16 -6 0 4 -14 46 -61 32 -36 35 -36 34 -1 0 22 6 29 32 37 41 12 45 45 8 65 -14 7 -25 17 -25 21 0 11 54 39 74 39 8 0 20 8 25 18 10 16 10 15 12 -3 3 -64 25 -145 39 -145 5 0 7 -7 4 -15 -4 -8 1 -17 10 -21 9 -3 14 -10 11 -14 -6 -10 69 -78 101 -90 33 -13 109 -13 154 0 31 9 81 49 118 94 19 23 27 85 27 199 0 84 2 97 17 97 17 0 52 -56 43 -70 -2 -4 9 -22 25 -40 34 -38 37 -48 14 -57 -23 -8 -13 -74 21 -137 31 -58 25 -68 -39 -68 -40 -1 -52 -7 -91 -44 -48 -45 -111 -82 -160 -94 -50 -13 75 -12 137 1 67 14 160 58 217 104 33 26 39 35 24 35 -27 0 -63 36 -63 65 0 13 11 36 23 52 13 15 27 41 31 56 10 40 46 54 102 39 43 -12 47 -11 64 10 10 12 20 41 23 63 3 22 8 48 12 58 6 13 2 17 -18 17 -22 0 -26 -6 -31 -45 l-7 -45 -63 0 c-50 0 -67 4 -81 20 -10 11 -14 20 -8 20 24 0 53 39 53 70 l0 33 -30 -32 c-17 -17 -37 -31 -44 -31 -8 0 -21 -2 -29 -6 -8 -3 -30 10 -51 30 -53 52 -49 98 14 140 l24 16 -27 0 c-16 0 -37 -5 -49 -11 -25 -14 -36 -3 -20 21 23 38 -23 35 -65 -3 -33 -29 -38 -16 -13 33 31 60 32 142 3 172 l-23 22 0 -43z m-11 -241 l28 0 6 -131 c5 -126 -1 -187 -17 -161 -4 7 -23 12 -42 12 -28 0 -34 -4 -34 -22 0 -17 3 -19 11 -11 9 9 17 6 31 -12 11 -14 16 -29 13 -35 -3 -5 1 -10 10 -10 13 0 14 -2 3 -14 -7 -8 -14 -10 -16 -5 -2 4 -12 3 -23 -4 -17 -10 -23 -9 -35 7 -13 19 -14 17 -14 -16 0 -27 5 -38 18 -41 33 -7 -70 -28 -109 -22 -42 7 -76 35 -42 35 27 0 43 19 43 52 0 24 4 28 30 28 23 0 30 4 30 20 0 13 7 20 20 20 17 0 20 7 20 40 0 48 -25 56 -35 11 -8 -39 -33 -60 -46 -40 -15 24 -10 58 11 71 29 19 24 28 -14 28 -32 0 -35 -3 -38 -32 -2 -20 -9 -34 -18 -35 -68 -8 -90 -15 -90 -28 0 -8 -6 -15 -14 -15 -22 0 -31 79 -16 139 6 27 10 62 9 78 -4 39 7 53 45 53 25 0 35 6 43 23 10 21 21 25 84 31 41 3 83 13 94 20 18 12 20 11 23 -10 3 -19 9 -24 31 -24z m-194 -327 c11 -7 14 -13 8 -13 -6 0 -13 -9 -16 -20 -7 -26 -36 -37 -48 -19 -10 16 -12 63 -3 72 7 7 31 -1 59 -20z"></path><path id="p1FUPXLn7L" d="M140 883 c-8 -16 -16 -31 -18 -35 -2 -5 8 -8 22 -8 23 0 26 4 26 35 0 42 -12 45 -30 8z"></path><path id="p4iEygJAO" d="M1105 899 c-11 -17 -2 -18 19 -3 17 12 17 14 4 14 -9 0 -20 -5 -23 -11z"></path><path id="psT1skSvy" d="M564 851 c15 -16 21 -18 37 -8 29 18 23 27 -18 27 -35 0 -36 -1 -19 -19z"></path><path id="pqGUyK28g" d="M317 803 c-15 -14 -6 -53 14 -63 23 -13 49 -7 49 11 0 9 -3 9 -14 0 -24 -20 -49 -2 -42 30 6 30 4 34 -7 22z"></path><path id="pmUVMmd62" d="M970 752 c0 -11 41 -34 48 -27 4 4 -2 13 -12 21 -22 15 -36 18 -36 6z"></path><path id="pEM9Bllmd" d="M90 675 c0 -38 3 -45 20 -45 17 0 20 7 20 45 0 38 -3 45 -20 45 -17 0 -20 -7 -20 -45z"></path><path id="p5hb1yHbA" d="M961 644 c-29 -20 -31 -24 -13 -24 12 0 33 11 48 25 34 32 10 31 -35 -1z"></path><path id="phuiYEeoO" d="M1084 406 c-3 -8 0 -24 6 -36 10 -18 14 -19 28 -8 29 22 32 33 15 46 -22 16 -42 15 -49 -2z"></path></g></g><g id="l2J5KuAD9L9u9zZu0w7zzaG" fill="rgb(196,191,213)" style="transform: none;"><g><path id="pHJPjVcUQ" d="M535 1207 c-83 -49 -85 -51 -85 -87 0 -19 7 -53 15 -75 8 -22 14 -61 15 -87 0 -27 4 -48 10 -48 5 0 28 -17 51 -37 l41 -37 34 19 c24 13 34 25 34 42 0 20 -5 23 -34 23 -28 0 -38 6 -53 33 -31 52 -34 77 -12 108 10 15 19 32 19 37 0 6 6 13 13 15 6 3 2 6 -10 6 -16 1 -20 6 -16 20 3 11 11 22 19 25 8 3 14 17 14 31 0 28 -21 33 -55 12z"></path><path id="pwpxZOh7s" d="M720 1193 c0 -16 6 -35 13 -42 10 -11 9 -14 -1 -18 -9 -4 5 -24 41 -58 37 -35 59 -66 68 -94 8 -26 18 -41 29 -41 25 0 39 -20 34 -49 -5 -24 -2 -26 33 -30 83 -8 86 -7 93 20 9 31 5 38 -37 67 -33 23 -35 33 -15 69 10 18 8 27 -11 57 -23 37 -105 80 -132 70 -19 -8 -19 -38 0 -54 19 -16 19 -50 0 -50 -23 0 -39 40 -45 110 -5 65 -5 65 -37 68 -30 3 -33 1 -33 -25z m204 -159 c4 -11 0 -15 -16 -12 -12 2 -23 9 -26 16 -6 18 35 15 42 -4z"></path><path id="pANmO5SVI" d="M259 1046 c-14 -19 -14 -22 0 -38 9 -9 35 -22 59 -30 33 -10 42 -18 42 -35 0 -20 5 -23 35 -23 31 0 35 3 40 34 4 19 4 43 1 54 -7 21 -36 38 -36 21 0 -6 -4 -8 -9 -4 -5 3 -12 1 -15 -4 -3 -5 -15 -7 -26 -4 -18 5 -24 15 -21 36 0 4 -2 8 -6 8 -37 6 -51 3 -64 -15z"></path><path id="poeTeHrYo" d="M626 1054 c-11 -28 -6 -34 14 -17 11 10 20 21 20 25 0 15 -28 8 -34 -8z"></path><path id="p18uUFzFBU" d="M707 942 c-10 -10 -17 -24 -17 -31 0 -19 37 5 43 29 6 25 -5 26 -26 2z"></path><path id="pfT51M06v" d="M140 881 c-45 -89 -59 -228 -35 -346 20 -94 28 -100 90 -70 28 13 55 24 60 25 6 0 21 18 34 39 26 43 117 97 107 64 -13 -42 -23 -101 -22 -124 3 -43 18 -99 27 -99 5 0 9 -9 9 -20 0 -12 9 -30 20 -42 10 -12 17 -25 14 -30 -3 -4 0 -8 5 -8 6 0 22 -10 37 -23 14 -12 35 -25 47 -29 34 -9 118 -9 154 1 36 10 127 96 118 111 -3 6 -2 10 4 10 6 0 8 69 5 187 -3 154 -1 191 11 209 29 44 11 60 -25 24 -22 -22 -50 -27 -50 -7 0 7 9 28 19 48 25 46 32 109 12 109 -12 0 -51 -67 -51 -88 -1 -23 -90 -68 -101 -50 -6 9 -12 8 -27 -5 -27 -25 -38 -21 -69 22 -15 22 -38 45 -51 50 -32 15 -35 14 -12 -9 27 -27 35 -65 20 -100 -22 -52 -36 -36 -31 35 2 33 -22 75 -36 62 -4 -5 0 -13 10 -18 20 -12 23 -29 4 -29 -9 0 -12 -9 -9 -28 6 -42 -46 -95 -84 -86 -35 9 -79 31 -80 41 -5 53 -44 90 -44 43 0 -27 -24 -35 -60 -20 -28 12 -42 40 -20 40 6 0 10 10 10 21 0 20 4 21 50 15 43 -6 51 -4 57 11 4 10 24 36 45 58 l38 40 -32 3 c-17 2 -34 -2 -39 -9 -6 -10 -16 -10 -47 -1 -56 17 -59 16 -82 -27z m584 -211 l33 0 6 -82 c11 -134 9 -168 -8 -168 -8 0 -15 5 -15 10 0 6 -11 10 -25 10 -18 0 -25 5 -25 20 0 11 -4 20 -9 20 -5 0 -11 10 -13 23 -2 18 -10 23 -40 25 -49 4 -78 -12 -78 -43 0 -22 -4 -25 -35 -25 -19 0 -35 -4 -35 -10 0 -5 -7 -10 -15 -10 -8 0 -15 -9 -15 -20 0 -31 -17 -23 -24 11 -15 78 8 148 60 178 19 11 39 31 45 45 10 20 21 25 71 31 32 4 65 13 71 20 10 10 13 8 15 -11 3 -20 9 -24 36 -24z m-90 -186 c22 -9 20 -44 -5 -70 -16 -17 -24 -20 -33 -12 -14 13 -8 70 8 80 14 9 11 9 30 2z m-92 -91 c31 -36 -13 -104 -45 -71 -9 9 -13 19 -9 22 3 4 0 11 -8 16 -12 8 -12 10 -1 10 7 0 11 6 8 14 -6 14 5 24 29 25 6 1 18 -7 26 -16z m208 -28 c0 -7 -10 -25 -22 -40 l-22 -28 -18 23 c-24 30 -23 54 5 73 20 13 24 13 40 -1 9 -8 17 -21 17 -27z m-120 -41 c0 -14 8 -33 17 -42 16 -16 15 -17 -11 -20 -16 -2 -39 -1 -53 3 -21 5 -22 7 -8 21 8 8 15 26 15 40 0 17 5 24 20 24 15 0 20 -7 20 -26z"></path><path id="p12EDm2MxP" d="M1034 846 c-6 -15 22 -66 36 -66 4 0 10 9 13 20 3 11 12 20 21 20 21 0 20 10 -1 26 -24 18 -62 18 -69 0z"></path><path id="p14SGCfgwv" d="M850 725 c-18 -19 -21 -28 -12 -37 13 -13 42 6 42 27 0 8 12 18 28 23 l27 10 -31 1 c-20 1 -38 -7 -54 -24z"></path><path id="pky6jluDw" d="M996 742 c-3 -6 -1 -14 5 -17 15 -10 25 3 12 16 -7 7 -13 7 -17 1z"></path><path id="pLtOuRicf" d="M1060 639 c-12 -22 -35 -48 -51 -57 -68 -38 -68 -37 -26 -80 l38 -39 82 2 c45 1 87 3 93 3 7 1 12 21 12 43 1 23 6 47 11 52 21 21 13 47 -15 47 -15 0 -44 5 -65 12 -31 9 -39 16 -39 35 0 35 -17 28 -40 -18z"></path><path id="pRzB0DPFP" d="M155 410 c-12 -20 15 -50 45 -50 25 0 30 4 30 24 0 13 -7 27 -16 30 -24 9 -52 7 -59 -4z"></path><path id="p14B6gYxgY" d="M886 192 c-10 -16 3 -38 24 -39 17 -2 48 23 39 31 -11 11 -58 16 -63 8z"></path></g></g><g id="l7AFWPTKOFaKcXM7Vy2Tjqk" fill="rgb(177,171,202)" style="transform: none;"><g><path id="pq8vKUoD8" d="M592 1223 c-21 -4 -84 -53 -68 -53 4 0 -4 -14 -19 -32 -24 -29 -26 -37 -20 -78 4 -25 9 -69 10 -98 3 -49 6 -55 43 -82 33 -24 46 -28 69 -21 49 14 94 42 90 54 -4 13 -68 11 -77 -2 -3 -4 -16 -4 -30 0 -14 4 -22 7 -17 8 15 2 -24 61 -41 61 -11 0 -13 3 -6 8 7 4 14 25 15 47 4 44 35 81 76 91 21 6 23 11 18 35 -6 26 -4 29 19 29 19 0 25 -6 28 -27 2 -19 14 -33 46 -50 l42 -24 0 39 c0 59 -19 89 -60 96 -38 6 -82 6 -118 -1z"></path><path id="pUarQq0Mw" d="M246 1031 c-19 -21 -14 -61 8 -61 13 0 46 -31 46 -43 0 -9 -53 -9 -74 -1 -9 3 -16 17 -16 30 0 13 -4 24 -8 24 -12 0 -55 -84 -45 -87 27 -10 57 -30 61 -40 2 -9 -11 -13 -45 -13 l-49 0 -12 -45 c-11 -41 -16 -85 -9 -85 1 0 26 -9 56 -18 l54 -18 -56 -25 c-44 -19 -57 -29 -57 -46 0 -18 8 -24 37 -29 34 -6 39 -4 66 30 23 29 32 34 43 25 11 -9 20 -7 40 6 24 16 25 17 7 30 -10 8 -29 15 -42 15 -20 0 -22 3 -13 12 7 7 12 22 12 35 0 18 -6 23 -24 23 -45 0 -86 13 -86 26 0 10 15 14 54 14 41 0 55 4 60 17 4 10 1 20 -9 25 -23 14 -18 25 15 32 17 3 40 14 52 25 11 11 34 23 49 26 29 7 49 30 49 58 0 10 -21 22 -56 33 -31 9 -58 23 -61 31 -7 19 -27 16 -47 -6z"></path><path id="p19Kz8taBs" d="M844 977 c6 -18 21 -45 34 -61 12 -16 22 -34 22 -41 0 -8 9 -10 25 -7 41 7 34 56 -15 104 -23 21 -49 38 -59 38 -17 0 -17 -4 -7 -33z"></path><path id="p15QjuEs9k" d="M747 842 c-10 -10 -17 -24 -17 -30 0 -6 -8 -13 -19 -17 -10 -3 -33 -21 -50 -41 -26 -29 -35 -33 -47 -23 -11 9 -18 8 -32 -5 -17 -15 -19 -14 -32 9 -7 14 -16 25 -20 25 -4 0 -13 -21 -21 -47 -11 -37 -23 -54 -51 -72 -52 -34 -72 -89 -66 -183 4 -53 12 -88 32 -126 23 -46 35 -57 82 -78 74 -33 224 -32 224 1 0 7 7 16 16 19 8 3 24 27 36 53 20 44 21 59 15 211 -4 90 -9 168 -12 173 -3 4 -17 3 -30 -3 -14 -6 -28 -9 -31 -5 -3 3 6 38 21 77 29 75 29 92 2 62z m-87 -206 c6 -8 25 -16 43 -18 35 -3 40 -16 52 -117 l7 -61 -30 0 c-26 0 -31 5 -37 30 -5 25 -12 30 -35 30 l-28 0 15 -31 c13 -25 13 -35 3 -54 -16 -30 -34 -37 -65 -25 -16 6 -23 15 -19 25 3 8 11 15 16 15 6 0 8 11 5 25 -3 18 1 29 14 36 30 16 22 29 -17 29 -31 0 -37 -4 -47 -30 -9 -23 -18 -30 -38 -30 -15 0 -34 -7 -43 -15 -22 -22 -26 -19 -26 19 0 55 16 83 64 111 24 14 47 32 50 40 3 9 18 15 36 15 16 0 30 5 30 10 0 15 36 12 50 -4z m-109 -236 c15 0 10 -67 -7 -84 -19 -20 -33 -20 -59 0 -17 13 -18 16 -5 24 13 8 12 10 -2 10 -10 0 -18 5 -18 10 0 6 7 10 16 10 11 0 14 6 9 20 -5 14 -2 20 9 20 9 0 16 5 16 11 0 6 7 3 16 -5 8 -9 20 -16 25 -16z m182 -4 c32 -25 14 -96 -24 -96 -11 0 -26 6 -33 13 -18 18 -12 68 9 83 23 17 25 17 48 0z m-111 -86 c4 -24 1 -30 -13 -30 -16 0 -17 4 -8 30 6 17 12 30 14 30 1 0 5 -13 7 -30z"></path><path id="p5Gbj1kQ0" d="M1154 843 c-9 -15 -14 -15 -42 -4 -59 25 -79 -7 -46 -71 19 -36 13 -126 -8 -139 -7 -4 -10 -10 -7 -13 14 -14 144 -54 147 -45 2 5 10 9 19 9 12 0 14 15 10 88 -8 154 -39 229 -73 175z"></path><path id="pibb7biZ" d="M360 831 c0 -6 11 -16 25 -21 14 -5 31 -23 38 -38 7 -16 18 -27 25 -25 16 6 16 44 -1 66 -15 21 -87 36 -87 18z"></path></g></g><g id="lBgI1r9Fm93N6rcG3EEwT0" fill="rgb(159,153,184)" style="transform: none;"><g><path id="pztfaRuRr" d="M617 1223 c-23 -4 -26 -8 -23 -29 3 -13 1 -24 -4 -24 -4 0 -7 -8 -6 -17 1 -15 14 -19 71 -24 39 -3 72 -5 74 -3 2 2 -1 15 -7 29 -6 14 -8 25 -3 25 7 0 4 38 -3 40 -15 5 -78 6 -99 3z"></path><path id="p15JX7K1KY" d="M239 1027 c-23 -17 -69 -87 -69 -104 0 -24 62 -43 111 -35 35 6 46 13 53 35 8 22 6 31 -14 52 -13 14 -29 25 -35 25 -7 0 -16 9 -21 19 -7 16 -12 18 -25 8z"></path><path id="pAsyUrb4s" d="M727 982 c-4 -22 -17 -38 -37 -50 -35 -20 -47 -42 -22 -42 39 0 79 62 70 107 -3 12 -6 7 -11 -15z"></path><path id="p14P2qf6by" d="M844 981 c3 -4 8 -35 11 -67 3 -32 7 -59 8 -60 1 0 17 3 35 8 45 12 44 49 -4 94 -32 31 -63 46 -50 25z"></path><path id="puNJHM3VR" d="M1105 900 c-5 -9 -1 -10 12 -6 29 9 46 -16 38 -54 -7 -31 5 -39 34 -21 23 14 -18 85 -51 89 -15 2 -29 -2 -33 -8z"></path><path id="piS7VxlZf" d="M116 810 c-12 -64 -8 -77 25 -84 17 -3 49 -6 70 -6 39 0 39 0 39 39 0 22 2 45 5 53 4 10 -8 12 -56 10 -40 -3 -64 0 -69 8 -4 7 -10 -1 -14 -20z"></path><path id="ptV5fXEBM" d="M330 818 c-11 -12 -20 -27 -20 -32 0 -6 9 0 19 13 l19 25 46 -18 c26 -10 50 -15 53 -12 4 3 -1 6 -10 6 -10 0 -14 5 -11 14 4 11 0 13 -15 9 -12 -3 -21 -1 -21 6 0 19 -38 12 -60 -11z"></path><path id="p9UWECDIG" d="M1086 832 c-3 -5 8 -16 25 -26 16 -9 29 -12 29 -7 0 6 -7 11 -15 11 -8 0 -15 7 -15 15 0 16 -15 20 -24 7z"></path><path id="polD164mj" d="M640 705 c-13 -14 -32 -25 -42 -25 -10 0 -18 -5 -18 -11 0 -7 -11 -8 -29 -4 -24 5 -30 2 -36 -14 -3 -11 -26 -32 -51 -46 -25 -15 -49 -38 -55 -51 -12 -34 -12 -134 2 -172 12 -36 39 -51 39 -22 0 32 48 73 77 65 19 -4 26 -1 30 15 3 11 13 20 22 20 14 0 14 2 1 10 -11 7 -9 11 14 20 36 13 63 -7 72 -57 6 -31 9 -34 34 -28 22 5 31 1 48 -22 11 -15 24 -25 28 -20 23 22 10 238 -17 288 -8 16 -13 17 -28 7 -26 -16 -51 5 -51 43 0 36 -10 36 -40 4z m56 -167 c31 -33 53 -88 35 -88 -5 0 -12 11 -15 25 -12 49 -40 65 -110 65 -63 0 -65 -1 -86 -35 -12 -19 -25 -35 -30 -35 -5 0 -15 -3 -24 -6 -20 -8 -21 14 -1 40 16 22 128 65 170 65 22 1 39 -8 61 -31z"></path><path id="px3t4FBRs" d="M603 372 c-13 -2 -25 -15 -32 -33 -7 -19 -21 -33 -41 -40 -40 -14 -38 -25 8 -40 48 -16 121 -16 151 0 l25 14 -35 29 c-22 19 -30 31 -21 35 6 2 12 8 12 12 0 12 -43 27 -67 23z"></path></g></g><g id="l65AD9iPFAKLuRtZ5GQ4WZF" fill="rgb(148,140,176)" style="transform: none;"><g><path id="pAjCMbJ76" d="M215 952 c-12 -13 -3 -41 15 -47 21 -7 60 2 60 13 -1 23 -59 49 -75 34z"></path><path id="p9lNzxVei" d="M220 790 c0 -11 7 -20 15 -20 8 0 15 9 15 20 0 11 -7 20 -15 20 -8 0 -15 -9 -15 -20z"></path><path id="pPCF38Bct" d="M140 778 c0 -19 -2 -20 -11 -8 -9 13 -10 13 -6 0 2 -8 12 -17 22 -19 13 -2 16 1 12 14 -5 10 -3 14 4 9 7 -4 10 -1 7 6 -8 24 -28 23 -28 -2z"></path><path id="pHwOroFol" d="M522 579 c-41 -15 -80 -36 -87 -46 -16 -20 -20 -110 -6 -132 7 -10 11 -9 22 7 8 10 28 22 46 26 22 5 39 19 53 42 18 28 28 34 56 34 38 0 70 -26 80 -64 4 -19 14 -25 41 -28 42 -5 48 5 39 69 -4 33 -15 54 -38 78 -48 47 -109 51 -206 14z"></path><path id="pOtXB0NcY" d="M593 338 c-6 -7 -15 -23 -22 -35 -10 -20 -8 -23 24 -32 19 -5 44 -7 55 -4 21 6 21 6 2 27 -10 11 -22 29 -25 39 -7 20 -21 22 -34 5z"></path></g></g></svg>