<svg class="img-fluid" id="outputsvg" xmlns="http://www.w3.org/2000/svg" style="transform: none; transform-origin: 50% 50%; cursor: move; max-height: 395.86px;" width="132" height="132" viewBox="0 0 1320 1320"><g id="l6cYcCyqZ2fJqGQAxFOsXmw" fill="rgb(49,24,0)" style="transform: none;"><g><path id="p183hv3ETt" d="M500 1226 c0 -37 12 -46 61 -46 26 0 29 3 29 34 0 37 -12 46 -61 46 -26 0 -29 -3 -29 -34z"></path><path id="pId7MZLh7" d="M786 1214 c-11 -81 -10 -84 28 -84 32 0 34 2 40 46 11 81 10 84 -28 84 -32 0 -34 -2 -40 -46z"></path><path id="ptvq9Vpfn" d="M293 1217 c-43 -29 -42 -47 2 -47 33 0 35 2 35 35 0 19 -1 35 -2 34 -2 0 -18 -10 -35 -22z"></path><path id="pqG1KG7UT" d="M1040 1170 c0 -28 3 -30 35 -30 43 0 44 10 5 38 -38 28 -40 28 -40 -8z"></path><path id="pXeeV7Bjg" d="M390 1145 c0 -33 2 -35 35 -35 33 0 35 2 35 35 0 33 -2 35 -35 35 -33 0 -35 -2 -35 -35z"></path><path id="pdJhK458P" d="M960 1145 c0 -33 2 -35 35 -35 33 0 35 2 35 35 0 33 -2 35 -35 35 -33 0 -35 -2 -35 -35z"></path><path id="pKT52443w" d="M183 1033 c-7 -2 -13 -20 -13 -39 0 -26 4 -34 18 -34 9 0 41 -3 70 -6 l52 -7 0 37 c0 32 -3 36 -25 36 -14 0 -25 5 -25 10 0 10 -55 13 -77 3z"></path><path id="pyHERAHae" d="M33 885 c-11 -34 -11 -35 18 -35 24 0 29 -4 29 -25 0 -22 4 -25 35 -25 33 0 35 2 35 35 0 33 -2 35 -35 35 -31 0 -35 3 -35 25 0 40 -34 33 -47 -10z"></path><path id="pbQSln6Bl" d="M480 636 c0 -32 -3 -36 -25 -36 -22 0 -25 -4 -25 -34 0 -30 4 -34 31 -40 17 -3 47 -6 65 -6 31 0 34 2 34 31 l0 32 61 -7 c34 -3 84 -6 110 -6 46 0 49 -2 49 -25 0 -28 16 -31 104 -19 44 6 46 8 46 40 0 27 -4 34 -20 34 -16 0 -20 7 -20 36 l0 36 -42 -7 c-60 -10 -242 -10 -310 0 l-58 8 0 -37z"></path><path id="pnOeHBndL" d="M1110 535 c0 -33 2 -35 35 -35 33 0 35 2 35 35 0 33 -2 35 -35 35 -33 0 -35 -2 -35 -35z"></path><path id="psvVw7bHB" d="M160 485 c0 -33 2 -35 35 -35 33 0 35 2 35 35 0 33 -2 35 -35 35 -33 0 -35 -2 -35 -35z"></path><path id="p66B0nDhL" d="M1180 445 c0 -33 2 -35 35 -35 33 0 35 2 35 35 0 33 -2 35 -35 35 -33 0 -35 -2 -35 -35z"></path><path id="p190AVYm03" d="M120 405 c0 -33 2 -35 35 -35 33 0 35 2 35 35 0 33 -2 35 -35 35 -33 0 -35 -2 -35 -35z"></path><path id="pGmEpw1cF" d="M1200 325 c0 -43 10 -44 33 -6 22 38 22 41 -8 41 -22 0 -25 -4 -25 -35z"></path><path id="p0DiNU12T" d="M1080 285 c0 -33 2 -35 35 -35 33 0 35 2 35 35 0 33 -2 35 -35 35 -33 0 -35 -2 -35 -35z"></path><path id="pxZt5qxtE" d="M980 225 c0 -33 2 -35 35 -35 33 0 35 2 35 35 0 33 -2 35 -35 35 -33 0 -35 -2 -35 -35z"></path><path id="pWKVfiGUx" d="M880 115 c0 -33 2 -35 35 -35 33 0 35 2 35 35 0 33 -2 35 -35 35 -33 0 -35 -2 -35 -35z"></path></g></g><g id="lQiFAFMSwoNYN8EsIGXIdD" fill="rgb(68,43,3)" style="transform: none;"><g><path id="pufg7P6DI" d="M490 1304 c-76 -20 -202 -83 -194 -96 4 -6 2 -8 -4 -5 -41 26 -268 -257 -248 -310 3 -8 2 -12 -3 -9 -9 6 -20 -25 -27 -74 -2 -14 -1 -55 2 -92 5 -53 10 -68 23 -69 9 -1 5 -4 -9 -8 -22 -6 -25 -12 -25 -56 0 -44 3 -50 23 -53 13 -2 22 2 23 10 0 7 4 3 9 -9 12 -30 1 -63 -21 -63 -17 0 -17 -3 -4 -39 22 -64 45 -101 61 -101 10 0 13 -6 9 -19 -4 -12 5 -29 25 -51 16 -18 30 -36 30 -40 0 -22 157 -140 177 -133 7 3 20 -3 29 -11 8 -9 24 -16 34 -16 10 0 20 -6 23 -13 9 -23 87 -37 190 -34 53 1 97 -2 97 -7 0 -8 56 -4 109 8 50 11 91 28 91 37 0 5 11 9 24 9 33 0 166 91 216 148 74 83 141 211 157 297 14 80 15 118 2 126 -11 7 -12 11 -1 17 9 6 12 28 10 73 -3 58 -5 64 -25 67 -29 4 -30 22 -2 22 23 0 22 2 -13 96 -31 86 -159 264 -189 264 -4 0 -20 11 -35 25 -67 62 -240 123 -251 89 -2 -6 -28 -8 -63 -6 l-60 4 0 -36 c0 -31 3 -36 23 -36 51 0 66 -11 69 -49 3 -34 5 -36 41 -39 22 -2 37 1 37 8 0 23 44 28 72 9 14 -11 33 -19 42 -19 9 0 16 -7 16 -15 0 -8 4 -15 9 -15 12 0 96 -88 127 -133 17 -25 24 -50 24 -82 0 -40 4 -48 29 -62 31 -18 41 -59 41 -169 l0 -52 -45 -6 c-43 -7 -45 -9 -45 -42 0 -29 3 -34 24 -34 33 0 36 -8 23 -60 -8 -28 -26 -58 -49 -81 -21 -20 -38 -44 -38 -52 0 -10 -16 -21 -42 -29 -33 -10 -44 -19 -55 -48 -12 -30 -27 -41 -101 -77 -82 -39 -90 -41 -132 -32 -25 6 -62 13 -82 16 -33 4 -38 2 -38 -15 0 -18 -5 -20 -42 -15 -72 7 -221 88 -292 157 -35 34 -66 68 -70 76 -4 8 -13 26 -21 40 -12 21 -12 27 0 41 8 8 15 30 15 47 0 27 -3 31 -32 34 -24 2 -34 9 -36 23 -2 11 -7 29 -13 40 -12 26 -28 145 -19 145 4 0 16 36 26 80 11 44 22 80 27 80 4 0 7 6 7 13 0 6 11 25 25 42 22 25 29 28 45 17 11 -7 36 -12 55 -12 33 0 35 2 35 31 0 18 -7 37 -15 43 -8 6 -18 26 -21 44 l-6 32 50 0 c71 0 102 14 102 44 0 22 7 27 58 41 31 8 71 20 88 25 17 6 38 10 47 10 13 0 17 9 17 35 0 35 0 35 -45 35 -38 0 -45 3 -45 20 0 23 -6 24 -80 4z m-99 -111 c12 -16 12 -17 -1 -7 -8 7 -24 14 -35 17 -19 4 -19 5 1 6 12 0 28 -7 35 -16z"></path><path id="p16VRXeoQs" d="M470 640 c0 -38 -2 -40 -30 -40 -27 0 -30 -3 -30 -34 0 -39 4 -42 93 -51 l67 -7 0 33 0 34 78 -2 c42 -1 80 -2 85 -2 4 -1 7 -15 7 -32 l0 -32 73 7 c39 4 89 10 110 13 35 5 37 4 37 -21 0 -23 4 -26 35 -26 33 0 35 2 35 35 0 32 -2 35 -30 35 -25 0 -30 4 -30 25 0 22 -4 25 -35 25 -34 0 -35 1 -35 36 l0 37 -47 -7 c-208 -29 -313 -29 -313 0 0 9 -12 14 -35 14 -34 0 -35 -1 -35 -40z m173 -20 c54 -4 101 -11 104 -14 16 -15 -199 8 -225 24 -15 10 -15 11 3 5 11 -4 64 -11 118 -15z m207 5 c-7 -9 -27 -15 -49 -14 l-36 1 38 8 c20 4 40 10 44 13 13 13 15 7 3 -8z m-330 -65 c13 -9 13 -10 0 -9 -8 1 -26 5 -40 9 l-25 8 25 1 c14 0 32 -4 40 -9z m379 6 c-2 -2 -24 -6 -49 -9 -30 -4 -38 -3 -25 3 19 8 83 14 74 6z"></path><path id="p107RMixHN" d="M300 455 c0 -33 2 -35 35 -35 33 0 35 2 35 35 0 33 -2 35 -35 35 -33 0 -35 -2 -35 -35z"></path><path id="paS4rYtM2" d="M930 395 c0 -33 2 -35 35 -35 33 0 35 2 35 35 0 33 -2 35 -35 35 -33 0 -35 -2 -35 -35z"></path></g></g><g id="l2isjHumUxa04ipRAQYGzV0" fill="rgb(80,56,16)" style="transform: none;"><g><path id="pIcvBlUjI" d="M501 1308 c-33 -7 -41 -12 -30 -19 10 -7 5 -8 -13 -3 -22 5 -28 3 -28 -10 0 -9 -5 -16 -11 -16 -5 0 -7 5 -4 10 9 15 -1 12 -53 -14 -113 -57 -271 -207 -257 -244 3 -7 0 -10 -5 -7 -5 3 -21 -17 -35 -44 -29 -58 -31 -68 -11 -51 13 10 13 8 3 -14 -6 -13 -15 -20 -18 -15 -3 6 -12 -11 -20 -38 -29 -99 -11 -428 22 -407 5 3 6 -2 3 -10 -13 -33 135 -255 165 -248 7 1 10 -1 7 -6 -8 -13 51 -53 68 -46 9 3 16 1 16 -6 0 -6 -6 -8 -12 -5 -7 4 -4 -1 7 -10 29 -24 114 -66 139 -69 11 -1 32 -9 46 -17 34 -19 324 -20 358 -1 13 7 33 15 45 17 33 7 97 37 97 47 0 4 3 7 8 6 11 -4 82 42 82 53 0 5 6 9 13 9 19 0 117 110 117 132 0 13 4 17 13 11 6 -4 4 5 -6 21 -13 19 -16 31 -9 38 6 6 8 18 5 27 -4 13 -3 14 5 1 8 -10 8 -18 0 -27 -6 -8 -8 -17 -4 -20 4 -4 12 -1 17 7 8 11 9 9 5 -10 l-6 -25 12 25 c7 14 18 31 25 38 7 8 11 17 8 22 -3 5 -1 10 5 12 5 1 11 14 14 28 2 14 5 26 7 28 1 1 2 5 3 10 1 4 5 13 10 21 14 23 20 252 7 310 -15 72 -86 231 -102 231 -5 0 -9 6 -9 13 0 16 -109 136 -110 120 0 -6 6 -13 12 -15 8 -3 5 -9 -8 -16 -19 -10 -21 -9 -18 14 3 28 -26 64 -51 64 -8 0 -15 4 -15 9 0 6 -22 21 -50 35 -27 14 -50 23 -50 19 0 -3 -6 -1 -13 5 -44 37 -284 55 -396 30z m-39 -98 c6 0 8 -3 5 -6 -9 -9 -57 24 -57 38 0 7 9 2 20 -10 12 -12 26 -22 32 -22z m105 16 c-12 -13 -82 -15 -94 -2 -4 5 2 5 16 1 13 -4 21 -3 18 1 -3 5 12 9 33 10 26 0 35 -3 27 -10z m298 -16 c-8 -13 18 -13 32 1 7 7 12 6 16 -4 3 -7 0 -14 -7 -14 -6 0 -25 -2 -41 -6 -17 -3 -25 -4 -18 -1 7 3 9 12 6 20 -3 8 0 14 7 14 6 0 8 -4 5 -10z m-132 -7 c49 -4 67 -10 67 -21 0 -8 6 -12 14 -9 10 4 13 1 9 -8 -3 -8 -9 -12 -14 -9 -5 3 -9 0 -9 -7 0 -8 17 -10 60 -5 40 5 60 3 60 -4 0 -5 7 -10 15 -10 8 0 15 -4 15 -10 0 -5 11 -12 24 -16 13 -3 33 -17 45 -30 11 -13 28 -24 36 -24 8 0 15 -5 15 -10 0 -11 9 -24 41 -59 11 -12 18 -43 21 -86 3 -52 8 -70 24 -81 55 -38 61 -54 56 -152 -3 -48 -8 -65 -20 -69 -32 -12 -43 -45 -14 -42 34 3 49 -1 49 -15 0 -11 -5 -12 -18 -5 -29 15 -49 11 -49 -11 0 -11 5 -20 11 -20 17 0 3 -57 -21 -82 -11 -12 -20 -28 -20 -35 0 -7 -4 -13 -9 -13 -5 0 -12 -11 -15 -25 -4 -17 -19 -30 -46 -41 -22 -9 -40 -20 -40 -25 0 -5 -9 -9 -20 -9 -16 0 -20 -7 -20 -30 0 -20 -5 -30 -15 -30 -7 0 -18 -6 -22 -13 -14 -23 -57 -47 -83 -47 -14 0 -30 -4 -36 -10 -6 -6 -33 -6 -74 0 -96 14 -130 13 -130 -5 0 -19 -41 -19 -95 0 -22 8 -48 15 -59 15 -10 0 -26 8 -35 19 -9 10 -31 22 -49 25 -17 4 -32 12 -32 17 0 5 -29 39 -65 75 -36 36 -65 72 -65 80 0 8 -7 14 -15 14 -11 0 -13 10 -8 53 l6 52 -23 -20 c-18 -17 -21 -27 -17 -63 2 -23 12 -51 21 -61 23 -25 20 -35 -4 -13 -12 11 -23 38 -26 66 -6 42 -4 50 19 74 l26 28 -29 34 c-17 19 -30 41 -30 48 0 6 -4 12 -10 12 -5 0 -10 19 -10 42 0 72 21 160 58 241 34 73 37 77 69 77 18 0 33 -4 33 -10 0 -5 16 -10 35 -10 33 0 35 2 35 35 0 28 -4 35 -20 35 -16 0 -20 7 -20 35 0 30 4 36 28 41 15 3 48 15 75 27 36 16 47 26 47 43 0 16 9 25 32 33 22 8 34 8 36 1 2 -5 19 -10 38 -10 27 0 34 4 34 20 0 23 17 24 133 13z m251 -12 c9 -14 -5 -42 -16 -35 -6 4 -5 10 3 15 12 8 11 11 -1 19 -9 6 -10 10 -3 10 6 0 14 -4 17 -9z m-728 -26 c-3 -8 -1 -15 5 -15 15 0 1 -18 -24 -30 -22 -11 -22 -11 -2 6 14 12 16 18 7 21 -10 4 -10 8 -1 19 15 18 23 18 15 -1z m109 -14 c17 -11 17 -12 2 -7 -10 3 -27 6 -38 6 -10 0 -19 4 -19 8 0 12 32 8 55 -7z m735 -93 c0 -4 6 -5 13 -2 8 3 13 -3 13 -16 0 -11 -1 -20 -1 -20 -1 0 -17 16 -36 36 -23 24 -26 32 -11 23 12 -8 22 -17 22 -21z m-847 5 c-3 -7 1 -13 8 -13 7 0 10 -2 7 -5 -6 -7 -58 15 -58 24 0 3 11 6 24 6 15 0 22 -5 19 -12z m-30 -31 c-13 -2 -23 -8 -23 -14 0 -6 -3 -8 -6 -5 -12 12 17 36 34 29 14 -6 13 -7 -5 -10z m951 -46 c1 -20 0 -36 -1 -36 -1 0 -11 13 -23 29 -13 19 -17 32 -10 36 6 4 9 3 8 -2 -2 -4 2 -9 7 -10 6 -1 8 6 7 15 -2 9 -1 14 3 10 4 -4 8 -23 9 -42z m-965 19 c11 3 29 1 38 -5 15 -9 14 -9 -7 -5 -30 7 -61 -16 -85 -61 l-15 -29 3 32 c1 17 4 29 6 27 6 -5 31 16 31 27 0 5 -8 5 -17 2 -15 -6 -16 -5 -3 9 9 10 17 12 21 6 4 -6 16 -7 28 -3z m1040 -289 c1 -57 -5 -40 -12 29 -3 37 -2 51 3 35 4 -14 8 -43 9 -64z m-1190 27 c-1 -37 -1 -37 -8 -8 -7 28 -5 45 5 45 2 0 3 -17 3 -37z m29 -99 c-3 -27 -4 -26 -9 8 -3 22 -1 34 4 29 5 -5 7 -21 5 -37z m12 -67 c0 -13 5 -28 11 -34 7 -7 7 -13 1 -17 -5 -3 -14 12 -20 34 -5 23 -6 40 -1 40 5 0 9 -10 9 -23z m1120 -127 c-17 -32 -20 -20 -7 23 9 28 13 33 15 18 2 -11 -2 -30 -8 -41z m-45 -98 c-6 -4 -23 -22 -38 -40 -15 -19 -27 -29 -27 -22 0 13 63 80 70 74 2 -3 0 -8 -5 -12z m-995 -53 c0 -4 -8 -13 -17 -20 -15 -11 -16 -11 -6 1 10 11 9 18 -5 33 -16 19 -16 19 6 6 12 -8 22 -17 22 -20z m1006 -7 c1 -12 -2 -19 -7 -16 -4 2 -6 11 -2 19 3 8 0 15 -6 15 -6 0 -11 -4 -11 -10 0 -5 -5 -10 -11 -10 -8 0 -7 5 1 15 17 20 35 14 36 -13z m-86 -31 c0 -5 -14 -11 -31 -15 -18 -3 -38 -14 -45 -24 -7 -9 -14 -12 -14 -6 0 18 25 34 88 53 1 1 2 -3 2 -8z m-738 -94 c38 -22 38 -22 15 -36 -21 -13 -21 -13 -7 4 14 17 13 18 -3 12 -11 -4 -16 -3 -12 3 3 6 -5 14 -19 20 -14 5 -26 12 -26 15 0 10 15 5 52 -18z m583 -27 c-26 -17 -27 -20 -10 -21 19 -1 19 -2 1 -6 -15 -4 -16 -7 -5 -14 11 -7 11 -9 -3 -9 -10 0 -18 7 -18 16 0 11 -5 14 -17 10 -25 -10 -10 2 29 24 44 25 61 25 23 0z m-496 -42 c-38 -7 -73 4 -44 15 9 4 13 11 10 17 -4 6 10 2 30 -7 l37 -18 -33 -7z m138 -20 c14 -12 8 -28 -10 -28 -7 0 -6 4 3 10 11 7 5 8 -20 4 -26 -4 -31 -3 -20 5 12 9 11 11 -7 11 -12 0 -24 4 -27 8 -7 11 66 2 81 -10z m198 2 c-3 -5 1 -10 10 -10 10 0 13 5 9 12 -4 7 -3 8 5 4 19 -12 1 -28 -25 -22 -15 4 -24 2 -24 -5 0 -7 -2 -10 -5 -7 -10 9 7 38 22 38 8 0 11 -4 8 -10z m-115 -9 c0 -5 8 -11 18 -13 14 -3 13 -5 -5 -10 -13 -3 -21 -2 -20 5 1 5 -9 14 -23 18 l-25 7 28 1 c15 1 27 -3 27 -8z"></path><path id="p1HI9lnVr7" d="M974 655 l-6 -45 -44 0 c-43 0 -44 1 -44 31 l0 32 -47 -6 c-26 -3 -49 -10 -51 -16 -2 -6 -12 -11 -23 -11 -10 0 -19 -5 -19 -11 0 -12 78 -8 115 6 16 6 18 5 8 -5 -6 -7 -35 -16 -63 -21 -60 -9 -80 -27 -80 -69 l0 -32 95 4 c84 3 95 1 95 -14 0 -10 9 -22 20 -28 11 -6 20 -20 20 -30 0 -13 -7 -20 -20 -20 -16 0 -20 -7 -20 -35 0 -34 1 -35 40 -35 38 0 40 2 40 30 0 19 5 30 14 30 11 0 16 19 20 68 3 37 10 92 16 123 17 92 15 99 -24 99 -33 0 -35 -2 -42 -45z m-69 -96 c-58 -12 -114 -11 -95 1 8 5 42 9 75 9 58 -1 59 -2 20 -10z"></path><path id="pO04GVyIZ" d="M498 664 c-5 -4 -8 -18 -8 -31 0 -21 -5 -23 -45 -23 l-45 0 0 -44 0 -43 53 -7 c28 -3 73 -6 100 -6 46 0 47 1 47 30 0 27 3 30 30 30 45 0 39 28 -7 35 -63 10 -123 27 -123 35 0 4 17 2 38 -6 44 -16 122 -18 122 -4 0 6 -9 10 -19 10 -11 0 -21 4 -23 10 -4 12 -110 25 -120 14z m26 -100 c9 -3 16 -9 16 -13 0 -9 -87 3 -97 12 -8 9 60 9 81 1z"></path><path id="pi8PHiphR" d="M286 495 c-4 -14 -11 -25 -16 -25 -6 0 -10 -27 -10 -60 l0 -60 31 0 c22 0 39 8 55 28 13 15 24 21 24 15 0 -8 15 -13 40 -13 l40 0 0 40 c0 37 -2 40 -28 40 -20 0 -32 8 -45 30 -14 24 -25 30 -51 30 -28 0 -35 -5 -40 -25z"></path></g></g><g id="l64zJEgihN016QW8ateIk6w" fill="rgb(96,67,10)" style="transform: none;"><g><path id="p5FT9zTOn" d="M571 1231 c-8 -5 -10 -14 -5 -22 6 -11 5 -12 -7 -3 -20 16 -61 25 -53 12 5 -7 -2 -9 -19 -6 -16 3 -24 1 -20 -5 4 -6 -2 -8 -15 -5 -12 3 -21 3 -20 -1 5 -43 -4 -60 -39 -72 -21 -7 -47 -12 -58 -11 -21 1 -41 -12 -62 -38 -15 -20 4 -83 33 -105 12 -10 2 -8 -29 5 -58 24 -57 24 -57 5 0 -18 39 -35 81 -35 27 0 29 3 29 35 0 22 -6 38 -15 41 -31 12 -3 54 36 54 12 0 39 5 60 12 30 9 39 16 39 33 0 25 50 55 91 55 40 0 89 23 89 42 0 19 -34 25 -59 9z"></path><path id="pESkSp5NX" d="M700 1220 c0 -15 7 -20 25 -20 21 0 25 -5 25 -29 0 -28 3 -30 46 -37 26 -4 55 -2 69 4 24 11 65 6 65 -9 0 -5 14 -9 30 -9 23 0 30 -4 30 -20 0 -16 7 -20 30 -20 23 0 30 -4 30 -20 0 -11 7 -20 15 -20 9 0 15 -9 15 -25 0 -14 7 -28 15 -31 8 -4 15 -12 15 -20 0 -8 7 -14 15 -14 12 0 14 -10 9 -55 -6 -47 -4 -55 10 -55 9 0 16 -7 16 -15 0 -8 9 -24 20 -35 11 -11 20 -31 20 -45 0 -19 5 -25 21 -25 19 0 21 4 15 38 -11 61 -16 71 -37 77 -26 9 -39 44 -27 71 8 16 6 28 -7 47 -9 15 -14 31 -10 37 4 6 3 9 -2 8 -12 -4 -76 69 -66 74 5 3 3 4 -4 2 -6 -1 -19 6 -28 16 -10 11 -46 38 -81 61 -55 35 -69 40 -99 35 -19 -4 -41 -13 -48 -21 -8 -8 -17 -11 -21 -8 -3 3 3 12 14 20 36 25 24 40 -43 52 -81 14 -77 14 -77 -9z"></path><path id="p1CzlUQx7B" d="M134 874 c-8 -19 -17 -48 -21 -65 -5 -24 -2 -29 14 -29 14 0 23 11 31 39 25 81 5 126 -24 55z"></path><path id="pFxjhhjvZ" d="M270 821 c0 -49 9 -61 46 -61 31 0 34 3 34 29 0 49 -9 61 -46 61 -31 0 -34 -3 -34 -29z"></path><path id="p1CGC0l9j7" d="M990 746 c0 -14 -4 -27 -9 -30 -4 -3 -11 -33 -15 -66 l-7 -60 -39 0 c-38 0 -40 2 -40 30 0 28 -3 30 -35 30 -19 0 -35 -5 -35 -11 0 -7 11 -8 31 -4 21 5 29 4 25 -3 -6 -11 -38 -22 -113 -42 -40 -10 -43 -13 -43 -44 0 -30 4 -34 31 -40 51 -10 79 -7 79 8 0 8 6 17 13 19 6 3 -10 6 -38 7 l-50 2 55 18 c110 37 180 20 180 -45 0 -23 -2 -24 -20 -15 -12 6 -20 21 -20 37 0 21 -3 24 -22 19 -13 -3 -31 -6 -41 -6 -17 0 -17 -1 -3 -16 9 -8 16 -20 16 -25 0 -5 11 -9 25 -9 20 0 25 -5 25 -25 0 -16 -6 -25 -15 -25 -9 0 -15 -10 -16 -22 -1 -17 -2 -19 -6 -5 -3 12 -15 17 -39 17 -33 0 -34 -1 -34 -40 0 -39 1 -40 35 -40 19 0 35 -4 35 -10 0 -5 -9 -10 -19 -10 -11 0 -33 -8 -50 -17 -25 -14 -31 -25 -31 -50 0 -31 2 -33 35 -33 54 0 85 19 85 52 0 22 4 28 23 28 15 0 28 10 39 33 34 64 49 113 47 147 -1 19 2 44 6 55 4 11 18 48 31 82 13 34 24 78 24 97 l0 36 -50 0 c-46 0 -50 -2 -50 -24z m7 -228 c-2 -13 -4 -5 -4 17 -1 22 1 32 4 23 2 -10 2 -28 0 -40z"></path><path id="pXsG42HjS" d="M94 724 c-15 -83 9 -186 57 -237 16 -17 21 -18 36 -6 10 9 8 2 -6 -18 -26 -34 -25 -86 1 -119 51 -64 149 -159 181 -175 21 -11 35 -24 32 -29 -4 -6 1 -7 11 -3 13 5 15 3 9 -7 -5 -8 -4 -11 2 -7 6 4 35 -2 65 -13 67 -23 188 -38 188 -22 0 6 -6 12 -12 15 -7 2 -10 7 -7 11 4 4 26 2 48 -4 23 -6 46 -8 51 -5 6 3 10 1 10 -6 0 -15 66 -5 106 16 16 8 33 15 37 15 4 0 32 15 62 34 40 26 52 39 49 53 -4 14 2 23 20 31 37 16 32 32 -9 32 -28 0 -35 -4 -35 -20 0 -11 -4 -20 -10 -20 -5 0 -10 -13 -10 -29 0 -28 -3 -30 -45 -37 -28 -4 -45 -11 -45 -20 0 -16 -76 -20 -82 -4 -5 16 -198 0 -198 -17 0 -16 -29 -11 -116 23 -33 13 -68 24 -77 24 -9 0 -17 5 -17 11 0 17 -32 38 -56 39 -12 0 -24 7 -28 15 -3 8 -12 15 -19 15 -13 0 -23 19 -41 73 -3 9 -12 17 -20 17 -8 0 -17 15 -21 37 -4 21 -12 41 -18 45 -8 5 -6 8 6 8 9 0 17 5 17 10 0 6 11 10 25 10 22 0 25 4 25 35 0 34 -1 35 -39 35 -22 0 -42 -5 -44 -12 -3 -7 -6 -4 -6 8 -1 11 -10 30 -21 42 -17 18 -20 35 -20 107 0 68 -3 85 -15 85 -8 0 -17 -14 -21 -36z"></path><path id="pk6k72Ek6" d="M460 645 c0 -33 -2 -35 -35 -35 -24 0 -35 -5 -35 -15 0 -9 -9 -15 -25 -15 -20 0 -25 -5 -25 -25 0 -20 -5 -25 -24 -25 -19 0 -27 -10 -45 -51 -38 -92 -23 -159 36 -159 21 0 36 -6 39 -15 4 -10 20 -15 45 -15 28 0 39 4 39 15 0 10 11 15 35 15 32 0 35 3 35 28 0 42 -11 72 -26 72 -8 0 -14 5 -14 10 0 6 -6 10 -13 10 -16 0 -37 41 -37 70 0 15 7 20 25 20 14 0 25 -4 25 -9 0 -5 25 -13 55 -16 41 -6 56 -12 60 -26 5 -14 16 -19 41 -19 34 0 34 1 34 44 0 57 -8 76 -31 76 -22 0 -69 21 -69 31 0 4 -11 10 -25 13 -14 4 -25 11 -25 16 0 6 9 6 25 0 17 -6 25 -6 25 1 0 20 -29 39 -59 39 -29 0 -31 -3 -31 -35z m87 -89 c23 -13 25 -15 8 -16 -53 0 -125 14 -125 25 0 17 80 11 117 -9z m-211 -130 c-12 -11 -23 -16 -25 -11 -2 6 -9 14 -15 18 -7 5 -6 7 4 6 36 -4 40 0 30 29 l-10 27 18 -24 c19 -23 18 -24 -2 -45z"></path><path id="prHWHHbnq" d="M310 625 c0 -33 2 -35 35 -35 33 0 35 2 35 35 0 33 -2 35 -35 35 -33 0 -35 -2 -35 -35z"></path><path id="p1DWzCT5MY" d="M1150 575 c0 -9 -9 -15 -25 -15 -22 0 -25 -4 -25 -40 0 -39 1 -40 34 -40 19 0 38 5 41 10 3 6 15 10 26 10 10 0 19 4 19 10 0 15 -40 32 -61 27 -10 -3 -17 -2 -14 3 3 4 21 11 40 14 47 9 48 36 0 36 -24 0 -35 -5 -35 -15z"></path><path id="punjo5Q9O" d="M1183 462 c-15 -2 -26 -15 -35 -38 -6 -19 -16 -34 -20 -34 -4 0 -8 -9 -8 -20 0 -13 -7 -20 -20 -20 -14 0 -21 -9 -26 -35 -3 -20 -4 -38 -2 -41 8 -8 38 7 38 20 0 6 11 21 25 34 23 22 82 130 74 135 -2 2 -14 1 -26 -1z"></path><path id="pKQWjVgf3" d="M610 306 c0 -35 1 -36 38 -36 21 0 47 -7 58 -15 10 -8 34 -15 52 -15 30 0 32 2 32 34 0 18 -6 39 -14 45 -7 6 -47 14 -90 17 l-76 7 0 -37z"></path><path id="pePegHbAK" d="M205 282 c-6 -4 -2 -15 12 -29 13 -12 23 -18 23 -13 0 5 -7 15 -15 23 -8 8 -11 17 -8 21 9 8 0 7 -12 -2z"></path></g></g><g id="l6Q1F8y52oEBknHNzt7NfBM" fill="rgb(104,75,24)" style="transform: none;"><g><path id="pWuKginlu" d="M588 1233 c-33 -8 -20 -33 17 -33 28 0 35 4 35 20 0 20 -14 23 -52 13z"></path><path id="pHxbbRyMl" d="M800 1200 c0 -11 4 -20 10 -20 5 0 14 9 20 20 9 17 8 20 -10 20 -13 0 -20 -7 -20 -20z"></path><path id="pzCDCehz4" d="M437 1183 c-4 -3 -7 -14 -7 -24 0 -10 -8 -23 -17 -28 -15 -8 -11 -10 20 -11 36 0 37 1 37 35 0 33 -16 46 -33 28z"></path><path id="p16rJGXVlg" d="M848 1174 c-36 -19 -36 -34 1 -34 42 0 61 10 61 31 0 23 -24 24 -62 3z"></path><path id="pXAxubozP" d="M960 1125 c0 -18 5 -25 20 -25 11 0 20 -7 20 -15 0 -10 11 -15 35 -15 33 0 35 -2 35 -35 0 -33 2 -35 31 -35 l32 0 -25 33 c-28 36 -123 117 -138 117 -6 0 -10 -11 -10 -25z"></path><path id="pYdUeSgrj" d="M290 1094 c-26 -23 -28 -27 -18 -57 6 -18 20 -42 32 -55 l21 -23 -49 21 c-45 19 -51 19 -72 5 -23 -15 -44 -48 -64 -100 -9 -23 -7 -25 15 -25 16 0 25 6 25 16 0 8 7 22 15 30 8 9 15 24 15 35 0 23 25 25 46 4 9 -8 31 -15 50 -15 32 0 34 2 34 34 0 20 -6 36 -14 39 -7 3 -16 22 -18 41 -4 34 -2 36 24 36 33 0 39 25 8 33 -13 3 -31 -4 -50 -19z"></path><path id="pzgMx2J5" d="M1135 930 c-3 -16 -3 -49 0 -75 7 -43 9 -45 41 -45 19 0 34 5 34 10 0 6 -4 10 -10 10 -20 0 -41 46 -31 72 9 24 -1 58 -19 58 -4 0 -11 -13 -15 -30z"></path><path id="pPCTVsWlM" d="M300 886 c0 -8 -7 -16 -15 -20 -9 -3 -15 -19 -15 -41 0 -34 2 -35 33 -33 43 2 67 29 67 73 0 33 -2 35 -35 35 -23 0 -35 -5 -35 -14z"></path><path id="pBqeKsL40" d="M966 824 c-3 -9 -6 -58 -6 -110 l0 -94 -30 0 c-27 0 -30 3 -30 30 0 28 -2 30 -40 30 -22 0 -40 -4 -40 -10 0 -5 -11 -10 -25 -10 -19 0 -25 -5 -25 -21 0 -22 8 -23 80 -3 21 6 23 5 13 -8 -7 -8 -45 -21 -83 -28 -79 -15 -90 -25 -90 -89 0 -40 1 -41 33 -41 18 0 37 4 43 9 13 13 109 19 128 9 9 -5 16 -18 16 -30 0 -17 -2 -18 -15 -8 -21 17 -110 7 -152 -17 -26 -14 -33 -25 -33 -48 0 -29 -1 -30 -48 -30 l-47 0 4 38 c2 28 7 37 22 37 16 0 19 8 19 53 0 80 -7 96 -46 103 -19 3 -34 10 -34 15 0 4 -16 11 -35 15 -19 3 -40 13 -47 22 -11 14 -10 15 7 8 11 -4 32 -10 48 -13 23 -5 27 -2 27 16 0 19 -5 21 -60 21 -58 0 -60 -1 -60 -26 0 -24 -2 -25 -32 -19 -48 10 -48 11 -48 71 l0 54 -34 0 c-32 0 -34 -2 -40 -46 -10 -74 -7 -111 9 -124 8 -7 15 -29 15 -49 0 -20 7 -49 15 -65 13 -25 13 -27 0 -22 -8 3 -14 2 -13 -2 1 -4 -4 -20 -10 -35 -7 -16 -12 -36 -12 -45 -1 -11 -6 -8 -16 11 -13 25 -13 31 6 73 25 57 25 54 -5 54 -20 0 -25 -5 -25 -24 0 -13 -5 -26 -11 -28 -14 -5 -3 -118 12 -118 5 0 9 -6 9 -14 0 -10 16 -17 45 -22 50 -7 115 2 115 16 0 6 11 10 24 10 13 0 26 6 29 13 3 8 19 11 46 9 39 -4 41 -6 41 -37 0 -42 18 -49 107 -39 59 6 65 8 48 20 -10 8 -14 14 -8 14 6 0 16 -7 23 -15 18 -22 30 -18 30 10 0 16 6 25 15 25 8 0 15 -4 15 -10 0 -5 -4 -10 -10 -10 -5 0 -10 -16 -10 -35 0 -33 2 -35 35 -35 19 0 35 4 35 9 0 5 16 15 35 22 26 10 35 19 35 35 0 14 8 25 20 29 11 3 20 10 20 15 0 4 8 10 18 12 23 6 47 105 37 154 -3 21 -2 34 5 34 5 0 10 12 10 28 0 42 20 103 36 109 9 3 14 20 14 50 0 60 -41 113 -86 113 -20 0 -34 -6 -38 -16z m78 -137 c-9 -26 -19 -45 -23 -43 -4 3 -7 -3 -8 -12 -8 -124 -43 -264 -43 -174 0 22 -8 41 -25 56 -13 13 -22 26 -18 29 8 9 -40 8 -97 -2 -25 -4 -56 -4 -70 -1 -23 6 -22 8 15 19 22 7 69 15 103 18 60 6 65 4 87 -21 l23 -26 7 75 c4 41 12 78 17 81 7 5 8 2 3 -6 -5 -8 -4 -11 2 -7 6 4 16 20 23 37 19 46 22 30 4 -23z m-509 -122 c22 -8 48 -15 57 -15 17 0 36 -45 25 -57 -3 -3 -9 6 -12 20 -5 16 -12 23 -23 21 -27 -7 -155 21 -160 34 -5 17 63 15 113 -3z m-20 -76 c61 -11 83 -29 36 -29 -18 0 -42 -5 -53 -11 -12 -7 -23 -7 -27 -2 -3 5 -14 12 -23 16 -10 3 -18 16 -18 28 0 16 4 20 18 14 9 -3 39 -11 67 -16z m-130 -49 c-3 -5 3 -10 13 -10 19 0 38 -27 27 -38 -8 -8 -55 40 -49 49 3 5 7 9 10 9 3 0 2 -4 -1 -10z m580 -30 c8 -12 -12 -40 -28 -40 -5 0 -2 9 7 19 13 15 14 20 4 24 -9 4 -9 6 -1 6 6 1 15 -4 18 -9z m-75 -108 c0 -5 -11 -14 -25 -20 -39 -18 -44 -14 -10 7 36 23 35 23 35 13z"></path><path id="ptKS8C6k9" d="M1200 745 c0 -28 4 -35 20 -35 21 0 24 10 14 48 -10 36 -34 27 -34 -13z"></path><path id="pIySrpGIE" d="M97 701 c-7 -30 2 -123 15 -148 20 -40 31 -26 24 30 -3 28 -6 71 -6 95 0 44 -23 60 -33 23z"></path><path id="p82gA5h69" d="M1128 583 c-10 -2 -18 -13 -18 -24 0 -10 -4 -19 -10 -19 -5 0 -10 -16 -10 -35 0 -33 2 -35 35 -35 24 0 35 5 35 15 0 8 3 15 8 15 4 0 6 -18 4 -40 -5 -51 14 -53 34 -4 20 47 15 65 -19 77 -23 7 -31 6 -42 -9 -8 -11 -15 -14 -15 -8 0 16 20 31 53 39 39 10 35 35 -5 34 -18 -1 -41 -3 -50 -6z"></path><path id="p1HMK9lZIW" d="M154 515 c-4 -8 -3 -22 0 -30 5 -13 10 -14 28 -4 23 12 23 12 4 -10 -19 -21 -19 -21 2 -21 39 0 52 11 52 46 0 33 -1 34 -40 34 -27 0 -43 -5 -46 -15z"></path><path id="py0wScheB" d="M165 403 c6 -33 47 -103 61 -103 11 0 2 70 -11 84 -8 8 -15 24 -15 35 0 15 -6 21 -21 21 -19 0 -21 -4 -14 -37z"></path><path id="p4fB4JGr9" d="M1100 330 c0 -28 -3 -30 -35 -30 -31 0 -35 -3 -35 -25 0 -14 3 -25 8 -25 18 0 72 41 72 55 0 8 6 15 14 15 12 0 26 20 26 36 0 2 -11 4 -25 4 -21 0 -25 -5 -25 -30z"></path><path id="pkBzLGuWq" d="M99 303 c5 -10 17 -27 25 -38 13 -16 13 -13 -1 17 -10 21 -22 38 -26 38 -4 0 -3 -8 2 -17z"></path><path id="pAsVKScwY" d="M966 226 c-3 -14 -16 -26 -31 -30 -14 -4 -25 -13 -25 -21 0 -10 -10 -15 -30 -15 -25 0 -30 -4 -30 -25 0 -23 2 -24 27 -14 76 28 120 61 131 95 9 32 9 34 -13 34 -16 0 -25 -7 -29 -24z"></path><path id="p11EZ3gFVn" d="M285 230 c3 -5 19 -19 35 -30 l30 -21 0 30 c0 29 -3 31 -36 31 -20 0 -33 -4 -29 -10z"></path><path id="pDm9Saj2j" d="M360 180 c0 -8 51 -40 65 -40 3 0 5 11 5 25 0 22 -4 25 -35 25 -19 0 -35 -4 -35 -10z"></path><path id="pkXEIDJfg" d="M730 155 c0 -8 -9 -15 -20 -15 -29 0 -24 -27 6 -34 19 -5 30 -2 40 11 12 16 12 16 7 -6 -6 -22 -4 -23 18 -18 13 4 27 7 32 7 11 0 8 30 -3 30 -5 0 -10 9 -10 20 0 16 -7 20 -35 20 -24 0 -35 -5 -35 -15z"></path><path id="p1BMyTuYvA" d="M610 131 c0 -5 -20 -6 -45 -3 -36 4 -45 2 -45 -11 0 -16 18 -22 98 -33 55 -7 70 4 30 24 -23 10 -23 11 5 11 40 1 33 21 -8 21 -19 0 -35 -4 -35 -9z"></path></g></g><g id="l1S8FyKWOLBo84LiJ7xvD8a" fill="rgb(93,76,49)" style="transform: none;"><g><path id="pwCQ7talR" d="M218 1160 c-43 -38 -118 -129 -118 -145 0 -4 19 17 42 47 23 29 62 72 87 95 58 54 51 56 -11 3z"></path><path id="pflLCr02b" d="M55 940 c-8 -16 -15 -32 -15 -37 0 -10 25 27 33 50 10 27 -1 20 -18 -13z"></path><path id="phPXZ1EHM" d="M21 853 c-7 -21 -14 -90 -16 -153 l-3 -115 7 106 c5 58 11 111 14 116 8 13 20 83 14 83 -2 0 -9 -17 -16 -37z"></path><path id="p1BxFXXMmr" d="M106 778 c-10 -38 -7 -48 14 -48 16 0 20 7 20 35 0 40 -24 49 -34 13z"></path><path id="p1HBeFcoxb" d="M580 630 c20 -13 70 -13 70 0 0 6 -19 10 -42 10 -32 0 -39 -3 -28 -10z"></path><path id="p9hizCp9S" d="M570 590 c0 -17 7 -20 40 -20 45 0 57 23 18 34 -42 11 -58 7 -58 -14z"></path><path id="pBBczYCUK" d="M1200 584 c0 -33 33 -30 38 4 3 17 -2 22 -17 22 -16 0 -21 -6 -21 -26z"></path><path id="pianTFTiD" d="M7 541 c10 -80 91 -273 101 -243 2 6 -8 28 -22 49 -13 21 -31 61 -40 88 -8 28 -22 73 -30 100 l-15 50 6 -44z"></path><path id="p1G6Lq0lrP" d="M400 456 c0 -7 7 -19 15 -26 8 -7 15 -9 15 -4 0 4 7 -1 15 -12 13 -18 14 -17 15 19 0 35 -2 37 -30 37 -19 0 -30 -5 -30 -14z"></path><path id="ppJ6E8ejU" d="M120 273 c0 -5 25 -36 56 -69 31 -32 50 -50 43 -39 -8 11 -23 29 -34 40 -11 11 -30 33 -43 49 -12 16 -22 24 -22 19z"></path></g></g><g id="l1SvUAR8S6mvaiHeonbyzkA" fill="rgb(121,92,29)" style="transform: none;"><g><path id="pyEgI5G16" d="M590 1231 c-14 -4 -24 -13 -22 -20 2 -9 -3 -9 -17 -1 -28 14 -31 13 -31 -15 0 -22 4 -25 35 -25 22 0 38 6 41 15 5 11 23 15 75 15 l69 0 0 -35 0 -35 65 0 c37 0 65 4 65 10 0 6 9 10 20 10 11 0 20 -4 20 -10 0 -5 16 -10 35 -10 47 0 44 12 -8 40 l-43 23 -40 -20 c-34 -16 -44 -18 -58 -7 -16 11 -16 13 6 16 12 2 24 10 26 19 5 29 -169 50 -238 30z"></path><path id="pUO7ADoF4" d="M460 1197 c-14 -7 -25 -21 -25 -32 0 -23 -40 -45 -96 -52 -43 -6 -88 -43 -52 -43 54 0 113 14 113 26 0 9 12 14 35 14 30 0 35 3 35 24 0 13 5 26 11 28 6 2 9 14 7 26 -3 20 -5 20 -28 9z"></path><path id="p1FyWr17WV" d="M1010 1090 c0 -23 5 -33 19 -37 11 -3 21 -13 24 -24 3 -11 14 -19 26 -19 16 0 21 -6 21 -25 0 -14 4 -25 9 -25 5 0 12 -11 15 -25 8 -31 46 -35 46 -6 0 25 -84 135 -127 169 l-33 25 0 -33z"></path><path id="pupJlW5Zl" d="M590 1082 c-19 -11 -36 -28 -38 -39 -3 -18 -12 -21 -84 -25 -65 -4 -84 -9 -95 -24 -7 -10 -24 -30 -36 -44 -51 -56 -67 -88 -67 -133 0 -27 6 -52 15 -61 11 -10 15 -36 15 -91 0 -53 5 -83 16 -100 l16 -25 -54 0 c-58 0 -108 -17 -108 -37 0 -7 -5 -13 -11 -13 -5 0 -7 -5 -4 -11 5 -7 13 -5 24 5 10 9 26 16 37 15 17 0 17 -1 -2 -9 -36 -14 -55 -50 -48 -90 4 -19 10 -37 13 -40 4 -3 17 -22 30 -42 49 -82 214 -196 309 -214 28 -6 32 -4 32 14 0 16 -11 23 -50 33 -27 7 -50 16 -50 21 0 4 -9 8 -20 8 -11 0 -20 5 -20 10 0 6 -7 10 -15 10 -8 0 -15 5 -15 10 0 6 -8 10 -19 10 -10 0 -21 9 -24 20 -4 15 -14 20 -36 20 -26 0 -31 4 -31 25 0 14 5 25 10 25 6 0 10 -7 10 -16 0 -14 11 -16 71 -12 50 3 75 8 83 20 9 12 23 15 59 11 26 -3 47 -10 47 -16 0 -21 37 -36 90 -37 30 0 68 -7 84 -15 54 -29 186 -13 186 22 0 7 4 13 10 13 19 0 50 35 50 56 0 35 11 54 30 54 18 0 30 35 30 86 0 45 -28 26 -40 -29 -7 -28 -23 -61 -35 -72 -33 -30 -44 -29 -35 3 4 15 13 26 19 24 7 -1 9 2 5 9 -3 6 -1 15 6 19 25 15 -18 100 -50 100 -13 0 -13 -43 0 -56 7 -7 -6 -9 -43 -6 -32 2 -63 -1 -76 -8 -21 -11 -22 -10 -12 9 6 11 11 27 11 35 0 19 -31 21 -48 4 -17 -17 -16 13 1 33 17 22 150 53 196 46 21 -2 43 -2 50 2 6 4 13 49 15 112 2 57 4 106 5 109 2 9 60 -65 61 -77 0 -7 -11 -38 -25 -68 -13 -31 -27 -79 -31 -106 -6 -45 -5 -49 15 -49 18 0 21 6 21 45 0 25 5 45 10 45 6 0 10 11 10 25 0 14 4 25 9 25 5 0 12 29 16 64 7 66 -2 89 -51 143 -7 7 -20 34 -29 61 -18 49 -19 50 -67 56 -37 5 -48 11 -48 24 0 27 -137 91 -208 98 -45 4 -64 1 -92 -14z m160 -153 c36 -5 66 -14 68 -20 2 -5 17 -9 32 -9 75 0 100 -41 100 -162 0 -93 -5 -108 -37 -108 -13 0 -47 -7 -74 -16 -85 -28 -349 -7 -349 27 0 11 -6 12 60 -6 56 -15 202 -20 258 -9 36 7 33 34 -4 34 -16 0 -24 6 -24 18 0 24 -52 42 -122 42 -72 0 -88 -7 -88 -35 0 -13 -4 -27 -10 -30 -5 -3 -10 0 -10 8 0 18 -21 27 -61 27 -26 0 -29 -3 -29 -31 0 -28 -2 -30 -32 -27 -33 3 -33 3 -36 63 -4 76 21 172 56 213 27 31 27 31 132 31 58 1 134 -4 170 -10z m-398 -296 c3 -24 9 -29 58 -39 30 -7 89 -20 131 -29 63 -13 78 -20 83 -38 9 -34 7 -67 -4 -67 -5 0 -10 9 -10 20 0 22 -37 42 -77 42 -13 0 -20 4 -17 9 3 5 -1 6 -9 3 -8 -3 -34 2 -58 10 -24 8 -47 12 -50 8 -12 -12 3 -112 16 -112 15 0 45 -43 50 -71 5 -26 1 -24 -52 16 -25 19 -49 35 -53 35 -4 0 -16 -21 -27 -46 l-20 -45 -17 36 c-18 38 -13 69 20 118 11 16 13 15 32 -15 l21 -33 -4 52 c-3 37 0 54 10 63 18 15 20 43 3 38 -15 -5 -48 34 -48 56 0 27 18 18 22 -11z m328 -107 c0 -58 11 -96 29 -97 10 0 11 -2 4 -6 -7 -2 -13 -15 -13 -28 0 -19 -6 -23 -40 -27 -42 -4 -57 15 -20 25 18 5 20 14 20 86 0 47 4 81 10 81 6 0 10 -15 10 -34z m-114 -58 c4 -5 -16 -8 -44 -8 -33 0 -56 6 -66 16 -9 8 -16 17 -16 18 0 6 119 -19 126 -26z m-306 -118 c6 0 10 -6 10 -13 0 -9 -9 -12 -29 -9 -26 4 -30 9 -33 45 -6 54 0 75 21 79 13 3 17 -7 19 -49 2 -29 7 -53 12 -53z m316 65 c19 -15 19 -15 0 -30 -24 -18 -26 -18 -51 1 -20 15 -20 15 -1 30 25 18 28 17 52 -1z m293 1 c9 -11 9 -19 -1 -36 -15 -24 -42 -33 -89 -28 -62 6 -44 42 36 69 32 11 42 10 54 -5z m-466 -81 c-3 -13 -53 -20 -53 -7 0 15 13 23 35 20 11 -2 19 -7 18 -13z m262 -15 c-3 -6 1 -7 9 -4 9 3 16 2 16 -4 0 -12 -48 -22 -68 -14 -11 4 -8 8 9 18 29 16 42 18 34 4z m82 -17 c-4 -3 -1 -13 6 -21 11 -13 9 -14 -10 -1 -27 16 -30 29 -6 29 9 0 13 -3 10 -7z m153 2 c0 -2 -18 -14 -40 -25 -48 -25 -53 -18 -7 10 32 20 47 25 47 15z"></path><path id="pBT68Yyj9" d="M837 803 c-4 -3 -7 -24 -7 -45 l0 -38 45 0 c43 0 45 1 45 29 0 48 -9 61 -44 61 -18 0 -36 -3 -39 -7z"></path><path id="p1E0JSaLa7" d="M538 398 c9 -9 15 -9 24 0 9 9 7 12 -12 12 -19 0 -21 -3 -12 -12z"></path><path id="psf4fPSwf" d="M277 1026 c3 -14 14 -33 24 -42 18 -17 19 -16 19 24 0 37 -3 42 -24 42 -19 0 -22 -4 -19 -24z"></path><path id="pe6qjTrE3" d="M177 953 c-38 -62 -40 -73 -12 -73 20 0 25 5 25 25 0 16 6 25 15 25 8 0 15 5 15 10 0 6 16 10 35 10 39 0 46 14 16 30 -40 21 -69 12 -94 -27z"></path><path id="p14YGqWJVO" d="M1130 865 c0 -28 4 -35 20 -35 13 0 20 -7 20 -19 0 -11 5 -21 11 -23 5 -2 13 -22 16 -46 4 -33 10 -42 25 -42 17 0 19 5 12 48 -8 58 -18 79 -43 87 -11 3 -22 19 -26 35 -9 43 -35 39 -35 -5z"></path><path id="pIRqAzVN3" d="M106 768 c-10 -38 -7 -48 14 -48 16 0 20 7 20 35 0 40 -24 49 -34 13z"></path><path id="phKKoHQhk" d="M1160 585 c0 -10 -10 -15 -30 -15 -23 0 -30 -4 -30 -20 0 -11 -4 -20 -10 -20 -5 0 -10 -16 -10 -35 0 -33 2 -35 35 -35 28 0 35 4 35 20 0 11 5 20 10 20 15 0 12 -40 -5 -56 -17 -17 -21 -84 -4 -84 10 0 56 92 59 120 7 55 -29 74 -68 37 l-24 -22 12 27 c12 26 35 38 78 38 15 0 22 6 22 20 0 16 -7 20 -35 20 -24 0 -35 -5 -35 -15z"></path><path id="pXj8JIle1" d="M110 564 c0 -12 34 -64 42 -64 4 0 8 16 8 35 0 31 -3 35 -25 35 -14 0 -25 -3 -25 -6z"></path><path id="p1BClIqmXE" d="M818 523 c-36 -9 -20 -33 22 -33 33 0 40 3 40 20 0 20 -20 24 -62 13z"></path><path id="p13lFRuIHJ" d="M1070 315 c0 -21 -5 -25 -30 -25 -26 0 -30 -4 -30 -26 0 -14 3 -23 8 -21 4 2 24 11 45 21 21 10 41 25 44 34 4 9 14 22 22 29 13 10 10 12 -21 13 -34 0 -38 -3 -38 -25z"></path><path id="pbQ0ygITg" d="M739 158 c0 -18 -3 -27 -6 -20 -3 8 -28 12 -74 12 l-69 0 0 -29 c0 -25 5 -31 31 -36 18 -4 35 -3 42 4 8 8 7 11 -5 11 -9 0 -20 5 -24 11 -5 8 10 9 54 4 52 -6 62 -4 71 12 10 15 10 14 5 -9 -4 -17 -2 -28 4 -28 21 0 42 32 42 66 0 32 -2 34 -35 34 -33 0 -35 -2 -36 -32z"></path><path id="ppQG8Cj8W" d="M876 165 c-8 -8 -24 -15 -35 -15 -14 0 -21 -6 -21 -20 0 -11 7 -20 16 -20 22 0 124 50 124 61 0 15 -67 10 -84 -6z"></path></g></g><g id="l75YIzvoTBKhmjlL0CYcVWq" fill="rgb(108,93,69)" style="transform: none;"><g><path id="p17ewMOrbb" d="M98 1018 c-23 -35 -60 -110 -56 -113 2 -2 20 28 40 66 37 68 44 90 16 47z"></path><path id="pl1dCmpJb" d="M3 740 c0 -25 2 -35 4 -22 2 12 2 32 0 45 -2 12 -4 2 -4 -23z"></path><path id="pnAqHFLnD" d="M560 636 c0 -2 16 -6 35 -8 19 -2 35 0 35 4 0 4 -16 8 -35 8 -19 0 -35 -2 -35 -4z"></path><path id="p03z1aWd8" d="M1 584 c1 -21 5 -52 9 -69 5 -19 6 -6 3 35 -6 73 -14 94 -12 34z"></path><path id="psFbpJ11E" d="M930 612 c0 -4 9 -13 19 -19 15 -10 20 -9 24 1 3 8 3 17 0 20 -9 9 -43 7 -43 -2z"></path><path id="p4PyOnvsW" d="M1200 590 c0 -32 23 -42 34 -14 11 29 6 44 -14 44 -16 0 -20 -7 -20 -30z"></path><path id="pe7fVlw0F" d="M100 594 c0 -21 18 -54 30 -54 6 0 10 16 10 35 0 28 -4 35 -20 35 -11 0 -20 -7 -20 -16z"></path><path id="pP4BstvSa" d="M560 590 c0 -16 7 -20 35 -20 24 0 35 5 35 15 0 8 -6 15 -12 16 -7 0 -23 2 -35 5 -18 3 -23 -1 -23 -16z"></path><path id="p68HHnabL" d="M40 416 c0 -11 50 -106 55 -106 3 0 -7 24 -21 53 -28 55 -34 65 -34 53z"></path><path id="pV5RsHI7w" d="M1050 285 c0 -21 3 -23 23 -16 33 12 35 41 3 41 -21 0 -26 -5 -26 -25z"></path><path id="pYsLJOgJK" d="M185 190 c21 -22 41 -40 44 -40 3 0 -13 18 -34 40 -21 22 -41 40 -44 40 -3 0 13 -18 34 -40z"></path></g></g><g id="l69rmoLBaMg4EHBByJqbOFM" fill="rgb(136,106,43)" style="transform: none;"><g><path id="p3IqrVfp2" d="M628 1233 c-10 -2 -18 -11 -18 -19 0 -11 15 -14 60 -14 44 0 60 4 60 14 0 21 -55 32 -102 19z"></path><path id="pzdceVLca" d="M743 1200 c4 -18 7 -41 7 -51 0 -11 6 -19 14 -19 7 0 19 -13 26 -30 10 -25 18 -30 46 -30 32 0 34 2 34 35 0 33 2 35 35 35 24 0 35 -5 35 -15 0 -8 7 -15 15 -15 8 0 15 -4 15 -10 0 -5 13 -10 29 -10 25 0 30 -4 33 -27 2 -22 9 -29 31 -31 23 -3 27 -8 27 -33 0 -26 3 -29 31 -29 l30 0 -20 28 c-48 68 -162 163 -222 184 -9 4 -34 -2 -57 -12 -26 -12 -44 -15 -48 -9 -3 6 -13 8 -21 5 -8 -3 -11 -1 -8 4 3 6 15 10 26 10 39 0 15 37 -31 46 -33 7 -33 7 -27 -26z"></path><path id="p18DJB2L0r" d="M483 1205 c-20 -8 -35 -23 -38 -38 -7 -26 -68 -57 -112 -57 -11 0 -31 -9 -44 -19 -20 -16 -22 -23 -14 -47 12 -32 35 -44 35 -17 0 26 19 43 47 43 13 0 23 4 23 9 0 5 18 11 40 15 37 6 40 8 40 40 0 33 1 34 55 41 60 7 64 11 38 31 -22 17 -30 17 -70 -1z"></path><path id="p7TpmdYuR" d="M598 1098 c-9 -7 -26 -20 -37 -28 -12 -8 -21 -22 -21 -31 0 -14 -13 -17 -82 -21 -53 -2 -83 -8 -86 -16 -2 -6 -20 -12 -39 -12 -32 0 -34 -2 -22 -17 12 -15 12 -16 -3 -10 -14 5 -18 1 -18 -18 0 -16 6 -25 15 -25 24 0 17 -28 -7 -32 -19 -2 -24 -10 -26 -40 -2 -22 1 -38 7 -38 6 0 11 -11 11 -24 0 -69 34 -75 48 -9 13 57 9 65 -11 26 l-15 -28 -7 27 c-5 20 -1 36 16 60 39 56 76 91 84 78 4 -6 2 -16 -3 -23 -15 -18 -42 -117 -42 -153 0 -27 3 -31 20 -27 15 4 20 14 20 37 1 43 32 108 65 134 24 19 41 22 113 22 47 0 137 -9 201 -21 95 -17 120 -25 139 -45 35 -40 29 -52 -23 -46 -53 6 -75 -8 -75 -48 0 -52 8 -60 61 -60 42 0 51 4 60 23 8 18 9 14 4 -18 -2 -22 -5 -48 -5 -57 0 -23 -42 -24 -64 -3 -8 8 -19 15 -24 15 -6 0 -12 3 -14 8 -5 13 -101 45 -148 50 -60 6 -180 -17 -180 -35 0 -8 -12 -13 -30 -13 -26 0 -30 -4 -30 -26 0 -21 -4 -25 -22 -22 -18 2 -24 11 -26 36 -3 24 -8 32 -23 32 -18 0 -20 -6 -17 -47 l3 -48 70 -12 c39 -7 90 -15 115 -19 65 -10 80 -27 80 -90 0 -29 -4 -56 -10 -59 -6 -4 -10 6 -10 22 0 45 -19 59 -100 73 -41 7 -81 17 -88 23 -18 15 -21 7 -13 -44 5 -32 16 -55 33 -70 15 -13 29 -34 33 -47 11 -37 -21 -39 -72 -2 -46 34 -62 31 -63 -11 0 -9 -6 -22 -14 -28 -12 -10 -18 -7 -31 18 -8 17 -20 31 -25 31 -19 0 -11 -69 10 -90 l20 -20 -32 0 -33 -1 40 -35 40 -36 3 30 c3 27 7 30 53 36 27 4 49 10 49 14 0 4 16 12 35 18 19 6 35 8 35 4 0 -3 22 -16 48 -28 57 -26 102 -29 102 -7 0 8 -6 15 -14 15 -31 0 -26 21 8 35 43 18 67 19 64 3 -2 -9 8 -12 32 -10 45 5 49 9 22 28 -12 8 -22 20 -22 25 0 29 90 74 127 64 28 -7 31 -45 6 -71 -16 -16 -16 -16 7 -9 14 5 30 8 37 8 6 0 9 6 6 13 -3 8 5 25 16 40 27 34 27 57 -1 89 -22 25 -26 25 -102 19 -75 -7 -79 -8 -91 -37 l-12 -30 -7 38 c-9 44 13 75 51 75 13 0 33 5 44 10 11 6 52 12 91 14 83 4 77 -4 81 131 2 56 -2 107 -11 133 -7 24 -11 46 -9 49 3 2 10 -11 16 -30 11 -33 24 -52 68 -105 l22 -27 1 38 c0 26 -4 37 -15 37 -8 0 -15 9 -15 20 0 11 -4 20 -8 20 -4 0 -13 20 -20 44 -16 63 -56 80 -200 85 -13 1 -21 5 -18 10 3 5 -1 12 -10 15 -22 8 -36 7 -30 -2 2 -4 -4 -8 -14 -9 -18 -2 -18 -1 -2 16 16 17 19 17 64 -6 58 -28 58 -28 58 1 0 48 -217 118 -262 84z m-128 -117 c-25 -14 -76 -24 -65 -13 10 10 38 19 65 21 13 0 13 -1 0 -8z m149 -7 c2 -2 -14 -4 -37 -4 -23 0 -42 4 -42 9 0 9 69 4 79 -5z m310 -40 c13 -12 -8 -10 -29 2 l-25 15 25 -7 c14 -3 27 -8 29 -10z m-208 -259 l34 -14 -55 0 c-69 -1 -107 8 -88 20 20 13 72 11 109 -6z m-24 -49 c93 -1 136 3 144 12 17 16 29 15 29 -2 0 -23 -64 -38 -164 -38 -128 0 -216 19 -216 48 0 10 8 10 38 -3 28 -13 70 -17 169 -17z m-168 -152 c2 -2 -12 -4 -32 -4 -20 0 -37 4 -37 10 0 8 58 3 69 -6z m61 -67 c0 -47 -40 -61 -71 -26 -26 30 -14 49 32 49 34 0 39 -3 39 -23z m-185 -45 c17 -12 12 -34 -10 -43 -35 -14 -46 -10 -43 14 3 23 16 37 33 37 6 0 15 -4 20 -8z"></path><path id="pT5fo7Ic6" d="M134 864 c-13 -31 -34 -121 -34 -145 0 -5 9 -9 19 -9 16 0 20 10 26 60 4 33 11 60 16 60 5 0 9 16 9 35 0 45 -17 45 -36 -1z"></path><path id="p1HJhdDQ7g" d="M1150 836 c0 -25 4 -36 15 -36 8 0 15 -4 15 -10 0 -5 11 -10 24 -10 19 0 23 4 19 20 -3 11 -9 20 -13 20 -4 0 -19 12 -34 26 l-26 27 0 -37z"></path><path id="psTXjZ1Mv" d="M430 775 c0 -33 2 -35 35 -35 33 0 35 2 35 35 0 33 -2 35 -35 35 -33 0 -35 -2 -35 -35z"></path><path id="pAXKYBTgj" d="M1200 725 c0 -28 4 -35 20 -35 21 0 24 10 14 48 -10 36 -34 27 -34 -13z"></path><path id="p2p9V7HYx" d="M1043 680 l-22 -60 25 0 c19 0 24 5 24 25 0 14 5 25 10 25 6 0 10 16 10 35 0 54 -22 42 -47 -25z"></path><path id="p1Gh6uOg43" d="M290 656 c0 -47 5 -69 17 -81 22 -23 3 -35 -59 -35 -36 0 -48 -4 -48 -15 0 -8 -4 -15 -10 -15 -5 0 -10 7 -10 15 0 9 -9 15 -25 15 -29 0 -30 -2 -9 -41 14 -28 17 -29 32 -16 9 8 33 17 52 20 l35 6 -41 -19 c-34 -15 -54 -35 -54 -56 0 -2 11 -4 25 -4 18 0 25 5 25 20 0 13 7 20 20 20 13 0 20 -7 20 -20 0 -33 24 -22 43 20 20 43 37 52 37 21 0 -11 5 -23 10 -26 6 -4 10 10 10 36 0 25 7 50 17 61 15 17 15 18 -2 18 -28 0 -44 31 -45 88 0 45 -3 52 -20 52 -18 0 -20 -7 -20 -64z"></path><path id="pZoA19Cjo" d="M1200 616 c0 -15 -30 -26 -76 -26 -28 0 -32 -4 -38 -37 -12 -76 -10 -83 29 -83 27 0 38 5 44 22 7 20 8 20 15 2 4 -11 3 -20 -3 -22 -6 -2 -11 -17 -11 -33 0 -19 -5 -29 -15 -29 -8 0 -15 -6 -15 -13 0 -7 -9 -19 -20 -27 -13 -9 -20 -26 -20 -48 l0 -33 33 33 c44 44 106 176 92 197 -11 18 -58 12 -82 -11 l-23 -22 15 31 c15 30 51 49 86 44 10 -1 19 8 23 21 10 38 7 48 -14 48 -11 0 -20 -6 -20 -14z"></path><path id="p7OiQGdI8" d="M1006 548 c-11 -42 -7 -58 14 -58 17 0 20 7 20 40 0 45 -23 57 -34 18z"></path><path id="pVeSdy6TF" d="M985 419 c-4 -17 -14 -33 -22 -36 -8 -3 -19 -17 -24 -30 -8 -22 -11 -23 -26 -12 -12 10 -15 10 -9 2 9 -15 1 -16 -42 -4 -20 6 -30 6 -27 0 3 -5 -12 -16 -34 -25 -37 -14 -40 -18 -30 -37 11 -20 11 -20 -25 1 -39 23 -76 29 -76 12 0 -5 9 -10 20 -10 13 0 20 -7 20 -18 0 -11 11 -24 25 -30 32 -15 95 -16 95 -2 0 6 7 10 15 10 8 0 15 5 15 10 0 6 16 10 35 10 36 0 55 20 55 59 0 14 6 21 20 21 13 0 20 7 20 20 0 11 7 20 15 20 10 0 15 11 15 35 0 45 -26 48 -35 4z m-86 -115 c-14 -17 -62 -44 -79 -44 -18 0 14 27 51 44 44 19 44 19 28 0z"></path><path id="pHZMaAMow" d="M190 351 c0 -6 11 -23 25 -38 l24 -28 1 38 c0 33 -3 37 -25 37 -14 0 -25 -4 -25 -9z"></path><path id="p16QkGM4aX" d="M976 264 c-3 -9 -6 -24 -6 -34 0 -11 -10 -20 -25 -24 -18 -5 -25 -13 -25 -31 0 -29 2 -30 41 -9 17 8 35 28 41 45 5 16 19 34 29 40 29 15 22 29 -15 29 -22 0 -36 -6 -40 -16z"></path><path id="pGdSejeQH" d="M730 165 c0 -10 -10 -15 -30 -15 -44 0 -39 -27 7 -36 29 -5 39 -3 51 12 14 18 14 18 8 1 -10 -30 1 -36 44 -25 41 11 56 38 20 38 -13 0 -20 7 -20 20 0 17 -7 20 -40 20 -29 0 -40 -4 -40 -15z"></path><path id="pBNukd41s" d="M580 141 c0 -5 -20 -6 -45 -3 -36 4 -45 2 -45 -11 0 -23 157 -54 176 -34 4 4 -2 7 -14 7 -11 0 -24 5 -27 10 -3 6 1 10 9 10 9 0 16 7 16 15 0 10 -11 15 -35 15 -19 0 -35 -4 -35 -9z"></path></g></g><g id="l5K88pXtDRUCghijXMnSnES" fill="rgb(147,114,52)" style="transform: none;"><g><path id="pR91hrbmC" d="M508 1213 c-34 -8 -20 -33 17 -33 19 0 35 4 35 10 0 13 -32 27 -52 23z"></path><path id="plL55LVpD" d="M772 1205 c-7 -8 -22 -15 -32 -15 -16 0 -20 -7 -20 -35 0 -34 2 -35 36 -35 35 0 94 26 94 42 0 12 -30 -3 -30 -16 0 -6 -5 -3 -11 6 -6 11 -16 15 -27 11 -12 -4 -14 -3 -7 5 6 5 19 12 30 14 11 2 20 10 20 18 0 20 -37 23 -53 5z"></path><path id="pkBOL9lAW" d="M608 1103 c-11 -3 -18 -14 -18 -29 0 -27 8 -30 35 -10 19 14 76 7 116 -15 14 -7 17 -6 13 5 -3 7 -18 16 -35 20 -17 3 -29 12 -29 21 0 15 -41 19 -82 8z"></path><path id="pveEphUcd" d="M1080 1015 c0 -24 5 -35 15 -35 8 0 15 -9 15 -20 0 -15 7 -20 25 -20 14 0 25 4 25 9 0 9 -68 101 -75 101 -3 0 -5 -16 -5 -35z"></path><path id="prUZbOmWv" d="M287 1011 c3 -11 14 -27 24 -37 18 -17 19 -16 19 19 0 32 -3 37 -24 37 -19 0 -23 -4 -19 -19z"></path><path id="p1CISKSk2y" d="M810 1022 c0 -4 12 -15 28 -25 l27 -17 -26 6 c-15 3 -29 1 -33 -4 -3 -5 23 -17 59 -26 81 -20 85 -20 85 4 0 14 -9 21 -35 26 -25 4 -35 11 -35 25 0 15 -7 19 -35 19 -19 0 -35 -3 -35 -8z"></path><path id="p161U3d9ai" d="M648 1013 c-40 -6 -35 -19 10 -27 56 -9 112 -7 112 4 0 6 -23 10 -51 10 -31 0 -48 4 -44 10 3 6 5 9 3 9 -2 -1 -15 -4 -30 -6z"></path><path id="p18s1pKgrR" d="M357 993 c-10 -9 -9 -73 1 -73 4 0 16 14 27 30 11 16 26 30 33 30 6 0 12 5 12 10 0 11 -63 14 -73 3z"></path><path id="pcabbNbsQ" d="M240 965 c0 -22 4 -25 36 -25 44 0 42 18 -4 37 -31 13 -32 12 -32 -12z"></path><path id="pFivxbCUE" d="M172 942 c-11 -21 -26 -50 -31 -65 -10 -25 -9 -27 14 -27 16 0 25 6 25 16 0 8 7 22 15 30 16 16 21 84 7 84 -5 0 -18 -17 -30 -38z"></path><path id="pb5uGDlh3" d="M432 935 c-16 -14 -37 -44 -47 -67 -19 -47 -29 -188 -16 -234 8 -31 -3 -28 170 -53 35 -6 71 -16 78 -24 8 -8 17 -43 20 -78 3 -35 13 -75 22 -89 l16 -24 5 29 c3 20 12 31 25 33 11 2 30 8 42 14 12 6 36 8 52 5 18 -4 31 -2 31 3 0 6 18 10 39 10 22 0 42 5 44 13 4 8 6 7 6 -3 1 -9 -3 -20 -9 -26 -6 -6 -3 -10 10 -10 27 0 27 46 0 69 -24 20 -59 21 -129 5 -47 -10 -51 -14 -51 -40 0 -17 -5 -28 -14 -28 -21 0 -26 88 -6 112 19 24 125 50 196 49 l52 -1 7 68 c7 76 0 184 -15 212 -15 27 -50 49 -68 43 -9 -4 -13 -2 -9 4 4 6 -3 8 -18 5 -16 -3 -25 -11 -25 -23 0 -15 7 -19 38 -19 34 0 38 -3 48 -35 l11 -34 -56 -3 -56 -3 -3 -43 c-4 -58 15 -76 74 -69 42 4 44 3 38 -17 -4 -11 -7 -22 -8 -23 -4 -4 -117 36 -166 59 -36 16 -58 19 -110 15 -68 -5 -150 -27 -150 -39 0 -5 -11 -8 -25 -8 -18 0 -25 -5 -25 -19 0 -20 -25 -35 -41 -25 -12 7 -11 98 2 154 6 25 13 60 16 78 4 26 10 32 29 32 19 0 24 5 24 25 0 31 -11 31 -48 0z m467 -154 c19 -12 6 -41 -18 -41 -23 0 -34 23 -18 39 13 13 18 13 36 2z m-172 -97 c23 -9 41 -20 38 -23 -5 -9 -132 -5 -189 5 l-41 7 50 12 c70 18 93 17 142 -1z m-64 -60 c83 -5 141 1 190 21 12 5 17 2 17 -8 0 -9 -4 -18 -10 -22 -20 -12 -186 -31 -215 -24 -16 4 -56 13 -87 19 -53 10 -85 29 -72 43 3 3 24 -1 46 -9 22 -7 81 -16 131 -20z"></path><path id="pLw0KMoT7" d="M610 940 c0 -18 7 -20 70 -20 53 0 70 3 70 14 0 17 -31 26 -92 26 -41 0 -48 -3 -48 -20z"></path><path id="pp4xFaxQU" d="M971 913 c3 -34 85 -172 102 -173 4 0 7 16 7 35 0 19 -4 35 -10 35 -5 0 -10 7 -10 15 0 8 -4 15 -10 15 -5 0 -10 7 -10 15 0 8 -9 15 -19 15 -12 0 -21 9 -25 25 -6 22 -27 37 -25 18z"></path><path id="pm1ifaibg" d="M260 820 c0 -29 4 -40 15 -40 12 0 15 -13 15 -60 0 -46 3 -60 15 -60 14 0 17 11 29 105 4 28 3 35 -4 25 -9 -13 -11 -13 -20 0 -6 8 -9 27 -7 43 3 23 0 27 -20 27 -20 0 -23 -5 -23 -40z"></path><path id="p11bkZKQE4" d="M437 803 c-4 -3 -7 -21 -7 -40 0 -32 1 -33 40 -33 l40 0 0 40 c0 39 -1 40 -33 40 -19 0 -37 -3 -40 -7z"></path><path id="p7Sp1qZP6" d="M1056 701 c-3 -4 -10 -20 -15 -35 -10 -24 -8 -26 14 -26 22 0 25 4 25 35 0 33 -12 46 -24 26z"></path><path id="pNWo6mLnA" d="M290 591 c0 -33 -4 -63 -10 -66 -5 -3 -10 -16 -10 -28 0 -15 -3 -18 -8 -9 -11 17 -63 -1 -80 -28 -11 -18 -10 -20 18 -20 20 0 30 5 30 15 0 8 5 15 10 15 6 0 10 -16 10 -35 0 -46 27 -48 35 -2 4 17 17 45 29 60 l23 29 8 -34 c8 -32 9 -31 14 22 3 30 3 57 -1 58 -5 2 -8 10 -8 18 0 8 -4 14 -10 14 -5 0 -12 11 -16 25 -3 14 -12 25 -20 25 -10 0 -14 -15 -14 -59z"></path><path id="pb9M92R5w" d="M190 530 c0 -5 -11 -10 -24 -10 -19 0 -23 -4 -19 -20 5 -20 27 -27 37 -11 3 5 22 12 41 15 47 9 48 36 0 36 -19 0 -35 -4 -35 -10z"></path><path id="p7dZaaCxO" d="M410 508 c0 -41 33 -82 59 -73 15 4 17 0 14 -27 l-3 -33 10 33 c10 30 14 32 54 32 26 0 46 -5 49 -12 3 -7 6 4 6 24 1 20 -3 39 -8 42 -5 3 -40 12 -77 20 -38 8 -77 18 -86 21 -15 6 -18 1 -18 -27z"></path><path id="pmnf1opXp" d="M1070 507 c0 -7 -9 -19 -20 -27 -13 -9 -20 -26 -20 -47 0 -30 3 -33 31 -33 30 0 59 19 59 39 0 6 5 11 10 11 6 0 10 14 10 31 0 28 -2 30 -17 18 -15 -12 -16 -12 -10 4 5 13 1 17 -18 17 -14 0 -25 -6 -25 -13z"></path><path id="p1FV7aQs03" d="M728 414 c-28 -15 -36 -38 -18 -49 6 -3 10 1 10 10 0 8 6 18 14 21 8 3 17 12 20 20 6 17 8 17 -26 -2z"></path><path id="p4q6Bl0qx" d="M970 391 c-14 -16 -30 -37 -35 -46 -6 -10 -24 -19 -39 -21 -16 -2 -34 -8 -40 -15 -11 -12 -6 -11 39 7 8 3 15 1 15 -5 0 -17 -79 -53 -102 -45 -14 4 -18 2 -14 -5 11 -17 -6 -13 -44 12 -26 16 -50 22 -94 22 -47 0 -59 3 -61 16 -3 17 37 29 95 29 20 0 22 -2 10 -10 -13 -9 -13 -10 0 -10 8 0 21 4 29 9 21 13 -39 24 -92 16 -29 -5 -47 -3 -51 4 -4 6 -2 11 3 11 6 0 11 4 11 9 0 5 -11 4 -25 -2 -19 -10 -21 -13 -8 -18 19 -6 27 -39 10 -39 -7 0 -27 9 -45 20 -41 25 -62 25 -62 1 0 -14 10 -20 40 -25 26 -4 40 -11 40 -21 0 -8 9 -15 20 -15 11 0 20 -4 20 -10 0 -5 18 -10 40 -10 34 0 40 3 41 23 1 16 2 18 6 5 3 -12 14 -18 34 -18 22 0 29 -5 29 -20 0 -17 7 -20 39 -20 68 0 100 10 103 34 2 16 11 22 36 24 26 3 32 7 32 28 0 15 6 24 15 24 8 0 15 5 15 10 0 6 7 10 15 10 10 0 15 11 15 35 0 42 -7 43 -40 6z"></path><path id="p11TmdY5VP" d="M170 393 c1 -19 22 -53 34 -53 3 0 6 16 6 35 0 28 -4 35 -20 35 -13 0 -20 -7 -20 -17z"></path><path id="pEqRIoTlu" d="M423 348 c6 -17 -3 -22 -57 -39 -23 -7 -34 -5 -48 8 -17 15 -18 15 -18 -3 0 -29 20 -44 57 -44 26 0 33 4 33 20 0 16 7 20 35 20 29 0 35 4 35 21 0 12 -4 18 -11 13 -6 -3 -16 0 -21 7 -8 11 -9 10 -5 -3z"></path><path id="pmnZroGoP" d="M1070 325 c0 -18 -5 -25 -19 -25 -37 0 -51 -12 -51 -41 0 -22 -5 -29 -20 -29 -16 0 -20 -7 -20 -30 0 -27 2 -29 19 -21 10 6 21 23 24 38 4 22 16 32 51 46 25 11 46 25 46 33 0 8 9 19 20 26 29 19 24 28 -15 28 -31 0 -35 -3 -35 -25z"></path><path id="p1EHXCtqii" d="M233 290 c12 -17 73 -72 120 -109 15 -12 17 -10 17 18 0 29 -2 31 -35 31 -32 0 -35 3 -35 28 0 36 -16 52 -53 52 -26 0 -27 -1 -14 -20z"></path><path id="pecfXISXj" d="M740 165 c0 -39 6 -43 27 -17 14 16 14 16 9 0 -4 -13 0 -18 13 -18 11 0 21 -6 24 -12 5 -17 88 11 95 31 4 11 -5 13 -47 8 -49 -6 -51 -5 -51 18 0 22 -5 25 -35 25 -33 0 -35 -2 -35 -35z"></path><path id="pEqmEsqy0" d="M400 162 c0 -7 17 -18 63 -40 4 -2 7 8 7 22 0 23 -4 26 -35 26 -19 0 -35 -4 -35 -8z"></path><path id="pwv95IRSJ" d="M590 115 c0 -23 4 -25 43 -24 l42 1 -35 11 -35 11 50 6 c49 5 49 5 16 13 -63 13 -81 10 -81 -18z"></path></g></g><g id="l3oF8lZiaXcHgj6SsC74fDW" fill="rgb(158,127,51)" style="transform: none;"><g><path id="pcKpT2nii" d="M570 1214 c0 -10 -6 -14 -15 -10 -11 4 -15 -1 -15 -19 0 -22 4 -25 40 -25 39 0 40 1 40 35 0 31 -3 35 -25 35 -16 0 -25 -6 -25 -16z"></path><path id="phl0xZ5aR" d="M734 1199 c3 -17 6 -38 6 -45 0 -8 10 -14 25 -14 16 0 25 -6 25 -15 0 -8 9 -15 20 -15 17 0 18 3 8 26 -10 22 -17 25 -42 20 -29 -6 -29 -6 -11 8 11 9 26 16 33 16 22 0 12 30 -14 40 -46 18 -57 13 -50 -21z"></path><path id="p19G4mGeUt" d="M468 1198 c-38 -13 -36 -38 2 -38 25 0 30 4 30 25 0 14 -1 25 -2 24 -2 0 -15 -5 -30 -11z"></path><path id="p7k0v1dwY" d="M831 1161 c-10 -7 -11 -13 -2 -30 17 -30 31 -26 31 9 0 31 -6 36 -29 21z"></path><path id="p4rDY92XX" d="M920 1145 c0 -21 5 -25 29 -25 23 0 30 -5 33 -22 2 -19 10 -24 43 -26 39 -3 39 -3 21 17 -19 21 -107 81 -119 81 -4 0 -7 -11 -7 -25z"></path><path id="p17CCJE3IF" d="M292 1089 c-22 -17 -23 -22 -12 -53 6 -19 20 -46 31 -60 l20 -26 -46 20 c-59 25 -75 25 -75 0 0 -15 7 -20 25 -20 14 0 25 -4 25 -10 0 -5 12 -10 27 -10 25 0 25 -1 10 -18 -10 -10 -17 -24 -17 -30 0 -7 -5 -12 -11 -12 -15 0 -4 -103 11 -108 5 -2 10 -19 10 -38 0 -46 27 -46 36 1 5 26 1 41 -15 64 -12 16 -21 31 -21 34 0 2 12 20 28 39 15 20 34 46 42 58 45 67 39 65 164 68 115 4 148 15 81 28 -37 7 -35 14 15 47 32 20 72 11 173 -39 66 -34 86 -51 47 -41 -11 3 -22 2 -25 -3 -3 -4 29 -16 70 -25 l74 -18 18 -46 c9 -25 23 -52 29 -58 7 -7 22 -28 34 -48 27 -44 40 -44 40 0 0 24 -5 35 -15 35 -8 0 -15 9 -15 20 0 11 -4 20 -10 20 -5 0 -12 11 -16 25 -3 14 -10 25 -15 25 -5 0 -9 9 -9 19 0 37 -12 51 -41 51 -16 0 -38 9 -49 20 -11 11 -33 20 -50 20 -23 0 -30 5 -30 19 0 21 -19 31 -61 31 -18 0 -29 5 -29 14 0 15 -42 26 -101 26 -41 0 -89 -34 -89 -64 0 -13 -10 -16 -49 -16 -76 0 -111 -10 -111 -31 0 -23 -25 -25 -34 -4 -3 8 -12 15 -20 15 -8 0 -16 13 -18 30 -4 27 -2 30 24 30 21 0 28 5 28 18 0 26 -48 26 -78 1z"></path><path id="pm5fmp4PZ" d="M437 939 c-43 -33 -58 -82 -64 -206 -7 -128 -7 -127 79 -128 27 0 48 -3 48 -6 0 -4 22 -9 48 -13 27 -3 57 -13 68 -21 25 -19 74 -19 110 0 16 8 38 16 49 16 11 1 -25 5 -81 9 -123 9 -200 26 -208 47 -10 25 -2 26 51 7 62 -21 257 -25 291 -6 13 8 31 11 39 8 14 -6 14 -8 -1 -25 -15 -17 -15 -18 11 -16 87 7 93 17 93 164 0 128 -11 141 -131 163 -52 10 -157 20 -234 23 -133 6 -141 5 -168 -16z m330 -37 c119 -18 153 -31 153 -58 0 -10 -13 -14 -40 -14 -29 0 -40 -4 -40 -15 0 -8 -7 -15 -16 -15 -13 0 -15 -8 -12 -40 4 -41 -4 -50 -43 -50 -10 0 -19 6 -19 14 0 29 -92 34 -185 10 -100 -26 -121 -28 -128 -10 -5 12 0 16 17 16 44 0 56 10 56 46 0 33 -1 34 -38 34 -21 0 -44 -6 -50 -12 -19 -19 9 54 33 86 19 25 25 26 105 26 47 0 140 -9 207 -18z m160 -139 c-3 -10 -5 -2 -5 17 0 19 2 27 5 18 2 -10 2 -26 0 -35z m-17 3 c0 -29 -28 -42 -48 -22 -20 20 -8 46 23 46 20 0 25 -5 25 -24z m-168 -80 c29 -13 62 -26 73 -29 20 -5 -31 -12 -65 -9 -8 1 -56 2 -107 3 -51 2 -90 6 -87 11 3 4 -3 8 -13 9 -18 1 10 12 72 29 50 13 72 11 127 -14z"></path><path id="pILXfXv0k" d="M1126 894 c-11 -81 -10 -84 28 -84 l35 0 7 -70 c6 -61 9 -70 27 -70 17 0 19 5 13 38 -3 20 -6 47 -6 60 0 13 -16 38 -36 58 -32 33 -35 40 -29 75 6 34 4 39 -13 39 -15 0 -21 -9 -26 -46z"></path><path id="pEpnk5FkE" d="M131 852 c-5 -9 -12 -34 -16 -55 -6 -33 -5 -37 13 -37 14 0 21 9 26 31 13 69 0 104 -23 61z"></path><path id="p2MF9IAjE" d="M1200 625 c0 -20 -5 -25 -25 -25 -14 0 -25 -4 -25 -10 0 -5 -13 -10 -30 -10 -25 0 -30 -4 -30 -25 0 -18 -5 -25 -20 -25 -14 0 -20 -7 -20 -22 0 -13 -5 -30 -10 -38 -8 -13 -10 -12 -10 3 0 25 -27 21 -34 -5 -9 -36 -7 -48 9 -48 8 0 15 -9 15 -20 0 -16 7 -20 36 -20 31 0 37 4 47 30 6 17 15 30 19 30 4 0 8 14 8 31 0 28 -2 30 -17 18 -16 -13 -16 -11 0 14 10 16 17 34 14 40 -2 7 5 13 17 13 78 6 94 18 95 72 1 16 -5 22 -19 22 -15 0 -20 -7 -20 -25z"></path><path id="pPdiShHKt" d="M288 588 l-3 -53 -52 3 c-51 4 -53 3 -53 -22 0 -23 2 -25 26 -16 14 6 35 10 47 9 17 0 15 -3 -10 -12 -42 -15 -45 -30 -7 -38 16 -4 23 -7 17 -8 -14 -1 -16 -31 -7 -80 5 -21 12 -31 25 -31 15 0 19 -7 19 -35 l0 -35 53 0 c29 0 70 9 93 19 35 16 44 17 65 5 28 -16 89 -18 89 -4 0 16 -101 62 -124 57 -12 -3 -44 -15 -73 -28 -59 -26 -75 -20 -100 38 -19 47 -16 86 11 126 13 19 21 39 18 43 -4 4 -1 4 6 0 6 -4 12 -16 12 -27 0 -10 5 -19 10 -19 9 0 7 27 -6 68 -2 7 1 10 6 7 16 -10 11 8 -10 35 -11 14 -20 31 -20 38 0 6 -7 12 -14 12 -11 0 -16 -15 -18 -52z"></path><path id="pXbCK55mk" d="M108 572 c13 -31 46 -82 54 -82 12 0 10 58 -2 81 -14 25 -63 27 -52 1z"></path><path id="pX7SWqo9q" d="M1170 475 c0 -22 5 -35 13 -35 8 0 18 16 24 35 11 33 10 35 -13 35 -21 0 -24 -5 -24 -35z"></path><path id="p8LsbNQRa" d="M930 336 c-23 -38 -71 -70 -119 -81 -23 -5 -38 -1 -61 15 l-30 21 0 -30 c0 -25 4 -31 21 -31 11 0 27 -7 35 -15 9 -8 24 -15 35 -15 10 0 19 -4 19 -10 0 -5 15 -11 33 -11 17 -1 24 -3 15 -6 -11 -3 -18 -14 -18 -28 0 -22 2 -24 27 -14 85 32 114 79 48 79 -34 0 -35 1 -35 39 0 37 2 40 33 43 29 3 32 6 35 41 4 46 -10 47 -38 3z"></path><path id="p16jLEYRdE" d="M1080 340 c0 -11 -4 -20 -10 -20 -5 0 -10 -7 -10 -15 0 -10 -11 -15 -35 -15 -34 0 -35 -1 -35 -37 l0 -37 20 21 c10 12 35 26 55 33 23 8 35 18 35 30 0 10 9 21 19 25 11 3 22 12 25 20 4 11 -3 15 -29 15 -28 0 -35 -4 -35 -20z"></path><path id="p1H9c8NF73" d="M353 185 c36 -32 47 -31 47 0 0 22 -4 25 -37 25 l-38 -1 28 -24z"></path><path id="pB3TKVvvF" d="M432 148 c5 -14 78 -42 141 -53 33 -6 37 -5 37 13 0 20 -32 32 -86 32 -13 0 -24 5 -24 10 0 6 -16 10 -36 10 -24 0 -34 -4 -32 -12z"></path><path id="p5yPShzMW" d="M620 140 c0 -17 7 -20 40 -20 33 0 40 3 40 20 0 17 -7 20 -40 20 -33 0 -40 -3 -40 -20z"></path><path id="pXEggm2Tr" d="M720 134 c0 -32 29 -30 41 4 7 19 5 22 -16 22 -20 0 -25 -5 -25 -26z"></path><path id="px0X3iYO6" d="M771 134 c-15 -33 -14 -34 9 -34 15 0 20 7 20 24 0 35 -15 40 -29 10z"></path></g></g><g id="l68wM7YZ4c8FVsN9uPjYTTp" fill="rgb(155,127,71)" style="transform: none;"><g><path id="p1DX2tZfQl" d="M570 1222 c0 -10 22 -32 32 -32 4 0 8 9 8 20 0 13 -7 20 -20 20 -11 0 -20 -4 -20 -8z"></path><path id="p1EFadxA8G" d="M780 1200 c0 -21 16 -26 39 -11 18 11 5 31 -20 31 -12 0 -19 -7 -19 -20z"></path><path id="puC5pOeC9" d="M880 1160 c0 -16 7 -20 35 -20 39 0 46 14 16 30 -31 16 -51 12 -51 -10z"></path><path id="pII0354UM" d="M610 1000 c0 -6 32 -10 72 -10 39 0 69 2 67 4 -10 9 -139 14 -139 6z"></path><path id="pNRMcTF9p" d="M426 924 l-29 -29 28 -3 c15 -2 29 -1 32 1 2 3 3 17 1 32 l-3 28 -29 -29z"></path><path id="paXg319kq" d="M973 908 c19 -46 37 -48 37 -4 0 32 -3 36 -25 36 -24 0 -25 -1 -12 -32z"></path><path id="p1EioZE2rk" d="M830 908 c0 -14 8 -18 35 -18 24 0 35 5 35 15 0 8 -6 15 -12 16 -7 0 -23 2 -35 3 -17 2 -23 -3 -23 -16z"></path><path id="p1FGHKy66l" d="M1160 821 c0 -28 3 -31 30 -31 17 0 30 4 30 9 0 5 -13 19 -30 31 l-30 21 0 -30z"></path><path id="pqRoo8W33" d="M377 810 c-7 -28 3 -60 19 -60 10 0 14 13 14 40 0 43 -23 57 -33 20z"></path><path id="pUkZ5mHUX" d="M1020 821 c0 -5 7 -17 16 -26 9 -8 18 -33 21 -55 4 -30 10 -40 24 -40 15 0 19 8 19 40 0 29 -4 40 -15 40 -9 0 -15 9 -15 25 0 20 -5 25 -25 25 -14 0 -25 -4 -25 -9z"></path><path id="p1G2kvyyik" d="M106 748 c-10 -38 -7 -48 14 -48 16 0 20 7 20 35 0 40 -24 49 -34 13z"></path><path id="pnsaegCV0" d="M910 759 c0 -16 -24 -36 -38 -31 -6 2 -12 -3 -12 -12 0 -11 10 -15 40 -13 38 1 40 3 40 34 0 23 -5 33 -15 33 -8 0 -15 -5 -15 -11z"></path><path id="poukIwpMe" d="M690 720 c0 -5 6 -10 14 -10 8 0 16 -4 18 -9 2 -5 15 -13 31 -16 24 -6 27 -5 27 19 0 24 -3 26 -45 26 -25 0 -45 -4 -45 -10z"></path><path id="pF2L73oUS" d="M370 667 c0 -25 5 -49 11 -52 7 -5 8 8 3 41 -9 64 -14 68 -14 11z"></path><path id="pqNza6idR" d="M506 675 c-8 -22 23 -34 118 -47 92 -11 183 -5 212 16 15 12 11 12 -27 7 -25 -4 -49 -10 -55 -13 -5 -4 -61 0 -124 8 -63 7 -117 14 -119 14 -2 0 2 7 9 15 7 9 8 15 2 15 -5 0 -12 -7 -16 -15z"></path><path id="pNiH4hYcp" d="M474 637 c3 -10 6 -23 6 -28 0 -6 5 -7 10 -4 6 3 10 1 10 -5 0 -8 9 -10 25 -6 14 4 34 2 45 -4 12 -6 20 -7 20 -1 0 5 -23 14 -50 21 -28 7 -55 19 -61 29 -9 14 -10 14 -5 -2z"></path><path id="pNiZpeRwP" d="M876 635 c-3 -9 -16 -20 -28 -24 -21 -9 -20 -9 7 -8 24 2 30 7 31 25 2 26 -1 28 -10 7z"></path><path id="pLwEDJykc" d="M1022 630 c-18 -29 -15 -50 8 -50 16 0 20 7 20 35 0 39 -9 44 -28 15z"></path><path id="p16uKO0gpi" d="M100 609 c0 -25 17 -59 30 -59 6 0 10 18 10 40 0 33 -3 40 -20 40 -14 0 -20 -7 -20 -21z"></path><path id="pVv4ovkct" d="M1180 585 c0 -8 4 -15 9 -15 5 0 16 -3 25 -6 12 -4 16 0 16 15 0 16 -6 21 -25 21 -16 0 -25 -6 -25 -15z"></path><path id="pDl3yPj1I" d="M312 540 c0 -19 2 -27 5 -17 2 9 2 25 0 35 -3 9 -5 1 -5 -18z"></path><path id="pukh1o72O" d="M341 513 c-1 -17 4 -35 9 -38 11 -7 11 9 0 45 -8 24 -8 24 -9 -7z"></path><path id="pVuxavpks" d="M1180 505 c0 -14 -4 -25 -10 -25 -5 0 -10 -16 -10 -36 0 -50 20 -39 42 21 14 38 15 51 5 57 -20 13 -27 9 -27 -17z"></path><path id="pfJvLOzjW" d="M240 425 c0 -29 4 -35 21 -35 12 0 19 5 16 13 -2 6 0 22 4 35 7 19 5 22 -16 22 -22 0 -25 -4 -25 -35z"></path><path id="p19SQY5c5m" d="M1100 346 c0 -18 4 -23 18 -19 10 2 23 13 30 24 11 17 9 19 -18 19 -25 0 -30 -4 -30 -24z"></path><path id="pcunK59Px" d="M560 286 c0 -31 12 -34 120 -34 l85 0 -28 24 c-31 27 -43 29 -82 14 -19 -7 -34 -6 -55 5 -38 20 -40 19 -40 -9z"></path><path id="p11M6qlmui" d="M1040 285 c0 -19 4 -23 18 -18 48 17 55 43 12 43 -25 0 -30 -4 -30 -25z"></path><path id="pC0qutb0j" d="M866 275 c-11 -8 -28 -15 -38 -15 -10 0 -18 -4 -18 -10 0 -5 -7 -7 -15 -4 -9 4 -15 0 -15 -10 0 -12 10 -16 35 -16 28 0 35 4 35 20 0 13 9 22 25 26 14 3 25 10 25 15 0 13 -12 11 -34 -6z"></path><path id="pJ6MRmvzH" d="M460 140 c0 -12 33 -30 54 -30 9 0 16 9 16 20 0 16 -7 20 -35 20 -19 0 -35 -4 -35 -10z"></path><path id="pAmxVsVNM" d="M680 136 c0 -13 28 -26 58 -26 6 0 12 9 12 20 0 16 -7 20 -35 20 -23 0 -35 -5 -35 -14z"></path></g></g><g id="l2IUlzWuRxDyLTlpfFcxHOc" fill="rgb(133,120,101)" style="transform: none;"><g><path id="pp5DYrpZZ" d="M185 1128 l-40 -43 43 40 c23 21 42 40 42 42 0 8 -9 0 -45 -39z"></path></g></g><g id="l1VaZ5suuClplcmKdOVK9k0" fill="rgb(171,140,60)" style="transform: none;"><g><path id="pw3s8mpW8" d="M577 1223 c-4 -3 -1 -13 6 -21 10 -13 9 -15 -8 -8 -43 17 -58 18 -95 6 -30 -10 -40 -19 -42 -38 -2 -19 -14 -28 -52 -43 -28 -10 -52 -17 -54 -14 -7 7 -42 -14 -42 -25 0 -13 37 -13 100 1 31 7 50 16 50 25 0 9 11 14 35 14 30 0 35 3 35 24 0 22 3 23 45 18 l45 -5 0 37 c0 34 -8 44 -23 29z"></path><path id="poY0q8M1L" d="M770 1210 c0 -5 -9 -10 -20 -10 -16 0 -20 -7 -20 -35 0 -28 4 -35 20 -35 14 0 27 -14 42 -45 19 -40 26 -45 54 -45 l33 0 -1 69 c0 67 -1 69 -22 61 -16 -6 -21 -16 -20 -41 l2 -34 -16 33 c-14 29 -20 33 -45 28 -25 -5 -26 -4 -13 9 8 8 21 15 28 15 7 0 20 5 28 10 13 9 13 11 0 20 -20 13 -50 13 -50 0z"></path><path id="pLQGAH6uO" d="M900 1155 c0 -20 5 -25 25 -25 16 0 25 -6 25 -15 0 -9 9 -15 25 -15 18 0 25 -5 25 -20 0 -16 7 -20 35 -20 33 0 35 -2 35 -35 0 -24 5 -35 15 -35 8 0 15 -9 15 -20 0 -11 5 -20 10 -20 6 0 10 -7 10 -15 0 -9 9 -15 25 -15 14 0 25 4 25 9 0 5 -19 35 -43 67 -54 73 -151 156 -209 177 -14 5 -18 1 -18 -18z"></path><path id="pHoCmooUn" d="M700 1080 c0 -6 19 -20 43 -30 l42 -19 3 21 c2 11 -2 25 -10 29 -19 12 -78 11 -78 -1z"></path><path id="p1HhUdIHV2" d="M533 1050 c-3 -11 -9 -20 -14 -20 -19 0 -8 -28 14 -34 37 -10 119 -7 112 4 -3 6 -19 10 -34 10 -39 0 -44 10 -19 37 l21 23 -37 0 c-29 0 -39 -4 -43 -20z"></path><path id="piM357Zea" d="M397 1020 c-16 -5 -35 -14 -43 -21 -11 -9 -14 -8 -14 5 0 10 -9 16 -25 16 -30 0 -32 -14 -5 -37 28 -24 25 -34 -6 -22 -34 12 -37 9 -22 -31 9 -26 9 -35 0 -38 -13 -4 -17 -72 -4 -71 4 0 33 36 64 79 51 71 62 81 103 91 54 14 62 39 13 38 -18 0 -46 -5 -61 -9z"></path><path id="p1EVDuOH0C" d="M844 999 c10 -6 27 -20 37 -30 11 -11 32 -19 48 -19 26 0 31 -6 47 -47 10 -27 29 -64 43 -83 49 -67 52 -75 36 -119 -14 -41 -14 -41 10 -41 24 0 25 2 25 70 0 56 -3 70 -15 70 -9 0 -15 9 -15 25 0 14 -6 25 -12 25 -7 0 -21 27 -31 60 -15 53 -20 60 -43 60 -13 0 -34 9 -46 20 -15 13 -35 20 -62 20 -34 -1 -38 -2 -22 -11z"></path><path id="pbSoHxMR6" d="M171 934 c-33 -56 -60 -146 -67 -223 l-7 -71 28 0 c27 0 27 1 22 48 -6 55 10 131 29 139 8 3 14 20 14 39 0 19 5 34 10 34 6 0 10 16 10 35 0 45 -12 44 -39 -1z"></path><path id="p1F2cU7Ajv" d="M465 950 c-29 -12 -61 -50 -74 -89 -13 -40 -15 -153 -2 -133 6 10 10 3 15 -22 5 -25 12 -36 24 -36 15 0 15 -2 2 -10 -10 -7 -11 -10 -2 -10 7 0 15 7 18 15 4 8 10 15 15 15 4 0 6 -6 3 -13 -2 -7 2 -21 10 -32 14 -19 15 -19 9 4 -6 22 -4 23 18 18 54 -16 72 -16 35 -2 -42 16 -61 29 -36 24 8 -2 24 2 35 8 43 24 132 35 174 22 23 -7 41 -16 41 -21 0 -5 22 -8 48 -7 27 1 54 -1 60 -5 7 -4 12 -2 12 3 0 6 7 11 16 11 8 0 12 -4 9 -10 -3 -5 -1 -10 6 -10 6 0 9 8 6 20 -6 22 8 28 16 8 3 -9 10 -7 21 7 22 26 16 169 -8 193 -9 9 -62 22 -138 33 -156 23 -158 23 -158 -1 0 -11 5 -20 11 -20 14 0 254 -31 255 -33 1 -1 5 -12 8 -24 7 -21 4 -23 -34 -23 -22 0 -58 -9 -80 -20 -33 -17 -59 -20 -158 -20 -109 0 -120 2 -125 19 -2 11 -15 21 -28 23 -18 2 -25 10 -27 31 -4 32 20 56 56 57 12 0 22 6 22 14 0 7 -10 16 -22 20 -27 7 -28 7 -53 -4z m429 -156 c21 -8 21 -60 1 -68 -9 -3 -25 4 -36 15 -20 20 -20 22 -3 40 20 22 17 21 38 13z m-414 -19 c0 -8 -4 -15 -9 -15 -13 0 -22 16 -14 24 11 11 23 6 23 -9z"></path><path id="pp8ZmZtRQ" d="M1140 835 c0 -24 5 -35 15 -35 8 0 15 -4 15 -10 0 -5 11 -10 25 -10 15 0 25 6 25 14 0 14 -49 52 -62 48 -4 -1 -5 5 -2 13 4 8 1 15 -5 15 -6 0 -11 -16 -11 -35z"></path><path id="pHaP1bTZo" d="M280 775 c0 -28 4 -35 20 -35 23 0 26 26 6 53 -20 25 -26 21 -26 -18z"></path><path id="pqH5iKxCg" d="M1130 735 c0 -33 2 -35 35 -35 l35 0 0 -49 c0 -28 -4 -53 -10 -56 -6 -4 -10 7 -10 24 0 29 -3 31 -35 31 -31 0 -35 -3 -35 -25 0 -15 -6 -25 -14 -25 -9 0 -15 -16 -19 -47 -3 -26 -10 -49 -16 -51 -6 -2 -11 -12 -11 -23 0 -10 -3 -19 -8 -19 -4 0 -6 20 -4 45 3 36 1 45 -12 45 -10 0 -17 -13 -21 -37 -13 -84 -27 -128 -44 -140 -10 -7 -21 -22 -24 -33 -4 -16 0 -20 19 -20 13 0 24 3 24 8 0 4 18 6 40 4 28 -3 41 -10 45 -23 7 -22 35 -26 35 -5 0 7 11 21 25 30 28 18 49 55 75 132 16 46 17 53 3 58 -29 12 -48 6 -82 -26 l-34 -33 21 32 c12 17 20 37 17 45 -5 13 2 15 74 21 27 2 30 5 36 55 8 63 -1 112 -21 112 -8 0 -14 9 -14 20 0 16 -7 20 -35 20 -33 0 -35 -2 -35 -35z m10 -305 c-11 -20 -50 -28 -50 -10 0 6 9 10 19 10 11 0 23 5 26 10 12 19 16 10 5 -10z"></path><path id="pRnL5kSpC" d="M280 620 c0 -33 3 -40 20 -40 17 0 20 7 20 40 0 33 -3 40 -20 40 -17 0 -20 -7 -20 -40z"></path><path id="pqcPDQpmT" d="M590 640 c0 -6 30 -10 67 -10 36 0 64 2 62 4 -11 9 -129 15 -129 6z"></path><path id="pM0eZql2s" d="M585 586 c33 -16 128 -20 160 -6 14 6 -6 9 -60 9 -44 1 -91 4 -105 6 -22 5 -21 3 5 -9z"></path><path id="pOqBA9yiY" d="M220 536 c0 -10 -13 -16 -41 -18 -37 -3 -39 -4 -26 -22 13 -18 15 -18 40 -2 15 10 38 16 54 13 l28 -4 -32 -7 c-18 -5 -40 -17 -49 -27 -16 -18 -16 -19 17 -19 34 0 34 0 31 -40 -3 -25 0 -40 7 -40 6 0 11 -4 11 -10 0 -5 -7 -10 -15 -10 -8 0 -15 7 -15 15 0 8 -4 15 -10 15 -5 0 -10 9 -10 20 0 13 -7 20 -20 20 -74 0 78 -193 206 -262 60 -32 186 -68 234 -67 21 1 27 3 15 6 -57 14 -33 29 38 24 22 -2 27 2 27 19 0 21 -4 22 -62 20 -129 -6 -158 -2 -158 20 0 18 -7 20 -64 20 -59 0 -65 2 -68 23 -2 18 -10 23 -40 25 -25 2 -38 8 -38 18 0 8 7 14 15 14 8 0 15 -4 15 -10 0 -5 16 -10 35 -10 30 0 35 3 35 23 0 20 -4 23 -27 20 -23 -4 -31 1 -46 27 -37 61 -39 89 -12 142 36 72 34 78 -25 78 -37 0 -50 -4 -50 -14z"></path><path id="paA5nYzj9" d="M437 334 c-19 -10 -27 -21 -23 -31 3 -8 6 -26 6 -39 0 -21 5 -24 35 -24 33 0 35 2 37 35 1 19 2 43 2 52 1 23 -22 26 -57 7z"></path><path id="p1E4xRWQwM" d="M540 295 c0 -22 4 -25 35 -25 19 0 35 -4 35 -10 0 -5 16 -10 35 -10 29 0 35 4 35 21 0 19 -4 20 -33 15 -20 -4 -40 -1 -52 7 -41 28 -55 28 -55 2z"></path><path id="pr0lWOGRJ" d="M905 301 c-6 -6 -31 -21 -56 -34 -42 -23 -48 -23 -78 -11 -47 20 -51 18 -51 -21 0 -24 5 -35 15 -35 12 0 14 -10 9 -47 l-5 -48 21 35 20 35 -6 -37 c-7 -43 -3 -45 57 -26 24 7 39 17 39 27 0 12 2 13 8 4 6 -10 20 -7 59 13 40 21 54 35 66 65 9 22 22 39 31 39 9 0 16 7 16 15 0 10 -11 15 -35 15 -32 0 -35 -2 -35 -31 0 -28 -2 -30 -32 -27 -32 3 -33 5 -30 41 4 39 2 43 -13 28z m-57 -139 c2 -7 -3 -12 -12 -12 -9 0 -16 7 -16 16 0 17 22 14 28 -4z"></path></g></g><g id="l1qglxibG82LOZcAH8xw6Bi" fill="rgb(184,151,62)" style="transform: none;"><g><path id="pjjhugKyD" d="M577 1223 c-4 -3 -2 -12 4 -20 15 -17 -3 -18 -30 -2 -10 7 -30 9 -44 5 -21 -5 -27 -13 -28 -34 0 -15 -3 -21 -6 -14 -7 19 -30 14 -36 -7 -3 -13 -23 -25 -61 -37 -31 -10 -56 -24 -56 -31 0 -7 -11 -13 -26 -13 -21 0 -25 -3 -19 -17 4 -10 10 -26 12 -35 8 -26 63 -25 63 1 0 14 8 21 28 23 21 2 28 9 30 31 l3 28 60 -7 59 -7 0 31 0 31 55 -6 55 -6 0 31 c0 17 -3 37 -6 46 -6 16 -45 22 -57 9z"></path><path id="pHs4SwxrI" d="M710 1211 c0 -12 6 -21 15 -21 8 0 15 -7 15 -15 0 -17 16 -20 25 -5 3 6 15 10 26 10 19 0 27 24 11 34 -5 3 -28 8 -50 12 -38 6 -42 5 -42 -15z"></path><path id="p1FNTxKwFc" d="M853 1168 c-24 -12 -26 -19 -17 -55 9 -31 34 -29 34 2 0 18 5 25 20 25 13 0 20 7 20 20 0 22 -21 25 -57 8z"></path><path id="pj8yQqPHp" d="M800 1123 c0 -23 5 -33 15 -33 18 0 18 8 0 40 l-14 25 -1 -32z"></path><path id="pYbslXUaU" d="M1020 1070 c0 -28 3 -30 37 -30 36 0 36 0 17 21 -10 11 -27 25 -36 30 -15 8 -18 5 -18 -21z"></path><path id="pJPdX23YK" d="M560 1070 c0 -11 -7 -20 -15 -20 -9 0 -15 -9 -15 -25 0 -22 4 -25 38 -24 34 0 35 1 12 10 l-24 10 29 24 c17 13 33 24 38 25 4 0 7 5 7 10 0 6 -16 10 -35 10 -28 0 -35 -4 -35 -20z"></path><path id="pzTlSwWGn" d="M780 1042 c0 -8 52 -42 64 -42 3 0 6 11 6 25 0 22 -4 25 -35 25 -19 0 -35 -4 -35 -8z"></path><path id="p4sg5hegO" d="M370 991 c0 -22 -6 -30 -25 -35 -16 -4 -25 -13 -25 -26 0 -13 -7 -20 -20 -20 -11 0 -20 -7 -20 -15 0 -8 -4 -15 -10 -15 -5 0 -10 -16 -10 -35 0 -50 20 -43 49 15 13 28 28 50 32 50 4 0 16 16 27 35 12 19 32 37 46 41 40 10 33 34 -9 34 -32 0 -35 -3 -35 -29z"></path><path id="pSYaKRjf6" d="M1050 955 c0 -33 2 -35 35 -35 33 0 35 2 35 35 0 33 -2 35 -35 35 -33 0 -35 -2 -35 -35z"></path><path id="pFs0xgsoa" d="M157 902 c-31 -67 -33 -82 -12 -82 8 0 15 -7 15 -15 0 -8 -4 -15 -10 -15 -5 0 -10 -13 -10 -29 0 -20 -6 -30 -20 -34 -16 -4 -20 -14 -20 -46 0 -39 2 -41 30 -41 28 0 30 2 30 40 0 36 3 40 25 40 16 0 25 6 25 15 0 8 5 15 10 15 6 0 10 18 10 40 0 30 -4 40 -16 40 -11 0 -14 5 -9 18 3 9 9 38 12 65 5 41 4 47 -13 47 -13 0 -27 -17 -47 -58z"></path><path id="p1D40pxYCa" d="M430 920 c-18 -16 -28 -34 -25 -41 6 -8 10 -7 17 2 7 11 8 9 4 -5 -3 -10 -1 -36 5 -57 10 -30 15 -36 25 -28 16 13 34 4 34 -17 0 -8 9 -14 21 -14 12 0 18 -4 13 -11 -5 -8 3 -10 27 -4 19 4 84 10 144 13 61 4 115 10 122 15 7 4 13 0 16 -10 4 -14 5 -14 6 3 2 37 65 48 76 14 3 -11 13 -20 21 -20 18 0 20 109 2 133 -15 19 -178 45 -335 54 -90 5 -93 5 -93 -16 0 -19 6 -21 53 -22 28 0 115 -8 192 -18 l140 -18 -85 -7 c-47 -5 -120 -8 -163 -8 -65 0 -83 4 -112 23 -22 16 -35 32 -35 47 0 32 -31 28 -70 -8z"></path><path id="pcVA2iqqj" d="M1110 850 c0 -29 4 -40 15 -40 17 0 20 -25 5 -35 -5 -3 -10 -22 -10 -41 0 -33 1 -34 41 -34 54 0 73 20 66 67 -4 20 -13 41 -21 45 -8 5 -21 15 -29 23 -8 8 -17 12 -19 9 -3 -3 -3 7 -1 21 5 22 2 25 -21 25 -24 0 -26 -4 -26 -40z"></path><path id="pxufwmK9S" d="M997 858 c5 -7 24 -37 42 -65 19 -29 38 -53 42 -53 5 0 9 16 9 35 0 28 -4 35 -20 35 -16 0 -20 7 -20 30 0 27 -3 30 -30 30 -23 0 -29 -3 -23 -12z"></path><path id="pyUlwPPSy" d="M280 639 c0 -59 -4 -84 -15 -96 -14 -14 -18 -14 -33 0 -9 9 -41 19 -70 23 l-52 7 26 -47 c25 -45 26 -45 53 -32 34 18 101 31 101 20 0 -5 -21 -16 -47 -24 -54 -17 -69 -40 -26 -40 81 1 101 34 102 174 0 88 -2 96 -20 96 -17 0 -19 -7 -19 -81z"></path><path id="p15ZuASgxm" d="M1078 633 c-24 -4 -28 -9 -28 -38 0 -22 6 -38 18 -44 15 -9 15 -10 -5 -11 -20 0 -23 -5 -23 -45 0 -31 -4 -45 -13 -45 -8 0 -18 -10 -24 -23 -10 -22 -25 -41 -92 -118 l-33 -39 30 0 c43 0 62 -9 62 -31 0 -23 -9 -24 -38 -3 -36 25 -78 34 -97 20 -14 -10 -9 -16 40 -41 64 -34 71 -41 50 -49 -8 -3 -14 0 -12 7 1 7 -6 11 -15 9 -10 -2 -18 1 -18 7 0 13 -67 51 -91 51 -10 0 -19 3 -19 8 0 4 -8 12 -19 19 -14 9 -24 8 -46 -3 -15 -8 -36 -14 -46 -14 -15 0 -19 -7 -19 -36 l0 -37 45 5 45 6 0 -34 c0 -42 15 -44 35 -4 20 38 26 38 15 0 -5 -16 -5 -30 0 -30 26 0 40 15 40 41 0 32 19 39 40 14 10 -13 9 -15 -9 -15 -14 0 -21 -6 -21 -20 0 -27 22 -25 84 7 62 33 83 53 92 87 4 17 13 26 26 26 11 0 22 8 25 20 3 12 14 20 25 20 16 0 19 5 16 25 -5 25 7 36 14 13 12 -35 83 89 74 128 -5 17 -3 22 8 18 8 -3 16 3 19 15 4 17 0 21 -19 23 -13 0 -28 1 -33 2 -9 1 -55 -51 -114 -126 l-18 -23 12 25 c7 14 30 49 51 78 34 46 37 55 27 75 -11 19 -10 20 2 10 12 -9 24 -10 52 -1 36 11 52 38 22 38 -8 0 -15 9 -15 20 0 17 -6 20 -37 19 -21 -1 -50 -4 -65 -6z"></path><path id="pyvObmPeV" d="M590 586 c0 -2 18 -6 40 -8 22 -2 40 0 40 4 0 5 -18 8 -40 8 -22 0 -40 -2 -40 -4z"></path><path id="pxOXXjTO2" d="M250 385 c0 -8 -4 -15 -10 -15 -5 0 -10 -6 -10 -14 0 -8 -6 -17 -12 -20 -9 -3 -6 -11 10 -24 12 -11 22 -23 22 -27 0 -18 35 -37 80 -42 42 -5 50 -3 50 11 0 9 7 16 15 16 23 0 2 -44 -24 -48 -12 -2 -21 -11 -21 -21 0 -35 246 -126 292 -108 7 3 4 6 -9 6 -12 1 -24 5 -27 10 -8 12 48 22 84 15 26 -6 30 -4 30 15 0 18 -6 21 -42 21 -24 0 -73 3 -110 7 -64 6 -68 7 -68 31 0 13 -5 53 -12 87 l-11 63 -69 -29 -69 -28 -24 25 c-13 14 -27 39 -30 55 -7 30 -35 41 -35 14z"></path><path id="pyzWwRQFg" d="M510 235 c0 -33 2 -35 35 -35 33 0 35 2 35 35 0 33 -2 35 -35 35 -33 0 -35 -2 -35 -35z"></path></g></g><g id="l6cQgPfAfqi3HI203Yl8hMe" fill="rgb(197,166,69)" style="transform: none;"><g><path id="ppdCusPHH" d="M575 1221 c-3 -5 -1 -12 5 -16 5 -3 10 0 11 7 1 7 4 2 8 -12 10 -34 7 -36 -27 -11 -35 25 -51 26 -97 7 -26 -11 -35 -21 -35 -39 0 -19 -8 -26 -41 -36 -32 -10 -38 -15 -29 -26 7 -8 7 -16 2 -19 -6 -3 -12 1 -16 9 -8 21 -50 19 -70 -3 -15 -17 -15 -22 -1 -55 10 -25 22 -37 35 -37 13 0 18 -6 17 -20 -1 -11 -7 -20 -14 -20 -8 0 -13 -12 -13 -30 0 -37 9 -38 35 -3 11 15 32 41 48 59 15 17 27 39 27 48 0 12 9 16 35 16 28 0 35 4 35 20 0 13 7 20 20 20 16 0 20 7 20 31 0 24 3 30 16 25 9 -3 27 -6 40 -6 15 0 24 -6 24 -15 0 -8 -9 -15 -20 -15 -11 0 -20 -4 -20 -9 0 -5 -9 -11 -20 -14 -15 -4 -20 -14 -20 -41 0 -35 1 -36 38 -35 23 1 28 3 15 6 -28 5 -29 14 -4 35 38 32 67 42 114 39 42 -3 47 -1 47 18 0 14 6 21 20 21 11 0 20 6 20 14 0 8 6 17 13 20 6 3 -1 4 -17 0 -26 -5 -28 -3 -17 10 8 9 21 16 31 16 10 0 23 6 29 14 13 15 3 19 -81 31 -45 7 -47 6 -50 -21 l-3 -28 -27 27 c-27 26 -71 36 -83 18z"></path><path id="pipFvmZXK" d="M873 1173 c-7 -2 -13 -13 -13 -24 0 -10 -4 -19 -10 -19 -5 0 -10 -10 -10 -22 -1 -23 -1 -23 -15 2 -14 25 -14 25 -14 -15 1 -63 11 -82 59 -114 59 -40 70 -39 70 4 0 31 -3 35 -25 35 -21 0 -25 5 -25 28 0 15 -3 37 -6 50 -4 13 -2 22 5 22 6 0 11 -16 11 -35 0 -32 2 -35 30 -35 21 0 30 -5 30 -16 0 -13 8 -15 40 -12 l39 3 -6 -57 c-5 -54 -5 -58 16 -58 18 0 21 -6 21 -45 0 -38 -3 -45 -20 -45 -23 0 -26 -13 -6 -29 8 -7 17 -23 20 -36 10 -39 36 -32 36 10 0 27 4 35 18 35 13 0 14 -2 3 -9 -10 -7 -12 -22 -7 -60 7 -50 6 -51 -19 -51 -28 0 -55 -21 -75 -58 -10 -21 -9 -27 9 -46 12 -12 21 -31 21 -42 0 -24 -22 -74 -32 -74 -5 0 -8 -7 -8 -15 0 -17 -3 -21 -45 -69 -14 -16 -25 -33 -25 -39 0 -14 -49 -54 -82 -68 -34 -14 -36 -27 -3 -39 13 -5 43 -21 65 -35 39 -25 43 -25 60 -10 10 9 20 29 24 46 3 17 12 29 21 29 9 0 30 7 46 16 28 14 30 19 25 52 -6 35 -6 36 9 17 16 -20 16 -20 36 4 11 14 18 33 16 43 -3 10 -1 16 3 13 15 -9 31 33 24 61 -5 18 -3 25 4 20 6 -4 16 2 21 13 10 17 7 20 -20 26 -27 6 -35 2 -60 -26 -16 -19 -44 -56 -63 -84 -37 -55 -73 -91 -82 -83 -2 3 8 19 23 36 15 16 50 59 76 96 39 54 46 70 37 85 -15 29 -12 36 8 18 12 -11 22 -13 32 -7 8 5 27 10 43 10 24 0 27 4 27 35 0 19 -4 35 -10 35 -5 0 -10 16 -10 35 0 19 5 35 11 35 23 0 -2 84 -33 114 -27 26 -30 34 -25 71 5 33 2 46 -13 63 -11 12 -20 25 -20 30 0 11 -74 90 -118 125 -19 15 -44 27 -58 27 -14 0 -24 6 -24 14 0 20 -30 31 -57 19z m267 -798 c0 -8 -4 -15 -10 -15 -5 0 -10 7 -10 15 0 8 5 15 10 15 6 0 10 -7 10 -15z"></path><path id="psGiE0WWI" d="M184 955 c-3 -8 -3 -18 0 -24 4 -5 1 -13 -5 -17 -8 -5 -10 -2 -5 7 4 8 0 5 -9 -6 -51 -64 -82 -317 -44 -361 9 -11 19 -27 22 -37 8 -23 35 -33 50 -18 8 8 8 11 -1 11 -7 0 -12 5 -12 10 0 6 7 6 18 -1 27 -17 72 -3 72 21 0 13 -7 20 -20 20 -13 0 -20 7 -20 20 0 13 7 20 20 20 16 0 20 7 20 35 0 33 -2 35 -31 35 -30 0 -31 1 -25 32 14 73 19 138 8 138 -6 0 -7 13 -1 38 15 65 12 92 -11 92 -11 0 -23 -7 -26 -15z m-11 -85 c-5 -19 -23 -29 -23 -12 0 7 20 32 26 32 1 0 0 -9 -3 -20z m27 -236 c0 -31 -23 -28 -28 4 -2 15 2 22 12 22 11 0 16 -9 16 -26z"></path><path id="p1CLawqLOm" d="M451 935 c-38 -21 -55 -57 -23 -49 9 3 39 -10 66 -27 47 -32 52 -33 155 -33 58 -1 123 3 144 7 25 5 37 3 37 -4 0 -8 5 -7 16 2 10 8 18 9 22 3 4 -6 20 -10 36 -10 31 1 47 25 38 58 -5 22 -10 23 -182 42 -216 24 -282 26 -309 11z"></path><path id="pQ4PAEMyZ" d="M280 725 c0 -28 4 -35 20 -35 16 0 20 7 20 35 0 28 -4 35 -20 35 -16 0 -20 -7 -20 -35z"></path><path id="p17GZVeSbC" d="M180 455 c-18 -22 -6 -80 25 -121 22 -29 29 -33 42 -23 12 11 13 9 8 -13 -6 -22 1 -32 47 -70 67 -58 156 -103 242 -122 75 -18 134 -21 78 -5 -18 5 -30 14 -27 19 6 10 96 6 131 -5 17 -5 23 0 37 36 20 51 34 46 17 -6 -7 -20 -10 -39 -7 -42 6 -5 97 22 129 38 20 10 13 39 -8 39 -8 0 -14 4 -14 10 0 5 -19 19 -42 31 -35 18 -47 20 -77 10 -42 -13 -55 -6 -16 9 l28 11 -34 23 -34 23 -10 -21 c-14 -28 -105 -37 -105 -11 0 14 -8 16 -44 14 -40 -4 -44 -2 -54 24 -9 24 -15 28 -44 25 -28 -2 -34 -7 -36 -30 -4 -32 -22 -38 -22 -8 0 17 -3 18 -26 9 -33 -12 -58 7 -76 57 -8 22 -19 34 -30 34 -14 0 -18 8 -18 40 0 35 -3 40 -24 40 -13 0 -29 -7 -36 -15z m269 -216 c-7 -19 -16 -38 -21 -44 -5 -5 -4 3 1 18 6 16 11 40 11 55 0 17 3 23 10 16 7 -7 7 -21 -1 -45z m111 -110 c0 -5 -11 -9 -25 -9 -33 0 -33 15 0 16 14 1 25 -2 25 -7z"></path></g></g><g id="l6Ib8UQb6mnPountef6bWHT" fill="rgb(190,160,86)" style="transform: none;"><g><path id="p02d9iu3c" d="M575 1221 c-3 -5 -1 -12 4 -15 5 -4 12 0 14 6 4 8 8 4 12 -9 10 -31 35 -29 35 2 0 21 -5 25 -29 25 -17 0 -32 -4 -36 -9z"></path><path id="pAFARTc9d" d="M700 1210 c0 -15 7 -20 28 -20 15 0 33 5 40 12 9 9 12 8 12 -5 0 -22 24 -22 41 0 13 15 12 16 -9 11 -14 -4 -20 -2 -16 4 5 7 -2 9 -18 5 -14 -4 -28 -4 -32 0 -3 4 -15 8 -26 10 -14 2 -20 -3 -20 -17z"></path><path id="pwx5tlsrf" d="M493 1203 c-7 -2 -13 -11 -13 -20 0 -12 9 -14 43 -9 23 3 46 5 51 5 6 1 1 8 -10 16 -19 14 -48 18 -71 8z"></path><path id="pG129zuCo" d="M743 1182 c-14 -2 -23 -10 -23 -22 0 -37 12 -50 46 -50 27 0 34 -4 34 -20 0 -15 -7 -20 -25 -20 -15 0 -25 6 -25 14 0 16 -43 26 -111 26 -45 0 -49 -2 -49 -24 0 -23 2 -24 29 -15 35 12 93 -1 166 -39 83 -44 85 -45 85 -17 0 16 -6 25 -16 25 -8 0 -12 5 -9 10 4 6 11 8 16 5 5 -4 9 1 9 9 0 10 9 16 25 16 22 0 25 4 25 35 0 33 -2 35 -35 35 -37 0 -40 -6 -36 -60 2 -24 1 -24 -17 5 -10 17 -21 38 -25 48 -6 15 -13 17 -39 12 -31 -7 -32 -6 -13 8 23 18 19 24 -12 19z"></path><path id="pODmLCYl9" d="M930 1135 c0 -16 6 -25 15 -25 8 0 15 -4 15 -10 0 -5 7 -10 15 -10 8 0 15 5 15 11 0 5 5 7 10 4 6 -3 10 -17 10 -31 0 -17 5 -24 20 -24 13 0 20 -7 20 -19 0 -23 16 -36 25 -21 4 6 11 8 16 4 16 -9 -1 -24 -27 -24 -23 0 -25 -3 -22 -37 3 -36 5 -38 40 -41 33 -3 37 -1 42 25 2 15 2 -9 0 -53 -5 -78 -4 -82 18 -87 12 -4 25 -1 29 4 5 8 9 8 13 0 4 -6 15 -11 24 -11 12 0 8 9 -17 32 -30 28 -33 35 -28 71 5 34 1 48 -26 86 -38 55 -79 97 -142 145 -55 43 -65 44 -65 11z m219 -294 c-15 -5 -22 6 -14 19 6 9 10 9 16 -1 5 -8 4 -15 -2 -18z"></path><path id="paEM4mgaV" d="M285 1080 c-19 -21 -19 -21 18 -18 28 1 37 6 37 20 0 25 -32 23 -55 -2z"></path><path id="po5Ci3iWi" d="M400 1010 c0 -21 16 -25 58 -14 39 11 27 34 -18 34 -33 0 -40 -3 -40 -20z"></path><path id="pHvvVGQO5" d="M204 982 c-16 -10 -72 -130 -80 -169 -6 -28 -4 -33 14 -33 14 0 21 9 26 32 4 18 2 34 -4 38 -12 7 12 74 31 86 8 5 8 1 0 -13 -10 -19 -6 -33 10 -33 4 0 10 11 13 25 6 24 26 36 26 15 0 -5 9 -10 21 -10 17 0 19 -4 13 -22 -3 -13 -11 -24 -15 -26 -14 -6 -10 -59 6 -99 8 -19 15 -53 15 -74 0 -28 4 -39 15 -39 8 0 16 6 16 13 8 65 6 87 -8 120 -17 40 -11 64 27 105 9 9 15 23 12 30 -2 6 3 12 12 12 9 0 16 6 16 14 0 8 6 17 13 19 6 3 -3 6 -22 6 -25 1 -32 -2 -27 -14 7 -20 -3 -19 -55 5 -48 22 -59 23 -75 12z"></path><path id="p18RATtWJ4" d="M880 979 c0 -11 34 -29 54 -29 9 0 16 8 16 20 0 16 -6 19 -35 18 -19 -1 -35 -5 -35 -9z"></path><path id="pYt1hwAyk" d="M540 920 c-12 -8 -11 -10 8 -10 12 0 22 5 22 10 0 13 -11 13 -30 0z"></path><path id="pWg0RPSqy" d="M620 914 c0 -12 66 -24 126 -24 19 0 34 5 34 10 0 6 -7 10 -15 10 -8 0 -15 4 -15 9 0 4 -29 8 -65 7 -40 -1 -65 -5 -65 -12z"></path><path id="pJEhQYYGG" d="M900 881 c0 -23 15 -35 35 -27 20 7 7 46 -16 46 -12 0 -19 -7 -19 -19z"></path><path id="pkl2r7k5E" d="M990 875 c10 -27 14 -32 54 -78 29 -33 27 -76 -4 -137 -24 -47 -24 -50 -4 -50 9 0 12 5 8 12 -10 15 11 3 62 -39 38 -30 42 -32 60 -17 10 8 13 13 7 9 -7 -3 -13 -2 -13 4 0 5 -9 13 -20 16 -11 4 -18 11 -15 16 4 5 -7 9 -22 9 -27 0 -29 2 -25 35 2 19 8 35 13 35 5 0 9 23 9 50 0 28 -4 50 -10 50 -5 0 -10 8 -10 18 0 9 -11 30 -25 46 -14 16 -25 33 -25 38 0 4 -11 8 -25 8 -22 0 -24 -2 -15 -25z"></path><path id="p586rhjQX" d="M106 728 c-13 -50 -4 -158 14 -158 13 0 19 39 6 44 -7 3 -7 5 2 5 7 1 12 14 12 32 0 27 -2 30 -15 19 -20 -17 -21 9 0 36 18 24 19 44 1 44 -7 0 -16 -10 -20 -22z"></path><path id="pf3nI7Rgh" d="M1200 670 c0 -27 4 -40 14 -40 16 0 26 32 19 60 -10 37 -33 23 -33 -20z"></path><path id="p4YHBuuXZ" d="M280 600 c0 -39 -1 -40 -35 -40 -19 0 -35 -4 -35 -9 0 -4 -12 -6 -26 -3 -19 3 -25 1 -20 -7 4 -6 3 -11 -3 -11 -5 0 -11 6 -14 13 -2 6 -7 10 -10 7 -3 -3 1 -20 9 -39 13 -32 15 -33 37 -18 27 18 128 35 112 19 -5 -5 -28 -15 -50 -22 -51 -16 -75 -37 -75 -66 0 -33 18 -76 30 -69 5 3 7 0 5 -8 -3 -7 4 -22 16 -33 20 -17 22 -17 16 -2 -4 11 -2 17 5 15 6 -1 13 4 16 12 3 8 0 11 -7 7 -6 -4 -11 -2 -11 3 0 13 3 13 23 5 13 -5 13 -9 0 -35 -15 -31 -10 -76 6 -50 6 10 14 7 32 -11 14 -13 20 -20 15 -15 -6 4 -17 7 -25 7 -24 -1 46 -57 111 -89 31 -16 59 -26 62 -24 3 3 12 -2 21 -11 9 -9 28 -15 43 -15 l27 2 -28 4 c-15 2 -25 9 -22 14 4 5 -2 17 -11 26 -13 13 -19 14 -22 5 -5 -17 -31 -15 -38 3 -4 8 -10 12 -15 10 -9 -6 -69 21 -69 31 0 2 9 0 19 -6 29 -15 45 -12 27 5 -8 8 -24 15 -35 15 -13 0 -21 6 -21 16 0 9 -15 29 -32 45 -30 26 -31 28 -9 22 24 -6 24 -6 7 18 -35 51 -39 92 -12 161 15 37 24 77 22 98 -2 19 -4 41 -5 48 -1 6 -8 12 -16 12 -11 0 -15 -11 -15 -40z m-40 -195 c0 -19 -4 -35 -8 -35 -5 0 -13 16 -19 35 -10 32 -9 35 8 35 15 0 19 -7 19 -35z m-30 -20 c0 -8 -4 -15 -10 -15 -5 0 -10 7 -10 15 0 8 5 15 10 15 6 0 10 -7 10 -15z"></path><path id="p2nliMiRz" d="M1072 567 c5 -27 -6 -37 -42 -37 -10 0 -20 -10 -24 -22 -10 -37 -7 -48 12 -48 15 0 18 -7 16 -32 -2 -18 -1 -25 2 -15 3 9 10 17 15 17 5 0 9 5 9 11 0 7 10 22 23 34 54 55 55 71 10 101 -25 16 -26 16 -21 -9z"></path><path id="pQLI6IzxC" d="M1126 493 c-16 -20 -25 -33 -19 -30 6 4 14 1 16 -5 3 -7 6 -3 6 9 1 16 6 20 21 16 12 -3 20 0 20 6 0 7 -5 9 -12 5 -9 -5 -8 -2 1 9 13 16 14 16 27 0 12 -16 15 -16 23 -3 8 11 6 17 -7 22 -33 13 -47 8 -76 -29z"></path><path id="p11W4kT0BZ" d="M1078 433 c-24 -28 -30 -53 -13 -53 9 0 15 -9 15 -23 0 -26 -39 -51 -65 -41 -10 4 -15 0 -15 -10 0 -9 -4 -16 -10 -16 -5 0 -7 -7 -3 -16 8 -21 -21 -44 -56 -45 -14 0 -20 -3 -13 -6 6 -2 12 -9 12 -14 0 -6 -6 -7 -12 -4 -7 4 -2 -3 12 -14 14 -11 28 -21 31 -21 17 0 41 43 41 77 0 21 3 32 5 26 6 -17 28 -16 63 2 26 13 28 19 23 50 -3 22 -2 35 5 35 6 0 10 17 9 39 -2 30 1 37 9 30 23 -19 27 -62 8 -76 -10 -7 -15 -16 -11 -19 9 -9 35 14 42 37 4 10 0 26 -7 34 -7 8 -19 21 -26 30 -17 19 -25 19 -44 -2z m2 -129 c0 -8 -4 -12 -10 -9 -5 3 -10 2 -10 -3 0 -5 -9 -12 -19 -15 -12 -3 -18 0 -15 7 4 10 13 16 52 35 1 0 2 -6 2 -15z m-111 -100 c-14 -18 -24 -11 -15 11 3 9 11 13 16 10 8 -5 7 -11 -1 -21z"></path><path id="pc9L1PkYx" d="M990 416 c0 -8 -12 -27 -26 -43 -18 -20 -24 -34 -19 -53 4 -17 3 -21 -4 -11 -7 11 -13 10 -32 -9 -13 -12 -37 -27 -52 -32 -15 -6 -26 -15 -24 -22 5 -14 57 -21 57 -7 0 6 16 11 36 11 35 0 35 1 34 38 -3 51 0 60 10 37 9 -20 9 -20 9 0 1 11 10 28 21 38 24 20 27 67 5 67 -8 0 -15 -7 -15 -14z"></path><path id="p15O50v9Md" d="M423 325 c-57 -26 -69 -45 -28 -45 22 0 25 -5 25 -32 0 -49 20 -13 20 37 l1 40 13 -30 c7 -16 9 -33 4 -36 -4 -3 -1 -14 7 -25 13 -16 16 -17 25 -4 5 8 10 25 10 38 0 19 3 21 19 12 25 -13 81 -13 81 0 0 8 -112 72 -122 69 -2 0 -27 -11 -55 -24z"></path><path id="psChReLCB" d="M668 293 c-33 -8 -20 -33 17 -33 19 0 35 -4 35 -10 0 -8 8 -8 49 -1 7 2 -70 51 -77 50 -4 -1 -15 -3 -24 -6z"></path><path id="pkYCIqClC" d="M750 225 c-16 -9 -20 -15 -10 -16 8 -1 22 -2 30 -3 8 -1 21 3 28 8 7 5 16 6 19 2 4 -4 1 -11 -7 -16 -11 -7 -6 -10 18 -10 40 0 41 10 3 33 -35 20 -48 21 -81 2z"></path><path id="pQGcpLiF" d="M873 173 c-13 -2 -23 -9 -23 -14 0 -6 -14 -7 -35 -3 -26 5 -35 3 -36 -7 0 -8 -2 -22 -4 -31 -2 -10 0 -18 4 -18 18 0 145 50 155 61 8 9 7 10 -6 6 -10 -4 -18 -2 -18 3 0 6 -3 9 -7 9 -5 -1 -18 -4 -30 -6z"></path><path id="p7U61aqhW" d="M725 150 c7 -22 -5 -26 -23 -8 -9 9 -12 9 -12 0 0 -11 31 -32 48 -32 6 0 15 14 21 30 9 28 8 30 -15 30 -21 0 -24 -4 -19 -20z"></path><path id="p1CeQxqF7e" d="M566 135 c4 -8 13 -15 21 -15 12 0 12 2 -1 15 -8 8 -17 15 -20 15 -3 0 -3 -7 0 -15z"></path><path id="p18CniG9Be" d="M575 100 c11 -5 31 -8 45 -8 l25 0 -25 8 c-14 4 -34 8 -45 8 l-20 1 20 -9z"></path></g></g><g id="l5s6FkWJHpMZmBmPgJURcLf" fill="rgb(161,149,133)" style="transform: none;"><g></g></g><g id="l5VEmzeIErMIv4xAI8uc7JM" fill="rgb(212,181,83)" style="transform: none;"><g><path id="pblihJMQ0" d="M607 1206 c3 -14 9 -26 14 -26 5 0 9 -4 9 -9 0 -5 -11 -8 -24 -7 -13 0 -22 4 -20 7 8 13 -46 39 -71 35 -47 -9 -65 -17 -66 -32 -1 -8 -2 -19 -3 -26 0 -6 -21 -18 -45 -26 -28 -9 -39 -17 -31 -22 7 -5 15 -23 17 -42 l3 -33 -25 38 c-28 41 -40 44 -72 22 -19 -13 -20 -19 -10 -50 9 -31 14 -35 43 -35 18 0 36 -4 39 -10 4 -6 -5 -10 -21 -10 -22 0 -24 -2 -15 -14 10 -12 7 -14 -22 -13 -19 1 -33 5 -31 9 2 3 -10 11 -26 17 -26 9 -34 7 -50 -9 -22 -22 -27 -46 -8 -34 7 4 8 3 4 -5 -4 -6 -10 -28 -12 -48 -6 -45 -8 -48 -26 -29 -14 13 -17 10 -28 -27 -7 -23 -16 -66 -20 -96 -7 -53 -7 -53 11 -30 17 22 23 42 20 62 -1 9 12 9 33 1 9 -3 16 -11 16 -16 0 -6 -7 -8 -15 -4 -11 4 -15 -1 -15 -17 0 -13 -13 -35 -28 -50 -22 -22 -28 -34 -25 -60 6 -43 34 -97 51 -97 9 0 12 -6 8 -16 -4 -10 -1 -14 6 -11 7 2 12 11 10 21 -2 9 2 16 8 16 5 0 10 -4 10 -10 0 -5 9 -10 21 -10 11 0 17 4 14 10 -4 7 2 9 19 4 23 -5 26 -3 26 20 0 16 -6 26 -15 26 -8 0 -15 5 -15 10 0 6 9 10 21 10 17 0 20 5 17 37 -2 28 -9 41 -28 50 -27 13 -37 42 -39 109 -1 50 24 105 44 97 8 -3 15 -9 15 -14 0 -20 20 -7 41 29 28 45 66 81 97 93 13 5 22 17 22 29 0 16 7 20 30 20 22 0 30 5 30 18 0 18 47 48 58 37 3 -3 0 -5 -6 -5 -7 0 -12 -7 -12 -15 0 -8 -4 -15 -10 -15 -5 0 -10 -13 -10 -30 0 -28 2 -30 38 -29 20 1 29 3 20 6 -28 7 -21 30 16 53 19 11 36 26 39 33 2 8 11 7 30 -6 28 -18 73 -23 79 -8 3 10 22 14 51 12 12 -1 17 -10 17 -31 0 -16 6 -34 13 -39 60 -50 78 -61 101 -61 16 0 26 6 26 15 0 8 9 15 19 15 37 0 51 -12 51 -41 0 -22 5 -29 19 -29 20 0 37 -40 22 -50 -25 -15 -2 -130 26 -130 7 0 13 -6 13 -14 0 -27 -12 -46 -29 -46 -9 0 -24 -14 -33 -31 -20 -34 -23 -59 -8 -59 15 0 12 -33 -5 -56 -8 -12 -19 -43 -25 -70 -5 -27 -12 -59 -15 -71 -3 -13 -11 -23 -18 -23 -7 0 -17 -13 -23 -28 -7 -17 -33 -43 -64 -63 l-52 -34 33 -13 c19 -8 42 -21 52 -30 17 -15 20 -15 36 6 17 24 34 21 24 -4 -3 -8 0 -14 6 -14 12 0 26 46 22 74 -2 11 2 16 8 12 6 -4 11 -3 11 3 0 5 14 16 30 25 26 13 30 13 30 0 0 -9 -3 -13 -7 -11 -5 3 -17 -5 -28 -16 l-20 -20 35 19 c30 17 35 25 32 52 -2 18 1 32 7 32 6 0 11 14 11 30 0 17 5 30 10 30 6 0 10 -6 10 -14 0 -8 6 -16 13 -19 8 -3 7 -10 -7 -26 -11 -11 -17 -23 -14 -26 3 -3 13 6 22 19 15 23 14 27 -2 55 -9 18 -23 29 -30 26 -7 -3 -10 0 -7 5 3 6 2 10 -4 10 -5 0 -19 -16 -32 -36 -12 -20 -33 -48 -45 -62 -13 -14 -24 -33 -24 -43 0 -24 -26 -25 -34 -2 -6 15 -8 15 -16 3 -6 -8 -10 -10 -10 -4 0 6 7 17 15 24 12 10 15 10 15 -4 0 -9 4 -16 10 -16 5 0 7 7 4 15 -4 9 6 28 25 47 17 17 31 38 31 45 0 7 5 13 10 13 6 0 10 7 10 15 0 9 7 18 15 21 12 5 13 10 4 20 -15 18 -2 39 16 24 9 -8 14 -6 19 6 10 26 8 31 -36 74 -46 46 -36 44 25 -3 30 -23 43 -28 65 -21 15 4 35 6 45 5 15 -2 17 8 17 82 0 46 -3 87 -7 91 -4 4 -7 19 -8 34 0 25 -28 48 -79 65 -5 2 -6 9 -2 16 7 10 10 10 16 1 5 -7 9 5 12 30 3 35 -2 51 -24 84 -40 61 -120 137 -182 175 -51 30 -58 32 -91 21 -19 -6 -35 -15 -35 -18 1 -21 13 -51 20 -47 5 3 6 -4 3 -15 -3 -11 -7 -20 -9 -20 -2 0 -12 20 -23 45 -20 46 -29 53 -47 35 -5 -5 -15 -6 -24 0 -12 8 -12 10 3 16 27 10 20 22 -10 18 -17 -2 -20 -1 -8 2 11 4 25 10 32 15 7 7 12 6 15 -2 3 -9 9 -9 24 -1 14 9 15 12 4 13 -8 1 -26 4 -40 6 -14 1 -57 6 -96 9 l-72 6 5 -26z m57 -65 c17 -19 17 -19 -3 -14 -12 3 -21 12 -21 19 0 18 4 18 24 -5z m426 -190 c0 -4 -7 -8 -15 -8 -16 0 -20 9 -9 20 8 8 24 -1 24 -12z m93 -166 c-5 -13 -23 -22 -23 -11 0 15 14 35 21 31 4 -3 6 -12 2 -20z m-3 -51 c0 -21 -27 -17 -33 5 -3 14 0 17 14 14 11 -3 19 -12 19 -19z m-30 -119 c0 -8 -7 -15 -15 -15 -9 0 -12 6 -9 15 4 8 10 15 15 15 5 0 9 -7 9 -15z m-1000 -44 c0 -9 5 -22 12 -29 7 -7 8 -12 4 -12 -13 0 -35 33 -36 53 0 10 5 15 10 12 6 -3 10 -14 10 -24z m842 -309 c4 -12 -1 -18 -13 -19 -19 -2 -26 17 -12 30 11 12 20 8 25 -11z"></path><path id="p1AsVY86SG" d="M541 921 c-27 -17 25 -31 116 -31 52 0 127 -8 179 -20 111 -24 106 -24 102 3 -3 20 -10 23 -78 29 -41 3 -118 11 -170 17 -116 13 -131 13 -149 2z"></path><path id="p1DLT9qSfQ" d="M250 750 c0 -38 2 -40 30 -40 23 0 31 5 36 25 8 31 -10 55 -42 55 -21 0 -24 -5 -24 -40z"></path><path id="p1DGrRjP8p" d="M1138 503 c-19 -19 -24 -33 -18 -42 6 -11 9 -9 13 10 l4 24 2 -25 c1 -21 3 -22 12 -10 9 12 10 11 6 -5 -5 -26 18 -51 27 -29 9 25 7 41 -4 24 -7 -11 -10 -7 -10 18 0 24 -4 31 -12 26 -8 -5 -8 -1 1 10 13 15 15 16 23 2 11 -20 28 -21 28 -1 0 8 -4 15 -9 15 -5 0 -16 2 -23 5 -8 3 -26 -7 -40 -22z"></path><path id="priWWR8s5" d="M223 480 c-41 -18 -43 -21 -43 -62 0 -30 8 -55 25 -81 26 -38 42 -49 31 -22 -3 8 0 14 7 12 7 -1 11 6 11 15 -1 10 4 14 12 11 11 -4 12 -9 3 -19 -6 -7 -8 -18 -4 -24 4 -6 1 -18 -7 -27 -11 -15 -11 -16 4 -10 12 4 27 -3 45 -20 16 -14 20 -20 10 -13 -30 22 -31 2 -1 -24 33 -29 124 -76 147 -76 8 0 17 -5 19 -12 2 -6 10 -8 17 -4 7 5 10 15 6 23 -4 13 -3 13 9 4 7 -6 21 -9 30 -5 10 4 18 0 22 -10 12 -30 34 -18 34 18 0 19 3 41 6 50 12 30 19 16 16 -29 -4 -44 -3 -45 24 -45 16 0 45 -3 64 -6 33 -5 37 -3 53 31 10 21 16 40 13 43 -3 3 -9 -3 -12 -12 -5 -14 -9 -15 -15 -4 -5 7 -9 18 -9 23 0 6 5 3 10 -5 7 -12 10 -12 10 -1 0 7 6 11 14 8 7 -3 19 0 25 6 6 6 14 7 18 3 4 -4 3 -10 -3 -14 -14 -9 -34 -47 -34 -64 0 -9 3 -9 10 2 5 8 10 11 10 6 0 -5 -8 -18 -17 -29 -14 -16 -15 -19 -3 -15 8 3 41 13 72 23 43 14 56 23 55 36 -1 14 -7 17 -24 13 -18 -5 -22 -3 -18 9 4 9 -7 22 -31 36 -36 21 -39 22 -79 7 -22 -9 -56 -15 -75 -15 -32 2 -33 2 -6 6 15 3 42 13 58 23 l30 18 -23 13 c-28 15 -81 12 -91 -5 -5 -7 -8 -7 -8 0 0 6 -19 17 -42 24 -24 8 -60 24 -80 37 -20 12 -44 20 -53 17 -17 -7 -21 -49 -5 -59 6 -3 7 -17 4 -30 -3 -12 -1 -26 5 -30 6 -3 9 -11 5 -16 -4 -6 -11 -6 -20 2 -8 6 -14 7 -14 2 0 -5 -6 -17 -13 -27 -13 -17 -15 -17 -45 -2 -37 19 -43 31 -8 14 35 -15 58 11 64 73 5 55 4 56 -59 34 l-44 -16 -27 30 c-31 35 -46 107 -29 140 11 20 8 41 -7 41 -4 0 -26 -9 -49 -20z m-13 -95 c0 -8 -4 -15 -10 -15 -5 0 -10 7 -10 15 0 8 5 15 10 15 6 0 10 -7 10 -15z m350 -144 c0 -12 -20 -25 -27 -18 -7 7 6 27 18 27 5 0 9 -4 9 -9z m-92 -79 c3 -9 -2 -13 -14 -10 -9 1 -19 9 -22 16 -3 9 2 13 14 10 9 -1 19 -9 22 -16z m257 -13 c12 -18 -1 -20 -31 -4 l-29 15 27 0 c15 0 30 -5 33 -11z"></path></g></g><g id="l6rQw1tlzeIQCTDwChLUoSL" fill="rgb(210,181,106)" style="transform: none;"><g><path id="pdoRJdp8h" d="M612 1206 c12 -28 34 -40 43 -26 4 6 -1 10 -9 10 -26 0 -28 20 -4 29 21 9 21 10 -9 10 -31 1 -32 0 -21 -23z"></path><path id="pWmjZ4jZd" d="M680 1218 c0 -4 11 -8 25 -8 14 0 25 -4 25 -10 0 -5 5 -10 10 -10 15 0 12 30 -2 31 -7 0 -23 2 -35 3 -13 2 -23 -1 -23 -6z"></path><path id="pIyej3QXb" d="M788 1213 c6 -2 10 -8 7 -13 -3 -4 5 -6 17 -2 21 5 21 6 2 13 -10 4 -23 8 -29 8 -5 -1 -4 -3 3 -6z"></path><path id="pI9KYo4Uz" d="M476 1197 c-19 -6 -26 -16 -26 -33 0 -18 -8 -27 -27 -34 -16 -6 -37 -15 -48 -20 -17 -9 -15 -9 9 -5 26 6 27 5 12 -10 -24 -24 -20 -30 8 -11 18 11 26 12 29 3 9 -25 32 14 31 53 -1 37 1 40 35 50 29 8 38 7 47 -5 6 -8 19 -15 29 -15 15 0 13 3 -7 19 -26 21 -48 23 -92 8z"></path><path id="p4LzEpOJ2" d="M708 1173 c21 -8 13 -33 -10 -33 -21 -1 -22 -2 -5 -14 26 -20 20 -29 -8 -10 -15 10 -25 12 -25 5 0 -6 -17 -11 -40 -11 -36 0 -40 -3 -40 -25 0 -23 2 -24 28 -14 15 6 44 8 66 4 47 -7 178 -69 202 -96 9 -10 32 -22 51 -25 29 -6 38 -14 57 -58 13 -28 40 -69 59 -91 l36 -40 1 36 c0 27 -8 44 -30 67 -16 18 -30 39 -30 47 0 8 -4 15 -9 15 -5 0 -11 12 -13 27 -2 23 -9 29 -40 34 -21 3 -41 2 -47 -4 -5 -5 -12 -4 -16 4 -5 8 -4 10 3 5 7 -4 12 -2 12 3 0 6 -11 11 -24 11 -15 0 -26 7 -29 20 -3 14 -14 20 -31 20 -30 0 -35 17 -7 22 19 3 19 4 0 46 -19 41 -32 51 -44 32 -3 -5 -13 -6 -22 -3 -14 6 -14 7 0 18 13 9 9 11 -21 12 -20 0 -31 -2 -24 -4z m82 -76 c0 -9 -10 -12 -30 -9 -16 2 -30 8 -30 13 0 5 14 9 30 9 18 0 30 -5 30 -13z"></path><path id="pVLw4HtEr" d="M842 1161 c-22 -13 4 -83 36 -99 35 -16 39 -15 45 8 3 11 11 20 19 19 10 0 10 -2 1 -6 -18 -7 -16 -33 2 -33 25 0 17 39 -10 52 -27 12 -32 23 -12 32 6 3 3 5 -8 5 -44 -2 -54 1 -49 16 7 17 -4 19 -24 6z"></path><path id="p1GPi8dZ6m" d="M910 1158 c0 -6 3 -9 6 -5 14 14 184 -125 184 -150 0 -6 3 -13 8 -15 22 -9 49 -59 44 -83 -2 -14 -7 -23 -10 -21 -8 9 -32 -15 -32 -32 0 -13 3 -12 15 4 12 15 16 16 24 5 6 -9 10 0 13 29 3 34 -2 51 -22 80 -39 57 -67 90 -77 90 -4 0 -14 9 -20 20 -13 19 -111 90 -125 90 -5 0 -8 -5 -8 -12z"></path><path id="pdxoGcfRx" d="M285 1040 c3 -19 17 -46 30 -60 30 -32 32 -45 4 -30 -11 7 -27 9 -35 6 -8 -3 -13 -2 -10 3 3 5 -8 14 -24 20 -26 9 -34 7 -50 -9 -11 -11 -20 -25 -20 -31 0 -6 8 -1 19 12 16 20 21 22 42 11 13 -7 17 -11 8 -8 -12 3 -15 -1 -12 -15 4 -14 15 -19 42 -20 21 -1 27 -3 14 -6 -23 -5 -43 -47 -43 -94 0 -24 4 -29 25 -29 21 0 23 3 16 22 -8 21 13 78 32 86 4 2 7 9 7 16 0 14 43 53 79 73 15 7 64 14 116 15 50 0 75 3 57 5 -24 3 -32 8 -28 19 4 11 -9 14 -74 14 -54 0 -80 -4 -80 -12 0 -6 -3 -8 -6 -5 -4 3 -15 2 -25 -4 -14 -7 -19 -6 -19 3 0 8 -9 21 -20 31 -21 17 -28 9 -9 -10 7 -7 7 -13 0 -17 -5 -4 -17 6 -26 21 l-16 28 6 -35z"></path><path id="pOXBrcWDJ" d="M1070 991 c0 -6 -7 -11 -15 -11 -11 0 -15 -12 -15 -45 0 -43 1 -45 30 -45 17 0 30 5 30 11 0 6 7 9 15 5 8 -3 15 -1 15 4 0 9 -15 14 -33 11 -4 -1 -3 7 3 18 13 25 13 42 0 19 -9 -14 -17 -15 -49 -9 -2 1 2 8 9 16 7 8 16 12 21 9 5 -3 9 -1 9 5 0 5 -4 13 -10 16 -5 3 -10 1 -10 -4z"></path><path id="pQiZZySB8" d="M131 829 c-7 -23 -10 -44 -7 -47 3 -3 6 2 6 11 0 10 3 17 8 17 4 0 8 14 9 30 3 41 -2 38 -16 -11z"></path><path id="pvbncwds6" d="M180 825 c0 -8 5 -15 10 -15 6 0 10 -7 10 -15 0 -18 -16 -20 -23 -2 -4 8 -6 7 -6 -3 -1 -23 19 -40 46 -40 21 0 23 5 23 45 0 43 -1 45 -30 45 -20 0 -30 -5 -30 -15z"></path><path id="p14GEp9HUA" d="M1128 835 c-10 -10 4 -55 18 -55 8 0 11 6 8 15 -7 18 17 20 33 4 6 -6 17 -9 24 -7 9 3 5 10 -11 20 -30 19 -65 30 -72 23z"></path><path id="pGJFZxXCO" d="M283 740 c-1 -28 2 -40 12 -40 15 0 30 53 20 70 -14 23 -31 8 -32 -30z"></path><path id="pxFFaiuwZ" d="M1061 708 c-7 -24 -21 -57 -32 -74 -27 -45 -25 -68 6 -62 14 3 25 1 25 -4 0 -5 6 -6 13 -2 8 6 8 3 -2 -9 -7 -9 -10 -24 -7 -33 5 -13 1 -14 -23 -9 -28 6 -30 4 -36 -29 -4 -19 -4 -40 1 -47 4 -8 3 -10 -4 -5 -8 5 -12 0 -12 -13 0 -29 -11 -51 -25 -51 -7 0 -15 -9 -18 -20 -3 -11 -2 -20 2 -20 13 0 48 44 56 68 4 13 12 21 19 19 9 -4 11 2 8 19 -3 15 0 24 8 24 7 0 10 7 7 15 -4 8 -2 17 2 20 5 3 11 -2 15 -10 3 -8 11 -15 17 -15 8 0 8 5 -1 16 -11 13 -10 19 10 37 13 12 18 15 11 5 -7 -10 -8 -18 -2 -22 5 -4 13 3 16 15 6 16 -3 31 -36 65 -51 52 -40 59 16 9 22 -19 49 -34 60 -34 11 0 14 3 7 6 -6 2 -10 9 -7 14 3 4 -5 11 -19 15 -16 4 -23 11 -19 20 3 9 -2 14 -17 14 -17 0 -21 4 -15 18 4 9 10 36 12 60 4 33 2 42 -9 42 -9 0 -20 -17 -27 -42z"></path><path id="ply2sCAXb" d="M216 544 c-9 -25 -7 -34 9 -34 9 0 12 6 9 15 -4 8 -1 15 5 15 6 0 11 -4 11 -9 0 -5 14 -11 30 -13 23 -4 30 -1 30 13 0 31 -83 43 -94 13z"></path><path id="pIhJgYH8g" d="M1154 519 c-5 -8 -3 -10 5 -5 7 5 21 0 32 -10 17 -16 19 -16 19 -1 0 10 -4 17 -9 17 -5 0 -16 3 -24 6 -8 3 -18 0 -23 -7z"></path><path id="pvFeacBwa" d="M166 504 c-9 -23 -2 -28 13 -10 7 8 8 17 3 20 -6 3 -13 -1 -16 -10z"></path><path id="pL9qr20G6" d="M223 480 c-41 -18 -43 -21 -43 -62 0 -30 8 -55 26 -81 14 -21 29 -36 32 -32 4 3 2 9 -4 13 -39 26 -59 113 -32 140 14 14 44 16 52 3 4 -5 -4 -7 -16 -3 l-22 5 23 -24 c15 -16 21 -33 18 -51 -2 -16 2 -29 10 -32 7 -3 13 -11 13 -19 0 -21 43 -57 68 -57 13 0 22 -6 22 -16 0 -8 5 -12 11 -9 6 4 8 13 5 21 -3 8 -1 14 5 14 5 0 14 -10 19 -22 5 -13 9 -18 10 -13 0 6 5 3 11 -5 8 -11 9 -5 4 25 -4 22 -8 41 -9 43 -2 1 -23 -5 -47 -13 l-44 -16 -27 30 c-35 39 -47 111 -24 146 9 13 16 27 16 30 0 11 -36 4 -77 -15z"></path><path id="p18Dfvkfxm" d="M1175 440 c-4 -12 -5 -24 -2 -27 3 -2 8 5 12 17 4 12 5 24 2 27 -3 2 -8 -5 -12 -17z"></path><path id="pxXrozKua" d="M1137 363 c-11 -13 -17 -26 -14 -29 2 -3 12 7 21 22 23 33 17 39 -7 7z"></path><path id="pEAlQvn1f" d="M465 342 c-6 -4 -12 -17 -12 -30 -2 -19 2 -21 25 -15 15 3 32 6 39 6 20 0 15 13 -12 31 -28 18 -27 18 -40 8z"></path><path id="pnhjkEeO7" d="M883 282 c-35 -24 -49 -39 -40 -44 6 -4 15 -1 20 7 11 20 59 43 77 38 12 -4 13 -3 1 5 -7 5 -10 15 -7 21 10 15 8 14 -51 -27z"></path><path id="pkJye20wL" d="M1010 295 c1 -26 2 -28 11 -12 8 14 8 22 0 30 -8 8 -11 3 -11 -18z"></path><path id="pxJsK1tSa" d="M550 285 c0 -14 2 -25 4 -25 2 0 12 -3 22 -7 13 -5 15 -3 9 8 -6 11 -5 12 6 2 8 -8 43 -13 92 -13 l79 0 -30 25 c-26 22 -33 23 -66 14 -30 -8 -46 -7 -77 5 l-39 16 0 -25z"></path><path id="pBL1EDbKO" d="M290 243 c1 -10 84 -73 95 -73 5 0 -11 18 -35 40 -42 38 -60 49 -60 33z"></path><path id="p196oPdoz1" d="M986 225 c-18 -28 -20 -35 -7 -35 5 0 14 14 20 30 12 36 9 38 -13 5z"></path><path id="pZFh9GO0h" d="M406 161 c5 -5 20 -12 34 -15 l25 -7 -25 15 c-28 17 -50 21 -34 7z"></path><path id="pgmcds8jM" d="M883 155 c0 -8 7 -15 15 -15 7 0 12 5 10 12 -6 18 -25 21 -25 3z"></path><path id="pwQENs4QS" d="M782 138 c4 -9 1 -21 -5 -27 -12 -12 -1 -14 23 -3 14 6 13 10 -4 26 -14 14 -18 15 -14 4z"></path></g></g><g id="l5gSHhg8fb6TykKdIPUv4NI" fill="rgb(224,193,103)" style="transform: none;"><g><path id="p15Y7CxY6o" d="M667 1217 c-4 -10 2 -13 20 -9 18 3 21 7 11 13 -18 12 -25 11 -31 -4z"></path><path id="p1BGH1W0SS" d="M534 1202 c5 -8 -1 -10 -22 -6 -16 3 -32 2 -35 -4 -4 -5 5 -7 21 -5 21 4 24 2 12 -6 -18 -13 -1 -14 19 -2 9 6 19 4 28 -5 8 -8 19 -12 24 -9 5 4 9 2 9 -3 0 -9 -29 -25 -40 -22 -3 1 -4 8 -2 17 3 12 -1 14 -15 8 -10 -4 -24 -8 -30 -8 -16 0 -17 -13 -3 -22 14 -9 5 -21 -20 -28 -16 -4 -20 -2 -15 12 3 10 1 29 -4 42 l-10 24 0 -26 c-1 -21 -8 -28 -43 -38 -28 -9 -37 -15 -28 -21 7 -4 9 -13 5 -20 -5 -7 -4 -11 1 -8 5 4 10 -8 10 -25 1 -31 1 -31 -16 -10 -11 15 -21 18 -27 12 -7 -7 -16 -5 -27 6 -9 9 -16 12 -16 6 0 -5 5 -13 10 -16 6 -4 8 -11 5 -16 -11 -16 -23 -9 -29 17 -4 15 -9 24 -12 22 -7 -8 18 -72 37 -94 25 -27 24 -35 -4 -25 -13 5 -36 7 -53 5 -23 -3 -25 -3 -9 5 19 8 18 9 -8 16 -15 4 -31 5 -34 1 -4 -3 0 -6 8 -6 8 0 16 -11 17 -25 1 -14 -3 -25 -8 -25 -10 0 -50 -80 -50 -99 0 -6 7 -11 15 -11 8 0 15 -7 15 -15 0 -8 -7 -15 -15 -15 -8 0 -15 5 -15 11 0 5 -5 7 -11 4 -7 -5 -5 -13 6 -25 11 -12 14 -26 10 -39 -4 -12 -2 -21 4 -21 6 0 11 -6 11 -14 0 -9 -9 -13 -25 -11 -14 1 -25 -2 -25 -7 0 -5 8 -8 18 -6 24 5 39 -12 34 -39 -2 -12 -7 -21 -11 -19 -3 2 -7 -7 -8 -21 -1 -18 2 -22 7 -12 13 20 24 3 23 -36 -1 -19 3 -35 8 -35 5 0 9 7 9 15 0 17 16 20 25 5 3 -5 17 -10 31 -10 19 0 24 5 24 25 0 14 -5 25 -10 25 -6 0 -8 10 -5 23 3 12 9 56 14 97 7 64 5 79 -11 107 -19 31 -19 32 2 73 37 72 85 117 140 130 37 9 50 17 53 33 4 22 4 22 6 0 2 -32 43 -31 60 1 23 42 88 58 147 36 20 -8 29 -8 35 2 4 6 26 12 48 12 23 1 41 2 41 4 0 12 -33 62 -41 62 -6 0 -7 -4 -4 -10 4 -6 -2 -7 -17 -1 -13 5 -22 14 -21 20 3 13 -40 25 -67 18 -11 -3 -20 -2 -20 3 0 4 -9 10 -20 13 -35 9 -22 -8 49 -64 13 -11 21 -22 18 -25 -3 -4 -13 1 -22 10 -9 9 -25 16 -36 16 -10 0 -19 6 -19 14 0 7 -8 16 -17 19 -10 3 -34 16 -52 29 -19 12 -32 17 -27 10z m-284 -567 c10 -13 9 -15 -9 -15 -12 0 -21 6 -21 15 0 8 4 15 9 15 5 0 14 -7 21 -15z"></path><path id="pWkaXwMVG" d="M851 1153 c-7 -12 -10 -14 -11 -4 0 8 -3 12 -6 9 -3 -4 -1 -15 4 -25 5 -10 13 -36 16 -58 7 -37 6 -39 -8 -20 -15 19 -15 19 -16 -11 0 -26 7 -36 41 -58 28 -19 49 -26 64 -22 20 5 25 0 41 -44 10 -28 25 -58 34 -68 68 -74 75 -121 31 -204 -24 -45 -30 -69 -33 -137 -1 -46 -6 -85 -10 -88 -5 -2 -8 -13 -8 -23 0 -11 -9 -24 -20 -30 -11 -6 -19 -18 -19 -28 1 -16 2 -16 6 0 2 10 11 18 19 18 8 0 20 14 26 31 6 17 16 28 23 26 8 -4 10 3 7 19 -3 15 0 24 8 24 7 0 10 7 7 15 -4 8 -2 17 3 20 6 4 10 1 10 -4 0 -6 5 -11 10 -11 7 0 7 6 1 19 -8 13 -6 23 5 37 14 18 14 17 3 -6 -12 -24 -11 -25 8 -7 11 9 23 14 26 10 4 -3 7 -2 7 4 0 6 -18 27 -41 48 -47 43 -46 55 3 26 34 -20 34 -20 35 -1 1 11 9 27 17 35 12 12 13 22 6 41 -13 34 -13 37 6 30 15 -6 15 -3 -1 20 -15 23 -15 29 -4 38 8 6 14 22 14 36 0 23 -4 25 -40 23 -22 -1 -31 1 -20 4 20 6 44 31 45 47 0 6 -5 5 -12 -2 -18 -18 -28 -15 -28 9 0 15 5 19 15 15 8 -3 15 -1 15 3 0 5 -7 12 -16 15 -10 4 -13 13 -9 28 4 18 2 17 -10 -5 -16 -27 -17 -28 -30 -10 -15 20 -1 48 17 36 6 -3 8 0 6 8 -3 8 -13 12 -23 11 -16 -3 -17 -2 -6 12 8 9 11 19 7 23 -3 3 -6 1 -6 -5 0 -7 -7 -12 -15 -12 -9 0 -12 6 -9 15 7 17 -11 21 -21 5 -3 -5 -11 -10 -17 -10 -6 0 -3 9 8 21 18 20 18 21 0 35 -10 7 -23 11 -27 8 -5 -3 -20 2 -33 11 -14 9 -33 14 -44 11 -10 -3 -27 0 -37 8 -17 12 -17 16 -6 30 8 9 11 19 8 22 -3 3 -10 -3 -16 -13z m91 -72 c-6 -3 -12 -20 -14 -36 -3 -27 -4 -26 -8 11 -5 36 -3 40 13 36 10 -3 14 -8 9 -11z m68 -20 c0 -11 -31 -24 -39 -16 -3 3 1 10 9 15 19 12 30 12 30 1z"></path><path id="pTuKVXzZI" d="M930 1157 c0 -2 19 -17 43 -32 23 -16 37 -22 30 -14 -12 15 -73 53 -73 46z"></path><path id="pFNJAOJ91" d="M1037 1072 c34 -34 58 -46 28 -14 -16 17 -34 32 -38 32 -4 0 0 -8 10 -18z"></path><path id="pSPFAwpC0" d="M1223 660 c0 -41 2 -58 4 -37 2 20 2 54 0 75 -2 20 -4 3 -4 -38z"></path><path id="p1BZA4tRQt" d="M255 489 c-43 -11 -72 -29 -32 -22 14 3 27 0 31 -5 4 -6 -3 -8 -16 -4 l-22 5 23 -24 c15 -16 21 -33 18 -51 -2 -17 1 -28 9 -28 8 0 10 14 6 45 -3 31 0 52 12 70 9 14 15 25 14 24 -2 -1 -21 -5 -43 -10z"></path><path id="pDuoipOiC" d="M280 332 c0 -5 10 -17 21 -28 22 -19 22 -19 10 3 -12 24 -31 39 -31 25z"></path><path id="pex3Tsw65" d="M459 338 c-10 -34 -7 -50 6 -44 9 3 13 2 10 -3 -3 -5 -1 -12 5 -16 5 -3 10 -14 10 -25 0 -22 26 -34 34 -14 7 18 36 19 36 1 0 -7 -5 -18 -11 -24 -9 -9 -7 -11 9 -6 23 6 37 35 27 55 -4 7 2 3 13 -9 23 -27 81 -31 131 -10 l30 13 -29 18 c-22 13 -41 16 -73 11 -34 -5 -54 -1 -107 24 -57 27 -88 37 -91 29z"></path><path id="pmsTMB2aC" d="M392 307 c-22 -7 -31 -15 -27 -24 3 -8 5 -19 5 -24 0 -6 5 -7 11 -4 6 4 8 13 5 21 -6 17 -1 17 25 4 16 -9 19 -7 19 15 0 14 -1 25 -2 24 -2 -1 -18 -6 -36 -12z"></path><path id="p2Oz1XcOC" d="M587 217 c-3 -8 -1 -20 4 -28 6 -10 9 -7 9 14 0 29 -5 35 -13 14z"></path></g></g><g id="l2VHDAce7PUItrlFpyj6OOl" fill="rgb(234,206,116)" style="transform: none;"><g><path id="pMmbH4zmX" d="M608 1139 c-4 -11 -76 -30 -115 -31 -16 0 -23 -6 -23 -18 0 -22 -19 -37 -29 -23 -7 11 -21 11 -39 0 -10 -7 -9 -14 4 -35 15 -26 18 -27 75 -22 36 4 64 12 70 20 5 8 13 21 18 28 4 7 24 17 44 21 45 11 136 -18 225 -71 34 -20 62 -33 62 -29 0 5 -6 11 -14 14 -7 3 -28 38 -47 77 -21 46 -36 67 -42 61 -7 -7 -20 -5 -39 5 -17 9 -32 13 -36 10 -3 -3 0 -6 6 -6 7 0 12 -7 12 -15 0 -8 -7 -15 -15 -15 -8 0 -15 -7 -15 -16 0 -13 -3 -12 -17 5 -10 11 -29 23 -43 25 -14 2 -24 9 -22 15 3 14 -15 14 -20 0z"></path><path id="pdh9bBSK2" d="M850 1096 c0 -26 23 -81 39 -94 13 -10 17 -10 23 5 10 27 9 81 -2 88 -5 3 -10 -2 -11 -12 0 -14 -2 -15 -6 -3 -11 28 -43 40 -43 16z"></path><path id="pATTC6Ls4" d="M352 1040 c-11 -18 -11 -25 0 -38 12 -15 11 -16 -4 -4 -9 8 -21 11 -27 8 -5 -3 -12 0 -14 6 -4 9 -6 10 -6 1 -1 -7 10 -24 23 -39 l23 -28 26 29 c21 24 23 32 13 40 -8 6 -15 18 -17 28 -4 16 -5 15 -17 -3z"></path><path id="p1FjVSGlIJ" d="M935 1031 c-4 -17 -11 -33 -16 -36 -19 -12 -9 -35 16 -35 21 0 29 -9 46 -47 11 -27 26 -52 32 -58 24 -19 57 -82 57 -109 0 -15 -7 -43 -15 -63 -16 -38 -11 -54 27 -74 22 -12 23 -6 1 16 -13 14 -14 18 -3 25 8 5 18 6 22 4 4 -3 6 5 4 18 -2 13 1 29 6 36 7 8 7 16 1 25 -5 6 -9 28 -7 48 2 32 -2 38 -29 53 -20 10 -24 14 -9 10 35 -9 38 21 6 69 -16 23 -27 45 -26 49 3 12 -38 29 -51 22 -8 -5 -7 -2 2 9 9 11 10 17 2 17 -6 0 -11 8 -11 17 0 9 -3 13 -7 10 -3 -4 -14 0 -24 9 -16 14 -18 13 -24 -15z"></path><path id="ppi3lqCtd" d="M280 956 c0 -3 7 -12 16 -21 9 -9 13 -19 9 -23 -3 -4 -11 1 -16 11 -10 17 -12 16 -28 -5 -30 -38 -39 -81 -39 -176 0 -88 0 -90 24 -96 30 -8 26 -32 -5 -29 -16 2 -21 -3 -21 -21 0 -19 4 -23 20 -19 22 6 28 -12 8 -20 -9 -3 -7 -9 7 -20 11 -9 21 -12 23 -7 2 5 10 6 18 3 12 -4 14 12 13 98 0 57 0 109 2 114 1 6 -5 27 -14 49 -9 21 -17 40 -17 42 0 2 13 25 29 51 l30 48 -22 12 c-23 13 -37 16 -37 9z"></path><path id="pnqiWjq6L" d="M1016 598 c-3 -13 -5 -48 -4 -78 0 -30 3 -43 5 -27 3 16 11 27 20 27 10 0 14 6 10 20 -3 11 -1 18 3 15 5 -3 11 -1 15 5 4 6 11 7 17 4 6 -4 6 2 -1 15 -10 18 -40 41 -54 41 -3 0 -7 -10 -11 -22z"></path><path id="p140XtzCgL" d="M457 333 c-8 -13 12 -53 25 -52 10 0 10 2 1 6 -15 6 -18 43 -3 43 5 0 7 -6 4 -14 -6 -15 16 -27 56 -32 14 -2 19 -1 12 2 -6 3 -10 9 -7 14 3 4 -10 15 -29 24 -37 18 -53 20 -59 9z"></path><path id="poig7cro3" d="M593 273 c9 -9 20 -13 24 -9 4 4 1 11 -7 16 -25 16 -35 11 -17 -7z"></path><path id="pqfBwGx8N" d="M658 283 c-10 -2 -18 -9 -18 -15 0 -6 9 -8 20 -5 11 3 18 1 14 -4 -3 -5 0 -9 5 -9 6 0 11 7 11 15 0 18 12 19 28 3 8 -8 12 -8 12 -1 0 19 -33 26 -72 16z"></path></g></g><g id="lB4Qgn5v5LC3qwKB9FZPKG" fill="rgb(246,220,136)" style="transform: none;"><g><path id="pMxF1eSvv" d="M584 1096 c-33 -13 -70 -32 -82 -44 -12 -12 -33 -22 -47 -22 -14 0 -25 -5 -25 -11 0 -6 18 -9 48 -7 42 3 47 6 45 26 -3 24 12 30 20 10 4 -8 8 -5 12 9 7 21 31 33 71 33 12 0 24 7 28 15 7 18 6 18 -70 -9z"></path><path id="pJvOrbsGR" d="M666 1103 c-11 -11 -6 -23 9 -23 8 0 15 4 15 9 0 13 -16 22 -24 14z"></path><path id="p6XrKSgDV" d="M767 1089 c-4 -16 -11 -19 -34 -14 -17 4 -4 -6 32 -25 33 -16 76 -40 95 -52 l35 -23 -22 29 c-13 16 -23 35 -23 43 0 7 -7 16 -15 19 -8 4 -13 10 -10 14 3 5 0 12 -6 16 -8 4 -9 3 -5 -4 4 -7 2 -12 -3 -12 -6 0 -11 4 -11 9 0 19 -28 19 -33 0z"></path><path id="pX43PoMZO" d="M467 1063 c-12 -12 -7 -22 8 -17 8 4 15 10 15 15 0 11 -14 12 -23 2z"></path><path id="pG7zXjgqt" d="M867 1040 c3 -11 10 -23 16 -27 7 -4 8 0 4 11 -4 10 -7 22 -7 27 0 5 -4 9 -9 9 -5 0 -7 -9 -4 -20z"></path><path id="pcm1C98Yi" d="M930 996 c0 -8 -6 -17 -12 -19 -7 -3 1 -8 19 -12 25 -6 35 -15 44 -42 19 -57 59 -96 56 -54 0 11 -6 19 -12 18 -5 -1 -9 6 -9 16 1 9 -2 17 -8 17 -5 0 -6 5 -3 10 3 6 -1 13 -10 16 -10 4 -14 13 -10 28 4 14 3 17 -3 8 -11 -16 -45 -4 -38 14 3 8 1 14 -4 14 -6 0 -10 -6 -10 -14z"></path><path id="p3zBwpsTa" d="M302 947 c16 -12 16 -16 2 -35 -8 -12 -12 -22 -7 -22 4 0 16 11 25 24 16 23 16 24 -10 35 -23 10 -25 9 -10 -2z"></path><path id="pWsdgptjF" d="M267 843 c-3 -5 -2 -15 3 -23 5 -8 5 -22 -1 -32 -5 -10 -8 -40 -7 -66 3 -44 5 -48 20 -38 27 17 31 65 10 120 -11 27 -22 45 -25 39z m31 -92 c-4 -19 -22 -18 -26 2 -2 7 4 14 13 14 9 0 15 -7 13 -16z"></path><path id="pOpwMYTct" d="M1052 821 c2 -7 7 -12 11 -12 12 1 9 15 -3 20 -7 2 -11 -2 -8 -8z"></path><path id="p1E1bwXzlF" d="M1068 725 c-3 -16 -9 -38 -13 -47 -4 -11 -3 -18 4 -18 6 0 10 3 9 8 -1 4 2 19 6 34 5 15 6 33 4 40 -3 7 -7 0 -10 -17z"></path><path id="pN6F5lwGZ" d="M285 639 c-4 -6 -5 -13 -2 -16 7 -7 27 6 27 18 0 12 -17 12 -25 -2z"></path><path id="pc1tHzOQr" d="M1016 583 c-3 -21 -5 -51 -5 -68 1 -27 2 -26 10 10 4 22 11 52 15 68 3 16 2 27 -4 27 -5 0 -12 -17 -16 -37z"></path></g></g></svg>