<svg class="img-fluid" id="outputsvg" xmlns="http://www.w3.org/2000/svg" style="transform: none; transform-origin: 50% 50%; cursor: move; max-height: 395.86px;" width="132" height="132" viewBox="0 0 1320 1320"><g id="l5nWQn13m1yCXINTm5s96fm" fill="rgb(188,40,8)" style="transform: none;"><g><path id="pUOsTAf62" d="M515 1311 c-20 -4 -31 -13 -33 -27 -3 -20 -62 -52 -62 -33 0 15 -57 10 -74 -6 -8 -8 -20 -15 -26 -15 -6 0 -21 -10 -33 -22 -13 -13 -35 -29 -50 -35 -16 -8 -27 -21 -27 -33 0 -13 -7 -20 -20 -20 -16 0 -20 -7 -21 -37 -1 -21 -5 -49 -9 -63 -8 -24 -8 -23 -9 8 -1 42 -20 41 -48 -3 -29 -44 -29 -45 7 -45 28 0 30 -3 30 -35 0 -28 -4 -35 -20 -35 -11 0 -20 -7 -20 -15 0 -10 -10 -15 -30 -15 -28 0 -30 -2 -30 -38 0 -21 5 -43 12 -50 9 -9 6 -12 -15 -12 -24 0 -27 -4 -27 -35 0 -23 5 -35 14 -35 14 0 26 -29 26 -67 0 -16 -6 -23 -20 -23 -18 0 -20 -7 -20 -60 0 -59 0 -60 28 -60 24 0 30 -6 40 -37 8 -26 8 -39 1 -44 -6 -3 -9 -24 -7 -45 3 -34 6 -39 30 -42 24 -3 27 -8 30 -45 2 -35 7 -43 26 -45 14 -2 22 -10 22 -23 0 -15 7 -19 35 -19 23 0 35 -5 35 -13 0 -8 18 -22 40 -33 31 -15 40 -25 42 -49 3 -26 8 -30 35 -33 21 -2 32 2 35 11 5 24 71 -12 78 -43 5 -20 13 -26 42 -28 34 -3 35 -2 41 35 12 70 9 81 -21 88 -16 3 -47 24 -70 45 -33 32 -49 40 -79 40 -41 1 -73 22 -92 60 -11 22 -11 23 2 7 8 -9 28 -17 44 -17 26 0 31 5 37 31 3 17 6 42 6 55 0 27 17 32 26 9 4 -9 19 -15 40 -15 31 0 34 3 34 29 0 16 -7 45 -15 65 -13 32 -13 40 1 74 10 26 27 46 49 58 34 18 34 18 60 -6 33 -31 32 -62 -5 -155 -24 -60 -30 -91 -30 -148 0 -104 5 -117 46 -117 32 0 34 2 34 33 1 26 10 39 52 72 129 102 188 170 188 218 0 14 4 27 10 29 5 2 13 31 16 65 11 100 48 46 45 -65 l-2 -62 34 0 c27 0 36 6 45 25 7 14 12 37 12 50 0 13 5 25 12 27 17 6 18 230 1 235 -15 5 -18 43 -4 43 5 0 11 -7 15 -15 3 -9 19 -15 41 -15 32 0 35 2 35 31 0 51 -16 69 -60 69 -37 0 -40 -2 -41 -27 l0 -28 -16 23 c-11 16 -25 22 -54 22 -38 0 -39 -1 -39 -35 0 -19 4 -35 9 -35 5 0 12 -9 16 -19 3 -11 14 -22 23 -24 9 -3 0 -5 -20 -6 -21 0 -38 -5 -38 -11 0 -5 -4 -10 -10 -10 -5 0 -10 9 -10 20 0 16 -7 20 -36 20 l-36 0 4 -70 c3 -60 1 -70 -14 -70 -12 0 -18 -13 -23 -58 -3 -32 -6 -62 -5 -67 5 -22 -1 -35 -15 -35 -8 0 -15 7 -15 15 0 10 -11 15 -35 15 -34 0 -35 1 -35 40 0 29 4 40 15 40 10 0 15 10 15 34 l0 34 -92 6 c-72 6 -103 4 -135 -8 -37 -13 -43 -13 -43 -1 0 8 5 15 10 15 6 0 10 30 10 70 0 40 -4 70 -10 70 -5 0 -10 9 -10 20 0 17 -7 20 -45 20 -45 0 -45 0 -45 35 0 33 -2 35 -32 35 -32 0 -39 -5 -95 -79 -10 -13 -12 -3 -13 57 0 40 4 72 10 72 5 0 12 11 16 25 3 14 12 25 18 25 15 0 76 62 76 78 0 7 8 12 18 12 10 0 23 5 30 12 6 6 31 11 55 10 27 -1 71 8 111 23 79 30 144 33 205 11 49 -18 101 -21 101 -6 0 6 11 10 25 10 16 0 25 -6 25 -15 0 -34 31 -65 66 -65 18 0 36 -4 39 -10 3 -5 15 -10 26 -10 12 0 19 -7 19 -19 0 -11 8 -26 18 -33 10 -7 30 -32 43 -55 23 -41 26 -43 70 -43 44 0 46 -1 41 -25 -3 -20 -10 -25 -33 -25 -19 0 -29 -5 -29 -15 0 -8 -4 -15 -10 -15 -5 0 -10 -18 -10 -40 0 -36 2 -40 25 -40 32 0 46 -33 32 -75 -16 -49 -20 -105 -8 -105 6 0 11 -9 11 -20 0 -11 -7 -20 -15 -20 -8 0 -15 -4 -15 -10 0 -5 -15 -10 -34 -10 -33 0 -35 -2 -41 -44 -4 -25 -5 -65 -3 -90 3 -41 1 -46 -17 -46 -12 0 -34 -18 -55 -45 -19 -24 -40 -44 -46 -45 -7 0 -25 -15 -42 -34 -25 -29 -61 -56 -74 -56 -2 0 -2 18 0 40 4 39 4 40 -29 40 -45 0 -96 -41 -110 -90 -8 -27 -18 -40 -33 -42 -16 -2 -22 -11 -24 -40 l-3 -38 45 0 c40 0 46 3 46 21 0 18 4 20 27 14 26 -6 38 -17 46 -39 1 -5 17 -5 34 -2 22 5 33 14 35 29 2 14 14 24 35 31 18 5 35 16 38 25 3 9 21 27 40 41 19 14 35 31 35 38 0 6 7 12 15 12 8 0 19 8 24 19 7 12 26 20 60 25 35 5 54 13 61 26 13 24 13 60 0 60 -5 0 -10 7 -10 15 0 10 11 15 35 15 33 0 35 2 35 35 0 23 5 35 14 35 7 0 16 10 20 22 9 36 7 48 -9 48 -8 0 -15 5 -15 10 0 6 9 10 19 10 21 0 31 19 31 60 0 22 -5 29 -22 32 -22 3 -23 8 -24 83 0 44 -4 95 -8 113 -6 26 -4 32 8 32 19 0 20 24 5 69 -7 20 -18 31 -30 31 -14 0 -19 7 -19 25 0 14 -6 25 -13 25 -17 0 -48 54 -42 72 3 8 -4 27 -16 42 -32 40 -123 110 -127 97 -6 -17 -62 -14 -62 4 0 8 -7 15 -15 15 -8 0 -15 7 -15 15 0 8 -7 15 -16 15 -9 0 -24 9 -34 20 -19 22 -67 43 -81 34 -5 -3 -9 -12 -9 -20 0 -12 -12 -13 -68 -8 -58 6 -70 4 -75 -10 -5 -11 -19 -16 -52 -16 -45 0 -45 0 -45 35 0 19 -3 34 -7 34 -5 -1 -21 -4 -38 -8z m-322 -538 c-3 -21 -10 -39 -15 -41 -4 -2 -8 -30 -8 -63 l0 -59 35 0 c31 0 36 4 41 30 6 29 58 91 93 110 17 8 18 7 13 -13 -3 -12 -10 -25 -16 -29 -7 -5 -11 -51 -11 -123 l0 -115 -27 0 c-25 0 -28 -4 -28 -34 0 -19 5 -36 11 -38 6 -2 9 -23 7 -48 l-3 -45 -23 37 c-13 20 -35 42 -50 49 -23 10 -32 27 -57 103 -32 99 -42 235 -17 244 7 2 12 19 12 38 0 29 3 34 24 34 23 0 24 -3 19 -37z m1037 -318 c0 -8 -9 -15 -20 -15 -16 0 -20 -7 -21 -37 -1 -34 -2 -35 -9 -13 -4 14 -8 37 -9 53 -1 24 3 27 29 27 20 0 30 -5 30 -15z"></path></g></g><g id="l1KdtBDYW1QAp3bGaz9Zpow" fill="rgb(205,36,28)" style="transform: none;"><g><path id="pc5PLup5N" d="M490 1305 c-234 -64 -416 -250 -476 -485 -25 -98 -16 -292 18 -382 37 -99 85 -173 159 -247 72 -73 146 -121 247 -160 62 -23 79 -25 222 -25 143 0 160 2 222 25 101 39 175 87 248 159 72 73 120 147 159 248 23 62 25 79 25 222 0 143 -2 160 -25 222 -15 37 -42 93 -60 124 -46 76 -127 165 -147 162 -9 -2 -17 3 -17 11 0 18 -112 84 -188 112 -82 29 -303 37 -387 14z m35 -75 c-3 -5 -12 -10 -18 -10 -7 0 -41 -14 -75 -30 -74 -35 -73 -35 -66 -15 4 10 0 15 -12 16 -12 0 -14 3 -6 6 7 3 18 0 25 -6 9 -7 21 -6 41 4 23 12 101 43 114 45 2 0 0 -4 -3 -10z m345 0 c0 -5 9 -10 21 -10 12 0 17 -4 14 -11 -4 -6 -14 -7 -24 -4 -9 4 -26 8 -39 10 -12 1 -26 6 -30 10 -4 4 3 4 16 1 13 -5 22 -3 22 3 0 6 5 11 10 11 6 0 10 -4 10 -10z m-242 -17 c-10 -2 -26 -2 -35 0 -10 3 -2 5 17 5 19 0 27 -2 18 -5z m-75 -13 c-13 -5 -23 -11 -23 -14 0 -6 191 -5 213 1 9 2 14 9 11 15 -4 7 5 8 27 3 19 -4 36 -11 37 -16 2 -5 12 -9 23 -9 10 0 19 -4 19 -10 0 -5 8 -10 18 -10 9 0 23 -9 30 -20 7 -11 22 -20 33 -20 20 0 21 1 5 25 -16 25 -16 25 3 13 11 -7 22 -22 26 -35 3 -13 12 -23 20 -23 9 0 20 -11 25 -25 5 -14 21 -30 35 -35 14 -5 25 -16 25 -25 0 -8 6 -15 13 -15 27 0 47 -60 47 -141 l0 -79 29 0 c35 0 40 -15 42 -122 1 -48 -4 -87 -14 -109 -8 -19 -18 -47 -22 -63 -3 -16 -14 -30 -25 -33 -11 -3 -21 -13 -21 -22 -1 -14 -2 -13 -6 2 -2 9 -11 17 -19 17 -10 0 -14 -13 -14 -45 0 -25 5 -45 10 -45 6 0 10 -5 10 -11 0 -17 -71 -119 -83 -119 -6 0 1 13 16 28 53 56 14 60 -41 4 -85 -85 -148 -132 -178 -132 -2 0 -4 11 -4 25 0 27 -7 30 -30 15 -10 -7 -12 -12 -4 -17 7 -5 8 -16 3 -28 -7 -18 -8 -18 -9 5 l-1 25 -15 -27 c-19 -37 -26 -35 -12 2 5 17 21 39 35 50 l26 20 -30 0 c-24 0 -32 -7 -46 -35 -10 -20 -29 -40 -44 -46 -37 -14 -155 5 -218 36 -27 13 -51 22 -54 19 -3 -2 11 -18 30 -34 36 -31 31 -39 -11 -16 -13 8 -29 29 -35 47 -9 25 -19 35 -44 42 -20 5 -35 16 -38 28 -3 10 -11 19 -18 19 -7 0 -16 12 -19 26 -4 14 -24 44 -46 67 -63 68 -65 70 -87 133 -29 80 -33 101 -34 184 -1 55 3 74 15 83 9 7 20 34 25 60 8 45 21 75 21 49 0 -7 5 -12 10 -12 6 0 10 18 10 41 0 37 13 77 30 89 4 3 19 24 34 48 17 27 41 49 62 58 19 8 34 19 34 24 0 6 6 10 14 10 8 0 18 9 21 20 3 11 14 20 24 20 9 0 39 11 67 24 27 14 58 25 69 25 18 0 18 -1 -2 -9z m-253 -83 c0 -2 -16 -19 -36 -38 -26 -24 -33 -28 -25 -12 12 23 61 64 61 50z m854 -122 c27 -49 16 -53 -12 -4 -12 21 -19 39 -15 39 5 0 17 -16 27 -35z m-977 -92 c-2 -16 -4 -5 -4 22 0 28 2 40 4 28 2 -13 2 -35 0 -50z m1041 -75 c5 -7 13 -29 16 -48 l6 -35 -16 38 c-9 20 -20 37 -25 37 -5 0 -9 5 -9 10 0 14 16 13 28 -2z m-1105 -56 c-6 -4 -15 -32 -19 -62 -7 -49 -9 -51 -14 -25 -4 17 -3 34 2 40 4 5 8 19 8 31 0 12 6 24 13 27 16 6 24 -2 10 -11z m1123 -150 c-11 -10 -14 3 -8 33 l7 30 3 -28 c2 -16 1 -31 -2 -35z m-88 -255 c8 -29 8 -37 -1 -34 -13 4 -26 46 -19 65 6 17 8 14 20 -31z m-1012 11 c4 -7 3 -8 -4 -4 -7 4 -12 2 -12 -4 0 -6 -4 -8 -10 -5 -5 3 -10 10 -10 16 0 13 27 11 36 -3z m92 -60 c16 -23 16 -23 -15 2 -37 29 -55 60 -22 36 11 -8 28 -25 37 -38z m900 -27 c-7 -12 -16 -21 -21 -21 -8 0 -2 14 16 38 16 20 20 6 5 -17z m-940 -10 c3 -8 -1 -12 -9 -9 -7 2 -15 10 -17 17 -3 8 1 12 9 9 7 -2 15 -10 17 -17z m77 -21 c9 -16 12 -30 7 -30 -4 0 -13 14 -19 30 -6 17 -10 30 -7 30 2 0 10 -13 19 -30z m60 -66 c31 -27 28 -28 -17 -5 -16 8 -28 18 -28 23 0 14 14 8 45 -18z m685 21 c0 -9 -54 -54 -64 -55 -6 0 3 14 19 30 27 28 45 38 45 25z m-80 -75 c-8 -5 -10 -10 -5 -10 6 -1 -12 -10 -40 -20 -75 -30 -89 -23 -20 10 59 28 94 39 65 20z"></path><path id="pyCtPDlFF" d="M253 867 c-13 -13 -23 -31 -23 -40 0 -10 -11 -28 -25 -41 -21 -20 -25 -32 -25 -85 0 -62 19 -89 21 -28 0 26 2 28 8 12 5 -11 6 -26 4 -32 -3 -8 3 -13 16 -13 16 0 23 8 27 29 6 31 45 81 62 81 10 0 32 30 32 45 0 12 -61 -27 -96 -63 -36 -36 -37 -36 -19 -6 9 17 42 45 71 63 49 29 54 36 54 67 0 27 -4 34 -19 34 -10 0 -21 -7 -25 -15 -3 -8 -11 -15 -18 -14 -10 0 -10 2 0 6 18 7 15 23 -5 22 -10 0 -28 -10 -40 -22z m-12 -99 c-24 -39 -28 -30 -5 13 8 17 18 28 21 25 3 -3 -4 -20 -16 -38z"></path><path id="pBKzVc6JU" d="M910 831 c0 -37 -1 -39 -40 -45 -22 -3 -40 -10 -40 -15 0 -4 -9 -19 -21 -32 -11 -13 -23 -36 -26 -51 -3 -16 -12 -28 -19 -28 -9 0 -14 -12 -14 -35 0 -24 5 -35 15 -35 19 0 19 -29 0 -54 -14 -19 -15 -18 -15 10 0 17 -7 39 -15 50 -8 10 -15 27 -15 37 0 9 -6 17 -14 17 -7 0 -16 10 -19 21 -6 20 -10 22 -69 16 -35 -3 -82 -3 -105 0 l-43 6 0 43 c0 33 -4 44 -16 44 -17 0 -44 -23 -44 -38 0 -5 -7 -15 -15 -22 -13 -11 -14 -10 -9 6 4 10 14 28 23 38 15 18 15 19 -4 12 -11 -5 -27 -10 -36 -13 -26 -7 -51 -125 -43 -203 7 -66 33 -133 58 -147 7 -4 15 -17 17 -28 3 -15 13 -21 42 -23 36 -3 37 -3 37 33 0 22 -6 38 -15 41 -22 9 -18 53 8 104 18 37 28 46 61 54 36 8 42 6 63 -18 30 -35 29 -63 -7 -166 -17 -47 -33 -113 -37 -147 -6 -59 -5 -63 15 -63 15 0 20 5 16 15 -4 8 -1 15 5 15 6 0 11 -7 11 -15 0 -8 9 -15 20 -15 13 0 20 7 20 20 0 12 29 42 78 82 47 37 92 83 112 115 18 29 36 53 40 53 4 0 10 20 14 45 3 25 9 66 12 91 5 38 9 43 19 32 14 -14 45 -99 45 -123 0 -34 20 -12 21 23 1 37 1 37 9 8 5 -16 7 -33 4 -38 -3 -4 4 -8 14 -8 16 0 23 13 36 65 18 73 21 125 6 125 -6 0 -10 26 -10 58 0 54 -3 61 -35 90 -23 21 -45 32 -65 32 -28 0 -30 -2 -30 -39z m74 -6 c9 -14 12 -25 6 -25 -5 0 -10 4 -10 9 0 5 -7 17 -16 25 -8 9 -11 16 -6 16 5 0 17 -11 26 -25z m44 -140 l0 -30 -8 30 c-4 17 -8 39 -8 50 l-1 20 9 -20 c5 -11 8 -33 8 -50z m-65 8 c-5 -12 -7 -12 -14 -1 -5 7 -9 19 -9 27 0 11 3 11 14 1 8 -6 12 -18 9 -27z m-3 -46 c0 -6 -9 -2 -20 8 -11 10 -20 23 -20 28 0 6 9 2 20 -8 11 -10 20 -23 20 -28z m-574 3 c16 0 19 -26 3 -35 -14 -9 -16 -6 -21 30 -3 17 -3 24 -1 18 3 -7 11 -13 19 -13z m624 3 c0 -21 -3 -24 -9 -14 -5 8 -7 20 -4 28 8 21 13 15 13 -14z m-382 -49 c14 -16 21 -36 20 -57 l-1 -32 -4 31 c-13 100 -158 101 -198 2 -17 -44 -19 -86 -5 -122 11 -31 9 -32 -16 -8 -33 30 -51 56 -58 82 -5 17 0 14 14 -12 11 -20 24 -40 30 -43 14 -9 13 78 -2 93 -9 9 -9 12 0 12 7 0 12 -6 12 -12 0 -7 9 6 19 28 15 34 28 45 62 57 56 20 98 14 127 -19z m-271 -56 c-2 -13 -4 -3 -4 22 0 25 2 35 4 23 2 -13 2 -33 0 -45z m455 -111 c-17 -24 -48 -59 -70 -78 -98 -84 -132 -110 -132 -100 0 5 35 38 78 73 48 38 92 83 112 116 19 30 36 50 38 44 2 -6 -10 -31 -26 -55z m-109 3 c3 13 8 22 11 19 2 -2 -4 -29 -14 -59 l-19 -55 0 60 c1 41 3 52 8 35 l7 -25 7 25z m-86 -72 c-14 -40 -28 -82 -30 -93 -4 -16 -5 -15 -6 5 -1 26 50 172 58 165 2 -3 -8 -37 -22 -77z"></path><path id="pVXo5nkAY" d="M280 385 c0 -60 2 -66 25 -77 30 -13 43 -5 25 17 -10 11 -10 15 0 15 6 0 14 -9 17 -20 3 -11 12 -20 20 -20 13 0 15 10 11 52 -3 29 -11 54 -17 56 -6 2 -11 12 -11 23 0 15 -7 19 -35 19 l-35 0 0 -65z"></path></g></g><g id="l247NOLOVvZT8YvE9WjJEUF" fill="rgb(182,49,47)" style="transform: none;"><g><path id="pVT7lPJVi" d="M683 1313 c9 -2 25 -2 35 0 9 3 1 5 -18 5 -19 0 -27 -2 -17 -5z"></path><path id="pDVPZo4Tx" d="M665 1293 c-44 -7 -52 -20 -15 -28 17 -4 34 -4 37 -1 4 3 -2 6 -13 6 -14 1 -11 5 11 15 31 14 29 15 -20 8z"></path><path id="pTWyrxXYk" d="M846 1292 c-3 -5 8 -13 25 -19 35 -14 37 -10 5 11 -14 9 -27 12 -30 8z"></path><path id="pwxBui9eG" d="M408 1279 c-27 -10 -30 -39 -3 -39 17 0 56 35 48 44 -8 7 -11 7 -45 -5z"></path><path id="p4krU5YVh" d="M850 1256 c0 -8 -6 -16 -12 -19 -7 -2 -10 -7 -6 -11 8 -10 49 25 42 36 -8 13 -24 9 -24 -6z"></path><path id="pK3kyCe14" d="M311 1226 c-32 -20 -49 -36 -42 -40 6 -4 11 -2 11 4 0 6 6 8 13 4 6 -4 9 -4 5 1 -4 4 0 14 10 21 20 15 36 18 28 5 -4 -5 3 -7 13 -4 12 3 19 13 18 24 -1 10 -2 19 -2 19 -1 0 -25 -15 -54 -34z"></path><path id="p1B8TKLnwU" d="M965 1221 c-20 -10 -30 -22 -27 -33 5 -24 33 -31 51 -13 14 13 13 15 -7 15 -31 0 -28 14 6 26 15 5 23 12 17 15 -5 3 -24 -2 -40 -10z"></path><path id="pbelyiiYH" d="M800 1210 c0 -17 6 -20 40 -20 22 0 40 5 40 10 0 6 -9 10 -21 10 -11 0 -29 5 -40 10 -16 9 -19 7 -19 -10z"></path><path id="p17w30ALDu" d="M660 1210 c0 -5 17 -10 38 -9 33 1 34 2 12 9 -36 11 -50 11 -50 0z"></path><path id="p18soWCPcZ" d="M1017 1213 c-8 -12 30 -29 40 -19 4 3 -1 6 -9 6 -9 0 -18 5 -20 12 -3 9 -6 9 -11 1z"></path><path id="pYizXG5bO" d="M910 1175 c0 -8 5 -15 10 -15 6 0 10 7 10 15 0 8 -4 15 -10 15 -5 0 -10 -7 -10 -15z"></path><path id="pXattQMrQ" d="M196 1140 c-42 -39 -63 -72 -34 -54 7 4 8 3 4 -5 -4 -6 -11 -9 -16 -6 -5 3 -18 -8 -29 -23 l-20 -29 25 5 c16 3 23 9 20 18 -3 9 2 14 14 14 11 0 21 6 22 13 0 6 2 18 2 24 2 26 21 12 27 -19 7 -35 11 -31 13 15 1 15 -1 27 -4 27 -4 0 -7 7 -7 15 0 8 6 15 13 15 14 0 29 19 21 27 -3 2 -26 -14 -51 -37z"></path><path id="pXP9D0KDX" d="M1117 1135 c20 -19 39 -35 41 -35 3 0 -9 16 -28 35 -19 19 -37 35 -41 35 -5 0 8 -16 28 -35z"></path><path id="px0SQIliK" d="M1174 1063 c8 -25 -12 -42 -25 -22 -10 16 -12 -1 -3 -25 9 -23 34 -20 34 4 0 11 5 20 11 20 5 0 8 -4 5 -9 -3 -5 1 -14 9 -21 13 -11 13 -8 4 18 -13 37 -46 71 -35 35z"></path><path id="pglXVBDJa" d="M77 983 c-19 -35 -15 -42 9 -18 9 8 14 23 12 33 -3 13 -8 9 -21 -15z"></path><path id="pk1REYr3B" d="M1230 963 c0 -24 5 -43 10 -43 6 0 10 6 10 13 1 6 7 1 15 -13 24 -42 16 -8 -10 40 l-24 45 -1 -42z"></path><path id="pkWB4FyvQ" d="M30 878 c-17 -48 -24 -94 -27 -188 -6 -141 7 -211 56 -315 30 -62 68 -118 57 -82 -4 11 -2 16 5 12 6 -4 8 -14 5 -22 -19 -48 248 -259 301 -239 8 3 12 2 9 -3 -6 -10 71 -34 84 -26 5 3 11 1 15 -5 3 -5 29 -10 57 -10 28 0 49 3 45 6 -5 5 -32 9 -127 18 -42 5 -45 6 -32 15 9 5 -7 12 -47 20 -34 7 -61 16 -61 22 0 5 -3 8 -7 7 -14 -4 -70 31 -77 47 -3 9 -2 13 4 10 5 -3 7 0 4 9 -3 8 -16 13 -29 11 -13 -1 -29 2 -37 6 -10 7 -10 9 2 9 13 1 13 2 0 13 -9 7 -17 25 -18 40 -2 25 1 27 19 22 15 -5 19 -4 15 4 -10 16 -36 14 -42 -3 -4 -11 -12 -12 -35 -4 -20 7 -28 15 -25 25 3 8 6 19 6 24 0 5 6 9 14 9 23 0 29 19 12 36 -9 8 -16 20 -16 25 0 5 -5 9 -11 9 -8 0 -7 -6 2 -17 12 -15 12 -16 -4 -10 -15 6 -16 4 -7 -13 15 -29 8 -25 -37 18 -44 40 -56 68 -55 122 0 26 -2 30 -7 16 -7 -19 -8 -18 -14 4 -3 13 -1 27 4 31 8 4 8 13 0 27 -8 15 -9 50 -2 121 5 55 7 117 4 139 -3 22 -1 42 5 45 5 4 9 -9 8 -33 0 -22 5 -45 12 -52 11 -11 12 0 7 57 -4 39 -7 78 -7 88 1 29 -5 19 -28 -45z"></path><path id="pfzqqZpn1" d="M74 877 c2 -21 6 -41 10 -44 10 -10 7 51 -4 67 -8 11 -9 5 -6 -23z"></path><path id="pvPc0lidU" d="M100 844 c0 -14 4 -23 10 -19 6 3 10 15 10 26 0 10 -4 19 -10 19 -5 0 -10 -12 -10 -26z"></path><path id="p1DK95Ubj3" d="M137 863 c-2 -5 -7 -20 -11 -35 -5 -21 -3 -28 9 -28 11 0 15 10 15 35 0 34 -4 43 -13 28z"></path><path id="pDrJ6qWHF" d="M1301 809 c0 -13 4 -33 9 -44 7 -14 8 -8 3 20 -7 46 -13 59 -12 24z"></path><path id="pLkbsQ24H" d="M230 798 c0 -12 1 -19 3 -17 1 2 9 12 16 22 12 14 11 17 -3 17 -10 0 -16 -8 -16 -22z"></path><path id="p1B3TkTkhe" d="M260 801 c-13 -26 -13 -31 3 -31 15 0 48 36 40 44 -12 12 -33 5 -43 -13z"></path><path id="pFS7UEY8i" d="M281 760 l-23 -20 26 0 c19 0 26 5 26 20 0 24 1 24 -29 0z"></path><path id="pIR45g95U" d="M1253 745 c1 -19 6 -35 12 -35 7 0 9 14 7 35 -2 19 -8 35 -12 35 -4 0 -8 -16 -7 -35z"></path><path id="puMEvOMSg" d="M180 720 c0 -22 3 -40 6 -40 13 0 45 45 35 48 -5 2 -7 10 -4 18 3 9 -2 14 -16 14 -18 0 -21 -6 -21 -40z"></path><path id="pU9BPAFOE" d="M1233 715 c0 -22 2 -30 4 -17 2 12 2 30 0 40 -3 9 -5 -1 -4 -23z"></path><path id="p1BnKz1X3B" d="M96 724 c-9 -24 -7 -54 4 -54 6 0 10 16 10 35 0 38 -4 44 -14 19z"></path><path id="p15rAKL43" d="M230 700 c-9 -16 -8 -20 5 -20 8 0 15 9 15 20 0 11 -2 20 -5 20 -2 0 -9 -9 -15 -20z"></path><path id="pOaJSLJ8z" d="M864 578 c-5 -31 -10 -44 -12 -30 -5 30 -22 28 -22 -3 0 -14 5 -25 11 -25 6 0 9 -7 5 -15 -3 -10 1 -15 13 -15 14 0 20 10 25 46 8 65 8 94 -3 94 -5 0 -13 -24 -17 -52z"></path><path id="p5wJxFA8N" d="M1311 578 c-1 -20 -7 -27 -24 -30 -23 -3 -23 -3 -6 -48 l17 -45 12 58 c6 31 9 65 7 75 -3 10 -5 7 -6 -10z"></path><path id="p1ANL7ruen" d="M1011 568 c-24 -37 -21 -68 6 -68 21 0 23 5 23 45 0 50 -8 56 -29 23z"></path><path id="p14Cbpc5uF" d="M67 555 c3 -11 5 -28 6 -37 2 -35 17 -17 17 20 0 25 -3 33 -9 23 -8 -12 -10 -12 -14 0 -2 8 -2 5 0 -6z"></path><path id="ptLuJT9ha" d="M801 553 c0 -21 -6 -33 -15 -33 -16 0 -26 -21 -26 -53 0 -17 6 -11 26 22 15 27 23 55 21 70 -3 22 -4 21 -6 -6z"></path><path id="pgWFdrnRd" d="M973 540 c0 -25 2 -35 4 -22 2 12 2 32 0 45 -2 12 -4 2 -4 -23z"></path><path id="ptCsUdUIH" d="M790 468 c0 -19 2 -20 10 -8 13 19 13 30 0 30 -5 0 -10 -10 -10 -22z"></path><path id="p16FpLthhp" d="M1202 470 c3 -29 31 -34 36 -6 3 12 0 16 -8 11 -7 -4 -16 -1 -22 6 -6 10 -8 7 -6 -11z"></path><path id="pu4GbPpSn" d="M820 451 c-7 -15 -7 -21 0 -21 12 0 25 28 17 36 -3 3 -10 -4 -17 -15z"></path><path id="pwsdw6bau" d="M1254 425 c-4 -14 -4 -29 -1 -32 9 -8 -20 -60 -42 -76 -11 -7 -25 -26 -31 -41 -14 -37 -13 -41 5 -26 9 7 14 19 11 26 -3 8 0 13 5 11 12 -2 72 101 84 143 7 24 7 24 -9 5 -13 -16 -15 -17 -10 -2 3 9 3 17 0 17 -3 0 -8 -11 -12 -25z"></path><path id="p4tc0ypZc" d="M1144 398 c3 -13 6 -27 6 -31 0 -5 5 -5 10 -2 6 3 15 -4 20 -17 10 -22 10 -22 6 -1 -2 12 2 24 10 27 8 3 14 10 14 15 0 6 -8 7 -17 4 -12 -5 -15 -2 -10 10 5 13 1 17 -19 17 -22 0 -25 -3 -20 -22z"></path><path id="pO4TLPYb1" d="M195 320 c-3 -5 -1 -18 4 -27 9 -16 10 -14 11 10 0 28 -5 34 -15 17z"></path><path id="pv5oBY9NN" d="M1161 310 c-1 -3 -4 -18 -6 -34 -3 -20 -1 -26 6 -19 6 6 9 21 6 34 -2 13 -5 22 -6 19z"></path><path id="p18mhU6dSk" d="M1125 220 c-3 -5 -13 -7 -23 -4 -15 5 -15 4 -2 -6 13 -10 12 -13 -5 -23 -11 -7 -35 -28 -55 -47 -39 -38 -77 -62 -83 -52 -2 4 -2 1 -1 -5 2 -9 -9 -13 -34 -14 -28 0 -32 -2 -17 -8 18 -7 17 -8 -6 -14 -14 -4 -59 -5 -100 -3 -49 2 -62 1 -39 -4 l35 -7 -41 -2 c-27 -1 -44 -6 -48 -16 -6 -17 21 -19 89 -8 32 5 36 8 20 15 -15 6 -13 7 10 4 61 -9 232 83 314 168 32 33 33 36 14 36 -12 0 -24 -4 -28 -10z"></path><path id="pz4Md8v6g" d="M767 204 c-4 -4 -7 -16 -7 -26 0 -19 1 -19 27 1 14 12 29 19 32 15 3 -3 -1 -9 -10 -14 -23 -13 -24 -80 -1 -80 18 0 54 20 37 20 -6 0 -9 19 -7 43 4 42 3 43 -30 45 -19 1 -37 -1 -41 -4z"></path><path id="phU8BNN5N" d="M420 80 c0 -5 7 -10 15 -10 8 0 15 5 15 10 0 6 -7 10 -15 10 -8 0 -15 -4 -15 -10z"></path><path id="pDX1IG5RW" d="M785 80 c-4 -6 5 -10 20 -10 15 0 24 4 20 10 -3 6 -12 10 -20 10 -8 0 -17 -4 -20 -10z"></path></g></g><g id="l2c2SbBJxv5AdXOeuYADzOY" fill="rgb(207,66,15)" style="transform: none;"><g><path id="pBQIiYHgR" d="M704 1272 c4 -7 14 -12 22 -12 8 0 14 -4 14 -10 0 -5 -8 -10 -17 -10 -15 0 -15 -1 1 -13 16 -11 7 -13 -60 -14 -55 -1 -96 -7 -133 -22 -75 -28 -75 -20 0 13 75 32 71 44 -7 21 -91 -26 -187 -80 -252 -139 -32 -31 -62 -52 -66 -49 -4 4 -4 0 -1 -8 3 -9 -1 -22 -10 -29 -8 -7 -15 -23 -15 -36 0 -32 36 -33 46 -1 4 12 20 33 35 46 16 13 29 29 29 36 0 7 9 15 21 18 11 3 23 14 26 25 3 12 16 22 33 26 16 3 30 13 33 23 4 17 5 17 6 1 1 -14 10 -18 35 -18 19 0 36 4 38 10 10 30 269 60 286 33 19 -29 112 -47 112 -22 0 7 11 0 25 -15 14 -15 25 -31 25 -37 0 -5 15 -9 34 -9 19 0 38 -4 41 -10 3 -5 17 -10 31 -10 17 0 24 -5 24 -20 0 -12 9 -31 20 -42 11 -12 28 -39 38 -60 19 -43 52 -52 52 -15 0 35 -49 105 -119 170 -66 60 -81 68 -81 40 0 -15 -4 -13 -20 7 -11 14 -20 31 -20 38 0 6 -7 12 -15 12 -8 0 -23 4 -33 9 -9 5 -37 15 -62 22 -57 16 -71 27 -28 22 31 -4 32 -3 14 11 -11 9 -32 16 -47 16 -15 0 -35 3 -45 7 -12 4 -15 3 -10 -5z"></path><path id="p1EBvIlTfp" d="M863 1273 c-17 -6 -17 -23 0 -23 8 0 14 7 14 15 0 8 -1 15 -1 14 -1 0 -7 -3 -13 -6z"></path><path id="pRzgGx92e" d="M360 1190 c-12 -8 -10 -9 7 -7 12 2 26 6 29 10 11 11 -19 8 -36 -3z"></path><path id="pZitORn74" d="M1006 1165 c-6 -17 12 -31 24 -19 5 5 2 14 -5 21 -10 10 -14 9 -19 -2z"></path><path id="pzyARYprI" d="M1060 1111 c0 -12 5 -21 10 -21 6 0 10 6 10 14 0 8 -4 18 -10 21 -5 3 -10 -3 -10 -14z"></path><path id="pbAv5gbxi" d="M1126 1051 c-4 -6 2 -19 14 -31 22 -22 30 -25 30 -10 0 18 -37 52 -44 41z"></path><path id="p16AWB9UrL" d="M285 916 c-25 -24 -45 -48 -45 -54 0 -5 -7 -12 -15 -16 -12 -4 -15 3 -15 29 0 24 -5 35 -15 35 -8 0 -15 -7 -15 -15 0 -8 -9 -15 -20 -15 -13 0 -21 -8 -25 -25 -3 -14 -8 -37 -11 -52 -3 -15 -9 -30 -14 -33 -4 -3 -11 -24 -15 -47 -6 -39 -5 -43 14 -43 12 0 21 6 21 15 0 8 7 15 15 15 10 0 15 11 15 35 0 24 5 35 15 35 8 0 15 -7 15 -15 0 -8 -4 -15 -10 -15 -6 0 -10 -32 -10 -75 l0 -75 40 0 c33 0 40 3 40 20 0 41 38 99 73 113 9 3 17 11 17 17 0 5 9 10 20 10 11 0 20 -7 20 -16 0 -10 8 -6 25 13 13 15 25 22 25 16 0 -7 -4 -13 -10 -13 -5 0 -10 -5 -10 -11 0 -6 6 -9 13 -6 14 5 15 -13 4 -43 -13 -38 -14 -46 -2 -57 10 -9 14 -9 19 2 6 17 52 20 61 5 3 -6 22 -8 42 -6 36 5 71 -7 85 -28 5 -7 8 -5 8 5 0 8 -6 21 -12 28 -11 10 -9 12 7 9 16 -3 20 -11 18 -42 0 -25 2 -34 7 -25 5 7 12 10 16 6 4 -3 1 -13 -6 -22 -14 -17 0 -21 17 -4 31 31 43 -92 16 -160 -16 -39 -8 -55 13 -26 8 11 21 28 30 38 8 10 20 30 26 43 9 19 14 21 21 12 6 -9 7 -7 3 6 -4 10 -2 24 3 30 5 6 11 45 14 86 5 83 14 113 31 107 6 -2 15 -18 20 -35 13 -45 39 -43 34 3 -4 37 0 43 20 23 18 -18 25 -3 10 21 -15 24 -48 28 -48 6 0 -8 -7 -15 -15 -15 -26 0 -18 37 9 42 27 5 89 -28 80 -43 -3 -5 3 -6 12 -2 11 4 15 2 11 -4 -4 -6 0 -13 8 -17 17 -6 20 15 6 42 -42 79 -52 105 -41 116 8 8 16 4 30 -14 10 -13 16 -28 14 -32 -2 -3 0 -9 4 -12 5 -3 15 -26 22 -51 14 -50 40 -62 40 -17 0 42 -11 72 -26 72 -8 0 -14 7 -14 16 0 11 5 14 16 10 9 -3 18 -6 20 -6 2 0 4 -7 4 -15 0 -10 10 -15 34 -15 26 0 36 -5 41 -20 4 -14 15 -20 36 -20 25 0 29 -4 29 -28 0 -16 -7 -37 -15 -48 -18 -23 -20 -90 -2 -97 19 -8 -13 -27 -45 -27 -21 0 -28 -5 -28 -20 0 -11 -5 -20 -11 -20 -6 0 -10 -18 -9 -42 4 -87 1 -98 -20 -98 -13 0 -20 -7 -20 -19 0 -10 -7 -21 -15 -25 -8 -3 -15 -17 -15 -31 0 -20 -5 -25 -25 -25 -16 0 -25 -6 -25 -15 0 -8 -9 -15 -20 -15 -13 0 -20 -7 -20 -20 0 -11 -7 -20 -15 -20 -8 0 -15 -4 -15 -10 0 -5 -6 -10 -13 -10 -9 0 -11 12 -9 40 4 40 4 40 -32 40 -25 0 -40 -6 -48 -20 -7 -11 -23 -20 -35 -20 -14 0 -23 -6 -23 -15 0 -8 -4 -15 -9 -15 -5 0 -12 -13 -16 -30 -6 -26 -11 -30 -41 -30 l-34 0 0 65 c0 63 1 65 25 65 14 0 30 9 37 20 7 11 18 20 25 20 7 0 13 7 13 15 0 8 8 15 18 15 17 0 62 38 62 53 0 4 9 16 20 27 11 11 20 29 20 40 0 11 4 20 9 20 11 0 31 78 31 119 0 56 -26 35 -43 -34 -19 -77 -59 -139 -124 -192 -99 -81 -133 -119 -134 -149 0 -25 -2 -26 -9 -9 -18 42 -10 114 21 192 56 141 35 235 -54 235 -97 0 -154 -106 -112 -210 l15 -37 -44 49 c-26 29 -50 68 -57 93 -14 52 -39 58 -39 11 0 -25 -3 -29 -10 -18 -5 8 -10 25 -10 38 0 18 -5 22 -35 22 -31 0 -35 -3 -41 -36 -6 -34 -2 -103 11 -154 5 -24 5 -24 -4 -3 -6 13 -17 23 -26 23 -8 0 -15 6 -15 13 0 8 -7 28 -16 46 -22 43 -44 128 -44 169 0 26 -4 32 -21 32 -20 0 -21 -3 -15 -62 11 -96 50 -198 88 -232 18 -16 51 -57 73 -90 25 -38 59 -73 90 -93 58 -39 69 -41 60 -12 -6 17 3 12 35 -18 24 -24 59 -46 83 -52 65 -18 177 -29 184 -18 3 5 9 4 13 -2 4 -7 15 8 27 37 12 29 34 58 53 72 l32 23 -21 -41 c-25 -48 -27 -72 -6 -72 32 0 126 51 156 84 17 20 39 35 47 34 9 -2 17 2 17 7 0 6 15 29 34 50 18 22 28 29 21 17 -19 -39 -1 -40 31 -2 16 19 26 42 23 50 -3 8 -7 38 -10 65 l-4 50 19 -50 18 -50 23 47 c13 26 28 44 33 41 5 -3 13 1 18 8 13 20 11 29 -5 23 -8 -3 -16 3 -19 15 -3 14 0 21 9 21 8 0 14 6 15 13 0 6 3 32 5 56 4 35 2 43 -9 38 -12 -4 -12 0 -1 31 18 50 17 84 -2 132 -17 42 -39 52 -48 23 -3 -10 -4 -3 -2 15 2 27 -1 32 -18 32 -15 0 -27 13 -39 40 -15 32 -24 40 -45 40 -52 0 -72 -11 -72 -38 0 -24 -1 -24 -13 -8 -9 12 -23 17 -47 14 -33 -3 -35 -6 -38 -42 -2 -24 2 -42 10 -47 8 -5 -10 -9 -44 -9 -45 0 -58 -3 -58 -15 0 -8 -4 -15 -9 -15 -5 0 -11 -18 -15 -40 -5 -34 -10 -40 -31 -40 -16 0 -25 -6 -25 -15 0 -13 -4 -12 -22 5 -17 16 -35 20 -85 20 -35 0 -81 6 -103 12 l-40 13 0 57 c0 45 -3 58 -15 58 -8 0 -15 5 -15 10 0 6 -8 10 -19 10 -20 0 -31 25 -31 73 0 24 -4 27 -35 27 -28 0 -44 -9 -80 -44z m32 -40 c-3 -8 -1 -16 5 -18 6 -2 -6 -14 -26 -26 -26 -15 -36 -27 -32 -38 3 -8 2 -12 -4 -9 -6 3 -10 1 -10 -4 0 -16 16 -13 35 5 9 9 19 14 22 10 3 -3 11 -2 17 3 19 14 46 21 46 11 0 -6 -6 -10 -13 -10 -8 0 -34 -14 -60 -31 -32 -21 -54 -46 -71 -82 -25 -51 -25 -51 -26 -19 0 17 4 32 9 32 5 0 7 8 5 18 -6 22 58 128 75 124 7 -1 11 3 9 10 -3 7 0 18 6 25 15 16 19 16 13 -1z m287 -330 c4 -22 -4 -61 -29 -131 -36 -105 -44 -178 -25 -244 5 -19 8 -36 7 -37 -2 -2 -16 3 -31 11 -16 8 -33 15 -40 15 -6 0 -18 15 -27 33 -14 27 -22 32 -55 33 -44 2 -74 12 -74 25 0 5 11 9 24 9 29 0 36 16 36 81 0 47 14 66 26 34 4 -9 19 -15 41 -15 35 0 35 0 30 38 -3 20 -9 50 -12 65 -10 39 19 101 53 113 44 16 69 6 76 -30z m-262 -161 c10 -22 13 -46 9 -61 l-6 -25 -18 31 c-10 16 -13 30 -8 30 15 0 14 33 -1 48 -7 7 -8 12 -2 12 5 0 17 -16 26 -35z"></path><path id="podhH3TZm" d="M74 870 c5 -42 16 -51 16 -12 0 17 -4 34 -10 37 -6 4 -8 -6 -6 -25z"></path><path id="px7wYAfzX" d="M1250 765 c0 -8 5 -15 10 -15 6 0 10 7 10 15 0 8 -4 15 -10 15 -5 0 -10 -7 -10 -15z"></path><path id="pDVbfXmpX" d="M1248 665 c-7 -53 4 -81 13 -36 4 19 4 44 -1 55 -6 17 -8 14 -12 -19z"></path><path id="p17eBNPqzB" d="M320 635 c0 -33 4 -45 15 -45 8 0 15 8 16 18 0 14 2 14 9 -3 7 -16 9 -17 9 -3 1 9 -3 19 -8 22 -4 3 -6 17 -3 31 3 20 0 25 -17 25 -18 0 -21 -6 -21 -45z"></path><path id="pYxPNvpUa" d="M837 666 c-6 -15 1 -26 15 -26 11 0 10 27 -1 34 -5 3 -11 0 -14 -8z"></path><path id="pCVMus4Rp" d="M965 657 c8 -13 12 -27 8 -32 -5 -4 -2 -5 5 -1 8 5 12 -2 12 -25 0 -24 3 -30 11 -22 13 13 -6 83 -25 95 -21 15 -26 8 -11 -15z"></path><path id="pp6zZSrFt" d="M920 637 c0 -20 5 -37 10 -37 6 0 10 -28 10 -65 0 -50 3 -65 15 -65 38 0 26 143 -16 185 -19 19 -19 19 -19 -18z"></path><path id="pRazDTMTW" d="M1016 624 c5 -36 -3 -72 -31 -136 -5 -13 -3 -18 9 -18 10 0 16 9 16 25 0 18 5 25 19 25 20 0 31 34 31 101 0 28 -4 39 -15 39 -8 0 -15 -8 -16 -17 0 -16 -2 -15 -10 2 -6 14 -7 9 -3 -21z"></path><path id="pDJjr23hz" d="M78 534 c-2 -19 0 -37 4 -40 4 -3 8 13 8 35 0 51 -6 53 -12 5z"></path><path id="phloG6TNZ" d="M368 535 c2 -14 6 -25 7 -25 1 0 5 11 7 25 3 16 1 25 -7 25 -8 0 -10 -9 -7 -25z"></path><path id="pCoKmoGWd" d="M669 523 l5 -28 5 25 c4 20 6 15 12 -20 l6 -45 1 48 c2 40 -1 47 -17 47 -15 0 -17 -5 -12 -27z"></path><path id="p16EP235Jy" d="M641 423 c-7 -32 -17 -71 -22 -87 -12 -38 -7 -41 22 -15 17 15 19 19 6 15 -16 -5 -16 -3 -1 32 16 38 25 112 14 112 -4 0 -13 -26 -19 -57z"></path><path id="pvvDNH6RP" d="M100 437 c0 -23 11 -47 21 -47 14 0 10 30 -6 46 -13 14 -15 14 -15 1z"></path><path id="pnrD6dy78" d="M150 365 c7 -8 9 -15 6 -15 -4 0 0 -7 9 -16 9 -9 19 -14 22 -11 3 3 -2 13 -11 22 -9 9 -16 21 -16 26 0 5 -5 9 -11 9 -8 0 -8 -5 1 -15z"></path><path id="pliMwPfOp" d="M920 315 c0 -33 2 -35 35 -35 33 0 35 2 35 35 0 33 -2 35 -35 35 -33 0 -35 -2 -35 -35z"></path><path id="po2gWqXEC" d="M195 321 c-11 -18 24 -70 47 -71 10 0 -2 31 -23 58 -10 13 -20 18 -24 13z"></path><path id="p2ILLzGbP" d="M750 89 c0 -5 5 -7 10 -4 6 3 10 1 10 -4 0 -6 9 -11 20 -11 11 0 20 5 20 11 0 6 -7 9 -15 5 -8 -3 -15 -1 -15 4 0 6 -7 10 -15 10 -8 0 -15 -5 -15 -11z"></path></g></g><g id="l4v9RxYofOLIDwMFY9V8ddK" fill="rgb(220,37,43)" style="transform: none;"><g><path id="p1loS9Tn8" d="M425 1274 c-11 -8 -25 -12 -32 -10 -7 3 -10 -1 -6 -10 7 -19 26 -18 52 5 26 23 14 36 -14 15z"></path><path id="pBVYD8kqG" d="M635 1270 c11 -5 29 -9 40 -9 l20 0 -20 9 c-11 5 -29 9 -40 9 l-20 0 20 -9z"></path><path id="p2dl84kfh" d="M704 1272 c4 -7 14 -12 22 -12 20 0 18 -18 -3 -22 -26 -5 83 -38 121 -37 l31 1 -30 9 c-16 4 -46 12 -65 17 -38 11 -33 15 15 13 29 -2 29 -1 11 14 -11 8 -32 15 -47 15 -15 0 -35 3 -45 7 -12 4 -15 3 -10 -5z"></path><path id="puEMQVRDM" d="M863 1273 c-18 -7 -16 -23 3 -23 8 0 12 5 8 11 -4 8 1 9 17 4 19 -5 21 -4 9 4 -16 12 -19 12 -37 4z"></path><path id="pjmUGUhN5" d="M915 1250 c-12 -13 -14 -20 -6 -20 17 0 43 28 32 34 -4 3 -16 -3 -26 -14z"></path><path id="pDgjeMxiW" d="M341 1226 c-10 -12 -8 -13 8 -9 12 3 21 9 21 14 0 14 -16 11 -29 -5z"></path><path id="p13fHFtQ88" d="M526 1226 c-22 -7 -35 -15 -29 -19 12 -8 80 10 88 23 8 13 -9 11 -59 -4z"></path><path id="p1FfTtoq22" d="M643 1233 c9 -2 25 -2 35 0 9 3 1 5 -18 5 -19 0 -27 -2 -17 -5z"></path><path id="ppTcoqx9J" d="M960 1219 c-19 -10 -28 -18 -20 -18 23 0 75 25 65 30 -6 3 -26 -2 -45 -12z"></path><path id="p18WnKH6Tf" d="M571 1199 c-59 -11 -68 -23 -11 -15 25 4 77 10 115 15 l70 8 -65 0 c-36 1 -85 -3 -109 -8z"></path><path id="pp8THsgDu" d="M397 1174 c-34 -18 -30 -28 7 -18 14 3 26 12 26 20 0 17 2 17 -33 -2z"></path><path id="p11rxTByhC" d="M940 1181 c0 -17 34 -22 49 -6 14 13 12 15 -17 15 -18 0 -32 -4 -32 -9z"></path><path id="p3THtV2CP" d="M907 1163 c7 -19 22 -33 36 -33 4 0 0 11 -9 25 -19 29 -37 34 -27 8z"></path><path id="pnNTeSxfb" d="M1010 1160 c0 -11 4 -20 9 -20 17 0 19 15 5 28 -12 11 -14 9 -14 -8z"></path><path id="pyF0DxXsg" d="M193 1137 c-7 -8 -4 -17 8 -29 15 -14 18 -14 23 -2 3 8 1 14 -5 14 -6 0 -8 4 -4 9 9 15 -12 22 -22 8z"></path><path id="pnGL4pJq3" d="M980 1130 c0 -14 7 -20 22 -20 20 0 21 1 3 20 -10 11 -20 20 -22 20 -1 0 -3 -9 -3 -20z"></path><path id="pAssuuoSk" d="M320 1125 c-10 -13 -9 -15 9 -15 12 0 21 6 21 15 0 8 -4 15 -9 15 -5 0 -14 -7 -21 -15z"></path><path id="pICY5xEOT" d="M1060 1110 c0 -19 25 -34 41 -24 13 8 -5 37 -25 40 -10 1 -16 -5 -16 -16z"></path><path id="pJInLbSuA" d="M154 1098 c-4 -7 -3 -8 4 -4 16 9 15 -7 0 -22 -9 -9 -8 -12 5 -12 9 0 17 2 17 4 0 2 3 11 6 19 6 17 -22 31 -32 15z"></path><path id="pjOWFtDBe" d="M1030 1081 c0 -19 18 -31 47 -31 13 0 13 3 3 16 -8 8 -22 20 -32 25 -14 8 -18 6 -18 -10z"></path><path id="pUzcxQ2AN" d="M240 1049 c-46 -53 -62 -85 -57 -112 4 -18 5 -17 6 6 0 15 6 27 11 27 6 0 10 7 10 15 0 9 9 15 25 15 21 0 25 5 25 29 0 16 6 31 15 35 15 5 21 26 8 26 -5 0 -24 -19 -43 -41z"></path><path id="p62U5E2ua" d="M1175 1059 c9 -24 -14 -34 -29 -13 -9 11 -15 13 -20 6 -4 -6 3 -21 14 -32 12 -12 22 -20 23 -18 1 2 8 14 15 27 10 17 11 26 2 35 -8 8 -10 7 -5 -5z"></path><path id="php8i8gQh" d="M1090 1025 c0 -9 11 -26 24 -38 13 -12 26 -32 30 -44 4 -13 11 -23 16 -23 12 0 3 26 -29 77 -27 45 -41 54 -41 28z"></path><path id="p12mXkJTEJ" d="M1230 952 c0 -18 4 -32 9 -32 16 0 19 26 5 45 -13 17 -14 17 -14 -13z"></path><path id="pPgWHnh1A" d="M121 952 c-7 -14 -6 -19 3 -19 6 0 13 9 13 19 1 10 0 18 -2 18 -2 0 -9 -8 -14 -18z"></path><path id="phvPUgo0z" d="M351 901 c-6 -11 -11 -26 -11 -34 0 -8 -14 -20 -30 -27 -17 -7 -37 -22 -45 -34 -32 -45 -11 -49 34 -7 20 19 38 28 48 24 11 -4 14 -2 9 5 -5 8 2 12 19 12 24 0 26 3 23 37 -3 43 -30 57 -47 24z"></path><path id="p1AgY192Xp" d="M1140 855 c0 -52 13 -58 35 -15 9 17 11 30 5 30 -5 0 -10 7 -10 15 0 8 -7 15 -15 15 -11 0 -15 -12 -15 -45z"></path><path id="p12yPjbxoY" d="M132 841 c-15 -47 -15 -51 -2 -51 5 0 12 11 16 25 3 14 10 25 15 25 5 0 9 9 9 20 0 35 -26 22 -38 -19z"></path><path id="pywk2Gy55" d="M262 860 c-21 -13 -35 -31 -39 -50 -4 -21 -11 -30 -24 -30 -16 0 -19 -8 -19 -55 0 -30 5 -55 10 -55 6 0 10 9 10 19 0 30 37 110 71 152 17 22 29 39 27 39 -1 0 -18 -9 -36 -20z"></path><path id="pO9hq2ZcT" d="M100 843 c0 -22 2 -25 10 -13 13 20 13 40 0 40 -5 0 -10 -12 -10 -27z"></path><path id="pdJ4VLQjV" d="M1230 856 c0 -8 7 -22 16 -30 11 -11 14 -25 9 -46 -4 -19 -3 -30 4 -30 14 0 15 67 1 75 -5 3 -10 15 -10 26 0 10 -4 19 -10 19 -5 0 -10 -6 -10 -14z"></path><path id="p4yJeyOJV" d="M917 853 c-4 -3 -7 -21 -7 -40 0 -29 3 -33 25 -33 25 0 25 0 10 37 -18 43 -20 45 -28 36z"></path><path id="pCvoi6En5" d="M974 841 c10 -11 19 -25 20 -33 2 -7 10 -30 20 -50 20 -46 20 -148 1 -203 -18 -49 -18 -45 -2 -45 8 0 18 21 25 51 13 56 16 179 4 179 -4 0 -6 20 -4 45 4 43 3 45 -22 45 -16 0 -26 6 -26 15 0 8 -7 15 -17 15 -15 0 -15 -2 1 -19z"></path><path id="pPEF0VFW3" d="M58 805 c-3 -14 -1 -28 3 -31 5 -3 9 9 9 25 0 38 -6 40 -12 6z"></path><path id="pgIb9Wrwp" d="M25 768 c-7 -33 -7 -33 -16 -8 -5 15 -6 4 -1 -30 4 -30 6 -75 5 -99 -4 -78 8 -35 18 65 9 101 7 129 -6 72z"></path><path id="p8dxGCmUY" d="M295 765 c-20 -17 -25 -25 -14 -25 16 0 59 32 59 44 0 12 -15 5 -45 -19z"></path><path id="pbI2sQyOJ" d="M373 754 c-28 -14 -33 -22 -33 -50 0 -48 15 -42 43 16 13 28 24 50 23 50 -1 0 -16 -8 -33 -16z"></path><path id="pxCoixxc9" d="M441 749 c8 -15 8 -19 0 -15 -6 4 -11 2 -11 -4 0 -7 -7 -10 -15 -7 -8 4 -17 2 -20 -3 -3 -4 6 -7 20 -5 14 1 25 1 25 0 0 -2 -9 -22 -20 -46 -21 -48 -26 -79 -11 -79 5 0 12 9 16 19 4 13 12 18 23 15 14 -5 15 -4 2 5 -12 9 -12 13 5 33 28 32 23 108 -6 108 -17 0 -18 -3 -8 -21z"></path><path id="p1BxuJlxlL" d="M800 731 c0 -29 -5 -40 -18 -43 -14 -4 -19 -15 -19 -52 -1 -25 3 -46 8 -46 5 0 9 12 9 28 0 19 3 23 9 13 13 -20 34 -3 27 23 -2 11 -1 37 4 56 4 19 8 27 9 18 1 -10 6 -18 12 -18 7 0 9 9 5 23 -3 12 -6 25 -6 30 0 4 -9 7 -20 7 -17 0 -20 -7 -20 -39z"></path><path id="p1CnLNOP0g" d="M915 758 c33 -18 65 -50 59 -59 -3 -5 0 -9 5 -9 6 0 11 -5 11 -11 0 -6 -7 -8 -16 -5 -12 5 -15 2 -9 -11 4 -10 8 -23 8 -30 0 -7 4 -10 9 -7 4 3 8 -9 8 -27 0 -25 3 -30 11 -22 8 8 9 20 1 42 -6 17 -8 46 -5 66 4 26 2 36 -11 41 -9 3 -16 12 -16 19 0 15 -22 25 -53 25 -22 -1 -22 -1 -2 -12z"></path><path id="p1Euyu9eEA" d="M1222 734 c-1 -23 -5 -57 -8 -75 -4 -28 -3 -31 6 -16 6 9 9 43 7 75 -2 44 -4 48 -5 16z"></path><path id="phGLgOW6F" d="M880 725 c0 -8 -3 -15 -8 -15 -4 0 -7 -35 -7 -77 0 -43 -4 -93 -8 -110 -6 -21 -5 -33 1 -33 12 0 32 86 32 135 0 28 4 35 20 35 14 0 21 -9 26 -35 3 -19 10 -35 15 -35 5 0 9 -18 9 -40 0 -23 5 -40 11 -40 8 0 9 15 4 48 -9 57 -18 77 -58 120 -28 29 -27 48 1 20 18 -18 25 -3 10 21 -15 24 -48 28 -48 6z"></path><path id="pkRxkEekL" d="M235 701 c-14 -27 -14 -31 0 -31 8 0 17 11 21 25 9 38 -2 41 -21 6z"></path><path id="pdQBRvl8X" d="M1013 665 c0 -27 2 -38 4 -22 2 15 2 37 0 50 -2 12 -4 0 -4 -28z"></path><path id="p13wl5rYYi" d="M1248 663 c-3 -21 -2 -45 3 -53 7 -12 8 -12 9 3 0 10 4 16 9 12 8 -4 -5 64 -14 73 -1 2 -5 -14 -7 -35z"></path><path id="pY4epWWX" d="M510 675 c20 -11 21 -14 7 -15 -10 0 -16 -4 -12 -10 8 -13 65 -7 65 8 0 8 7 6 19 -5 46 -42 51 -45 51 -29 0 8 -5 18 -10 21 -6 4 -8 11 -5 16 20 32 85 -27 85 -77 0 -19 5 -34 10 -34 6 0 10 -7 10 -15 0 -8 5 -15 10 -15 6 0 10 -13 10 -30 0 -32 17 -41 27 -14 4 11 8 12 13 4 4 -6 7 2 6 19 -1 25 -5 31 -23 31 -19 0 -23 6 -23 30 0 20 -5 30 -15 30 -9 0 -15 9 -15 21 0 21 -21 49 -38 49 -5 0 -15 7 -22 15 -9 11 -33 15 -94 15 -75 -1 -79 -2 -56 -15z"></path><path id="pjjFOxV10" d="M837 666 c-3 -7 -2 -17 3 -22 4 -5 10 -18 13 -29 3 -11 5 -4 6 17 1 38 -13 59 -22 34z"></path><path id="pIelqP5lG" d="M332 569 c3 -44 9 -84 14 -87 5 -4 15 -19 21 -34 7 -16 19 -28 28 -28 12 0 9 9 -12 42 -23 33 -28 55 -31 115 -3 40 -9 73 -14 73 -7 0 -9 -30 -6 -81z"></path><path id="pH5XUI5aW" d="M653 603 c-1 -18 2 -22 7 -12 5 7 12 10 16 6 4 -3 1 -14 -7 -23 -12 -15 -12 -17 1 -12 21 7 24 35 6 53 -20 20 -21 19 -23 -12z"></path><path id="p1vDuE03k" d="M363 590 c-1 -19 3 -46 7 -60 8 -24 8 -24 9 -2 1 12 6 22 11 22 6 0 10 5 10 11 0 6 -6 9 -14 6 -11 -4 -16 3 -19 26 l-4 32 0 -35z"></path><path id="piqYYKm5F" d="M551 611 c70 -14 88 -54 63 -140 -20 -74 -13 -103 9 -37 38 112 10 187 -70 185 l-38 -1 36 -7z"></path><path id="p1qJzbK1L" d="M1215 610 c-3 -5 -1 -18 4 -27 6 -10 11 -13 11 -6 0 6 3 18 6 27 7 17 -11 22 -21 6z"></path><path id="ph1Xp0DcY" d="M484 595 c-19 -14 -18 -14 4 -15 13 0 22 6 22 15 0 19 -1 19 -26 0z"></path><path id="puVFH7Ov" d="M101 578 c1 -13 5 -34 9 -48 7 -20 8 -16 9 23 1 26 -3 47 -9 47 -5 0 -10 -10 -9 -22z"></path><path id="pZ0hM2bh3" d="M20 553 c0 -13 5 -23 10 -23 13 0 13 11 0 30 -8 12 -10 11 -10 -7z"></path><path id="pmtPER0IS" d="M77 521 c-5 -29 -6 -56 -3 -58 7 -8 18 61 14 88 -2 15 -7 3 -11 -30z"></path><path id="p143nako2n" d="M668 525 c2 -14 8 -22 12 -20 5 3 11 -7 13 -22 2 -18 5 -10 6 20 1 40 -2 47 -18 47 -14 0 -17 -6 -13 -25z"></path><path id="p1AHPyLA3X" d="M1282 541 c-9 -5 -10 -15 -4 -31 l9 -24 7 28 c8 32 6 38 -12 27z"></path><path id="p1AETp0f8J" d="M438 523 c-5 -57 -4 -70 3 -88 5 -13 8 2 8 43 1 34 -1 62 -4 62 -3 0 -6 -8 -7 -17z"></path><path id="pMHD6W9xC" d="M390 503 c0 -11 6 -27 14 -38 12 -16 13 -15 12 15 -1 35 -26 56 -26 23z"></path><path id="pheDiCJWm" d="M230 474 c0 -31 3 -36 20 -31 18 4 19 1 14 -37 -5 -36 -2 -47 19 -69 23 -26 47 -35 47 -19 0 4 -14 23 -30 42 -19 22 -29 42 -26 54 3 10 2 33 -1 50 -7 31 -7 31 -14 6 -6 -23 -7 -23 -8 8 -1 44 -21 41 -21 -4z"></path><path id="pH3TdxBbn" d="M270 502 c0 -5 7 -17 15 -28 14 -18 14 -18 15 9 0 17 -5 27 -15 27 -8 0 -15 -4 -15 -8z"></path><path id="pECjNEs9W" d="M1180 466 c0 -29 -4 -36 -20 -36 -21 0 -23 -9 -10 -50 7 -24 8 -22 29 24 26 60 30 87 14 93 -9 3 -13 -7 -13 -31z"></path><path id="pP0CZ0nIP" d="M123 473 c28 -49 40 -87 29 -91 -10 -3 -10 -7 -1 -18 6 -8 8 -14 5 -14 -4 0 0 -7 9 -16 9 -9 19 -14 22 -11 3 3 -2 13 -11 22 -22 23 -21 38 3 26 23 -13 71 -68 95 -112 12 -22 20 -29 24 -20 2 7 0 16 -6 20 -6 3 -13 18 -17 32 -7 27 -49 79 -65 79 -5 0 -12 9 -15 20 -3 11 -13 20 -21 20 -8 0 -14 9 -14 21 0 11 -6 27 -14 35 -15 15 -30 19 -23 7z"></path><path id="pVn9zyA6f" d="M641 423 c-7 -32 -17 -71 -22 -87 -12 -37 -7 -41 20 -19 19 15 23 30 25 91 2 39 0 72 -4 72 -4 0 -13 -26 -19 -57z"></path><path id="pgEs8E5GL" d="M1223 473 c-15 -5 -18 -33 -4 -33 8 0 25 30 19 35 -2 1 -9 0 -15 -2z"></path><path id="pGw46kGHA" d="M100 421 c0 -21 5 -31 15 -31 8 0 15 7 15 16 0 8 -7 22 -15 30 -13 14 -15 12 -15 -15z"></path><path id="pKA1RFwFU" d="M324 419 c14 -17 28 -40 31 -52 12 -57 14 -58 10 -4 -4 64 -17 87 -47 87 -18 0 -18 -2 6 -31z"></path><path id="p1CarNldsR" d="M710 418 c-16 -39 -21 -80 -8 -72 5 3 7 8 4 11 -3 3 8 25 25 49 26 38 28 44 12 44 -11 0 -24 -13 -33 -32z"></path><path id="pCQdklSRU" d="M1254 425 c-8 -31 2 -44 19 -25 10 10 9 11 -2 5 -11 -6 -13 -2 -7 19 3 14 4 26 1 26 -2 0 -7 -11 -11 -25z"></path><path id="p4pyJDukU" d="M40 415 c0 -17 35 -73 43 -68 6 4 8 0 4 -10 -3 -9 -2 -19 3 -22 6 -4 10 0 10 7 0 7 7 2 16 -10 9 -13 13 -29 10 -37 -2 -7 3 -19 12 -26 14 -11 15 -11 6 0 -9 10 -8 19 2 39 12 23 11 28 -2 35 -9 5 -25 18 -35 28 -11 11 -24 17 -28 14 -5 -3 -14 9 -20 25 -8 26 -21 40 -21 25z"></path><path id="pmo9BtQau" d="M284 409 c-4 -6 7 -25 25 -41 l32 -30 -7 29 c-11 47 -35 66 -50 42z"></path><path id="p3wbPgR6K" d="M777 384 c-15 -20 -15 -24 -3 -24 8 0 18 9 21 21 10 29 3 31 -18 3z"></path><path id="pkOl2XRMW" d="M699 317 c-19 -18 -28 -26 -19 -19 9 6 24 12 34 12 9 0 19 7 23 15 10 27 -1 25 -38 -8z"></path><path id="p1DnG4o1QY" d="M196 321 c-4 -5 -2 -20 2 -33 5 -12 7 -30 5 -38 -3 -11 -2 -12 5 -2 5 7 16 10 25 6 14 -5 16 -2 10 12 -11 31 -41 65 -47 55z"></path><path id="pIFGqxUn8" d="M1196 304 c-9 -8 -16 -20 -16 -26 0 -6 9 -1 20 12 29 33 25 44 -4 14z"></path><path id="pe9t4ZojG" d="M1153 280 c0 -16 4 -27 9 -24 4 3 8 16 8 30 0 13 -4 24 -8 24 -5 0 -9 -13 -9 -30z"></path><path id="puBaxyAqF" d="M1050 290 c0 -5 -7 -10 -15 -10 -8 0 -15 -4 -15 -10 0 -5 -9 -10 -20 -10 -12 0 -20 -7 -20 -16 0 -9 -13 -29 -30 -44 -16 -15 -30 -33 -30 -38 0 -6 -6 -13 -12 -15 -7 -3 -8 -6 -3 -6 6 -1 30 19 54 44 33 34 47 42 53 33 4 -7 8 -10 9 -5 1 4 2 10 3 15 0 4 11 22 24 40 13 17 19 32 13 32 -6 0 -11 -4 -11 -10z"></path><path id="pentxn9l8" d="M1076 284 c-12 -31 3 -34 22 -4 10 16 10 20 -2 20 -8 0 -17 -7 -20 -16z"></path><path id="pc3XfBdPE" d="M170 242 c0 -5 9 -17 20 -27 11 -10 20 -23 20 -28 0 -6 -15 2 -32 19 -24 21 -22 17 7 -14 43 -46 47 -49 39 -27 -4 9 0 15 7 15 10 1 9 5 -3 14 -10 7 -18 16 -18 20 0 9 -26 36 -34 36 -3 0 -6 -4 -6 -8z"></path><path id="pUElpTQQ0" d="M1077 228 c39 -27 40 -34 11 -49 -31 -16 -68 -50 -68 -63 0 -8 3 -8 8 0 9 14 54 39 65 36 5 -1 6 2 3 7 -4 5 2 16 12 23 27 20 40 43 18 35 -10 -4 -19 -1 -22 8 -4 8 -10 13 -14 10 -5 -3 -11 -1 -15 5 -3 5 -11 10 -18 10 -6 0 3 -10 20 -22z"></path><path id="p13Qr59mIY" d="M240 221 c0 -5 7 -11 15 -15 9 -3 15 0 15 9 0 8 -7 15 -15 15 -8 0 -15 -4 -15 -9z"></path><path id="p8a7rNNL3" d="M350 186 c0 -2 11 -11 25 -20 24 -16 25 -16 25 4 0 15 -7 20 -25 20 -14 0 -25 -2 -25 -4z"></path><path id="pIA4FkIDg" d="M997 174 c4 -12 2 -15 -8 -12 -8 3 -19 -1 -26 -8 -17 -17 -16 -24 3 -24 9 0 12 5 8 12 -5 8 0 9 14 6 17 -5 22 -2 22 12 0 11 -4 22 -10 25 -6 4 -7 -1 -3 -11z"></path><path id="pMxiLzSFh" d="M258 163 c9 -4 10 -8 2 -18 -8 -10 -8 -15 1 -21 8 -5 9 -3 5 5 -5 8 -3 11 6 9 13 -3 18 3 18 20 0 4 -10 8 -22 9 -13 0 -17 -1 -10 -4z"></path><path id="p1EnmMiV7z" d="M340 150 c0 -5 7 -10 15 -10 8 0 15 5 15 10 0 6 -7 10 -15 10 -8 0 -15 -4 -15 -10z"></path><path id="pdazX3zwJ" d="M486 119 c4 -8 85 -29 108 -29 9 0 16 4 16 8 0 4 -29 12 -64 18 -35 5 -62 6 -60 3z"></path><path id="pW1z9Pfox" d="M708 123 c-21 -5 -24 -33 -4 -33 8 0 16 -6 18 -12 3 -7 10 2 16 20 11 34 9 35 -30 25z"></path><path id="pqnel0vTs" d="M795 122 c-13 -13 9 -19 36 -12 46 14 49 21 6 18 -21 -1 -40 -4 -42 -6z"></path><path id="pIa7LquR1" d="M310 96 c0 -12 79 -45 85 -36 3 6 -1 10 -9 10 -9 0 -16 5 -16 11 0 5 -4 7 -10 4 -5 -3 -19 -1 -30 5 -11 6 -20 8 -20 6z"></path><path id="p1GoVaqo4c" d="M427 93 c-15 -15 -5 -21 38 -21 25 -1 45 3 45 7 0 5 -8 7 -19 4 -10 -3 -22 0 -25 6 -8 12 -29 15 -39 4z"></path><path id="p19oim2k1Y" d="M746 85 c-3 -8 -1 -15 3 -15 5 0 12 6 14 13 4 10 6 10 6 0 1 -16 41 -17 41 -2 0 6 -7 9 -15 5 -8 -3 -15 -1 -15 4 0 16 -27 11 -34 -5z"></path><path id="p1ALzK3bmB" d="M533 73 c9 -2 25 -2 35 0 9 3 1 5 -18 5 -19 0 -27 -2 -17 -5z"></path><path id="pOAYyFeFK" d="M428 54 c6 -3 9 -11 5 -17 -3 -7 -3 -9 2 -5 4 4 13 4 19 -1 7 -6 16 -4 24 5 10 11 10 14 0 14 -7 0 -24 3 -38 5 -14 3 -19 3 -12 -1z"></path><path id="pEvcHoM1O" d="M760 40 l35 -7 -42 -2 c-25 0 -43 -6 -43 -12 0 -8 -21 -10 -67 -7 -39 3 -59 2 -48 -3 29 -11 133 -11 137 1 2 6 30 11 64 13 82 3 78 22 -5 23 -51 1 -58 0 -31 -6z"></path><path id="ptwmy94tk" d="M505 19 l-20 -9 20 2 c11 2 27 -2 35 -7 13 -8 13 -7 1 8 -7 9 -14 17 -15 16 0 0 -10 -5 -21 -10z"></path></g></g><g id="l5313DWm0dSiLPZ3NfKmgtY" fill="rgb(217,104,14)" style="transform: none;"><g><path id="p5Uy6z3AJ" d="M730 1235 c0 -3 27 -17 60 -32 33 -14 60 -30 60 -35 0 -4 -18 1 -39 12 -22 10 -58 22 -80 26 -37 6 -41 5 -41 -15 0 -17 6 -21 31 -21 17 0 37 -7 45 -15 9 -8 24 -15 35 -15 10 0 19 -4 19 -10 0 -5 16 -10 35 -10 24 0 35 5 35 15 0 8 7 15 15 15 10 0 15 -10 15 -30 0 -20 5 -30 15 -30 8 0 15 -4 15 -10 0 -5 16 -10 35 -10 30 0 35 3 35 23 0 13 -9 32 -20 42 -19 18 -20 17 -20 -3 0 -31 -11 -27 -38 12 -24 35 -62 58 -127 75 -22 6 -50 13 -62 16 -13 4 -23 4 -23 0z"></path><path id="p2DwDbAkY" d="M463 1203 c-18 -9 -33 -21 -33 -25 0 -5 -4 -6 -10 -3 -11 7 -70 -25 -70 -37 0 -4 9 -8 20 -8 11 0 20 -7 20 -15 0 -10 11 -15 35 -15 23 0 35 5 35 14 0 8 15 17 35 20 28 6 35 11 35 31 0 23 -2 23 -32 13 -18 -6 -39 -16 -47 -22 -11 -8 -13 -8 -7 2 4 7 25 21 47 32 21 11 39 23 39 25 0 10 -36 3 -67 -12z"></path><path id="pefSneNUT" d="M598 1203 c-33 -8 -20 -33 17 -33 28 0 35 4 35 20 0 20 -14 23 -52 13z"></path><path id="pf2acPbMV" d="M1050 1058 c0 -26 4 -38 14 -38 8 0 16 -10 18 -22 2 -18 11 -24 37 -26 l33 -3 -23 33 c-13 18 -36 47 -51 63 l-28 30 0 -37z"></path><path id="ptAFUUKOw" d="M228 1033 c-40 -43 -48 -66 -49 -140 -1 -37 -4 -56 -6 -40 -2 15 -9 27 -14 27 -18 0 -41 -72 -35 -108 4 -29 3 -32 -9 -22 -13 10 -15 8 -15 -14 0 -21 5 -26 23 -26 15 0 28 9 35 23 10 21 11 20 11 -10 1 -22 6 -33 16 -33 8 0 15 6 15 14 0 7 13 39 28 70 26 51 27 56 10 56 -16 0 -18 9 -18 74 0 65 2 74 20 79 15 4 20 14 20 41 0 20 -1 36 -3 36 -2 0 -15 -12 -29 -27z"></path><path id="p17d2Hbqlm" d="M337 1033 c-4 -3 -7 -18 -7 -32 0 -44 -12 -71 -29 -71 -26 0 -41 -21 -41 -58 l0 -35 50 47 c56 52 68 58 43 19 -10 -15 -13 -24 -6 -20 6 4 14 3 18 -3 3 -5 -1 -10 -10 -10 -11 0 -15 -7 -13 -22 3 -20 8 -23 41 -21 52 3 46 -12 -10 -26 -78 -20 -153 -93 -153 -151 0 -11 -4 -20 -10 -20 -5 0 -10 7 -10 15 0 8 -7 15 -15 15 -11 0 -15 -11 -15 -40 0 -39 1 -40 35 -40 31 0 35 -3 35 -25 0 -16 -6 -25 -15 -25 -30 0 -14 -132 18 -152 7 -4 -3 -8 -22 -8 l-35 0 35 -36 c31 -32 34 -33 37 -15 2 15 11 21 28 21 13 0 24 5 24 10 0 6 -5 10 -11 10 -6 0 -9 6 -6 13 3 8 1 20 -5 28 -8 11 -9 10 -4 -4 3 -10 2 -16 -3 -13 -4 3 -14 26 -21 51 -10 34 -10 53 -2 78 l11 32 -3 -32 c-1 -18 -1 -31 2 -28 7 6 82 -97 88 -122 10 -40 34 -27 34 17 0 51 18 53 22 3 3 -37 4 -38 46 -41 l42 -3 0 40 c0 37 -2 41 -26 41 -22 0 -24 -3 -19 -22 5 -18 -2 -15 -33 17 -21 22 -44 49 -50 60 -9 15 -14 17 -20 8 -6 -9 -12 -7 -25 7 -22 26 -21 30 3 30 18 0 20 7 20 59 0 32 7 77 15 100 14 41 14 41 -10 41 -20 0 -25 -7 -34 -50 -6 -28 -11 -60 -11 -70 0 -16 -7 -20 -30 -20 -28 0 -30 2 -30 40 0 22 5 40 10 40 6 0 10 11 10 25 0 18 5 25 20 25 11 0 20 7 20 15 0 8 9 15 20 15 10 0 24 8 29 18 9 15 10 15 11 -5 0 -33 11 -28 43 18 16 23 31 38 34 35 3 -3 0 -12 -6 -20 -18 -21 -5 -36 30 -36 26 0 29 3 29 34 0 56 -16 86 -45 86 -31 0 -33 22 -5 50 21 21 28 80 10 80 -5 0 -10 9 -10 20 0 18 -7 20 -53 20 -30 0 -57 -3 -60 -7z"></path><path id="ppYG2br0t" d="M980 970 c0 -16 -7 -20 -37 -20 -31 0 -40 -5 -50 -27 -7 -15 -13 -44 -13 -65 0 -37 -1 -38 -34 -38 -39 0 -66 -21 -66 -53 0 -44 -12 -49 -94 -42 -54 5 -76 4 -76 -4 0 -6 -16 -11 -35 -11 -30 0 -35 -3 -35 -24 0 -13 7 -26 15 -30 8 -3 15 0 15 7 0 9 2 9 8 -1 6 -9 16 -10 38 -2 24 8 37 6 69 -10 74 -38 120 -19 132 54 3 20 10 36 14 36 5 0 9 7 9 15 0 8 9 15 20 15 15 0 20 7 20 25 0 21 5 25 31 25 25 0 29 3 24 19 -3 11 -1 22 4 25 15 9 68 -62 76 -100 8 -45 35 -46 36 -1 0 17 3 26 6 20 2 -7 19 -13 38 -13 28 0 33 -4 39 -30 4 -24 11 -30 31 -30 22 0 25 -4 25 -34 0 -25 -5 -35 -20 -39 -15 -4 -20 -14 -20 -41 0 -25 -5 -36 -15 -36 -19 0 -35 -31 -35 -68 0 -43 12 -47 32 -10 l17 33 -6 -32 c-4 -26 -2 -33 11 -33 23 0 52 32 48 54 -2 10 0 16 6 12 9 -5 35 94 26 103 -2 2 -10 -2 -19 -9 -19 -16 -19 -1 0 24 18 24 20 72 3 80 -10 5 -10 7 0 12 16 8 15 29 -3 65 -17 32 -35 30 -35 -4 0 -17 -2 -19 -9 -8 -5 8 -7 36 -4 62 7 61 -4 119 -22 119 -11 0 -15 -14 -16 -57 -1 -54 -2 -55 -9 -20 -6 33 -35 77 -65 99 -5 4 -25 8 -42 8 -26 0 -33 -4 -33 -20z m120 -141 c0 -12 -9 -8 -35 15 -37 34 -45 49 -20 40 9 -4 15 -1 15 7 0 8 9 1 20 -16 11 -16 20 -37 20 -46z m-50 -14 c0 -8 -7 -15 -15 -15 -8 0 -15 7 -15 15 0 8 7 15 15 15 8 0 15 -7 15 -15z"></path><path id="pNY0djAkY" d="M436 708 c-7 -18 -11 -36 -9 -40 7 -13 30 -9 43 7 9 11 17 12 30 5 27 -15 30 -13 30 19 0 21 -6 30 -22 35 -44 11 -58 6 -72 -26z"></path><path id="pNNWXKpZA" d="M1030 655 c0 -58 2 -65 20 -65 18 0 20 7 20 65 0 58 -2 65 -20 65 -18 0 -20 -7 -20 -65z"></path><path id="puCxwWqQo" d="M860 701 c0 -23 14 -41 31 -41 14 0 19 -7 19 -25 0 -14 5 -25 10 -25 6 0 10 -11 10 -25 0 -18 5 -25 20 -25 23 0 27 28 9 63 -27 52 -99 109 -99 78z"></path><path id="pRy65P61a" d="M590 586 c0 -37 10 -56 31 -56 23 0 25 27 3 58 -20 29 -34 28 -34 -2z"></path><path id="pJsH6IxN4" d="M724 558 c3 -13 6 -35 6 -50 0 -23 5 -28 24 -28 19 0 27 9 40 40 23 57 21 60 -30 60 -43 0 -46 -2 -40 -22z"></path><path id="phknXo4C4" d="M860 536 c0 -7 -13 -39 -28 -70 l-29 -56 27 0 c28 0 40 15 40 51 0 10 5 19 10 19 6 0 10 16 10 35 0 24 -5 35 -15 35 -8 0 -15 -6 -15 -14z"></path><path id="pEyfpGv4y" d="M936 519 c-3 -17 -6 -44 -6 -60 0 -26 3 -29 31 -29 40 0 69 32 69 77 0 43 -15 42 -40 -4 l-21 -38 7 43 c5 37 4 42 -14 42 -14 0 -21 -9 -26 -31z"></path><path id="pekUI6WpB" d="M438 513 c-8 -41 -4 -63 13 -63 15 0 19 8 19 35 0 24 -5 35 -15 35 -8 0 -16 -3 -17 -7z"></path><path id="p1HYwA4spr" d="M140 442 c0 -4 6 -20 13 -35 17 -38 37 -34 37 8 0 31 -3 35 -25 35 -14 0 -25 -4 -25 -8z"></path><path id="pyRJyadSy" d="M580 426 c0 -13 -5 -26 -11 -28 -6 -2 -13 -25 -16 -51 -9 -75 17 -60 49 28 l26 75 -24 0 c-19 0 -24 -5 -24 -24z"></path><path id="pA0LMaIxc" d="M911 329 c-11 -29 -21 -65 -21 -80 0 -26 3 -29 34 -29 43 0 66 32 73 106 l6 54 -35 0 c-33 0 -37 -3 -57 -51z"></path><path id="pfq9ilNPy" d="M1050 361 c0 -11 -4 -23 -10 -26 -12 -7 -14 -75 -2 -75 7 0 29 29 45 60 9 17 4 -12 -8 -45 -4 -13 4 -8 25 15 20 23 30 43 28 60 -3 21 -9 25 -40 28 -32 3 -38 0 -38 -17z"></path><path id="pyeiTjwT9" d="M710 327 l-55 -42 34 -3 c19 -2 37 1 40 5 3 5 14 12 24 16 11 4 17 17 17 37 0 16 -1 30 -2 30 -2 0 -28 -19 -58 -43z"></path><path id="p7NbZUBhS" d="M317 324 c-4 -4 -7 -15 -7 -25 0 -11 -9 -19 -25 -21 l-25 -3 21 -31 c19 -26 108 -94 124 -94 3 0 3 12 0 28 -6 26 -6 26 9 8 15 -19 16 -18 16 18 l0 39 -55 -7 c-32 -4 -55 -2 -55 3 0 5 15 11 33 13 29 3 32 6 35 41 2 27 -1 37 -12 37 -8 0 -18 -10 -22 -22 l-6 -21 -12 22 c-7 12 -15 18 -19 15z"></path><path id="pFUWyW5ui" d="M800 240 c0 -5 -6 -10 -13 -10 -18 0 -57 -34 -57 -49 0 -6 -4 -11 -10 -11 -5 0 -10 -16 -10 -35 0 -47 21 -45 43 2 11 25 31 46 59 62 l42 24 -26 -31 c-43 -51 -21 -100 33 -72 29 16 23 30 -12 30 -27 0 -29 2 -15 15 8 8 19 15 25 15 6 0 11 16 11 35 0 33 -2 35 -35 35 -19 0 -35 -4 -35 -10z"></path><path id="pKsX9oTV" d="M550 175 c0 -31 -3 -35 -25 -35 -37 0 -31 -28 8 -38 17 -5 34 -5 35 0 2 4 19 8 38 8 l34 0 0 50 c0 44 -2 50 -21 50 -19 0 -21 -4 -15 -32 5 -31 5 -32 -9 -14 -8 11 -15 26 -15 33 0 7 -7 13 -15 13 -10 0 -15 -11 -15 -35z"></path></g></g><g id="l5QrYPnNgcHSV36xzZ2YhM8" fill="rgb(228,78,33)" style="transform: none;"><g><path id="pDJFDWTmr" d="M730 1236 c0 -5 66 -36 76 -36 15 0 0 20 -18 25 -53 15 -58 16 -58 11z"></path><path id="p19zvLi2ml" d="M413 1177 c-81 -41 -131 -81 -186 -146 -41 -50 -41 -51 -43 -123 -2 -61 0 -68 17 -68 16 0 19 7 19 54 0 30 4 58 10 61 6 3 10 15 10 26 0 10 7 19 15 19 8 0 15 8 15 19 0 10 9 21 20 24 11 3 20 12 20 21 0 9 8 16 18 16 20 1 62 33 62 49 0 6 11 11 25 11 14 0 25 5 25 11 0 5 5 7 10 4 6 -4 9 -1 8 5 -2 7 12 20 30 30 44 24 49 30 26 30 -10 0 -56 -19 -101 -43z"></path><path id="p12UNWfWVu" d="M714 1185 c9 -21 18 -25 54 -25 23 0 42 4 42 8 0 12 -38 29 -76 36 -31 5 -31 4 -20 -19z"></path><path id="ph9yp7Tof" d="M820 1201 c0 -13 47 -41 70 -41 16 0 20 -6 20 -31 0 -29 2 -30 38 -29 66 3 71 1 74 -27 2 -17 12 -32 26 -38 12 -5 22 -15 22 -22 0 -7 9 -13 20 -13 16 0 20 -7 20 -30 0 -25 4 -30 25 -30 14 0 25 4 25 9 0 5 -11 23 -25 39 -14 17 -25 33 -25 37 0 4 -28 34 -62 66 -53 50 -63 56 -66 39 -5 -29 -18 -25 -42 15 -12 19 -28 35 -35 35 -7 0 -15 5 -17 11 -4 13 -68 22 -68 10z"></path><path id="piAeKrvgB" d="M523 1185 c-40 -17 -43 -35 -5 -35 47 0 72 11 72 31 0 23 -22 24 -67 4z"></path><path id="p1GCaVS37G" d="M320 929 c-18 -32 -2 -36 28 -6 26 26 26 27 5 27 -12 0 -27 -9 -33 -21z"></path><path id="piavVLWmQ" d="M980 925 c0 -7 8 -18 17 -24 25 -13 9 -25 -15 -12 -12 6 -37 11 -56 11 -32 0 -36 -4 -44 -32 -6 -25 -14 -34 -33 -36 -27 -3 -69 -56 -69 -88 0 -10 -5 -26 -10 -34 -8 -12 -13 -11 -33 8 -24 22 -90 31 -101 13 -9 -13 -60 -21 -99 -14 -35 5 -36 7 -39 52 -2 35 -7 47 -21 49 -15 3 -18 0 -12 -17 5 -16 3 -19 -8 -15 -20 7 -30 -12 -18 -33 6 -12 3 -32 -10 -65 -27 -68 -24 -74 16 -37 31 30 33 34 17 47 -16 13 -16 13 1 8 10 -3 23 -6 28 -6 6 0 8 -4 5 -9 -3 -5 11 -16 32 -24 31 -13 37 -13 40 -1 2 8 11 14 20 14 14 0 15 -2 2 -10 -23 -14 -6 -22 24 -10 38 14 40 13 70 -16 16 -16 26 -38 26 -55 0 -15 5 -31 11 -34 14 -9 9 -91 -7 -132 -7 -18 -11 -33 -8 -33 17 0 66 72 88 129 16 42 14 87 -5 76 -16 -11 -10 38 8 57 11 12 18 38 19 66 3 62 2 59 20 66 8 3 12 2 9 -4 -4 -6 5 -10 20 -10 30 0 75 -21 94 -44 18 -22 34 -20 21 2 -20 36 -50 124 -45 133 4 5 2 9 -4 9 -5 0 -12 -6 -14 -12 -3 -8 -6 -7 -6 4 -2 29 16 29 47 1 31 -30 56 -78 67 -130 9 -45 35 -44 35 2 0 19 -4 35 -10 35 -5 0 -10 7 -10 15 0 9 9 15 25 15 30 0 32 13 5 40 -11 11 -24 20 -30 20 -5 0 -10 7 -10 15 0 9 6 12 15 9 20 -8 19 11 -2 36 -20 23 -63 27 -63 5z m-227 -249 c27 -21 20 -26 -13 -10 -16 9 -30 17 -30 20 0 9 26 3 43 -10z m27 -135 c0 -5 -7 -14 -15 -21 -13 -10 -15 -9 -15 9 0 12 6 21 15 21 8 0 15 -4 15 -9z"></path><path id="p1AilRIYoz" d="M1063 910 c14 -16 28 -43 32 -60 9 -43 35 -39 35 5 0 28 -4 35 -20 35 -15 0 -20 7 -20 25 0 20 -5 25 -26 25 l-26 0 25 -30z"></path><path id="pnUi1f1gd" d="M352 902 c-7 -12 -9 -22 -5 -21 4 1 19 -2 32 -8 19 -7 21 -12 11 -18 -9 -5 -15 -4 -18 3 -5 17 -29 15 -36 -4 -13 -35 10 -42 74 -22 47 15 57 48 15 48 -19 0 -25 5 -25 23 -1 21 -1 21 -14 4 -14 -18 -14 -18 -18 0 -3 16 -5 16 -16 -5z"></path><path id="pAj6xbvu1" d="M134 843 c-10 -22 -13 -49 -9 -70 6 -31 -8 -48 -18 -20 -10 30 -17 -95 -8 -158 12 -81 40 -175 53 -175 4 0 8 -8 8 -19 0 -10 11 -26 25 -35 25 -16 25 -16 25 14 0 18 -6 33 -15 36 -8 4 -15 14 -15 23 0 9 -10 41 -22 71 -25 65 -33 240 -10 247 6 3 12 11 12 19 0 9 -4 12 -10 9 -5 -3 -3 10 5 29 8 20 15 42 15 51 0 28 -21 16 -36 -22z"></path><path id="puVE7l7pt" d="M230 834 c0 -39 9 -38 40 6 l21 30 -30 0 c-29 0 -31 -3 -31 -36z"></path><path id="pYIU6I6KU" d="M1153 805 c0 -22 2 -30 4 -17 2 12 2 30 0 40 -3 9 -5 -1 -4 -23z"></path><path id="p17YtZDHzi" d="M417 814 c-3 -4 -21 -10 -39 -14 -30 -7 -31 -8 -6 -9 14 -1 28 -6 30 -12 2 -5 14 1 27 15 18 19 21 26 9 26 -8 0 -17 -3 -21 -6z"></path><path id="pj3WH4zzI" d="M1187 813 c-15 -15 -6 -43 13 -43 18 0 19 3 9 23 -15 29 -15 28 -22 20z"></path><path id="pTM05K6mJ" d="M180 755 c0 -43 14 -45 35 -5 20 38 19 40 -10 40 -22 0 -25 -4 -25 -35z"></path><path id="p1HrNZWygx" d="M276 747 c-52 -45 -74 -117 -36 -117 15 0 20 7 20 25 0 14 5 25 10 25 6 0 10 9 10 20 0 13 7 20 20 20 15 0 20 7 20 25 0 31 -9 31 -44 2z"></path><path id="pnCgAJq7p" d="M340 715 c0 -43 14 -45 35 -5 20 38 19 40 -10 40 -22 0 -25 -4 -25 -35z"></path><path id="pFbpiYYm6" d="M193 670 c0 -25 2 -35 4 -22 2 12 2 32 0 45 -2 12 -4 2 -4 -23z"></path><path id="pK91bmqbG" d="M864 688 c3 -13 6 -26 6 -30 0 -5 7 -8 15 -8 18 0 20 31 3 48 -19 19 -31 14 -24 -10z"></path><path id="ppXrw1iYc" d="M1190 648 c0 -38 1 -41 16 -27 8 9 17 28 18 43 3 20 -1 26 -15 26 -16 0 -19 -8 -19 -42z"></path><path id="pDvSWCEVa" d="M508 609 c-29 -16 -21 -29 17 -29 28 0 35 4 35 20 0 22 -24 26 -52 9z"></path><path id="pcdemYZ5" d="M1026 598 c-10 -38 -7 -48 14 -48 16 0 20 7 20 35 0 40 -24 49 -34 13z"></path><path id="prsaxT6HA" d="M1206 600 c-17 -18 -18 -20 -2 -26 20 -8 21 -6 30 24 9 27 -2 28 -28 2z"></path><path id="ppZFCGTIY" d="M866 568 c-10 -38 -7 -48 14 -48 16 0 20 7 20 35 0 40 -24 49 -34 13z"></path><path id="pbMik88RJ" d="M940 555 c0 -28 4 -35 20 -35 21 0 24 10 14 48 -10 36 -34 27 -34 -13z"></path><path id="pFlA9X2nj" d="M219 538 c-12 -45 -7 -117 9 -127 5 -3 17 -24 28 -46 10 -22 23 -43 28 -47 6 -4 1 -8 -11 -8 -13 0 -23 -3 -23 -6 0 -9 22 -48 36 -61 7 -7 14 -16 16 -20 6 -15 99 -75 105 -69 4 4 1 12 -5 18 -7 7 -12 20 -12 30 0 13 -8 18 -25 18 -16 0 -25 6 -25 15 0 8 -7 15 -15 15 -9 0 -15 9 -14 23 0 12 3 16 6 10 2 -7 20 -13 38 -13 36 0 45 12 45 61 0 26 3 29 33 29 50 0 60 12 53 56 -4 22 -9 56 -12 77 -4 22 -12 37 -20 37 -8 0 -14 -6 -15 -12 -1 -7 -2 -26 -3 -41 -2 -16 5 -45 15 -65 26 -50 15 -52 -26 -6 l-34 39 -1 -37 c0 -27 -4 -38 -15 -38 -10 0 -15 -11 -16 -30 -1 -16 -3 -34 -4 -40 -1 -5 -3 -13 -4 -17 0 -5 -10 11 -22 35 -12 23 -25 42 -30 42 -5 0 -18 18 -29 40 -11 22 -18 40 -14 40 4 0 2 6 -2 13 -12 15 -10 34 5 71 16 39 26 26 12 -15 -6 -18 -8 -30 -5 -26 4 4 18 -6 30 -21 23 -26 24 -26 24 -4 0 17 6 22 24 22 23 0 24 2 13 35 -12 39 -36 47 -38 13 -1 -16 -4 -11 -11 15 -9 33 -13 37 -44 37 -31 0 -34 -3 -45 -42z"></path><path id="p2agghrUs" d="M1175 520 c-4 -17 -14 -37 -22 -46 -20 -19 -20 -61 -1 -81 13 -13 18 -8 37 36 16 39 19 56 11 70 -16 30 -12 49 5 27 15 -19 15 -19 15 2 0 35 -37 29 -45 -8z"></path><path id="ptrQsHmO5" d="M1080 420 c0 -28 5 -58 11 -68 9 -14 8 -26 -6 -51 -23 -45 -13 -50 19 -9 23 31 25 39 19 106 -5 61 -9 72 -24 72 -16 0 -19 -8 -19 -50z"></path><path id="p2O4CkygD" d="M798 410 l-28 -35 26 -3 c33 -4 36 -1 32 39 l-3 34 -27 -35z"></path><path id="pb6dcjDky" d="M540 300 c0 -45 23 -57 34 -17 11 41 7 57 -14 57 -17 0 -20 -7 -20 -40z"></path><path id="prabgLjzW" d="M664 290 c-46 -35 -63 -61 -64 -97 0 -27 36 -11 59 27 13 21 32 41 43 43 12 4 18 14 18 36 0 17 -1 31 -2 31 -2 0 -26 -18 -54 -40z"></path><path id="pEf6kZy3S" d="M1046 315 c-3 -8 -11 -15 -19 -15 -23 0 -147 -124 -147 -147 0 -28 32 -20 63 16 12 14 39 39 59 54 31 24 78 86 78 103 0 11 -29 2 -34 -11z"></path><path id="p0CcqZ7Gc" d="M810 235 c0 -15 -6 -25 -14 -25 -8 0 -17 -7 -20 -16 -5 -13 0 -12 29 5 47 27 54 27 27 -2 -22 -23 -45 -81 -36 -90 3 -3 14 -3 25 0 13 4 21 17 25 44 4 23 12 39 20 39 9 0 14 12 14 35 0 33 -2 35 -35 35 -31 0 -35 -3 -35 -25z"></path><path id="pxcFxEUCQ" d="M540 215 c0 -28 4 -35 20 -35 21 0 24 10 14 48 -10 36 -34 27 -34 -13z"></path><path id="p1DssqPpu6" d="M421 178 c38 -52 79 -73 172 -85 33 -5 37 -3 37 16 0 16 -6 21 -26 21 -35 0 -104 21 -104 32 0 4 -7 8 -15 8 -8 0 -15 6 -15 14 0 8 -14 15 -34 18 l-34 4 19 -28z"></path><path id="pejwL5xFE" d="M702 140 c-19 -32 -15 -50 13 -50 16 0 25 6 25 15 0 25 1 29 12 43 8 9 5 12 -13 12 -13 0 -30 -9 -37 -20z"></path></g></g><g id="l7BXlmRDMqro8LYRTLXvcRB" fill="rgb(238,113,25)" style="transform: none;"><g><path id="p1HKixn0ok" d="M803 1199 c31 -16 57 -34 57 -40 0 -8 -4 -8 -12 -1 -15 11 -134 52 -155 52 -7 0 -13 -9 -13 -21 0 -18 5 -20 38 -18 47 3 82 -8 82 -27 0 -9 11 -14 35 -14 33 0 35 2 35 33 0 30 -4 34 -49 50 -74 26 -83 20 -18 -14z"></path><path id="pEsSHLdv5" d="M479 1205 c-103 -38 -195 -105 -255 -186 l-39 -53 1 -98 c0 -54 -4 -98 -7 -98 -4 0 -10 -10 -12 -22 -3 -16 -5 -13 -6 10 0 19 -5 31 -11 27 -5 -3 -3 10 5 29 19 44 19 56 1 56 -16 0 -37 -80 -29 -111 4 -13 0 -19 -11 -19 -9 0 -16 -8 -16 -20 0 -16 7 -20 30 -20 29 0 30 -1 30 -49 0 -64 7 -81 34 -81 21 0 22 -4 18 -64 -5 -72 11 -133 36 -139 9 -3 2 -5 -17 -6 -35 -1 -35 -1 -15 -20 12 -10 34 -39 50 -65 31 -50 44 -57 44 -26 0 16 7 20 30 20 26 0 30 3 29 28 l0 27 -10 -24 -10 -25 -14 28 c-8 15 -26 41 -39 57 -13 15 -32 48 -41 73 -14 37 -15 50 -5 80 14 44 30 47 30 4 0 -21 13 -48 40 -85 23 -29 43 -53 45 -53 3 0 5 16 5 35 0 31 -3 35 -25 35 -14 0 -25 5 -25 10 0 6 12 10 26 10 21 0 25 3 19 17 -23 55 -27 100 -13 156 15 57 15 57 -7 57 -23 0 -35 -30 -35 -86 0 -21 -5 -24 -35 -24 -30 0 -35 3 -35 23 0 12 -5 29 -10 37 -8 12 -10 9 -10 -12 0 -16 -4 -28 -10 -28 -16 0 -11 109 7 148 23 51 76 119 121 157 66 56 121 76 76 28 -15 -16 -32 -40 -40 -54 -13 -26 -12 -27 8 -21 14 3 19 1 14 -6 -3 -6 6 -13 25 -17 35 -8 49 -36 49 -98 0 -41 2 -43 44 -59 45 -17 76 -14 139 11 17 6 34 7 45 2 72 -37 73 -37 93 -12 10 13 19 34 19 47 0 29 30 57 68 64 23 4 28 11 32 44 3 22 11 41 18 44 6 2 12 -1 12 -7 0 -6 17 -11 38 -11 l37 1 -45 25 c-32 18 -38 24 -20 21 14 -3 34 -8 44 -12 13 -6 17 -5 13 2 -5 7 0 9 13 6 24 -6 26 4 3 29 -9 10 -13 18 -10 18 10 0 57 -53 73 -82 8 -16 19 -28 24 -28 5 0 11 12 13 28 4 25 4 25 6 -5 1 -42 27 -44 36 -4 9 43 -3 80 -47 139 -21 28 -41 52 -43 52 -3 0 -5 -16 -5 -35 0 -23 5 -35 14 -35 7 0 16 -11 19 -25 4 -24 3 -24 -13 -10 -9 8 -24 15 -33 15 -9 0 -17 7 -17 16 0 14 -10 16 -65 12 l-65 -4 0 33 c0 31 -2 33 -35 33 -33 0 -35 -2 -35 -35 0 -32 2 -35 30 -35 36 0 40 -22 10 -60 -11 -14 -20 -31 -20 -38 0 -6 -18 -28 -40 -48 -33 -30 -41 -44 -46 -87 -4 -29 -9 -45 -12 -37 -8 24 -24 30 -87 30 -39 0 -69 -6 -83 -16 -33 -23 -52 -11 -52 31 0 24 -10 51 -30 80 -31 45 -37 65 -20 65 6 0 10 11 10 24 0 14 5 28 10 31 6 3 10 22 10 41 0 27 -4 34 -20 34 -11 0 -20 5 -20 10 0 11 -52 13 -87 4 -20 -6 -22 -12 -20 -53 l2 -46 -40 -5 c-32 -4 -41 -9 -43 -27 -2 -15 -10 -23 -24 -23 -11 0 -22 -8 -25 -20 -3 -11 -9 -20 -14 -20 -11 0 -11 25 -3 98 6 45 10 52 28 52 23 0 86 57 86 78 0 7 9 12 20 12 11 0 20 4 20 9 0 13 40 23 88 21 39 -1 42 0 42 24 0 26 0 26 -35 12 -48 -21 -44 -11 12 24 50 32 49 36 -8 15z"></path><path id="pI9Git4eV" d="M615 1205 c-5 -2 -27 -6 -47 -10 -24 -4 -38 -11 -38 -20 0 -17 11 -18 88 -9 42 6 52 10 52 25 0 18 -25 24 -55 14z"></path><path id="pVIcK3zA6" d="M880 1164 c0 -14 7 -27 15 -30 8 -4 15 -15 15 -25 0 -10 7 -19 15 -19 8 0 15 -4 15 -10 0 -6 27 -10 62 -10 l61 0 -24 26 c-13 14 -33 30 -43 36 -16 9 -18 7 -13 -11 4 -18 2 -19 -14 -11 -10 6 -25 23 -33 39 -9 16 -24 31 -36 34 -16 4 -20 0 -20 -19z"></path><path id="pCoYgnoI1" d="M1187 803 c-4 -3 -7 -20 -7 -37 -1 -26 -2 -28 -11 -13 -16 28 -29 20 -29 -18 0 -31 3 -35 25 -35 27 0 34 -17 11 -26 -7 -3 -19 -23 -26 -45 -7 -21 -17 -39 -22 -39 -4 0 -8 -25 -8 -55 0 -48 -2 -55 -20 -55 -16 0 -20 -7 -20 -35 0 -54 24 -43 44 20 9 30 22 57 28 61 8 5 9 0 3 -17 -12 -37 -11 -102 1 -106 20 -7 47 65 39 105 -6 32 -5 34 9 23 9 -8 16 -10 16 -5 1 5 3 26 6 47 6 36 5 38 -14 28 -32 -17 -37 -13 -14 12 30 32 40 122 18 165 -18 34 -19 36 -29 25z"></path><path id="p1Fej6tTcV" d="M309 769 c-72 -51 -87 -79 -43 -79 17 0 28 6 31 20 3 11 14 20 24 20 11 0 19 7 19 15 0 9 9 15 25 15 18 0 25 5 25 20 0 29 -30 25 -81 -11z"></path><path id="phkPdrkhE" d="M1028 720 c24 -96 56 -70 36 29 -5 23 -12 31 -29 31 -21 0 -21 0 -7 -60z"></path><path id="pFecBAhmc" d="M870 681 c0 -26 4 -31 25 -31 21 0 25 -5 25 -30 0 -23 4 -30 20 -30 39 0 14 62 -41 101 l-29 20 0 -30z"></path><path id="pCKMZlQY4" d="M1028 595 c-15 -55 -15 -55 7 -55 17 0 24 7 29 31 18 91 -12 111 -36 24z"></path><path id="pLGskrxm9" d="M105 578 c9 -70 55 -188 73 -188 19 0 11 58 -17 130 -11 30 -21 67 -21 82 0 22 -5 28 -21 28 -19 0 -20 -4 -14 -52z"></path><path id="p39P2P6Xe" d="M570 595 c0 -16 6 -25 15 -25 9 0 15 -9 15 -25 0 -18 5 -25 20 -25 24 0 26 20 5 59 -12 24 -33 41 -51 41 -2 0 -4 -11 -4 -25z"></path><path id="p1A4WpnfZC" d="M940 535 c0 -49 23 -64 33 -23 8 31 -2 68 -19 68 -10 0 -14 -13 -14 -45z"></path><path id="pzOPEsQDt" d="M450 550 c-23 -42 -9 -150 19 -150 5 0 9 38 9 85 0 85 -8 103 -28 65z"></path><path id="pH182vH1p" d="M736 513 c-4 -13 -4 -33 0 -45 l6 -21 14 24 c15 28 18 53 5 45 -5 -4 -11 0 -14 6 -2 8 -7 3 -11 -9z"></path><path id="p32nNoB7B" d="M596 488 c-9 -36 -7 -78 5 -78 11 0 39 60 39 85 0 24 -37 18 -44 -7z"></path><path id="p1DIJ7Qys0" d="M808 420 l-28 -35 26 -3 c33 -4 36 -1 32 39 l-3 34 -27 -35z"></path><path id="pSR5BMCeM" d="M1050 375 c-5 -14 -10 -31 -10 -36 0 -5 -9 -9 -20 -9 -11 0 -20 -4 -20 -10 0 -5 -9 -10 -20 -10 -11 0 -20 -3 -20 -7 0 -5 -10 -19 -21 -33 -17 -21 -19 -22 -10 -3 15 30 14 43 -4 43 -12 0 -15 -12 -13 -57 2 -37 -2 -58 -10 -61 -7 -2 -12 -10 -12 -18 0 -8 -7 -14 -15 -14 -10 0 -15 10 -15 31 0 27 -2 30 -16 18 -19 -16 -44 -63 -44 -84 0 -20 26 -19 75 4 52 24 205 173 205 201 0 11 5 20 11 20 7 0 8 -12 4 -32 l-7 -33 23 22 c19 19 21 27 13 55 -8 26 -16 34 -37 36 -21 3 -29 -2 -37 -23z"></path><path id="p1EUSe0bm4" d="M540 329 c-7 -28 -10 -74 -8 -103 l4 -52 -28 4 c-19 3 -28 10 -28 23 0 11 -4 19 -10 19 -5 0 -10 7 -10 15 0 11 -12 15 -50 15 l-50 0 0 -34 c0 -22 6 -36 16 -40 22 -9 23 -8 17 17 -5 17 4 11 40 -25 55 -56 98 -70 211 -72 69 -1 80 1 90 19 6 11 19 31 28 46 23 34 10 50 -46 56 l-46 6 0 -41 c0 -30 4 -42 18 -45 11 -3 8 -5 -9 -6 -23 -1 -27 4 -32 37 -4 21 -2 38 3 40 6 2 10 12 10 23 0 12 7 19 20 19 11 0 20 7 20 15 0 8 9 15 20 15 23 0 33 18 28 49 -3 19 -8 16 -61 -25 -68 -55 -89 -90 -80 -135 9 -45 -13 -29 -27 19 -14 52 -13 102 5 151 14 41 14 41 -9 41 -20 0 -26 -8 -36 -51z"></path><path id="pgMt09RRt" d="M790 205 c0 -13 4 -14 20 -5 11 6 20 13 20 15 0 3 -9 5 -20 5 -11 0 -20 -7 -20 -15z"></path></g></g><g id="l3DNly6NjIDtubea95UaWTN" fill="rgb(193,92,91)" style="transform: none;"><g><path id="pfk2LmWVd" d="M1016 551 c-3 -4 -10 -20 -15 -35 -10 -24 -8 -26 14 -26 22 0 25 4 25 35 0 33 -12 46 -24 26z"></path><path id="pOBlBJPVK" d="M1150 400 c6 -11 13 -20 15 -20 3 0 5 9 5 20 0 11 -7 20 -15 20 -13 0 -14 -4 -5 -20z"></path><path id="pYsLJOgJK" d="M185 190 c21 -22 41 -40 44 -40 3 0 -13 18 -34 40 -21 22 -41 40 -44 40 -3 0 13 -18 34 -40z"></path></g></g><g id="l54zX77LG0O4hXoUJAVgY7r" fill="rgb(237,140,17)" style="transform: none;"><g><path id="p1dEk1I4v" d="M804 1202 c61 -33 78 -63 20 -34 -93 47 -254 52 -262 8 -4 -17 1 -19 54 -13 33 3 79 1 104 -4 25 -6 60 -13 78 -16 17 -3 32 -9 32 -14 0 -5 11 -9 24 -9 14 0 28 -4 31 -10 4 -6 -29 -10 -92 -11 -113 0 -306 -14 -343 -25 -24 -7 -24 -6 5 20 17 14 38 29 48 32 10 3 17 15 17 30 0 28 2 28 -44 9 -43 -18 -48 -7 -8 18 l27 18 -30 -6 c-48 -10 -115 -54 -184 -119 -76 -73 -91 -100 -91 -163 0 -62 -16 -119 -35 -127 -13 -5 -13 -2 -5 15 6 11 10 32 8 47 l-4 27 -13 -30 c-7 -16 -13 -49 -13 -72 0 -27 -4 -42 -11 -40 -22 4 -11 -179 14 -243 11 -30 23 -65 26 -78 3 -12 22 -37 43 -55 20 -17 54 -58 74 -89 24 -38 50 -65 76 -78 49 -25 48 -25 43 8 -4 26 -3 25 32 -16 57 -66 80 -74 243 -86 49 -4 54 -3 63 21 5 13 6 29 3 35 -4 6 -2 8 4 4 6 -3 13 -2 17 3 7 12 95 72 95 65 0 -3 -11 -22 -25 -42 -43 -63 -31 -80 39 -56 25 9 54 27 65 40 10 13 42 42 71 65 47 37 60 56 84 124 7 19 8 19 20 -3 18 -34 25 -18 13 32 -8 38 -7 53 12 99 25 62 39 72 70 51 20 -14 21 -14 21 8 0 13 3 34 7 48 6 24 5 24 -13 9 -29 -24 -44 -31 -44 -20 0 5 7 17 16 25 8 9 12 21 8 27 -4 7 -3 9 4 5 11 -7 32 50 32 87 0 27 -31 88 -41 81 -5 -3 -9 -22 -10 -42 -1 -72 -18 -1 -18 81 -1 114 -35 179 -137 263 -41 33 -47 35 -42 16 4 -12 3 -22 0 -22 -12 1 -42 27 -42 37 0 19 -38 44 -105 68 -86 32 -92 31 -31 -3z m-354 -182 c0 -5 9 -10 20 -10 18 0 19 -2 8 -20 -7 -11 -18 -20 -25 -20 -6 0 -15 -5 -19 -12 -5 -7 -3 -8 5 -3 10 5 11 -3 6 -38 -6 -40 -4 -49 29 -94 29 -40 35 -56 30 -80 -5 -24 -1 -34 17 -47 31 -21 58 -20 94 4 40 26 89 26 114 -1 11 -12 28 -19 42 -17 20 2 25 11 32 50 7 37 18 56 51 85 22 21 41 42 41 48 2 23 27 55 45 55 10 0 22 5 26 11 4 8 -1 9 -17 5 -18 -4 -17 -2 5 8 21 9 25 15 15 19 -8 4 0 5 16 4 19 -1 29 -7 27 -15 -1 -8 2 -11 8 -7 19 12 60 -36 75 -89 18 -59 13 -69 -16 -32 -24 31 -135 90 -144 76 -7 -11 44 -60 62 -60 7 0 13 -4 13 -10 0 -5 13 -10 29 -10 26 0 30 -4 33 -32 2 -26 8 -34 26 -36 16 -2 27 -14 34 -33 5 -16 15 -29 21 -29 8 0 9 -3 1 -8 -28 -19 -44 -59 -44 -109 0 -47 -4 -56 -40 -95 -22 -24 -40 -46 -40 -50 0 -5 -6 -8 -14 -8 -9 0 -12 7 -9 20 3 11 9 20 14 20 5 0 9 16 9 35 0 43 -14 45 -35 6 -22 -44 -35 -47 -28 -7 5 32 4 34 -16 29 -18 -4 -21 -13 -21 -54 0 -48 1 -49 30 -49 17 0 30 -3 30 -8 0 -16 -32 -52 -46 -52 -8 0 -14 -9 -14 -20 0 -11 -6 -20 -14 -20 -8 0 -18 -9 -21 -20 -5 -14 -15 -20 -37 -20 -21 0 -31 -6 -35 -19 -5 -20 -53 -36 -53 -17 0 6 -3 20 -6 32 -4 15 3 30 25 52 17 17 31 40 31 51 0 14 6 21 20 21 16 0 20 7 20 35 0 44 -13 44 -39 2 -19 -30 -42 -54 -174 -174 -36 -32 -39 -38 -35 -79 5 -63 -16 -56 -38 11 -19 61 -14 90 35 213 l21 52 -25 0 c-15 0 -25 -6 -25 -14 0 -19 -70 -10 -86 10 -13 16 -54 19 -54 4 0 -6 7 -27 15 -47 20 -47 10 -56 -23 -18 -16 19 -27 25 -30 17 -6 -19 -22 -14 -22 8 0 12 -7 20 -17 21 -17 1 -17 2 0 6 9 2 17 7 17 9 0 10 -45 89 -52 92 -12 5 -10 62 2 62 5 0 13 15 18 33 6 17 13 40 17 50 6 13 2 17 -18 17 -18 0 -27 -7 -31 -26 -10 -40 -18 -22 -10 25 6 37 9 41 35 41 24 0 29 4 29 24 0 35 -29 24 -90 -33 -39 -36 -50 -55 -56 -89 -8 -51 -21 -63 -30 -27 -25 99 77 263 210 338 51 28 59 49 17 41 -36 -8 -41 3 -8 16 30 12 37 12 37 0z m357 -71 c44 -27 46 -41 8 -82 -19 -20 -39 -51 -45 -69 l-12 -33 -79 -1 c-46 -1 -86 -7 -94 -14 -13 -11 -15 -7 -15 26 0 29 -7 46 -32 71 l-32 33 41 40 c28 28 54 43 84 49 59 12 137 3 176 -20z m-512 -479 c5 -8 21 -31 36 -50 31 -40 41 -83 28 -119 l-10 -25 -20 34 c-11 18 -26 39 -34 46 -7 8 -21 32 -32 54 -20 45 -43 53 -43 15 0 -35 -16 -31 -24 6 -9 47 -7 89 4 89 6 0 10 -4 10 -10 0 -21 26 -8 44 23 l20 32 6 -40 c3 -22 10 -47 15 -55z m665 -162 c-6 -20 -17 -41 -25 -48 -11 -9 -9 2 7 39 24 58 32 63 18 9z"></path><path id="p2WpCBMEZ" d="M1010 798 c0 -26 25 -78 37 -78 14 0 18 46 7 74 -7 18 -44 22 -44 4z"></path><path id="pK0f7yjDM" d="M868 642 c2 -37 -1 -85 -6 -105 -10 -35 -9 -37 12 -37 20 0 24 6 30 53 10 88 7 123 -12 140 -10 10 -21 17 -23 17 -3 0 -3 -31 -1 -68z"></path><path id="pzDzN1pTL" d="M1036 618 c-10 -38 -7 -48 14 -48 16 0 20 7 20 35 0 40 -24 49 -34 13z"></path><path id="pCpOxyWqJ" d="M518 613 c-34 -9 -20 -33 18 -33 46 0 64 -19 64 -70 0 -34 3 -41 17 -38 21 4 27 28 18 74 -11 59 -54 84 -117 67z"></path><path id="p189Kq7S6k" d="M930 585 c0 -28 4 -35 20 -35 21 0 24 10 14 48 -10 36 -34 27 -34 -13z"></path><path id="p1FnGmJx6Q" d="M1158 501 c-20 -41 -23 -78 -8 -101 11 -18 12 -16 34 42 15 40 15 51 4 71 l-13 25 -17 -37z"></path></g></g><g id="l6osrJ2XeLTe5PVT2szUsvF" fill="rgb(248,127,51)" style="transform: none;"><g><path id="p16wBW5zdk" d="M435 1185 c-42 -21 -45 -24 -20 -21 32 4 112 46 85 45 -8 0 -37 -11 -65 -24z"></path><path id="p1GFnayR4S" d="M635 1202 c-1 -2 -24 -5 -50 -8 -44 -4 -130 -38 -141 -55 -7 -12 110 3 118 15 4 6 48 11 110 12 133 1 138 2 115 15 -10 6 -30 12 -45 14 -15 2 -29 4 -32 5 -9 4 -72 5 -75 2z"></path><path id="pSUb67xKB" d="M879 1148 c10 -19 27 -34 39 -36 28 -4 28 9 1 26 -12 7 -18 16 -15 19 3 3 14 0 23 -8 16 -13 17 -12 4 4 -8 10 -20 16 -27 13 -7 -3 -16 -1 -19 4 -4 6 -10 10 -15 10 -5 0 -1 -15 9 -32z"></path><path id="pv6QwB4lf" d="M810 1160 c0 -5 10 -10 23 -10 18 0 19 2 7 10 -19 13 -30 13 -30 0z"></path><path id="psjXkKkHc" d="M323 1113 c-21 -21 -35 -35 -29 -31 5 4 15 0 21 -9 11 -14 14 -14 39 2 20 13 24 20 14 26 -7 4 -18 3 -25 -3 -7 -5 -17 -8 -24 -6 -6 2 6 16 28 31 21 15 33 27 27 27 -6 0 -29 -17 -51 -37z"></path><path id="p16xHmkD2E" d="M950 1098 c0 -12 7 -18 23 -17 15 0 17 2 7 6 -8 3 -18 11 -22 17 -5 7 -8 4 -8 -6z"></path><path id="p15Oby7YdA" d="M1010 1090 c0 -11 -1 -23 -2 -27 -1 -5 6 -10 16 -11 15 -3 17 1 11 20 -7 23 -7 23 12 3 20 -20 20 -20 1 -27 -24 -10 -15 -28 11 -21 30 8 13 51 -31 74 -15 8 -18 6 -18 -11z"></path><path id="p0ICpwFrF" d="M580 1070 c-36 -4 -93 -8 -127 -9 -54 -1 -63 -4 -63 -20 0 -21 14 -21 100 3 30 9 87 16 125 17 39 0 79 4 90 9 25 11 -29 10 -125 0z"></path><path id="p16hg3YSPY" d="M615 1040 l-60 -7 68 -1 c39 -1 67 2 67 8 0 6 -3 9 -7 8 -5 -1 -35 -4 -68 -8z"></path><path id="pVI7LnjXT" d="M442 1015 c-11 -12 -8 -14 20 -8 53 9 68 22 28 22 -19 0 -41 -6 -48 -14z"></path><path id="p19tQwEFvO" d="M675 1023 c-40 -10 -39 -23 3 -23 33 0 40 3 36 15 -4 8 -9 14 -13 14 -3 -1 -15 -3 -26 -6z"></path><path id="p1FyADXV8P" d="M846 1015 c4 -9 11 -14 16 -13 15 5 11 23 -6 26 -11 2 -14 -2 -10 -13z"></path><path id="p5wVgCcNV" d="M1122 979 c10 -22 22 -39 24 -36 6 6 -22 63 -35 71 -5 4 0 -12 11 -35z"></path><path id="p13i4hF89C" d="M195 970 c-4 -12 -5 -24 -2 -27 3 -2 8 5 12 17 4 12 5 24 2 27 -3 2 -8 -5 -12 -17z"></path><path id="pJqUgxRt8" d="M434 959 c-5 -8 -3 -9 6 -4 10 6 12 1 7 -26 -5 -24 -4 -30 3 -19 12 19 13 47 1 55 -5 3 -13 0 -17 -6z"></path><path id="p2COLuOkS" d="M912 937 c-17 -40 -15 -55 4 -29 8 12 14 30 11 40 -3 13 -6 11 -15 -11z"></path><path id="ptBfFpgIt" d="M873 905 c0 -22 2 -30 4 -17 2 12 2 30 0 40 -3 9 -5 -1 -4 -23z"></path><path id="pxFnWDkKQ" d="M472 903 c-15 -27 -7 -45 37 -87 27 -26 30 -34 25 -65 -4 -20 -11 -39 -17 -42 -5 -4 -5 -9 2 -13 6 -4 11 -4 11 0 0 3 7 1 15 -6 13 -11 15 -4 15 54 0 48 -4 66 -13 66 -8 0 -19 11 -25 25 -6 14 -16 25 -21 25 -5 0 -11 15 -13 33 -3 31 -3 32 -16 10z"></path><path id="pr8vF6b8r" d="M250 885 c0 -8 5 -15 10 -15 11 0 -20 -49 -32 -50 -3 0 -4 8 -1 19 3 10 -1 22 -8 26 -7 5 -10 4 -6 -2 4 -6 3 -23 -2 -39 -4 -16 -5 -38 -1 -49 7 -19 8 -18 15 5 4 14 10 27 14 30 10 8 61 78 61 84 0 3 -11 6 -25 6 -16 0 -25 -6 -25 -15z"></path><path id="p1CkoRvUn" d="M940 894 c0 -3 16 -24 35 -47 19 -22 35 -46 35 -52 0 -8 19 -13 51 -14 l50 -1 -21 30 c-23 33 -58 56 -77 52 -7 -2 -13 1 -13 6 0 5 -11 14 -25 20 -29 14 -35 14 -35 6z"></path><path id="pfpKQIiMN" d="M1098 845 c2 -14 8 -28 13 -31 5 -3 9 -16 9 -30 0 -14 6 -24 14 -24 8 0 17 -6 19 -12 3 -8 6 -6 6 5 1 10 -5 20 -13 23 -8 3 -19 25 -26 50 -13 47 -31 61 -22 19z"></path><path id="p7wA2xu7t" d="M136 834 c-4 -14 -5 -28 -3 -31 3 -2 8 8 11 23 4 14 5 28 3 31 -3 2 -8 -8 -11 -23z"></path><path id="p21dp8V2s" d="M820 842 c0 -10 7 -18 18 -18 10 0 18 8 18 18 0 11 -8 18 -18 18 -11 0 -18 -7 -18 -18z"></path><path id="p1BYLiqvie" d="M380 801 c-60 -23 -98 -49 -105 -72 -4 -11 -11 -16 -18 -12 -7 4 -5 -2 3 -12 8 -10 10 -16 5 -13 -26 16 -40 -11 -37 -71 1 -33 -2 -63 -8 -66 -16 -10 -12 -65 5 -65 14 0 20 18 16 49 -2 7 2 10 8 7 7 -4 6 4 -1 25 -7 21 -7 33 -1 38 6 3 14 21 18 39 3 17 11 32 16 32 5 0 9 6 9 14 0 7 9 16 20 19 16 4 20 0 20 -19 0 -13 -4 -24 -10 -24 -5 0 -10 -16 -10 -35 0 -24 5 -35 15 -35 8 0 15 6 16 13 3 50 42 132 87 180 30 31 19 33 -48 8z"></path><path id="pKhWEkSLr" d="M1186 801 c-3 -4 -3 -31 0 -60 5 -46 3 -53 -21 -75 -22 -20 -28 -37 -32 -88 -6 -59 -19 -88 -41 -88 -10 0 -32 -44 -32 -66 0 -12 6 -10 29 8 16 13 28 25 28 28 0 3 7 22 16 42 9 20 14 44 11 52 -11 27 4 62 44 103 34 34 38 44 34 77 -2 21 -10 40 -18 43 -7 2 -10 11 -7 19 6 15 -3 19 -11 5z"></path><path id="pAJDH6KGd" d="M128 764 c6 -11 8 -39 6 -64 -3 -25 0 -65 5 -90 l10 -45 -3 60 c-2 33 -2 52 1 43 2 -10 9 -18 15 -18 6 0 7 10 3 28 -4 15 -11 42 -14 61 -3 19 -12 36 -20 39 -10 3 -11 0 -3 -14z"></path><path id="p170dx2kjj" d="M1030 743 c0 -34 12 -63 26 -63 10 0 14 13 14 40 0 33 -3 40 -20 40 -12 0 -20 -7 -20 -17z"></path><path id="pnQo3Bre7" d="M103 724 c-8 -22 5 -183 17 -203 8 -12 8 -8 3 14 -4 17 -7 69 -7 117 -1 49 -2 88 -4 88 -1 0 -5 -7 -9 -16z"></path><path id="peKJBvD2H" d="M580 714 c0 -21 3 -24 13 -15 8 6 18 7 22 3 5 -4 5 -1 1 6 -5 8 1 16 16 21 20 9 19 10 -14 10 -34 1 -38 -1 -38 -25z"></path><path id="p1Bk6d8E7V" d="M860 704 c1 -5 9 -25 18 -44 12 -25 25 -36 45 -38 31 -4 34 7 10 36 -22 25 -73 57 -73 46z"></path><path id="p1CZFYsFCC" d="M170 593 c0 -18 5 -33 10 -33 13 0 13 30 0 50 -7 11 -10 7 -10 -17z"></path><path id="p288jyYj8" d="M524 611 c-44 -11 -54 -19 -70 -57 -19 -46 -18 -64 6 -64 12 0 20 7 20 16 0 8 13 29 29 45 23 23 38 29 72 29 41 0 42 0 24 20 -19 21 -31 23 -81 11z"></path><path id="pJkovbxhJ" d="M1212 598 c-6 -8 -8 -27 -3 -48 l7 -35 6 45 c7 50 6 56 -10 38z"></path><path id="pBN5zFraD" d="M1012 540 l-21 -60 24 0 c20 0 25 5 25 25 0 14 5 25 10 25 6 0 10 16 10 35 0 55 -23 42 -48 -25z"></path><path id="pQ7IkN17O" d="M1162 565 c-1 -11 2 -26 7 -33 7 -11 9 -10 14 3 4 9 3 13 -2 10 -5 -3 -12 5 -14 17 -4 20 -4 20 -5 3z"></path><path id="p16LS4nZEc" d="M151 550 c0 -8 4 -47 8 -87 8 -67 11 -74 53 -115 25 -24 48 -52 52 -63 6 -16 9 -17 16 -5 6 10 10 3 15 -23 8 -43 27 -63 42 -45 14 18 23 58 13 58 -4 0 -13 14 -19 30 -5 17 -15 30 -21 30 -6 0 -9 4 -6 8 2 4 -4 13 -15 20 -11 7 -19 8 -19 2 0 -5 -11 -10 -25 -10 -21 0 -25 5 -25 30 0 20 5 30 15 30 16 0 18 12 9 48 -9 33 -34 28 -34 -8 0 -20 -5 -30 -15 -30 -11 0 -15 11 -15 39 0 21 -7 54 -15 72 -8 19 -14 27 -14 19z"></path><path id="pTxSN9Jt1" d="M287 518 c-6 -23 8 -58 23 -58 6 0 10 18 10 40 0 44 -23 57 -33 18z"></path><path id="p1HTgDKzq6" d="M596 499 c-9 -46 -7 -79 4 -79 14 0 30 35 35 75 4 29 2 35 -14 35 -13 0 -20 -10 -25 -31z"></path><path id="pxoyhgL9M" d="M844 485 c-7 -19 -14 -37 -14 -40 0 -8 -31 -45 -80 -94 -25 -24 -39 -41 -32 -37 8 5 12 0 12 -14 0 -31 24 -19 28 13 2 19 9 27 23 27 22 0 49 22 49 39 0 6 5 11 10 11 6 0 10 5 10 11 0 6 7 17 15 25 17 17 21 94 4 94 -5 0 -17 -16 -25 -35z"></path><path id="p17WYhb38n" d="M1160 493 c0 -13 5 -23 10 -23 13 0 13 11 0 30 -8 12 -10 11 -10 -7z"></path><path id="pwFSiBw9e" d="M130 490 c0 -8 5 -22 10 -30 9 -13 10 -13 10 0 0 8 -5 22 -10 30 -9 13 -10 13 -10 0z"></path><path id="pZL115xvv" d="M340 468 c0 -27 4 -38 15 -38 11 0 13 -14 10 -72 l-4 -72 17 35 c10 21 26 35 40 37 12 2 22 6 22 10 0 12 -36 65 -69 102 l-30 35 -1 -37z"></path><path id="p10RTvJnmN" d="M440 460 c0 -11 4 -20 10 -20 5 0 6 -7 3 -17 -5 -12 -3 -14 7 -8 9 6 11 4 5 -5 -4 -7 -2 -16 6 -20 29 -18 39 18 17 65 -14 30 -48 34 -48 5z"></path><path id="pUIbHuZ8I" d="M1140 445 c0 -22 4 -34 10 -30 6 3 10 17 10 30 0 13 -4 27 -10 30 -6 4 -10 -8 -10 -30z"></path><path id="pujWaQtTt" d="M1098 428 c-4 -8 -3 -33 2 -54 5 -22 5 -45 -1 -55 -15 -29 -10 -33 10 -7 17 21 18 29 7 78 -8 33 -15 48 -18 38z"></path><path id="pgiAJ0uqj" d="M556 394 c-3 -9 -6 -25 -5 -37 0 -21 1 -21 10 2 6 16 14 21 26 17 10 -4 14 -4 10 0 -4 4 -2 13 4 21 9 10 6 13 -14 13 -14 0 -28 -7 -31 -16z"></path><path id="p13H5SKZnY" d="M1063 352 c-6 -4 -14 -22 -18 -39 -8 -39 -24 -52 -37 -29 -13 23 -42 22 -33 -1 16 -40 17 -53 3 -53 -8 0 -19 5 -25 11 -7 7 -10 1 -9 -19 1 -34 3 -33 68 20 52 43 97 139 51 110z"></path><path id="pewLIAPzx" d="M559 302 c-18 -61 2 -184 27 -160 2 3 -3 28 -12 56 -14 41 -15 59 -6 94 14 54 7 63 -9 10z"></path><path id="p12nQvHjlm" d="M645 265 c-29 -29 -35 -43 -35 -77 0 -44 14 -44 16 0 3 47 22 82 44 82 11 0 20 7 20 15 0 22 -5 19 -45 -20z"></path><path id="p1HNLlndZi" d="M915 279 c-10 -30 0 -33 13 -4 6 14 7 25 2 25 -5 0 -12 -9 -15 -21z"></path><path id="piq9B9619" d="M800 245 c0 -13 -19 -19 -57 -18 -15 1 -17 -13 -3 -22 6 -3 10 -16 10 -27 l0 -22 -20 22 c-20 21 -30 27 -30 17 0 -2 10 -13 22 -25 l22 -20 22 25 c11 13 23 22 26 20 2 -3 22 11 44 30 l39 34 -37 1 c-27 0 -38 -4 -38 -15z"></path><path id="pXVohW61O" d="M860 220 c-16 -17 -23 -70 -9 -70 5 0 9 -5 9 -11 0 -8 -5 -7 -16 2 -9 7 -13 21 -10 33 5 19 4 19 -15 -3 -19 -23 -26 -61 -11 -61 26 0 103 34 118 53 l19 22 -23 -19 -22 -19 15 36 c18 42 19 57 5 57 -5 0 -10 -6 -10 -14 0 -7 -6 -19 -14 -25 -12 -10 -15 -8 -18 11 -3 21 -5 22 -18 8z"></path><path id="pCi9CwuEK" d="M376 202 c-3 -6 -14 -9 -24 -6 -9 3 -4 -2 11 -11 33 -19 37 -18 27 9 -4 13 -9 16 -14 8z"></path><path id="pEOs61LbS" d="M426 192 c-9 -14 73 -82 98 -82 14 0 4 19 -11 24 -10 3 -32 19 -50 36 -17 16 -34 26 -37 22z"></path><path id="pdrnL379J" d="M670 165 c0 -8 5 -15 10 -15 6 0 10 7 10 15 0 8 -4 15 -10 15 -5 0 -10 -7 -10 -15z"></path><path id="p4QFgsGcj" d="M564 108 c-3 -5 21 -9 53 -10 32 -1 69 -2 82 -2 13 -1 26 4 28 9 3 12 -156 14 -163 3z"></path></g></g><g id="lxrdfbfnq3hBn4jCm4fwrI" fill="rgb(244,164,23)" style="transform: none;"><g><path id="pZzZHBAJq" d="M573 1193 c-24 -2 -43 -8 -43 -14 0 -5 -8 -9 -17 -9 -19 0 -77 -32 -101 -56 -8 -8 -24 -14 -36 -14 -27 2 -66 -10 -66 -21 0 -4 9 -13 21 -19 20 -11 20 -12 2 -29 -10 -10 -24 -16 -32 -13 -9 4 -12 1 -7 -7 4 -6 -1 -19 -12 -29 -12 -10 -23 -36 -27 -64 -5 -42 -4 -48 12 -48 10 0 32 14 48 31 17 17 42 38 58 47 40 24 35 42 -10 35 -27 -5 -34 -3 -29 6 17 27 188 71 279 71 77 0 107 8 107 27 0 13 -16 15 -100 11 -101 -4 -135 5 -59 15 23 3 50 15 60 26 21 22 39 27 39 11 0 -5 21 -10 46 -10 38 0 47 -4 51 -21 4 -12 17 -22 34 -26 16 -3 29 -9 29 -13 0 -4 18 -10 40 -14 39 -6 52 -20 28 -29 -7 -3 -2 -6 11 -6 13 -1 53 -17 88 -36 63 -35 64 -35 63 -13 -4 40 0 48 17 48 13 0 14 3 5 12 -10 10 -17 10 -32 0 -26 -16 -40 -15 -17 2 15 12 16 18 5 42 -11 27 -12 28 -15 7 -4 -20 -7 -21 -25 -10 -33 19 -83 68 -80 79 1 5 -2 7 -7 4 -5 -4 -12 -2 -16 4 -3 5 -11 10 -17 10 -7 0 -6 -6 2 -15 17 -21 1 -19 -56 5 -49 21 -160 32 -241 23z m405 -150 c-10 -2 -26 -2 -35 0 -10 3 -2 5 17 5 19 0 27 -2 18 -5z"></path><path id="peuA4s2N" d="M260 1040 c0 -5 7 -10 15 -10 8 0 15 5 15 10 0 6 -7 10 -15 10 -8 0 -15 -4 -15 -10z"></path><path id="pErr7Pihd" d="M680 1023 c-8 -2 -24 -8 -35 -13 -11 -5 -36 -11 -55 -14 -25 -4 -49 -20 -83 -56 -26 -27 -47 -54 -47 -60 0 -5 17 -29 38 -52 31 -34 37 -48 37 -86 0 -62 24 -77 63 -39 21 21 39 27 77 29 30 1 50 -3 53 -10 7 -23 32 -41 47 -36 9 4 15 19 15 36 0 36 24 84 61 122 31 32 39 80 17 108 -26 31 -74 55 -113 55 -22 1 -41 6 -43 12 -4 12 -8 12 -32 4z m68 -81 c74 -11 82 -23 43 -67 -17 -20 -34 -50 -38 -66 -5 -29 -7 -29 -72 -29 -63 0 -67 2 -83 30 -9 17 -23 30 -31 30 -8 0 -21 8 -30 18 -16 17 -15 20 6 38 53 46 92 65 122 59 17 -3 54 -9 83 -13z"></path><path id="p1H6LgyhBU" d="M1100 926 c0 -8 5 -18 10 -21 6 -3 10 1 10 9 0 8 -4 18 -10 21 -5 3 -10 -1 -10 -9z"></path><path id="p1Az3Z14PF" d="M975 852 c45 -51 67 -125 62 -210 -2 -40 -9 -78 -16 -85 -18 -18 -13 -47 9 -47 11 0 20 6 20 14 0 8 5 16 11 18 6 2 13 41 16 89 l6 86 27 -10 28 -10 -19 -31 c-11 -19 -19 -50 -19 -78 0 -48 -28 -105 -62 -127 -15 -10 -18 -8 -18 14 0 33 -13 32 -39 -2 l-20 -28 6 68 6 67 -27 0 c-19 0 -26 -5 -26 -20 0 -15 -7 -20 -25 -20 -26 0 -27 -2 -55 -77 -7 -18 -34 -56 -61 -85 -48 -51 -50 -55 -47 -108 1 -30 7 -65 13 -77 11 -20 14 -21 25 -8 7 8 18 15 25 15 6 0 25 11 41 25 39 34 47 31 26 -9 -9 -19 -21 -31 -27 -28 -5 3 -4 -2 4 -11 7 -9 10 -17 7 -17 -4 0 -1 -7 8 -15 8 -8 21 -12 30 -9 20 8 53 93 39 102 -7 5 -1 26 17 61 25 51 27 53 32 28 3 -15 2 -24 -3 -22 -4 3 0 -12 9 -34 9 -22 20 -37 24 -34 11 6 10 41 -3 65 -16 30 17 88 50 88 13 0 21 3 18 6 -4 4 7 23 24 42 37 42 61 95 53 116 -10 26 3 59 41 100 31 34 36 46 33 80 -4 50 -24 58 -36 14 l-8 -33 -12 33 c-6 17 -16 32 -21 32 -6 0 -11 6 -11 14 0 8 -4 17 -9 20 -5 4 -7 -4 -4 -16 5 -18 -5 -13 -44 25 -35 34 -60 49 -88 54 l-38 6 28 -31z m-53 -484 c-7 -7 -12 -20 -12 -30 0 -25 -17 -22 -26 5 -4 12 -12 25 -18 29 -6 4 7 8 29 8 30 0 36 -3 27 -12z"></path><path id="pCe360Lmv" d="M213 841 c-1 -15 -3 -33 -5 -38 -7 -26 15 -15 33 17 12 19 14 27 6 18 -19 -23 -26 -23 -20 1 3 10 1 21 -4 24 -4 3 -9 -7 -10 -22z"></path><path id="ptBBqOGtA" d="M301 753 c-26 -26 -40 -47 -35 -54 4 -7 3 -9 -3 -6 -19 12 -35 -21 -36 -80 -2 -45 -6 -58 -18 -61 -11 -2 -18 6 -22 25 -13 69 -18 91 -31 133 l-14 45 -7 -39 c-5 -24 -2 -75 9 -137 9 -54 16 -114 16 -134 0 -29 10 -46 57 -98 32 -34 61 -61 65 -60 3 1 9 -11 13 -27 7 -33 32 -58 44 -44 13 13 18 48 8 59 -44 55 -89 124 -98 153 -14 43 -5 154 14 183 13 17 15 18 21 4 3 -9 6 -44 6 -77 0 -51 4 -66 29 -97 37 -48 51 -75 51 -103 1 -20 2 -21 11 -5 13 21 35 22 47 1 6 -11 11 -13 16 -5 9 13 -21 77 -43 94 -9 7 -27 31 -39 55 -39 75 -25 200 30 271 24 32 23 41 -7 41 -21 0 -25 -5 -26 -32 l-2 -33 -6 35 -7 35 -43 -42z"></path><path id="p12uKPNE8L" d="M876 608 c-11 -42 -7 -58 14 -58 17 0 20 7 20 40 0 45 -23 57 -34 18z"></path><path id="phFxc8Uut" d="M451 486 c-11 -13 -10 -23 9 -61 22 -45 22 -46 47 -30 23 15 24 15 21 -2 -2 -10 2 -17 10 -15 6 1 12 -8 13 -20 0 -15 2 -18 6 -8 3 8 16 24 28 35 60 52 33 102 -60 111 -49 5 -63 3 -74 -10z"></path><path id="pupbC2Ug5" d="M816 154 c-10 -26 -7 -34 14 -34 23 0 25 8 6 33 -12 16 -14 16 -20 1z"></path></g></g><g id="l4YKbN6qLCk1XmfpC3OKapk" fill="rgb(243,187,29)" style="transform: none;"><g><path id="p16h4NySM7" d="M610 1189 c0 -5 -12 -7 -27 -4 -27 6 -27 6 -9 -9 18 -15 18 -16 -6 -25 -14 -5 -31 -9 -39 -9 -8 1 -25 0 -39 -1 -20 -1 -22 -3 -10 -11 11 -7 11 -10 2 -10 -7 0 -11 -4 -7 -9 3 -5 -20 -15 -50 -22 -57 -13 -73 -33 -31 -41 14 -3 67 1 118 8 51 7 164 14 251 15 148 1 157 2 157 20 0 11 -7 22 -15 25 -8 4 -12 11 -8 17 4 7 0 8 -13 2 -54 -22 -102 -14 -84 14 7 12 11 12 25 -2 20 -21 36 -22 29 -3 -3 8 -19 19 -35 25 -21 7 -28 7 -23 0 4 -8 -1 -9 -17 -3 -13 4 -37 7 -54 6 -16 -1 -32 2 -35 7 -8 12 -80 21 -80 10z"></path><path id="p12B7njYt9" d="M340 1030 c0 -5 14 -10 32 -10 36 0 35 4 -4 14 -17 4 -28 2 -28 -4z"></path><path id="pqigj4iie" d="M630 991 c-62 -12 -150 -81 -150 -116 0 -22 38 -65 58 -65 14 0 43 -41 36 -52 -3 -4 -14 -8 -25 -8 -21 0 -25 -21 -7 -49 14 -24 46 -16 50 13 2 16 13 23 49 30 64 12 92 3 108 -36 7 -18 15 -27 18 -20 2 6 9 10 13 7 5 -3 7 15 4 40 -5 52 12 92 51 123 54 42 18 112 -57 112 -24 1 -54 7 -68 15 -27 16 -29 16 -80 6z m65 -61 c3 -5 24 -10 45 -10 21 0 47 -3 57 -7 16 -6 16 -8 -5 -13 -24 -5 -44 -33 -62 -82 -8 -25 -14 -28 -55 -28 -42 0 -48 3 -66 35 -15 24 -28 35 -44 35 -35 0 -38 15 -7 31 14 8 34 22 44 32 19 18 83 24 93 7z"></path><path id="ptCBca2nj" d="M366 977 c-31 -23 6 -28 40 -6 l29 19 -26 0 c-14 0 -33 -6 -43 -13z"></path><path id="pP1mKNq5T" d="M940 894 c0 -3 15 -21 34 -40 19 -19 37 -48 41 -64 4 -17 11 -30 15 -30 5 0 6 -7 3 -17 -4 -9 -2 -14 3 -11 5 4 8 -20 7 -55 -2 -76 -5 -90 -31 -150 -12 -26 -21 -50 -21 -52 0 -11 -32 -37 -38 -31 -3 3 -1 17 5 31 15 32 15 79 2 124 -9 34 -65 101 -83 101 -12 0 3 -63 17 -72 8 -6 8 -8 0 -8 -7 0 -15 -17 -18 -37 -14 -76 -38 -134 -80 -188 -24 -30 -47 -51 -51 -47 -5 4 -5 1 -1 -6 4 -7 13 -9 19 -5 7 4 6 -1 -2 -11 -11 -13 -16 -14 -22 -4 -5 8 -9 9 -9 2 0 -6 9 -23 21 -38 12 -15 19 -35 16 -45 -3 -13 3 -22 17 -28 23 -11 46 -7 46 8 0 6 -4 8 -9 4 -19 -11 -23 17 -5 30 25 19 34 18 34 -1 0 -8 5 -12 11 -8 8 4 8 9 0 17 -6 6 -11 19 -11 29 0 17 2 16 23 -4 14 -14 22 -31 19 -43 -3 -12 6 -6 22 17 14 20 26 43 26 50 1 17 39 67 40 50 0 -7 21 8 47 33 26 25 53 45 59 45 7 0 20 12 30 28 17 26 17 27 -2 12 -16 -12 -16 -11 2 10 32 38 36 48 23 68 -17 27 -3 70 32 103 16 15 29 32 29 38 0 6 5 11 11 11 16 0 6 63 -11 67 -13 4 -13 3 0 -6 14 -10 7 -15 -13 -12 -4 1 -5 -10 -1 -23 l6 -25 -40 19 c-36 18 -49 31 -50 53 0 18 -59 70 -104 93 -50 25 -58 28 -58 18z m116 -69 c13 -13 13 -15 1 -15 -8 0 -17 7 -21 15 -3 8 -3 15 0 15 3 0 12 -7 20 -15z m-99 -322 c-3 -10 -5 -2 -5 17 0 19 2 27 5 18 2 -10 2 -26 0 -35z m-24 -7 c7 -18 -14 -87 -24 -80 -14 8 -8 94 6 94 7 0 15 -6 18 -14z m-80 -66 c3 -11 1 -17 -4 -14 -5 3 -12 -2 -15 -10 -3 -9 -10 -13 -15 -10 -5 3 -1 16 8 29 22 30 20 29 26 5z m-49 -65 c-4 -8 -14 -15 -23 -15 -14 1 -13 3 3 15 25 19 27 19 20 0z"></path><path id="pG5Ff989c" d="M1116 810 c7 -27 44 -72 44 -53 0 7 -6 16 -13 20 -7 4 -18 19 -25 33 l-12 25 6 -25z"></path><path id="pwkdxzBrj" d="M371 795 c-48 -15 -91 -50 -91 -74 1 -10 7 -5 16 12 8 15 16 27 17 27 1 0 2 -18 2 -39 0 -22 3 -42 6 -46 9 -9 40 6 33 16 -3 5 0 9 5 9 6 0 11 5 11 11 0 6 14 30 30 55 34 48 34 49 -29 29z"></path><path id="pu2YkloOl" d="M330 615 c0 -8 -4 -15 -9 -15 -5 0 -11 -19 -15 -42 -4 -24 -10 -54 -13 -67 -4 -17 -2 -22 6 -17 6 4 11 2 11 -4 0 -6 4 -9 9 -6 5 3 12 -1 15 -10 9 -23 8 -26 -6 -19 -7 4 -6 1 2 -7 8 -7 21 -26 28 -42 l13 -29 15 22 c9 12 20 19 25 16 17 -11 9 6 -23 51 -17 24 -35 44 -40 44 -5 0 -6 5 -3 10 3 6 2 10 -3 10 -5 0 -8 27 -6 60 1 33 0 60 -2 60 -2 0 -4 -7 -4 -15z"></path><path id="piCD7Kx7J" d="M550 596 c0 -19 5 -26 20 -26 11 0 20 -4 20 -10 0 -5 -11 -10 -24 -10 -13 0 -31 -2 -38 -5 -11 -4 -13 3 -10 32 5 37 5 37 -19 22 -50 -33 -82 -149 -41 -149 10 0 23 5 29 11 9 9 16 7 28 -5 13 -12 20 -14 30 -6 11 9 18 5 31 -15 22 -33 39 -19 53 43 16 78 -1 120 -56 136 -20 6 -23 4 -23 -18z"></path><path id="p10OnT1hN7" d="M217 554 c-4 -4 -7 -15 -7 -25 0 -10 -7 -22 -15 -27 -9 -4 -16 -17 -16 -28 1 -53 10 -99 20 -102 8 -3 10 5 6 25 l-7 28 16 -29 c19 -34 20 -49 4 -41 -7 4 0 -5 15 -19 29 -27 57 -34 57 -14 0 6 10 3 22 -8 20 -18 20 -17 -2 14 -24 32 -36 42 -25 20 4 -7 0 -4 -9 7 -8 11 -19 25 -24 30 -35 42 -44 73 -34 111 l10 39 1 -45 c1 -25 5 -51 10 -58 9 -15 2 97 -8 116 -4 7 -10 9 -14 6z"></path><path id="p13YBBNqAp" d="M301 289 c-1 -9 6 -19 14 -23 9 -3 15 0 15 10 0 8 -4 13 -9 10 -5 -4 -12 0 -14 6 -4 8 -6 7 -6 -3z"></path><path id="pda6iQd6H" d="M876 201 c-20 -22 -13 -43 11 -34 11 4 14 3 9 -5 -4 -7 -14 -12 -22 -12 -8 0 -14 -4 -14 -10 0 -12 10 -13 28 -1 15 9 27 81 14 81 -5 0 -17 -9 -26 -19z"></path></g></g><g id="l7Cqlzv5GafnV2dteiID4AK" fill="rgb(251,167,60)" style="transform: none;"><g><path id="pQ8LZWilC" d="M814 1155 c34 -29 36 -30 36 -11 0 8 -15 19 -32 25 l-33 11 29 -25z"></path><path id="pzRPhRdVk" d="M937 1105 c30 -37 38 -41 48 -25 3 6 1 10 -5 10 -6 0 -22 11 -36 25 -36 36 -39 31 -7 -10z"></path><path id="pih73F0da" d="M329 1027 c-8 -7 -20 -12 -28 -9 -8 3 -11 0 -7 -6 7 -12 69 -7 95 8 15 9 15 9 -1 10 -9 0 -23 3 -31 6 -8 3 -21 -1 -28 -9z"></path><path id="poVaFRpe4" d="M373 975 c-9 -25 0 -26 32 -5 l30 20 -28 0 c-16 0 -30 -7 -34 -15z"></path><path id="p15IcS9NyU" d="M298 911 c-18 -16 -30 -33 -26 -37 4 -4 24 10 45 30 44 43 28 49 -19 7z"></path><path id="pfmdNaLLZ" d="M979 862 c-7 -9 -9 -14 -5 -10 5 4 15 3 23 -3 10 -9 13 -8 13 4 0 24 -16 29 -31 9z"></path><path id="pg35LCkmX" d="M1041 843 c18 -23 51 -53 57 -53 3 0 -9 16 -28 35 -36 37 -52 47 -29 18z"></path><path id="pOuYVjxC0" d="M1116 815 c5 -30 44 -80 44 -58 0 7 -6 16 -14 20 -7 4 -18 22 -25 38 l-11 30 6 -30z"></path><path id="ptyKuUcnw" d="M415 806 c-11 -8 -25 -12 -32 -9 -7 3 -13 0 -13 -7 0 -7 -6 -10 -14 -7 -22 9 -25 -37 -5 -64 14 -18 19 -20 19 -8 0 9 16 37 35 63 38 49 40 54 10 32z"></path><path id="pD7uVNyHB" d="M133 746 c1 -19 5 -32 10 -29 10 6 9 51 -2 58 -5 3 -9 -10 -8 -29z"></path><path id="pkrMvGlhh" d="M295 750 c-16 -16 -25 -33 -22 -37 4 -3 8 -4 10 -2 1 2 12 19 25 37 28 40 24 41 -13 2z"></path><path id="pQqcPmiIX" d="M1055 770 c-3 -4 -2 -15 1 -24 3 -9 1 -16 -5 -16 -6 0 -11 5 -11 12 0 6 -2 9 -5 7 -8 -9 19 -69 31 -69 17 0 23 88 7 94 -7 3 -15 1 -18 -4z"></path><path id="pmj9s6vKZ" d="M626 760 c6 -6 31 -7 69 -1 l60 9 -69 1 c-46 1 -67 -2 -60 -9z"></path><path id="pbwL8YCHr" d="M752 719 c2 -6 8 -10 13 -10 5 0 11 4 13 10 2 6 -4 11 -13 11 -9 0 -15 -5 -13 -11z"></path><path id="pYJ3fBWVG" d="M538 713 c6 -2 12 -11 12 -19 0 -8 6 -11 15 -8 26 10 17 34 -12 33 -16 0 -22 -3 -15 -6z"></path><path id="p265MYM47" d="M240 685 c-6 -8 -10 -19 -8 -26 2 -6 9 0 16 15 13 29 10 33 -8 11z"></path><path id="pl6fLCUY5" d="M877 686 c-6 -19 5 -46 19 -46 8 0 14 -7 14 -15 0 -8 -6 -15 -14 -15 -17 0 -37 -79 -25 -95 4 -6 4 -16 0 -24 -8 -12 1 -86 12 -97 2 -3 4 23 4 58 0 35 5 83 12 108 12 41 14 43 27 25 18 -25 48 -30 39 -7 -4 9 -8 25 -10 34 -5 23 -73 88 -78 74z"></path><path id="pGFnDpxUg" d="M529 610 c-41 -12 -69 -46 -69 -82 0 -21 -3 -28 -8 -20 -5 8 -8 0 -8 -21 1 -30 3 -33 19 -23 9 6 17 23 17 38 0 16 5 28 10 28 6 0 10 6 10 14 0 14 29 26 66 26 26 0 37 -33 28 -79 -8 -41 7 -39 30 3 14 27 16 38 7 55 -7 11 -9 21 -5 21 4 0 -1 9 -11 20 -10 11 -21 17 -26 15 -4 -3 -10 -1 -14 5 -7 11 -10 11 -46 0z"></path><path id="p6jsJLsn8" d="M1056 582 c-4 -13 -5 -26 -2 -29 10 -11 18 4 14 29 l-4 23 -8 -23z"></path><path id="puzr9eBZH" d="M231 495 c0 -27 3 -56 8 -63 5 -8 6 8 4 40 -6 73 -11 83 -12 23z"></path><path id="pilpRbIgG" d="M1004 455 c-4 -14 -4 -29 0 -32 3 -4 6 3 6 13 0 11 5 25 12 32 9 9 9 12 0 12 -6 0 -14 -11 -18 -25z"></path><path id="pKX1keQgB" d="M366 451 c-3 -5 -5 -21 -4 -35 2 -18 8 -26 22 -26 18 0 18 1 3 18 -24 26 -23 49 1 31 15 -13 16 -12 3 4 -15 20 -18 20 -25 8z"></path><path id="pVWRVzc0" d="M794 393 l-28 -37 26 19 c14 11 24 22 22 24 -2 2 1 10 7 18 6 7 9 13 6 13 -2 0 -17 -17 -33 -37z"></path><path id="p15A6TwLtn" d="M424 366 c-8 -9 -8 -17 2 -31 18 -24 28 -13 18 18 -7 19 -12 22 -20 13z"></path><path id="prCbW0gsw" d="M289 342 c5 -10 18 -25 27 -33 11 -9 9 -2 -6 19 -26 35 -36 42 -21 14z"></path><path id="pfQhjMC0z" d="M967 317 c-3 -7 1 -23 8 -36 l12 -23 6 22 c10 37 -13 70 -26 37z"></path><path id="pOz6kvPIz" d="M300 241 c0 -11 29 -35 35 -29 2 2 -4 12 -15 21 -11 9 -20 13 -20 8z"></path><path id="p39sLuQeu" d="M817 157 c-11 -29 -8 -37 13 -37 11 0 20 5 20 10 0 6 -4 10 -9 10 -5 0 -11 8 -13 18 -3 16 -4 16 -11 -1z"></path><path id="p1FyKuLKF" d="M883 156 c-23 -11 -31 -26 -14 -26 10 0 41 28 41 36 0 2 -1 3 -2 3 -2 -1 -13 -6 -25 -13z"></path></g></g><g id="lZBv1ZSfGUFsjXl5MFVUTM" fill="rgb(241,211,52)" style="transform: none;"><g><path id="puUKJl0wg" d="M595 1123 c-11 -2 -30 -6 -42 -9 -13 -2 -23 -11 -23 -19 0 -10 -10 -15 -27 -15 -17 0 -24 -3 -17 -10 6 -6 42 -6 99 0 50 5 129 10 178 10 66 0 87 3 87 14 0 19 -196 42 -255 29z"></path><path id="pNmnMBnyQ" d="M610 969 c-18 -4 -39 -13 -45 -21 -5 -7 -24 -21 -40 -30 -36 -20 -42 -41 -21 -73 10 -16 22 -22 35 -18 14 4 24 -3 36 -26 21 -41 51 -52 121 -43 52 6 58 10 68 37 20 56 36 75 61 75 21 0 25 5 25 30 0 35 -23 50 -77 50 -22 0 -43 4 -48 9 -15 13 -76 19 -115 10z m64 -39 c21 -8 26 -16 26 -43 0 -18 5 -38 12 -45 15 -15 -4 -38 -39 -45 -44 -8 -53 1 -53 54 0 27 -4 49 -10 49 -5 0 -10 5 -10 10 0 9 17 19 47 29 1 1 13 -3 27 -9z"></path><path id="pXTuomiiK" d="M980 866 c0 -2 7 -9 15 -16 12 -10 15 -10 15 4 0 9 -7 16 -15 16 -8 0 -15 -2 -15 -4z"></path><path id="p3pzrYKMK" d="M373 787 c-35 -11 -46 -35 -28 -60 14 -19 25 -22 25 -7 0 6 10 24 22 40 26 36 23 40 -19 27z"></path><path id="p3gM0kEzv" d="M1056 772 c-9 -17 0 -132 12 -144 7 -7 12 -8 11 -3 -4 16 13 79 23 86 12 7 -10 56 -28 63 -7 3 -15 2 -18 -2z"></path><path id="p1EhhK0KRj" d="M540 735 c-10 -11 -9 -18 3 -30 29 -29 47 -12 31 29 -8 20 -18 20 -34 1z"></path><path id="pwUApa3YM" d="M754 736 c-4 -10 -2 -22 4 -28 8 -8 13 -7 18 6 4 10 2 22 -4 28 -8 8 -13 7 -18 -6z"></path><path id="pQePTdMr8" d="M885 648 c-7 -32 -17 -156 -15 -197 2 -65 20 -70 19 -6 -1 69 9 133 23 141 5 3 15 -2 23 -12 12 -17 14 -17 20 -3 7 19 -7 60 -30 82 -22 23 -34 21 -40 -5z"></path><path id="phDPo21xp" d="M1057 586 c-11 -27 -8 -36 9 -36 9 0 18 -9 21 -20 6 -24 26 -21 31 3 2 11 -3 17 -16 17 -13 0 -24 10 -29 27 -8 23 -10 24 -16 9z"></path><path id="pR2m3LVa0" d="M472 568 c-5 -7 -13 -34 -16 -60 -6 -41 -5 -47 8 -42 9 3 16 9 16 13 0 4 11 13 25 19 21 10 25 9 25 -6 1 -14 4 -14 19 5 l19 23 11 -30 c13 -38 25 -38 41 1 10 24 10 35 0 55 -11 19 -21 24 -55 24 -22 0 -46 -5 -53 -12 -9 -9 -12 -8 -12 5 0 20 -13 22 -28 5z"></path><path id="plwlWVwoa" d="M1002 448 c-5 -18 -6 -40 -3 -48 3 -9 7 0 9 20 2 19 8 41 14 47 7 9 7 13 0 13 -7 0 -15 -15 -20 -32z"></path><path id="plVuPelgw" d="M363 423 c1 -25 6 -33 21 -33 17 0 18 2 4 18 -9 9 -18 24 -21 32 -3 8 -5 0 -4 -17z"></path><path id="p1HnvrlNMr" d="M936 421 c-4 -5 -1 -22 5 -38 10 -26 12 -26 19 -8 12 35 -8 73 -24 46z"></path></g></g><g id="l6ZujT8FfRnbTqI9omdOGOV" fill="rgb(249,224,91)" style="transform: none;"><g><path id="pd3spBU2I" d="M620 1090 c-10 -7 6 -10 55 -10 49 0 65 3 55 10 -8 5 -33 10 -55 10 -22 0 -47 -5 -55 -10z"></path><path id="pnkTZaZ0n" d="M593 961 c-12 -6 -24 -19 -28 -31 -4 -11 -12 -20 -18 -19 -26 3 -37 -2 -47 -20 -7 -15 -5 -24 8 -41 l17 -22 19 21 c30 33 45 27 39 -17 -8 -58 15 -76 85 -69 90 9 121 56 74 110 -19 21 -4 23 45 5 29 -10 36 -10 43 2 15 24 12 37 -17 55 -21 14 -30 15 -46 6 -15 -10 -22 -9 -38 5 -22 19 -103 28 -136 15z"></path><path id="priby5b1Z" d="M377 778 c-32 -23 -35 -38 -7 -31 19 5 46 40 38 48 -2 2 -15 -6 -31 -17z"></path><path id="p1Dtlg7rLH" d="M544 729 c-3 -6 1 -18 10 -27 15 -15 16 -14 16 11 0 27 -13 36 -26 16z"></path><path id="pDajFicyY" d="M760 719 c0 -11 5 -17 10 -14 6 3 10 13 10 21 0 8 -4 14 -10 14 -5 0 -10 -9 -10 -21z"></path><path id="pdIwxG46Z" d="M880 639 c0 -50 1 -51 18 -36 10 10 21 15 24 12 3 -3 6 5 6 17 0 13 -11 31 -24 41 l-24 18 0 -52z"></path><path id="pltAbaDaw" d="M942 609 c6 -16 12 -28 14 -26 5 5 -13 57 -20 57 -3 0 0 -14 6 -31z"></path><path id="p9AO1HOgw" d="M520 603 c-36 -14 -57 -43 -52 -73 5 -36 8 -36 62 -8 42 23 50 21 63 -16 2 -5 11 -6 21 -3 15 6 17 14 13 44 -4 20 -10 40 -15 45 -11 11 -73 19 -92 11z"></path></g></g></svg>