<svg class="img-fluid" id="outputsvg" xmlns="http://www.w3.org/2000/svg" style="transform: none; transform-origin: 50% 50%; cursor: move; max-height: 371.92px;" width="132" height="132" viewBox="0 0 1320 1320"><g id="l1d1XPxmRdlO4EFb0OA80JC" fill="rgb(9,12,12)" style="transform: none;"><g><path id="pUM2I3Khs" d="M620 785 c0 -35 0 -35 45 -35 45 0 45 0 45 35 0 35 0 35 -45 35 -45 0 -45 0 -45 -35z"></path><path id="pJjKeokPJ" d="M720 712 c0 -54 12 -72 50 -72 60 0 70 9 70 60 0 47 0 47 -37 54 -80 13 -83 11 -83 -42z"></path><path id="pw7Yc04Ta" d="M501 731 c-6 -11 -11 -33 -11 -50 l0 -31 65 0 c60 0 65 2 71 24 3 13 4 35 2 47 -3 22 -9 24 -60 27 -48 3 -58 0 -67 -17z"></path></g></g><g id="l6jL8gb1bsuXv1OATt1wKa3" fill="rgb(33,40,8)" style="transform: none;"><g><path id="pAz7RiNL0" d="M600 791 c0 -28 -1 -28 -45 -23 -41 4 -45 3 -55 -22 -5 -15 -10 -45 -10 -67 0 -38 1 -39 35 -39 24 0 35 5 35 14 0 8 3 21 6 30 5 12 0 16 -17 16 -17 0 -20 3 -12 11 17 17 59 7 55 -13 -2 -12 4 -18 18 -18 16 0 20 6 20 35 0 34 1 35 40 35 39 0 40 -1 40 -35 0 -30 3 -35 24 -35 19 0 22 4 19 23 -4 22 -2 23 28 19 32 -5 33 -5 13 -19 -15 -9 -20 -21 -16 -38 4 -21 10 -25 38 -25 l34 0 0 54 c0 67 -13 79 -80 74 -49 -3 -50 -2 -50 25 0 26 -1 27 -60 27 -59 0 -60 0 -60 -29z"></path></g></g><g id="l7cQuTjtp5Tcs4TMRDVyLvv" fill="rgb(57,60,51)" style="transform: none;"><g><path id="pbCwSpsXW" d="M1060 1156 c0 -35 1 -36 36 -36 42 0 41 13 -4 48 l-32 25 0 -37z"></path><path id="p1Cs08UdhF" d="M510 744 c-6 -14 -10 -43 -10 -65 l0 -39 55 0 55 0 0 59 c0 64 -6 71 -61 71 -22 0 -32 -6 -39 -26z m34 -16 c-5 -8 2 -9 24 -5 34 7 41 -5 21 -33 -8 -11 -12 -12 -16 -2 -2 6 -14 12 -26 12 -16 0 -18 -3 -9 -9 11 -7 11 -9 -2 -14 -9 -4 -16 -2 -16 3 0 15 19 60 25 60 4 0 3 -5 -1 -12z"></path><path id="pTBryyasd" d="M732 751 c-25 -21 -31 -81 -8 -81 8 0 16 -7 20 -15 4 -10 20 -15 52 -15 l47 0 -7 56 c-4 31 -9 61 -12 65 -9 16 -70 9 -92 -10z m33 -21 c-3 -5 3 -10 15 -10 14 0 19 4 14 13 -5 8 -2 8 9 -2 18 -14 24 -67 7 -56 -6 4 -7 11 -4 17 4 6 -1 8 -12 6 -11 -2 -18 -10 -16 -16 4 -20 -6 -14 -24 14 -15 22 -15 27 -3 35 18 11 22 11 14 -1z"></path></g></g><g id="l1ECeYkwqQlLWcL8znVIZ94" fill="rgb(54,113,32)" style="transform: none;"><g><path id="pwHR4OBTr" d="M444 1291 c-80 -29 -115 -50 -113 -69 3 -33 -1 -42 -21 -42 -11 0 -23 -7 -26 -15 -3 -8 -16 -17 -27 -21 -34 -10 -77 -64 -77 -95 0 -26 -2 -27 -36 -22 -39 6 -54 -5 -54 -44 0 -17 6 -23 23 -24 12 -1 4 -5 -20 -10 -34 -8 -43 -16 -52 -41 -14 -40 -15 -38 15 -38 23 0 24 -1 10 -16 -9 -8 -16 -24 -16 -34 0 -10 -7 -26 -16 -35 -12 -11 -14 -26 -10 -53 4 -20 8 -67 9 -104 2 -59 0 -68 -16 -68 -14 0 -16 -6 -11 -27 10 -49 13 -53 36 -54 17 -1 18 -2 5 -6 -23 -6 -21 -28 8 -91 28 -61 75 -131 123 -184 37 -41 52 -47 52 -22 0 26 25 9 28 -19 2 -18 9 -27 21 -27 10 0 21 -9 24 -20 3 -13 28 -31 69 -49 98 -45 108 -47 108 -18 0 32 37 43 76 22 l29 -15 -28 0 c-24 0 -28 -4 -25 -22 2 -18 11 -24 36 -26 24 -2 32 1 32 12 0 12 11 16 44 16 24 0 64 3 90 6 38 6 46 4 46 -10 0 -17 19 -20 58 -10 13 4 22 14 22 25 0 23 17 25 22 3 2 -12 16 -9 73 20 138 70 241 174 306 311 26 54 27 60 12 63 -15 2 -18 13 -18 55 0 29 -3 67 -7 85 -6 25 -4 32 7 32 10 0 15 -10 15 -30 0 -25 4 -30 25 -30 22 0 25 4 25 35 0 28 -4 35 -20 35 -11 0 -20 5 -20 10 0 6 9 10 20 10 17 0 20 7 20 39 0 33 -4 40 -22 43 -20 3 -21 8 -19 71 2 56 0 67 -14 67 -15 0 -15 1 -1 16 21 20 20 27 -5 77 -41 79 -101 157 -122 157 -35 0 -87 42 -81 65 3 15 -5 26 -31 43 l-35 22 0 -25 c0 -30 -4 -31 -30 -5 -11 11 -33 20 -50 20 -16 0 -30 4 -30 9 0 13 -85 34 -124 29 -20 -2 -37 0 -38 4 -4 11 -158 14 -185 4 -19 -7 -23 -5 -23 13 0 25 0 25 -66 2z m216 -92 c0 -6 10 -19 23 -30 18 -16 37 -19 107 -18 84 1 140 -7 140 -20 0 -4 15 -15 33 -25 17 -11 46 -34 63 -53 18 -18 37 -33 43 -33 6 0 11 -4 11 -10 0 -5 -16 -10 -36 -10 l-37 0 6 -46 c7 -63 32 -86 100 -92 53 -4 55 -5 66 -43 10 -32 9 -49 -4 -91 -17 -60 -19 -115 -4 -178 11 -48 -2 -111 -28 -138 -7 -7 -13 -29 -13 -48 0 -30 -3 -34 -25 -34 -16 0 -25 -6 -25 -15 0 -8 -7 -15 -15 -15 -8 0 -15 -4 -15 -10 0 -12 -72 -80 -86 -80 -3 0 -18 -9 -32 -19 l-27 -19 3 64 c2 37 0 64 -6 64 -5 0 -12 13 -14 30 -4 27 -2 30 24 30 24 0 28 4 28 29 0 16 -3 43 -6 60 -6 28 -10 31 -42 31 l-35 0 7 -55 6 -55 -30 0 c-17 0 -30 -5 -31 -12 0 -10 -2 -10 -6 0 -2 7 -22 12 -44 12 -38 0 -39 -1 -39 -35 0 -27 4 -35 18 -35 9 0 23 -9 30 -20 7 -11 18 -20 26 -20 7 0 18 -18 25 -41 14 -46 9 -61 -11 -30 -9 14 -23 21 -45 21 -27 0 -32 -4 -36 -28 -3 -22 -4 -20 -6 11 -1 34 -3 37 -32 37 -49 0 -69 -16 -69 -56 0 -31 -2 -34 -19 -24 -11 5 -36 10 -56 10 -36 0 -37 1 -31 30 3 17 9 43 12 60 5 25 11 30 35 30 17 0 32 6 35 15 4 8 12 15 20 15 9 0 14 12 14 35 0 33 -2 35 -35 35 -19 0 -35 -4 -35 -9 0 -5 -11 -12 -25 -15 -18 -5 -25 -13 -25 -31 0 -18 -5 -25 -20 -25 -26 0 -35 36 -21 86 6 22 11 54 11 72 0 30 -2 32 -35 32 -32 0 -35 -3 -46 -42 -18 -68 -7 -197 20 -241 12 -20 20 -37 17 -37 -12 0 -83 44 -107 66 -14 13 -30 24 -37 24 -7 0 -12 5 -12 10 0 6 -7 10 -15 10 -8 0 -15 9 -15 20 0 11 -7 23 -15 26 -8 4 -15 12 -15 20 0 8 -4 14 -8 14 -5 0 -6 27 -4 60 4 54 1 65 -23 100 -15 22 -32 40 -36 40 -5 0 -9 5 -9 10 0 6 6 10 14 10 9 0 15 19 19 63 5 47 34 289 37 305 1 10 20 -1 20 -13 0 -21 66 -21 74 1 10 27 7 102 -5 110 -14 8 46 64 67 64 8 0 14 4 14 8 0 15 81 50 160 71 86 23 120 26 120 10z m544 -251 c6 -5 3 -8 -10 -8 -18 0 -20 4 -16 28 5 22 7 24 10 7 2 -11 9 -23 16 -27z m-1069 -547 c0 -23 -22 -24 -28 -1 -4 16 -1 20 11 18 9 -2 17 -10 17 -17z m725 -256 c0 -8 -7 -15 -15 -15 -8 0 -15 7 -15 15 0 8 7 15 15 15 8 0 15 -7 15 -15z"></path><path id="p7OZSmkGJ" d="M360 805 c0 -8 -7 -15 -15 -15 -8 0 -15 -7 -15 -15 0 -8 -6 -15 -13 -15 -29 0 -97 -147 -97 -212 0 -26 3 -28 38 -28 42 1 72 19 72 44 0 19 23 46 39 46 6 0 11 16 11 35 0 19 -4 35 -9 35 -5 0 -7 9 -4 20 3 11 12 20 19 20 8 0 14 7 14 15 0 8 7 15 15 15 10 0 15 11 15 35 0 33 -2 35 -35 35 -24 0 -35 -5 -35 -15z"></path><path id="poBpzuRIm" d="M900 788 c0 -25 8 -39 33 -57 33 -24 85 -111 67 -111 -5 0 -10 -15 -10 -34 0 -41 32 -66 85 -66 33 0 35 2 35 34 0 56 -47 168 -92 219 -35 41 -45 47 -79 47 -37 0 -39 -1 -39 -32z"></path><path id="pkdn02phb" d="M480 685 c0 -33 2 -35 35 -35 19 0 35 5 35 10 0 6 -7 10 -16 10 -12 0 -15 6 -10 25 6 22 3 25 -19 25 -22 0 -25 -4 -25 -35z"></path><path id="pR678sOdw" d="M820 690 c0 -11 -7 -20 -15 -20 -8 0 -15 -7 -15 -15 0 -10 11 -15 35 -15 33 0 35 2 35 35 0 28 -4 35 -20 35 -13 0 -20 -7 -20 -20z"></path><path id="pQvFxbvyI" d="M530 630 c0 -5 -11 -10 -25 -10 -22 0 -25 -4 -25 -35 0 -34 1 -35 40 -35 22 0 40 5 40 10 0 6 9 10 20 10 16 0 20 7 20 35 0 33 -2 35 -35 35 -19 0 -35 -4 -35 -10z"></path></g></g><g id="l1tg9v9DierEqIWQ194dw4L" fill="rgb(83,88,29)" style="transform: none;"><g><path id="pJ5DFTMwR" d="M590 805 c0 -22 -4 -25 -35 -25 -28 0 -35 -4 -35 -20 0 -11 -7 -20 -15 -20 -10 0 -15 -11 -15 -35 0 -24 5 -35 15 -35 8 0 14 3 13 8 -1 4 4 20 11 36 8 19 16 26 27 22 9 -3 22 -6 30 -6 20 0 17 -27 -6 -50 l-20 -20 34 0 c35 0 46 15 46 68 0 19 5 22 39 22 l40 0 3 -52 3 -53 38 -3 c42 -4 52 17 15 33 -31 14 -47 43 -30 54 24 15 57 7 67 -16 16 -38 37 -28 33 15 l-3 37 -52 3 c-51 3 -53 4 -53 33 l0 29 -75 0 c-73 0 -75 -1 -75 -25z m88 -22 c-10 -2 -26 -2 -35 0 -10 3 -2 5 17 5 19 0 27 -2 18 -5z"></path></g></g><g id="lNFIAJnStVEDpYdPhZlYbX" fill="rgb(62,122,56)" style="transform: none;"><g><path id="pw2ybuJA4" d="M501 1308 c-33 -7 -41 -12 -30 -19 10 -7 8 -9 -11 -8 -42 3 -61 -1 -55 -11 3 -6 -1 -7 -9 -4 -15 6 -21 -6 -17 -29 1 -5 -3 -6 -9 -2 -6 3 -7 11 -4 17 11 18 -70 -31 -131 -79 -98 -77 -185 -215 -220 -348 -32 -124 -16 -324 35 -429 11 -23 18 -33 15 -23 -3 11 -1 16 6 12 6 -4 8 -14 4 -23 -6 -17 58 -122 76 -122 5 0 8 -4 4 -9 -14 -23 213 -188 243 -176 7 2 11 1 8 -4 -3 -4 23 -17 57 -27 48 -15 93 -19 197 -19 104 0 149 4 197 19 36 11 60 23 56 29 -4 6 0 8 10 4 14 -5 118 49 142 75 7 8 6 9 -4 3 -10 -5 -12 -4 -7 4 4 6 11 9 16 6 12 -7 61 35 54 47 -4 6 -2 8 4 4 5 -3 25 13 43 36 19 24 27 37 18 31 -13 -10 -16 -10 -16 2 0 8 4 12 8 9 21 -12 97 105 83 128 -4 6 -3 8 3 5 20 -13 47 106 51 229 6 178 -29 294 -131 431 -51 68 -143 147 -159 136 -6 -3 -8 -1 -4 5 8 14 -120 77 -199 97 -67 17 -253 19 -324 3z m79 -67 c0 -4 -15 -11 -32 -14 -18 -4 -44 -9 -58 -13 -14 -4 -22 -3 -18 1 4 4 29 14 55 21 27 7 49 13 51 13 1 1 2 -3 2 -8z m157 -38 c4 3 31 -1 58 -9 l50 -13 -55 2 c-53 3 -100 22 -100 41 0 5 9 1 19 -8 11 -10 23 -16 28 -13z m-77 -13 c8 -12 26 -20 42 -20 15 0 28 -4 28 -10 0 -12 56 -12 85 -1 18 7 84 -6 95 -20 3 -3 17 -9 33 -13 15 -3 27 -13 27 -21 0 -7 9 -16 19 -20 11 -3 22 -12 25 -20 3 -8 12 -15 19 -15 8 0 19 -11 25 -25 6 -14 18 -25 27 -25 8 0 15 -9 15 -20 0 -13 -7 -20 -20 -20 -23 0 -27 -18 -5 -26 8 -4 15 -13 15 -21 0 -13 -3 -13 -16 -2 -14 11 -15 9 -12 -17 3 -25 7 -29 38 -32 71 -5 78 -9 82 -49 3 -21 -1 -58 -9 -82 -17 -58 -17 -101 1 -101 7 0 19 22 27 52 l14 52 0 -96 c0 -53 -3 -91 -7 -85 -4 7 -8 20 -8 30 0 11 -6 17 -12 14 -8 -2 -13 -23 -14 -53 -2 -83 -3 -90 -24 -114 -11 -13 -20 -29 -20 -37 0 -7 -4 -13 -9 -13 -5 0 -14 -13 -21 -30 -7 -16 -16 -30 -21 -30 -5 0 -14 -11 -19 -25 -5 -14 -16 -25 -25 -25 -8 0 -22 -11 -31 -25 -9 -14 -23 -25 -30 -25 -8 0 -14 -7 -14 -15 0 -8 -12 -18 -27 -21 -15 -4 -34 -14 -42 -22 -11 -10 -27 -12 -65 -7 -41 5 -49 4 -38 -6 6 -7 12 -20 12 -29 -1 -11 -3 -10 -12 5 -6 11 -11 37 -9 57 2 37 1 38 -34 38 -33 0 -35 -2 -35 -35 0 -27 4 -35 19 -35 14 0 17 -6 14 -23 -4 -20 -9 -22 -51 -18 -26 2 -51 9 -57 16 -10 13 -53 22 -163 34 -50 5 -67 12 -88 34 -13 15 -33 27 -43 27 -10 0 -24 12 -32 26 -7 14 -26 36 -41 49 -15 13 -28 28 -28 34 0 5 -6 14 -14 18 -7 5 -16 32 -18 63 -3 30 -11 56 -17 58 -6 2 -11 19 -11 38 0 28 -4 35 -25 40 -19 5 -25 13 -25 35 0 16 -3 29 -7 29 -17 0 -31 -16 -35 -40 l-4 -25 -5 27 c-5 20 -1 28 15 36 12 5 33 15 47 22 35 16 49 63 55 185 7 137 9 145 40 145 30 0 41 24 23 47 -12 14 -12 16 1 11 8 -3 15 -17 15 -31 -1 -16 5 -27 12 -27 16 0 18 67 1 72 -12 4 30 51 56 61 9 4 16 11 16 17 0 5 8 10 19 10 10 0 24 6 30 14 7 8 26 18 42 21 16 4 29 10 29 15 0 13 30 23 90 30 30 4 60 8 65 9 6 0 17 -8 25 -19z m335 -42 c14 -6 25 -15 25 -20 0 -8 -17 -1 -50 22 -20 13 -7 13 25 -2z m91 -84 c1 -8 -11 0 -27 17 -16 17 -29 33 -29 36 0 11 54 -40 56 -53z m-822 21 c-9 -14 -19 -24 -21 -21 -7 7 16 46 28 46 5 0 2 -11 -7 -25z m941 -196 c10 -30 2 -32 -12 -3 -6 13 -7 24 -3 24 5 0 12 -9 15 -21z m-1042 -51 c-6 -36 -10 -44 -18 -36 -8 8 6 68 16 68 5 0 6 -15 2 -32z m-60 -28 c-3 -11 -9 -20 -14 -20 -11 0 -11 3 -3 24 9 23 23 20 17 -4z m1144 -9 c0 -24 -3 -27 -14 -16 -15 16 -18 39 -3 30 6 -3 10 -1 10 4 0 6 2 11 3 11 2 0 4 -13 4 -29z m-1129 -269 c25 -17 62 -77 61 -101 0 -15 -3 -20 -6 -11 -15 42 -47 99 -53 95 -4 -3 -13 2 -20 10 -13 16 -3 20 18 7z m182 -327 c13 -14 20 -25 15 -25 -4 0 -18 11 -31 25 -13 14 -20 25 -15 25 4 0 18 -11 31 -25z m700 -34 c0 -5 -8 -11 -17 -15 -10 -3 -25 -9 -33 -12 -8 -3 -4 4 10 15 27 22 40 26 40 12z m-606 -26 c11 -8 15 -15 10 -15 -6 0 -19 7 -30 15 -10 8 -14 14 -9 14 6 0 19 -6 29 -14z m187 -35 c13 -10 19 -19 13 -20 -6 0 -14 3 -18 8 -4 4 -24 12 -44 18 l-37 12 31 1 c18 1 42 -7 55 -19z m189 -30 c0 -5 -17 -9 -37 -9 -38 1 -38 1 -8 9 43 11 45 11 45 0z m-80 -8 c0 -5 -13 -9 -30 -10 -16 0 -30 4 -30 9 0 5 14 9 30 9 17 0 30 -4 30 -8z"></path><path id="pv3jc3WuQ" d="M320 750 c0 -25 -4 -30 -24 -30 -29 0 -34 -12 -41 -98 l-5 -67 15 47 c8 26 20 50 25 53 6 4 6 -3 0 -20 -6 -15 -7 -31 -4 -37 5 -7 2 -8 -7 -4 -8 4 -6 1 4 -7 15 -13 16 -15 2 -21 -25 -9 -17 -26 13 -26 54 0 72 10 72 41 0 16 5 29 10 29 6 0 10 18 10 40 0 33 -3 40 -20 40 -11 0 -20 5 -20 10 0 6 9 10 20 10 16 0 20 7 20 35 0 33 -2 35 -35 35 -32 0 -35 -2 -35 -30z"></path><path id="p24gQhaWM" d="M1000 676 c0 -8 -5 -16 -10 -18 -6 -2 -13 -26 -16 -54 l-6 -51 53 -6 c89 -11 89 -11 89 27 0 44 -9 66 -26 66 -8 0 -14 10 -14 25 0 18 -5 25 -20 25 -14 0 -18 -5 -14 -17 5 -17 5 -17 -6 0 -13 21 -30 22 -30 3z m64 -73 c9 -25 14 -48 12 -50 -2 -3 -16 3 -31 13 -23 15 -25 18 -10 27 12 6 15 16 11 33 -11 41 1 26 18 -23z"></path><path id="p2F1u4Eqy" d="M412 415 c-15 -57 -15 -123 -1 -181 10 -37 15 -44 35 -44 28 0 30 7 8 38 -8 12 -10 22 -5 22 6 0 11 -5 11 -11 0 -8 4 -8 13 0 11 8 13 4 9 -22 l-4 -32 56 58 c31 31 63 57 71 57 10 0 15 11 15 35 0 30 -3 35 -23 35 -28 0 -47 17 -47 42 0 11 -7 18 -19 18 -11 0 -26 7 -35 15 -25 26 -45 18 -55 -22 -19 -74 -20 -78 -16 -36 3 23 8 48 11 57 3 9 2 16 -3 16 -5 0 -14 -20 -21 -45z"></path><path id="p1EzwMfg52" d="M858 433 c-2 -22 -9 -29 -30 -31 -20 -2 -28 -9 -28 -23 0 -10 -4 -19 -10 -19 -5 0 -10 5 -10 10 0 6 -16 10 -35 10 -33 0 -35 -2 -35 -35 0 -21 5 -35 13 -35 7 0 18 -9 25 -20 7 -11 17 -20 22 -20 6 0 26 -16 44 -35 41 -41 50 -44 42 -10 -4 14 -2 25 3 25 12 0 23 -29 15 -41 -3 -5 6 -9 20 -9 21 0 27 7 35 38 17 66 24 169 12 176 -6 4 -11 16 -11 27 0 15 -7 19 -34 19 -30 0 -35 -3 -38 -27z"></path></g></g><g id="l7Iv2ppIwpWnWgVnprnsNnC" fill="rgb(77,135,46)" style="transform: none;"><g><path id="pjohyAq8y" d="M575 1234 c-54 -12 -111 -28 -120 -34 -5 -4 -21 -11 -33 -15 -51 -15 -202 -133 -202 -157 0 -4 11 -8 25 -8 31 0 42 -23 26 -53 -6 -12 -9 -14 -7 -4 8 26 -4 47 -25 47 -28 0 -60 -37 -66 -76 -5 -30 -3 -34 16 -34 11 0 21 6 21 13 0 8 12 12 38 9 54 -4 67 9 67 65 0 26 -4 56 -9 66 -6 12 -4 17 8 17 9 0 19 7 22 15 4 8 12 15 20 15 8 0 14 7 14 15 0 9 10 15 26 15 17 0 28 6 31 20 4 14 14 20 32 20 14 0 51 7 81 15 30 8 74 15 98 15 35 0 42 -3 42 -20 0 -13 7 -20 20 -20 11 0 20 -5 20 -11 0 -9 22 -10 76 -6 97 7 141 0 147 -24 4 -14 14 -19 41 -19 20 0 36 3 36 8 0 14 -101 73 -135 79 -19 3 -35 9 -35 14 0 9 -64 29 -94 29 -32 0 -2 -23 47 -37 l42 -11 -41 -1 c-22 -1 -46 5 -53 12 -11 10 -13 10 -7 0 13 -23 -11 -14 -44 17 -32 30 -65 36 -125 24z"></path><path id="p65t6ya5M" d="M1031 1069 c3 -21 -1 -41 -8 -48 -15 -14 -17 -79 -3 -115 8 -21 16 -26 45 -26 42 0 43 6 10 32 -14 11 -25 25 -25 31 0 8 4 7 12 -1 35 -35 104 8 76 47 -19 27 -71 84 -92 101 -18 14 -18 13 -15 -21z"></path><path id="pNLtFZyWJ" d="M1160 905 c-12 -14 -12 -21 0 -48 15 -34 16 -68 5 -192 -4 -44 -2 -98 3 -121 7 -33 6 -48 -9 -79 -11 -21 -19 -47 -19 -57 0 -10 -4 -18 -10 -18 -5 0 -10 -8 -10 -19 0 -10 -9 -21 -20 -24 -13 -3 -20 -14 -20 -30 0 -19 -6 -26 -22 -29 -15 -2 -24 -11 -26 -24 -2 -15 -12 -24 -33 -28 -17 -3 -29 -12 -29 -21 0 -8 -9 -15 -19 -15 -11 0 -26 -6 -33 -13 -7 -8 -26 -17 -41 -21 -15 -3 -27 -11 -27 -16 0 -6 -9 -10 -20 -10 -15 0 -20 7 -20 26 0 44 -34 64 -107 64 -62 0 -63 0 -64 -27 -1 -45 -12 -64 -29 -53 -25 16 -80 12 -80 -5 0 -8 6 -15 14 -15 7 0 30 -11 50 -25 47 -32 144 -36 172 -7 17 16 17 17 -9 20 -18 2 -27 9 -26 20 0 11 3 12 6 5 2 -7 14 -13 25 -13 15 0 19 5 14 18 -4 12 -1 11 13 -6 11 -12 21 -28 23 -34 5 -15 100 22 166 66 53 35 149 132 158 159 3 9 10 17 15 17 5 0 9 6 9 14 0 8 6 21 13 28 7 7 20 33 29 58 14 41 14 54 1 119 -14 67 -14 79 2 137 19 71 15 128 -14 182 -16 30 -19 32 -31 17z m-480 -720 c-7 -8 -10 -24 -7 -36 4 -16 3 -18 -9 -8 -19 16 -18 36 4 48 24 14 26 13 12 -4z"></path><path id="p549jSHDr" d="M128 870 c-21 -47 -38 -116 -38 -152 0 -37 2 -39 17 -27 15 12 16 12 10 -4 -4 -11 -3 -16 4 -12 6 4 8 14 5 22 -3 8 -1 33 5 57 11 44 8 142 -3 116z"></path><path id="pKN8BJlUO" d="M169 858 c-9 -132 -20 -170 -57 -210 l-26 -28 30 0 29 0 -25 -13 c-37 -19 -35 -40 10 -87 45 -47 55 -74 47 -131 -5 -35 -1 -45 32 -87 40 -50 109 -116 132 -125 12 -5 12 -7 -1 -17 -13 -9 -12 -10 5 -6 11 3 41 -5 68 -18 40 -21 51 -23 77 -13 42 16 38 37 -7 38 -31 2 -33 3 -10 6 15 2 27 11 27 19 0 8 4 14 9 14 5 0 13 10 17 22 8 26 28 48 43 48 6 0 11 5 11 10 0 6 7 10 15 10 8 0 15 5 15 10 0 6 11 15 25 20 14 5 25 16 25 24 0 8 14 0 34 -20 19 -19 43 -34 55 -34 12 0 21 -6 21 -15 0 -8 8 -15 19 -15 14 0 21 -10 25 -35 5 -27 12 -35 28 -35 18 0 20 4 14 33 -6 31 -28 57 -91 105 l-30 23 32 -15 c17 -9 35 -20 38 -26 3 -5 15 -14 25 -20 15 -8 19 -7 17 9 0 11 -6 17 -14 14 -7 -3 -13 0 -13 6 0 6 4 11 9 11 5 0 7 8 4 18 -3 13 2 18 17 18 12 0 19 -5 16 -13 -3 -7 1 -10 9 -6 12 4 14 -4 10 -43 l-5 -49 11 44 c8 31 8 46 0 54 -15 15 -14 30 1 21 8 -5 9 3 5 27 l-6 34 14 -30 c7 -16 11 -34 8 -38 -3 -5 -6 -29 -7 -55 -2 -26 -11 -62 -20 -81 -10 -18 -14 -36 -10 -39 4 -4 9 -1 11 6 3 6 13 12 23 12 21 0 27 20 36 116 7 79 -16 184 -40 184 -9 0 -16 17 -21 48 l-6 47 -57 18 c-87 27 -102 24 -102 -17 0 -39 9 -47 60 -56 29 -4 36 -10 38 -33 2 -15 9 -27 18 -27 9 0 14 -11 14 -33 0 -32 -1 -32 -40 -29 -35 4 -40 2 -40 -17 0 -18 -3 -19 -25 -9 -14 6 -25 15 -25 20 0 4 -16 8 -35 8 -19 0 -35 -4 -35 -10 0 -5 -13 -10 -30 -10 -27 0 -30 3 -30 31 0 31 0 31 -47 27 -31 -2 -48 1 -50 10 -3 7 4 12 16 12 16 0 21 6 21 25 0 18 7 28 26 35 38 15 54 35 54 69 0 28 -3 31 -30 31 -16 0 -30 4 -30 9 0 5 -9 11 -20 14 -13 3 -18 10 -14 21 4 12 0 16 -15 16 -17 0 -21 -6 -21 -35 0 -29 4 -35 21 -35 18 0 19 -2 5 -15 -8 -8 -21 -15 -30 -15 -8 0 -16 -12 -19 -27 -4 -26 -4 -26 -6 5 -1 27 -5 32 -25 32 -21 0 -24 5 -28 51 -4 42 -2 55 13 70 11 11 24 19 29 19 6 0 10 16 10 35 0 33 -2 35 -35 35 -19 0 -35 -4 -35 -10 0 -5 -7 -10 -15 -10 -9 0 -18 -7 -21 -15 -4 -8 -12 -15 -20 -15 -8 0 -14 -7 -14 -15 0 -8 -4 -15 -10 -15 -5 0 -10 -18 -10 -40 0 -27 -4 -40 -13 -40 -16 0 -37 -41 -37 -70 0 -11 -4 -20 -10 -20 -5 0 -10 -16 -10 -35 0 -33 2 -35 35 -35 19 0 35 4 35 8 0 13 71 32 119 32 33 0 41 -3 41 -19 0 -10 -9 -21 -20 -24 -15 -4 -20 -14 -20 -36 0 -17 -4 -31 -10 -31 -6 0 -10 -37 -10 -90 0 -53 4 -90 10 -90 6 0 10 -13 10 -30 0 -16 5 -30 10 -30 6 0 10 -4 10 -10 0 -5 -7 -10 -15 -10 -8 0 -15 5 -15 10 0 6 -11 10 -25 10 -14 0 -25 6 -25 13 0 23 -35 47 -68 47 -30 0 -32 2 -32 35 0 28 -4 35 -20 35 -16 0 -20 7 -20 35 0 19 -4 35 -10 35 -5 0 -10 7 -10 15 0 8 5 15 10 15 13 0 13 56 0 81 -6 10 -20 19 -30 19 -15 0 -20 7 -20 25 0 18 5 25 20 25 16 0 20 7 20 35 0 24 -5 35 -15 35 -8 0 -15 9 -15 20 0 11 6 20 14 20 15 0 26 50 26 128 0 40 -4 52 -15 52 -8 0 -15 -6 -16 -12z m151 -174 c-15 -38 -12 -46 10 -32 36 23 32 -1 -6 -37 l-39 -36 30 6 30 5 -30 -11 c-16 -7 -36 -16 -43 -22 -7 -5 -14 -8 -17 -6 -6 6 29 104 48 133 22 33 29 33 17 0z m120 -265 c-6 -18 -10 -40 -10 -47 0 -17 47 -8 71 14 24 22 25 3 2 -33 -11 -16 -18 -50 -20 -91 -1 -35 -4 -66 -6 -68 -11 -11 -49 84 -53 132 -4 50 11 142 21 132 3 -2 0 -20 -5 -39z m115 -104 c-11 -8 -30 -24 -42 -36 -19 -18 -23 -18 -23 -5 0 9 11 21 24 26 13 5 27 14 31 19 3 6 12 11 18 11 7 0 3 -7 -8 -15z"></path><path id="p12WYVU7FU" d="M437 343 c-4 -3 -7 -15 -7 -25 0 -27 25 -17 26 10 1 22 -7 28 -19 15z"></path><path id="pzxZfcaW6" d="M850 816 c0 -28 5 -37 28 -47 42 -18 100 -95 94 -125 -4 -20 -10 -24 -38 -24 -32 0 -34 -2 -34 -35 0 -34 1 -35 37 -35 40 0 103 -19 103 -32 0 -4 18 -8 40 -8 39 0 40 1 40 35 0 28 -4 35 -20 35 -11 0 -20 -7 -20 -15 0 -19 2 -19 -45 5 -22 11 -34 20 -28 20 6 0 9 9 6 21 -5 19 -4 20 16 10 27 -15 26 -8 -4 54 -13 27 -23 51 -20 53 2 2 18 -28 36 -67 18 -38 36 -68 41 -65 16 10 8 71 -12 94 -11 13 -20 29 -20 36 0 15 -75 91 -109 112 -11 6 -37 12 -56 12 -33 0 -35 -2 -35 -34z m121 -53 l24 -28 -30 25 c-16 14 -32 26 -34 28 -2 1 0 2 6 2 5 0 20 -12 34 -27z"></path><path id="pYZgyi725" d="M822 695 c4 -19 1 -25 -13 -25 -11 0 -19 -4 -19 -10 0 -5 16 -10 35 -10 33 0 35 2 35 35 0 29 -4 35 -21 35 -17 0 -20 -5 -17 -25z"></path><path id="p18BJXPe1o" d="M1216 697 c-9 -36 -7 -125 4 -132 6 -3 10 2 11 12 0 10 2 44 5 75 5 57 -9 87 -20 45z"></path><path id="pmOWlBrfj" d="M115 490 c3 -14 10 -38 13 -53 9 -35 26 -36 30 -3 2 17 -6 35 -24 53 l-26 28 7 -25z"></path><path id="ptOiVrXfb" d="M1252 480 c0 -19 2 -27 5 -17 2 9 2 25 0 35 -3 9 -5 1 -5 -18z"></path><path id="pvNB7W7Kn" d="M1145 210 c-10 -12 -25 -18 -32 -16 -8 4 -13 -3 -13 -16 0 -20 3 -19 35 12 19 19 35 35 35 37 0 7 -8 2 -25 -17z"></path></g></g><g id="l5VhC6vuQJrf1fW4R5RoJvv" fill="rgb(73,142,63)" style="transform: none;"><g><path id="pLyTSHH3h" d="M603 1233 c-7 -2 -13 -11 -13 -19 0 -10 14 -14 57 -14 55 0 56 0 38 20 -17 19 -54 25 -82 13z"></path><path id="p7MJcEGVc" d="M745 1220 c9 -15 76 -30 94 -21 11 7 5 12 -25 20 -48 13 -77 14 -69 1z"></path><path id="pdO61XGfn" d="M827 1180 c-56 -10 -54 -17 8 -23 30 -3 62 -13 71 -21 8 -9 29 -16 45 -16 22 0 29 -5 29 -20 0 -16 7 -20 36 -20 19 0 33 4 29 9 -7 12 -85 65 -125 86 -31 16 -36 16 -93 5z"></path><path id="p18eGb7Aqm" d="M1110 1145 c14 -16 26 -32 28 -34 1 -2 4 -2 7 1 3 2 -10 18 -28 34 l-32 29 25 -30z"></path><path id="phVmLZoP3" d="M320 1122 c-50 -39 -100 -85 -100 -93 0 -3 14 -6 30 -6 22 0 30 5 30 19 0 11 7 18 20 18 11 0 20 7 20 15 0 8 9 15 20 15 16 0 20 7 20 30 0 17 -1 30 -2 30 -2 0 -19 -13 -38 -28z"></path><path id="p68O2eyri" d="M1207 1013 c-3 -5 6 -16 20 -27 25 -18 25 -18 14 2 -13 25 -28 35 -34 25z"></path><path id="p0IcUEQgW" d="M202 990 c-11 -19 -10 -20 23 -20 28 0 35 4 35 20 0 14 -7 20 -23 20 -12 0 -28 -9 -35 -20z"></path><path id="pK9g6qi4u" d="M1080 950 c0 -13 7 -20 20 -20 10 0 24 9 30 20 10 18 8 20 -20 20 -23 0 -30 -4 -30 -20z"></path><path id="p1EZYyQ0JP" d="M1155 900 c-10 -11 -13 -20 -7 -20 7 0 12 -9 12 -19 0 -33 11 -51 31 -51 24 0 24 17 1 69 -19 41 -19 41 -37 21z"></path><path id="pZUc4YYhb" d="M1060 886 c0 -23 4 -26 35 -26 37 0 50 23 18 33 -10 2 -26 8 -35 12 -15 6 -18 2 -18 -19z"></path><path id="p1DBnCEj0W" d="M110 814 c-30 -99 -24 -168 10 -96 13 28 27 162 17 162 -4 0 -15 -30 -27 -66z"></path><path id="pU3oIFVVo" d="M1291 850 c0 -8 4 -24 9 -35 5 -13 9 -14 9 -5 0 8 -4 24 -9 35 -5 13 -9 14 -9 5z"></path><path id="p4oaoUwT8" d="M160 752 c0 -11 -7 -36 -15 -56 -15 -36 -15 -36 9 -36 37 0 51 66 21 96 -13 14 -15 13 -15 -4z"></path><path id="pYRyiVrkx" d="M300 730 c-11 -21 -20 -49 -20 -62 0 -17 7 -11 31 27 17 27 39 55 48 62 14 11 13 12 -11 13 -22 0 -32 -8 -48 -40z"></path><path id="pWmFWwa6P" d="M358 742 c-26 -31 -26 -34 -11 -52 26 -30 23 -55 -9 -69 -37 -17 -36 -34 2 -29 17 3 33 1 36 -4 3 -4 -7 -8 -23 -8 -15 -1 -41 -7 -58 -15 -28 -13 -25 -14 45 -8 81 6 92 10 71 22 -9 6 -10 10 -2 12 6 2 14 28 18 57 5 48 4 52 -15 52 -17 0 -21 7 -24 37 l-3 37 -27 -32z"></path><path id="pAfDMCDw0" d="M970 705 c0 -18 -5 -25 -20 -25 -19 0 -20 -6 -19 -60 l2 -60 55 0 c61 0 63 9 5 20 l-38 8 33 1 c30 1 32 3 21 23 -10 18 -9 20 6 15 14 -6 16 -2 9 25 -7 34 -33 77 -46 78 -5 0 -8 -11 -8 -25z"></path><path id="pbbp3nnlS" d="M1046 656 c19 -41 34 -79 34 -85 0 -6 7 -11 15 -11 10 0 15 10 15 29 0 42 -9 61 -29 61 -12 0 -22 13 -30 40 -6 22 -18 40 -26 40 -10 0 -4 -21 21 -74z"></path><path id="pm78MKtbI" d="M1216 688 c-8 -33 -7 -101 3 -116 10 -17 21 31 21 94 0 47 -14 59 -24 22z"></path><path id="pbRM6nOrc" d="M315 669 c-9 -26 -5 -28 24 -13 23 12 23 12 3 23 -17 9 -22 8 -27 -10z"></path><path id="p6RUwWKPl" d="M104 635 c-19 -14 -18 -14 4 -15 13 0 22 6 22 15 0 19 -1 19 -26 0z"></path><path id="p10O7K2PR9" d="M1181 595 c0 -22 3 -47 9 -55 15 -25 17 -7 5 45 l-13 50 -1 -40z"></path><path id="pMYHjc8F5" d="M106 597 c-15 -11 -17 -17 -7 -35 17 -33 31 -27 31 13 0 40 0 40 -24 22z"></path><path id="pYEWlfHAQ" d="M437 533 c-4 -3 -10 -28 -13 -55 -4 -27 -11 -51 -15 -54 -5 -3 -9 -39 -9 -80 0 -55 3 -74 13 -74 10 0 13 14 9 55 -4 55 12 140 30 151 5 3 6 -6 2 -22 -5 -20 -4 -25 6 -19 9 6 10 3 1 -13 -6 -12 -16 -24 -21 -27 -6 -3 -10 -13 -10 -21 0 -19 50 -11 66 11 26 36 33 7 7 -31 -9 -14 -18 -42 -19 -62 -3 -35 -3 -36 8 -12 6 14 10 31 9 38 -1 8 6 11 23 8 14 -2 26 0 28 6 2 6 15 13 29 14 24 3 24 3 -5 -19 -64 -48 -77 -64 -90 -101 l-13 -39 -19 32 c-24 40 -34 39 -34 -4 0 -33 2 -35 35 -35 31 0 35 3 35 25 0 14 6 25 13 25 6 0 18 14 25 30 8 18 21 30 33 30 10 0 19 4 19 9 0 5 14 12 30 16 26 6 30 11 30 40 0 27 -6 37 -27 47 -16 7 -29 23 -31 36 -2 12 -10 22 -19 22 -20 0 -53 38 -53 62 0 14 -8 18 -33 18 -19 0 -37 -3 -40 -7z"></path><path id="p6LckWzPA" d="M154 499 c18 -21 26 -42 26 -70 0 -32 3 -39 20 -39 17 0 20 7 20 40 0 33 -3 40 -20 40 -11 0 -20 6 -20 14 0 17 -27 46 -42 46 -5 0 2 -14 16 -31z"></path><path id="pCS9re5dC" d="M1170 485 c0 -14 -4 -25 -10 -25 -5 0 -10 -9 -10 -20 0 -11 -4 -20 -10 -20 -5 0 -12 -11 -16 -25 -3 -14 -10 -25 -15 -25 -5 0 -9 -8 -9 -19 0 -10 -9 -21 -20 -24 -16 -4 -20 -13 -20 -44 l1 -38 40 45 c40 45 109 175 109 204 0 9 -8 16 -20 16 -15 0 -20 -7 -20 -25z"></path><path id="pMSp6BASj" d="M111 493 c2 -21 36 -86 41 -77 8 13 -15 77 -29 82 -7 2 -13 0 -12 -5z"></path><path id="p19kWtm0QL" d="M843 466 c-8 -9 -26 -12 -57 -9 -44 5 -46 4 -46 -20 0 -16 -7 -28 -18 -31 -27 -9 -28 -72 -2 -86 11 -6 20 -17 20 -25 0 -8 12 -15 28 -17 19 -2 28 -9 30 -25 3 -17 10 -23 28 -23 13 0 24 3 24 6 0 18 -26 46 -74 78 -51 34 -75 56 -61 56 8 0 87 -51 112 -73 22 -19 22 -19 20 1 0 12 -6 18 -14 15 -7 -3 -13 0 -13 6 0 6 6 11 13 11 8 1 7 5 -4 13 -8 7 -18 22 -21 34 -5 20 -3 21 12 13 11 -6 22 -15 25 -20 4 -6 11 -7 17 -4 7 5 9 1 5 -9 -4 -11 -2 -14 8 -10 12 4 14 -4 10 -43 l-4 -49 9 45 c6 29 6 48 0 54 -14 14 -13 29 1 20 9 -5 10 1 4 22 -4 16 -8 38 -10 49 -1 11 -3 23 -4 28 -2 12 -25 7 -38 -7z"></path><path id="pQCssaklD" d="M893 466 c31 -79 27 -189 -7 -238 -22 -31 -20 -38 9 -38 18 0 25 5 25 19 0 11 5 21 10 23 14 4 26 138 13 138 -6 0 -14 25 -18 55 -5 40 -11 55 -22 55 -9 0 -13 -6 -10 -14z"></path><path id="pla4RU95P" d="M180 355 c0 -9 14 -34 32 -56 34 -42 134 -129 149 -129 5 0 9 11 9 25 0 21 -5 25 -30 25 -25 0 -30 4 -30 25 0 18 -5 25 -20 25 -14 0 -20 7 -20 21 0 12 -8 23 -19 26 -11 3 -21 15 -23 27 -4 26 -48 37 -48 11z"></path><path id="p1DmNXtmWL" d="M446 331 c4 -16 3 -21 -5 -17 -6 4 -11 2 -11 -3 0 -6 4 -11 9 -11 17 0 22 19 11 37 -9 15 -10 14 -4 -6z"></path><path id="plh56a1XR" d="M1096 183 c-9 -23 2 -29 20 -11 14 13 14 16 1 21 -9 3 -18 -1 -21 -10z"></path><path id="pqU8hzEM8" d="M740 150 c0 -23 -4 -30 -20 -30 -13 0 -20 -7 -20 -20 0 -21 10 -24 48 -14 27 8 38 44 22 73 -16 30 -30 26 -30 -9z"></path><path id="p9gJXFrJb" d="M791 143 c12 -21 23 -39 25 -41 1 -2 18 4 38 12 49 20 47 39 -4 34 -33 -3 -40 0 -40 14 0 12 -8 18 -21 18 -21 0 -21 0 2 -37z"></path><path id="pd46XPlBS" d="M477 143 c-15 -14 -5 -18 48 -18 30 0 55 3 55 6 0 15 -90 26 -103 12z"></path><path id="pSvtG2e38" d="M504 109 c-3 -5 -1 -9 5 -9 5 0 16 -3 25 -6 9 -3 16 -2 16 4 0 13 -38 23 -46 11z"></path></g></g><g id="l56QSG9c0xVq5WFjIZByGTQ" fill="rgb(87,122,78)" style="transform: none;"><g><path id="piq3a78Xr" d="M170 1115 c-13 -14 -20 -25 -15 -25 7 0 45 39 45 47 0 7 -8 2 -30 -22z"></path><path id="p2DMvLA7a" d="M1120 1138 c0 -10 40 -51 45 -46 3 2 -6 15 -20 28 -14 13 -25 21 -25 18z"></path><path id="pwkSmiDvs" d="M1203 1025 c1 -11 8 -24 15 -28 21 -14 22 -4 2 23 -16 22 -18 22 -17 5z"></path><path id="p1DjL7ql3F" d="M52 935 c-17 -37 -14 -45 4 -12 9 16 14 31 11 33 -2 2 -9 -7 -15 -21z"></path><path id="p17L63TdtL" d="M1251 950 c0 -8 6 -24 14 -34 19 -25 19 -9 0 24 -8 14 -14 19 -14 10z"></path><path id="pLdwk0cJS" d="M638 803 c12 -2 32 -2 45 0 12 2 2 4 -23 4 -25 0 -35 -2 -22 -4z"></path><path id="p11REubjGK" d="M530 765 c0 -8 -9 -15 -20 -15 -16 0 -20 -7 -20 -35 0 -44 12 -44 39 0 18 31 23 34 46 25 23 -9 25 -7 25 15 0 22 -4 25 -35 25 -24 0 -35 -5 -35 -15z"></path><path id="pD8cv3DvN" d="M620 760 c0 -17 7 -20 39 -20 37 0 39 -1 45 -40 l6 -40 65 0 65 0 0 35 c0 19 -4 35 -10 35 -5 0 -10 11 -10 25 0 23 -4 25 -40 25 -22 0 -40 -4 -40 -10 0 -5 -9 -10 -20 -10 -11 0 -20 5 -20 10 0 6 -18 10 -40 10 -33 0 -40 -3 -40 -20z m193 -28 c3 -4 7 -19 11 -34 6 -26 4 -28 -28 -28 -37 0 -63 27 -53 54 5 13 64 20 70 8z"></path><path id="pwXbt3Dpz" d="M1290 493 c0 -10 -3 -29 -5 -43 -3 -16 0 -12 9 10 18 43 19 50 6 50 -5 0 -10 -8 -10 -17z"></path><path id="pZcQtuFnp" d="M1093 175 c-9 -25 2 -27 22 -5 17 18 17 20 1 20 -9 0 -19 -7 -23 -15z"></path></g></g><g id="lACtWUfHP1SHiRKjYrLq0w" fill="rgb(83,160,58)" style="transform: none;"><g><path id="pnzHg3r9L" d="M308 1112 c-21 -15 -38 -30 -38 -34 0 -5 16 -8 35 -8 37 0 49 13 43 48 -3 19 -5 19 -40 -6z"></path><path id="p1Hf7nxnoc" d="M1000 1092 c0 -34 16 -52 47 -52 14 0 23 -6 23 -15 0 -8 5 -15 10 -15 6 0 10 -5 10 -11 0 -5 -4 -8 -8 -5 -5 3 -9 -10 -10 -29 -1 -28 2 -35 18 -35 19 0 50 25 50 40 0 14 -98 128 -120 140 -18 10 -20 8 -20 -18z"></path><path id="pEcdDNs9r" d="M111 819 c-14 -40 -14 -39 3 -39 13 0 26 28 26 58 0 24 -18 12 -29 -19z"></path><path id="psunPZL47" d="M907 803 c-14 -13 -7 -63 8 -63 8 0 15 -4 15 -9 0 -5 3 -16 6 -25 5 -12 -1 -16 -24 -16 -28 0 -29 -2 -36 -52 -10 -89 -10 -88 33 -88 21 0 54 7 72 15 34 14 34 14 7 15 -28 0 -38 15 -17 22 9 3 9 10 -1 27 -11 22 -11 23 14 19 21 -4 26 -2 22 11 -2 9 -7 28 -10 42 -3 15 -24 43 -46 63 -22 20 -34 36 -27 36 17 0 90 -76 110 -115 l16 -30 1 28 c0 17 -9 37 -25 51 -14 13 -25 28 -25 35 0 6 -7 11 -15 11 -8 0 -15 7 -15 15 0 15 -50 22 -63 8z"></path><path id="ph1Cp8WNa" d="M344 787 c-6 -7 -13 -26 -16 -42 -5 -24 -4 -27 6 -15 6 8 25 26 41 40 l30 25 -22 -26 c-13 -14 -23 -33 -23 -43 0 -9 -5 -26 -10 -37 -6 -11 -7 -19 -3 -18 4 1 18 1 31 0 20 -1 21 -4 12 -21 -6 -12 -8 -29 -5 -40 4 -12 0 -22 -12 -29 -26 -14 -10 -24 52 -29 l55 -4 0 35 c0 25 -5 37 -17 40 -15 4 -15 6 5 12 17 6 22 15 22 41 0 32 -2 34 -34 34 -34 0 -35 1 -38 43 -3 39 -5 42 -33 44 -16 2 -35 -3 -41 -10z"></path><path id="p12NdS4UQ2" d="M145 690 c-20 -38 -19 -40 10 -40 22 0 25 4 25 35 0 43 -14 45 -35 5z"></path><path id="pXfjNhHma" d="M750 620 c0 -6 15 -17 33 -25 17 -8 26 -14 19 -15 -7 0 -22 5 -33 10 -16 9 -19 7 -19 -10 0 -11 7 -20 15 -20 8 0 15 -4 15 -10 0 -5 11 -10 25 -10 25 0 32 -19 19 -53 -5 -13 -9 -13 -35 1 -16 10 -29 20 -29 25 0 4 -16 7 -35 7 -33 0 -35 -2 -35 -34 0 -31 -3 -34 -34 -38 -30 -3 -33 -2 -25 13 5 10 9 31 9 48 0 28 -3 31 -31 31 -17 0 -38 -8 -47 -17 -16 -16 -17 -16 -20 0 -3 13 -15 17 -57 17 -57 0 -65 -7 -65 -61 0 -38 11 -37 35 3 l19 33 8 -33 c5 -17 13 -32 18 -32 6 0 10 -7 10 -15 0 -17 5 -18 28 -6 15 8 18 5 17 -17 0 -31 41 -58 62 -40 8 7 13 7 13 0 0 -5 -10 -17 -22 -25 l-23 -16 27 0 c15 -1 30 4 33 10 5 6 23 8 49 3 40 -6 40 -6 24 12 -16 18 -15 19 24 21 48 1 53 5 38 33 -12 22 -12 22 11 6 13 -9 29 -16 37 -16 20 0 61 50 56 68 -2 9 2 4 11 -13 l15 -30 -3 55 c-2 51 -4 55 -27 58 -23 3 -25 7 -22 41 4 36 2 38 -28 45 -48 9 -80 7 -80 -4z"></path><path id="ptkpD1Ra2" d="M113 603 c-20 -7 -15 -48 7 -68 20 -18 20 -17 20 28 0 46 -3 50 -27 40z"></path><path id="pvqV6b1uX" d="M1152 465 c-15 -31 -16 -85 -2 -85 10 0 32 38 50 85 8 22 7 25 -14 25 -15 0 -27 -9 -34 -25z"></path><path id="p8IqhO1tz" d="M125 458 c10 -31 25 -47 25 -26 0 24 -11 48 -22 48 -5 0 -6 -10 -3 -22z"></path><path id="pOTcRQWWr" d="M186 424 c-3 -9 -6 -31 -6 -50 0 -27 4 -34 20 -34 17 0 20 7 20 50 0 36 -4 50 -14 50 -8 0 -17 -7 -20 -16z"></path><path id="pPsAYiDBE" d="M1077 343 c-4 -3 -7 -14 -7 -22 0 -9 -10 -21 -22 -26 -18 -8 -24 -19 -26 -50 l-2 -40 51 55 c71 77 77 90 41 90 -16 0 -32 -3 -35 -7z"></path></g></g><g id="l79CBFQCXn6MuHkusrDk08L" fill="rgb(100,151,63)" style="transform: none;"><g><path id="p14Cb6sfzn" d="M545 1223 c-73 -15 -175 -58 -175 -74 0 -14 67 -11 82 4 13 12 146 47 181 47 9 0 17 -4 17 -10 0 -5 9 -10 20 -10 11 0 20 -6 20 -14 0 -21 32 -28 113 -26 109 4 127 2 127 -15 0 -8 7 -15 15 -15 8 0 15 -4 15 -10 0 -5 7 -10 15 -10 8 0 15 -4 15 -10 0 -5 9 -10 20 -10 15 0 20 -7 20 -25 0 -14 -4 -25 -10 -25 -5 0 -10 -25 -10 -55 0 -42 3 -55 15 -55 8 0 15 -9 15 -20 0 -16 7 -20 35 -20 42 0 45 11 9 31 -23 12 -44 45 -44 69 0 11 29 40 41 40 5 0 9 -5 9 -10 0 -6 -6 -9 -12 -8 -15 4 -23 -41 -10 -54 16 -16 51 1 58 27 6 24 1 31 -70 106 -37 39 -121 98 -158 112 -10 3 -43 2 -73 -4 -64 -12 -83 -7 -126 28 -37 31 -63 34 -154 16z"></path><path id="pl4O3ww4s" d="M793 1203 c9 -2 25 -2 35 0 9 3 1 5 -18 5 -19 0 -27 -2 -17 -5z"></path><path id="pO2lOMizN" d="M261 1068 l-31 -33 24 -8 c29 -10 36 -25 25 -54 -12 -33 -26 -28 -21 7 5 32 -6 37 -40 19 -20 -11 -48 -65 -48 -94 0 -30 35 -15 52 23 13 30 16 33 17 15 1 -19 7 -23 35 -23 39 0 46 11 46 76 0 35 -4 44 -17 45 -11 0 -13 3 -5 6 14 5 17 53 3 53 -6 0 -24 -15 -40 -32z"></path><path id="p15jYfVbdr" d="M1143 896 c-30 -14 -29 -36 1 -36 23 0 25 -5 32 -67 5 -47 3 -68 -5 -71 -14 -5 -15 -72 -1 -72 14 0 13 -27 -1 -32 -14 -5 -2 -168 12 -168 4 0 13 10 20 21 8 16 8 41 -2 99 -11 69 -10 85 6 148 18 70 18 70 -5 131 -12 33 -25 60 -29 60 -3 -1 -16 -6 -28 -13z"></path><path id="p4TjBFpXl" d="M119 843 c-13 -33 -31 -154 -25 -160 11 -11 34 58 40 120 7 71 2 84 -15 40z"></path><path id="p10KF07j5p" d="M830 826 c0 -28 6 -38 34 -55 18 -12 43 -21 55 -21 15 0 21 -6 21 -22 0 -13 7 -32 15 -42 15 -20 20 -15 27 26 3 16 -76 98 -95 98 -6 0 -8 3 -5 6 18 18 121 -75 154 -138 28 -55 44 -61 44 -19 0 42 -9 61 -30 61 -19 0 -30 19 -30 51 0 14 -7 19 -29 19 -22 0 -30 6 -35 25 -4 16 -13 25 -26 25 -10 0 -22 5 -25 10 -3 6 -22 10 -41 10 -32 0 -34 -2 -34 -34z"></path><path id="pobU9D9OV" d="M375 828 c-30 -17 -55 -45 -55 -64 0 -9 -9 -18 -20 -21 -15 -4 -20 -14 -20 -39 0 -44 10 -43 39 4 13 20 36 47 52 60 31 25 39 24 13 -2 -10 -10 -11 -16 -4 -16 7 0 10 -7 6 -15 -3 -9 0 -15 9 -15 8 0 15 4 15 8 0 4 14 16 30 25 24 15 30 25 30 53 0 33 -1 34 -37 34 -21 0 -47 -6 -58 -12z"></path><path id="pPngya42I" d="M166 778 c-11 -42 -7 -58 14 -58 17 0 20 7 20 40 0 45 -23 57 -34 18z"></path><path id="p71g8O0qx" d="M480 695 c0 -33 2 -35 36 -35 32 0 34 -2 20 -15 -8 -8 -35 -18 -60 -21 -42 -6 -46 -5 -46 14 0 18 -3 19 -25 9 -30 -14 -33 -27 -5 -20 15 4 20 0 20 -15 0 -11 8 -23 18 -26 9 -2 1 -4 -18 -4 -58 1 -70 -1 -70 -17 0 -9 9 -15 23 -15 49 0 67 -11 67 -41 0 -22 -5 -29 -20 -29 -24 0 -35 -46 -35 -140 1 -87 10 -120 35 -120 15 0 20 -7 20 -25 0 -14 -4 -25 -10 -25 -5 0 -10 5 -10 10 0 6 -13 10 -29 10 -23 0 -30 5 -33 23 -2 15 -11 23 -30 25 -19 2 -28 10 -30 25 -2 16 -11 23 -30 25 -24 3 -28 8 -28 33 0 16 -4 29 -9 29 -5 0 -11 35 -13 77 -2 48 -8 78 -16 81 -7 2 -12 9 -12 15 0 6 -7 19 -17 29 -15 17 -15 18 10 18 24 0 27 4 27 35 0 28 -4 35 -20 35 -15 0 -20 7 -20 29 0 17 -4 33 -10 36 -5 3 -10 0 -10 -8 0 -8 -11 -26 -25 -41 -14 -15 -25 -29 -25 -32 0 -2 15 -4 33 -5 30 -1 30 -1 7 -8 -14 -4 -24 -14 -22 -21 2 -7 -2 -16 -9 -20 -7 -5 0 -20 24 -47 45 -50 55 -76 51 -133 -3 -40 1 -51 34 -92 43 -54 106 -108 171 -146 38 -22 58 -27 116 -27 39 0 78 -4 88 -9 14 -7 17 -3 17 18 0 23 -4 26 -35 26 -19 0 -35 -4 -35 -10 0 -5 -7 -10 -15 -10 -11 0 -15 11 -15 40 0 29 -4 40 -15 40 -8 0 -15 -7 -15 -16 0 -29 -27 4 -44 53 -22 63 -20 131 4 196 17 46 24 55 45 55 15 0 25 -6 25 -15 0 -12 2 -12 15 1 8 8 15 22 15 30 0 9 4 16 9 16 5 0 16 6 23 13 8 6 23 17 33 23 13 7 21 24 23 46 l3 35 -57 6 c-31 3 -58 8 -60 10 -3 2 0 16 5 31 10 24 8 26 -14 26 -22 0 -25 -4 -25 -35z m94 -86 c-6 -11 -66 -39 -81 -39 -7 1 76 48 85 50 2 0 0 -5 -4 -11z"></path><path id="pnbo12lyM" d="M1215 676 c-7 -33 1 -113 10 -104 6 6 9 128 2 134 -3 3 -9 -10 -12 -30z"></path><path id="pSapFotlE" d="M710 610 l0 -40 40 0 c36 0 40 -2 40 -25 0 -24 31 -65 49 -65 5 0 12 -6 14 -12 3 -7 6 1 7 17 1 29 1 29 16 10 8 -11 12 -25 9 -33 -2 -7 -1 -11 4 -8 5 3 14 -17 21 -44 13 -55 40 -70 40 -22 0 47 -29 132 -45 132 -8 0 -15 4 -15 10 0 5 23 12 50 16 32 4 50 11 50 20 0 8 -7 14 -15 14 -8 0 -15 5 -15 12 0 9 -3 9 -12 0 -7 -7 -21 -11 -33 -11 -16 1 -17 2 -2 6 9 2 17 9 17 14 0 5 7 9 15 9 8 0 15 5 15 10 0 6 -9 10 -19 10 -11 0 -23 -4 -26 -10 -10 -16 -115 -13 -115 4 0 17 -22 26 -61 26 -27 0 -29 -2 -29 -40z m114 -31 c-5 -9 -61 8 -69 21 -2 4 13 2 35 -3 21 -6 37 -14 34 -18z"></path><path id="pI6S0C3BO" d="M225 596 c-11 -68 -1 -88 43 -84 32 3 37 7 40 31 4 31 -4 34 -36 11 -22 -15 -23 -15 -16 13 4 15 11 38 15 51 7 19 5 22 -16 22 -20 0 -25 -6 -30 -44z"></path><path id="p4VJm6S38" d="M1082 565 c6 -30 7 -30 -34 -5 -42 26 -48 25 -48 -5 0 -18 7 -26 25 -31 14 -3 25 -10 25 -15 0 -5 16 -9 35 -9 35 0 35 0 35 45 0 39 -3 45 -21 45 -17 0 -20 -5 -17 -25z"></path><path id="p1BuDRX3ae" d="M120 484 c0 -11 7 -29 15 -40 14 -18 14 -18 10 3 -2 13 -8 31 -14 40 -10 17 -10 16 -11 -3z"></path><path id="pvix6Xtcx" d="M710 458 c0 -40 -6 -44 -59 -39 -34 3 -52 -6 -45 -24 6 -14 9 -14 30 0 63 41 -1 -27 -78 -84 -32 -23 -58 -46 -58 -52 0 -6 15 -9 33 -7 24 2 33 8 35 26 3 17 10 22 34 22 21 0 31 6 35 20 5 20 43 29 43 10 0 -5 16 -10 35 -10 31 0 35 -3 35 -25 0 -14 5 -25 10 -25 17 0 49 -38 56 -65 8 -32 -9 -32 -26 0 -15 29 -82 43 -133 28 -30 -8 -32 -12 -35 -62 -3 -45 0 -56 20 -73 19 -16 32 -19 72 -14 27 3 51 8 54 11 13 13 4 69 -13 81 -26 19 -74 18 -82 -2 -9 -23 11 -50 33 -46 15 2 16 1 5 -7 -17 -11 -49 6 -57 32 -8 25 13 47 46 47 44 0 58 -9 90 -56 l30 -43 53 21 c71 29 153 84 178 119 l20 29 -29 0 c-28 0 -62 -26 -62 -47 0 -6 -11 -13 -25 -15 -22 -5 -25 -2 -25 23 0 16 5 29 10 29 6 0 10 18 10 40 0 55 -27 55 -36 1 -3 -22 -17 -56 -29 -77 l-23 -38 -6 31 c-8 37 -35 66 -99 111 -31 20 -45 37 -41 45 4 6 4 9 -1 5 -10 -9 -35 10 -35 26 0 6 4 5 9 -3 6 -9 18 -11 40 -6 32 7 40 19 20 31 -6 3 -17 20 -25 38 l-13 31 -1 -37z m168 -295 c-10 -2 -26 -2 -35 0 -10 3 -2 5 17 5 19 0 27 -2 18 -5z"></path><path id="pwoRzRrVQ" d="M730 480 c0 -5 5 -10 11 -10 5 0 8 -4 5 -9 -3 -5 2 -15 12 -22 15 -13 16 -12 3 4 -17 22 -3 22 21 0 17 -15 18 -15 18 3 0 11 -5 25 -12 32 -15 15 -58 16 -58 2z"></path><path id="pxDKLZupt" d="M1120 385 c0 -16 -6 -25 -15 -25 -10 0 -15 -11 -15 -35 l0 -35 20 20 c22 22 60 80 60 93 0 4 -11 7 -25 7 -20 0 -25 -5 -25 -25z"></path></g></g><g id="l29huvIAKIpUQgnAp1mNNAm" fill="rgb(100,175,65)" style="transform: none;"><g><path id="p1CIDsbS8U" d="M305 1104 l-50 -44 38 0 c47 0 69 20 65 59 l-3 29 -50 -44z"></path><path id="p1FGUQMEHt" d="M1000 1088 c0 -58 13 -98 31 -98 10 0 21 5 24 10 3 6 13 10 21 10 8 0 14 -4 14 -10 0 -5 -7 -10 -15 -10 -20 0 -19 -15 2 -39 12 -15 21 -18 35 -10 25 13 23 34 -9 77 -31 40 -84 91 -95 92 -5 0 -8 -10 -8 -22z"></path><path id="pGug8iClo" d="M195 970 c-20 -38 -19 -40 9 -40 24 0 36 16 36 51 0 29 -28 23 -45 -11z"></path><path id="pjE0dR68W" d="M420 836 c0 -8 -14 -19 -30 -25 -31 -10 -49 -36 -35 -49 4 -4 10 -1 12 6 5 12 54 42 70 42 4 0 -5 -11 -21 -23 -31 -25 -42 -67 -25 -98 7 -14 17 -17 42 -13 25 3 28 3 12 -5 -26 -11 -52 -41 -36 -41 6 0 11 -9 11 -20 0 -13 7 -20 19 -20 11 0 22 -4 25 -9 3 -4 -12 -6 -34 -4 -54 6 -51 -12 3 -22 23 -4 36 -9 30 -12 -7 -3 -13 -16 -13 -30 l0 -26 21 27 c11 14 25 26 31 26 6 0 3 -9 -7 -20 -17 -18 -17 -20 -2 -14 11 4 17 1 17 -8 0 -8 9 -23 20 -33 19 -18 21 -17 39 3 27 32 32 27 15 -13 -15 -38 -12 -55 11 -55 7 0 15 -5 17 -11 2 -6 16 -1 32 12 26 21 30 21 41 6 7 -10 24 -16 43 -14 37 2 39 10 12 44 -23 29 -28 60 -7 44 52 -44 76 -61 82 -61 14 0 45 43 45 62 0 11 -5 29 -11 41 -7 15 -2 12 15 -8 l25 -30 1 27 c0 14 -6 29 -12 31 -7 3 -2 6 12 6 38 2 70 12 70 23 0 7 -17 9 -42 6 -38 -5 -40 -4 -15 5 15 6 27 14 27 19 0 4 7 8 15 8 8 0 15 5 15 10 0 6 -6 10 -14 10 -7 0 -19 7 -26 15 -11 13 -8 15 19 15 60 0 51 80 -15 120 -17 11 -35 20 -39 20 -4 0 -5 -20 -3 -45 6 -45 6 -45 -26 -45 -30 0 -32 -3 -33 -35 -1 -19 3 -35 8 -35 5 0 9 -4 9 -8 0 -5 -13 -7 -30 -4 -32 5 -67 -4 -57 -15 4 -3 30 -14 59 -24 32 -11 44 -18 30 -18 -12 -1 -39 6 -59 14 -45 19 -43 19 -43 -9 0 -15 7 -26 20 -29 11 -3 20 -10 20 -16 0 -14 -27 -14 -35 -1 -3 6 -24 10 -46 10 -35 0 -39 -2 -39 -26 0 -14 -4 -23 -10 -19 -5 3 -10 17 -10 31 0 21 -5 24 -37 25 -21 0 -56 6 -78 13 -32 10 -36 15 -22 21 9 4 17 13 17 21 0 8 -8 14 -17 14 -16 1 -16 2 -2 13 9 7 15 27 15 50 0 35 -2 37 -33 37 -18 0 -33 5 -33 10 0 6 5 10 10 10 6 0 10 9 10 20 0 11 5 20 10 20 6 0 10 16 10 35 0 33 -2 35 -35 35 -23 0 -35 -5 -35 -14z"></path><path id="p14cQABVkY" d="M952 783 c18 -16 38 -35 45 -43 11 -13 12 -13 13 1 0 24 -46 69 -70 69 -19 0 -18 -3 12 -27z"></path><path id="pEAaIMm3E" d="M107 783 c-10 -10 -8 -63 2 -63 11 0 21 25 21 51 0 19 -11 25 -23 12z"></path><path id="pIRePCbrR" d="M116 641 c-16 -18 -16 -19 6 -18 13 0 31 -3 41 -7 14 -7 17 -3 17 18 0 21 -5 26 -23 26 -13 0 -32 -9 -41 -19z"></path><path id="p11qPXGj33" d="M110 595 c-15 -18 -6 -46 20 -63 18 -11 20 -10 20 12 0 14 7 31 15 39 12 13 12 16 -8 21 -31 8 -33 8 -47 -9z"></path><path id="pOZGG6ovp" d="M1130 445 c-11 -45 -18 -56 -41 -64 -20 -7 -28 -17 -31 -38 -2 -22 -9 -29 -30 -31 -24 -3 -28 -8 -28 -36 0 -25 -5 -35 -20 -39 -15 -4 -20 -14 -20 -36 0 -27 2 -30 18 -22 50 28 160 159 191 226 45 96 45 95 7 95 -32 0 -33 -2 -46 -55z"></path><path id="pPEob8rqD" d="M187 388 c-6 -38 33 -103 89 -151 l34 -29 0 37 c0 28 -5 38 -19 42 -11 3 -22 16 -25 29 -4 13 -10 24 -15 24 -5 0 -12 18 -16 40 -9 52 -40 57 -48 8z"></path><path id="pTQYWmF0C" d="M640 378 l-24 -31 24 6 c14 4 36 7 50 7 22 1 23 2 8 11 -10 5 -18 17 -18 24 0 23 -13 17 -40 -17z"></path><path id="pE4TypxeY" d="M410 225 c0 -32 2 -35 30 -35 l29 0 -20 35 c-12 19 -25 35 -30 35 -5 0 -9 -16 -9 -35z"></path></g></g><g id="l7PDvK1SAyEYwK3yUuqsn0N" fill="rgb(114,166,82)" style="transform: none;"><g><path id="p2Q9tjEGJ" d="M505 1211 c-96 -28 -195 -87 -195 -116 0 -10 59 -5 66 6 11 19 144 78 190 85 34 5 44 11 44 25 0 24 -24 24 -105 0z"></path><path id="p1EdGhUDPV" d="M640 1214 c0 -25 26 -44 62 -44 l33 0 -32 30 c-35 33 -63 39 -63 14z"></path><path id="puAM1Jbhs" d="M746 1220 c6 -6 31 -14 55 -16 49 -5 30 8 -31 21 -27 5 -32 4 -24 -5z"></path><path id="pANkygnrL" d="M875 1184 c-5 -1 -27 -5 -47 -9 -25 -4 -38 -11 -38 -21 0 -12 9 -15 38 -13 38 3 112 -19 112 -33 0 -4 16 -8 35 -8 19 0 35 3 35 8 0 14 -118 81 -135 76z"></path><path id="p2TLN0HKO" d="M251 1055 c-18 -20 -20 -25 -7 -25 9 0 25 -9 36 -20 l20 -20 0 29 c0 33 -9 61 -19 61 -3 0 -17 -12 -30 -25z"></path><path id="pFxBCbQjR" d="M1050 1060 c10 -6 11 -10 3 -10 -7 0 -13 -5 -13 -11 0 -5 4 -8 9 -5 5 4 7 -3 4 -14 -4 -15 -2 -19 10 -14 9 3 22 2 29 -2 9 -6 6 -10 -12 -15 -23 -6 -22 -7 7 -8 l33 -1 -21 38 c-22 38 -36 52 -54 52 -5 0 -3 -5 5 -10z"></path><path id="p6VIUodiq" d="M229 1003 c-31 -7 -59 -84 -59 -165 0 -87 -19 -160 -52 -195 l-23 -25 22 6 c15 5 31 1 45 -10 l23 -16 -24 5 c-29 7 -60 -7 -57 -27 1 -7 17 -30 35 -51 36 -41 51 -74 51 -111 0 -19 5 -24 25 -24 22 0 25 4 25 35 0 19 -4 35 -9 35 -4 0 -12 15 -17 33 -8 26 -15 33 -42 35 -28 3 -32 7 -31 30 0 15 3 21 6 15 2 -7 20 -13 39 -13 31 0 34 -3 34 -30 0 -28 3 -30 35 -30 23 0 35 5 35 14 0 9 15 17 40 21 31 5 40 11 40 27 0 18 -4 20 -36 15 -20 -3 -44 -13 -54 -22 -25 -23 -32 -18 -25 18 17 78 98 198 152 226 28 14 28 14 30 -9 1 -11 -3 -20 -8 -20 -6 0 -7 5 -4 10 3 6 1 10 -5 10 -7 0 -10 -6 -7 -12 2 -7 17 -13 33 -13 27 0 29 3 32 43 3 40 2 42 -25 42 -48 0 -73 -11 -73 -31 0 -14 -7 -19 -25 -19 -16 0 -25 -6 -25 -15 0 -8 -7 -15 -15 -15 -9 0 -19 -8 -22 -17 -4 -10 -13 -24 -20 -31 -7 -7 -13 -22 -13 -33 0 -10 -4 -19 -10 -19 -5 0 -10 -11 -10 -25 0 -29 -6 -31 -26 -11 -7 8 -19 16 -24 18 -8 2 -8 12 0 33 7 17 14 74 17 128 l6 97 38 0 c37 0 39 1 38 33 0 17 -3 26 -6 20 -2 -7 -11 -13 -19 -13 -7 0 -11 6 -8 14 8 20 -8 43 -27 39z"></path><path id="pgsyZdhK" d="M1060 960 c0 -5 8 -14 19 -19 14 -8 23 -6 36 9 18 20 17 20 -18 20 -21 0 -37 -4 -37 -10z"></path><path id="pKbRRiKgh" d="M1020 915 c0 -19 5 -35 11 -35 6 0 17 -7 25 -15 9 -9 34 -15 58 -15 41 0 43 -1 55 -40 7 -25 8 -46 3 -57 -26 -49 -20 -259 8 -287 17 -17 34 39 21 75 -16 45 -14 122 5 185 15 52 15 57 -6 120 -16 47 -25 63 -33 55 -22 -22 -78 -13 -107 19 -15 17 -31 30 -34 30 -3 0 -6 -16 -6 -35z"></path><path id="pHwsyRG4U" d="M116 818 c-8 -29 -17 -73 -21 -98 -5 -42 -5 -44 9 -24 15 21 19 39 31 127 7 62 -1 60 -19 -5z"></path><path id="pA4siUGZS" d="M820 825 c0 -24 5 -35 15 -35 8 0 15 -4 15 -10 0 -5 7 -10 15 -10 8 0 15 -4 15 -10 0 -20 36 -10 37 10 1 11 -1 20 -5 20 -4 0 -18 10 -32 21 l-25 20 40 -16 c39 -16 70 -39 107 -80 23 -26 74 -131 83 -173 l7 -33 -41 25 c-50 32 -81 34 -81 6 0 -16 7 -20 30 -20 20 0 30 -5 30 -15 0 -20 56 -20 76 -1 16 16 19 76 4 76 -5 0 -10 11 -10 24 0 35 -10 56 -26 56 -9 0 -14 11 -14 30 0 17 -4 30 -10 30 -5 0 -10 6 -10 13 0 20 -46 57 -70 57 -13 0 -24 8 -27 19 -5 22 -31 31 -85 31 -37 0 -38 -1 -38 -35z"></path><path id="p10xESTvUV" d="M821 708 c5 -18 9 -34 9 -35 0 -2 -9 -3 -20 -3 -11 0 -20 -4 -20 -9 0 -5 -20 -6 -45 -3 l-45 5 0 -35 c0 -28 5 -37 25 -46 14 -7 32 -12 40 -12 10 0 15 -10 15 -28 0 -17 8 -32 21 -40 25 -16 37 -9 20 12 -9 11 -7 15 8 19 26 6 65 -50 82 -115 12 -50 39 -67 39 -24 0 45 -13 86 -26 86 -9 0 -14 11 -14 30 0 20 5 30 15 30 8 0 15 9 15 20 0 19 -5 20 -65 15 -49 -5 -73 -2 -100 11 -46 21 -46 37 0 18 33 -13 35 -13 35 5 0 15 10 20 46 26 42 6 44 8 27 20 -17 14 -17 14 2 16 11 1 26 0 34 -1 8 -1 12 4 8 13 -3 8 0 20 6 27 9 9 3 11 -27 8 -25 -2 -41 2 -44 10 -2 6 -14 12 -27 12 -22 0 -23 -2 -14 -32z"></path><path id="pu6xwGrhx" d="M1217 672 c-4 -20 -2 -51 2 -67 8 -25 9 -18 10 38 1 75 -3 86 -12 29z"></path><path id="pJYAJN2pE" d="M498 633 c-10 -2 -18 -9 -18 -14 0 -5 -7 -9 -15 -9 -8 0 -12 -6 -9 -14 3 -7 16 -12 28 -11 31 4 96 35 96 46 0 9 -51 10 -82 2z"></path><path id="pjnxVM3KG" d="M561 595 c-31 -22 -42 -24 -103 -19 -64 5 -68 4 -68 -16 0 -16 6 -20 35 -20 24 0 35 -5 35 -15 0 -9 -9 -15 -25 -15 -20 0 -25 -5 -25 -24 0 -13 -5 -26 -10 -28 -6 -2 -13 -40 -17 -86 -6 -77 -5 -82 14 -82 17 0 20 7 20 58 1 63 31 148 64 178 17 15 20 15 43 0 32 -20 36 -20 36 3 0 10 9 21 20 24 15 4 20 14 20 36 0 17 -1 31 -2 31 -2 -1 -18 -12 -37 -25z"></path><path id="p188LDQbnG" d="M830 595 c0 -8 6 -15 14 -15 7 0 19 7 26 15 11 13 8 15 -14 15 -16 0 -26 -5 -26 -15z"></path><path id="p10YvT7j5Y" d="M124 475 c4 -16 12 -34 17 -39 5 -6 5 4 -1 24 -12 42 -25 55 -16 15z"></path><path id="pZAskjWOe" d="M1108 389 c-10 -17 -18 -35 -18 -39 0 -5 8 -7 18 -4 14 5 14 4 2 -5 -8 -5 -11 -13 -7 -17 11 -11 48 29 50 54 1 12 5 22 9 22 4 0 8 5 8 10 0 24 -46 9 -62 -21z"></path><path id="pu8ZvN0kS" d="M629 367 c-26 -23 -63 -53 -83 -67 -40 -27 -66 -67 -66 -100 0 -20 -2 -19 -25 7 l-24 28 -1 -27 c0 -34 -35 -40 -43 -8 -3 11 -13 20 -24 20 -10 0 -23 10 -28 23 -6 12 -20 23 -33 25 -12 2 -22 10 -22 18 0 8 -10 14 -24 14 -19 0 -23 -4 -19 -20 3 -11 9 -20 14 -20 5 0 29 -19 54 -43 69 -66 127 -92 203 -88 55 2 68 -1 98 -24 31 -24 39 -25 94 -19 75 8 94 31 63 73 -24 31 -80 42 -89 17 -8 -20 13 -47 31 -40 7 3 16 1 20 -5 10 -17 -21 -24 -47 -10 -13 7 -30 12 -38 11 -10 -1 -11 1 -2 4 6 3 12 17 12 30 0 17 8 27 24 34 37 14 68 2 109 -43 33 -36 37 -39 37 -19 0 29 37 31 42 1 3 -20 5 -19 61 11 31 17 66 39 77 50 20 20 20 20 -15 20 -19 0 -35 -4 -35 -10 0 -5 -7 -10 -15 -10 -8 0 -15 3 -15 6 0 3 7 12 15 20 19 20 20 94 2 94 -8 0 -19 -19 -26 -42 -15 -49 -40 -90 -51 -83 -4 2 -10 18 -13 34 -6 28 -38 59 -131 126 -15 11 -31 28 -34 37 -6 14 -14 10 -53 -25z m61 -47 c0 -5 7 -10 15 -10 8 0 15 -4 15 -10 0 -5 9 -10 20 -10 11 0 20 -7 20 -15 0 -8 9 -15 20 -15 13 0 20 -7 20 -20 0 -11 5 -20 10 -20 6 0 10 -7 10 -15 0 -9 -9 -15 -25 -15 -14 0 -25 5 -25 11 0 20 -29 39 -59 39 -17 0 -31 -4 -31 -10 0 -5 -16 -12 -35 -16 -31 -5 -35 -10 -36 -38 0 -17 -3 -25 -6 -18 -3 7 -24 12 -54 12 -27 0 -49 5 -49 10 0 6 5 10 10 10 6 0 10 9 10 19 0 10 7 21 15 25 8 3 15 15 15 26 0 15 7 20 25 20 18 0 25 5 25 19 0 15 8 21 33 24 17 2 38 5 45 5 6 1 12 -2 12 -8z"></path><path id="pcZMpZMok" d="M190 361 c0 -5 6 -12 13 -14 9 -4 9 -6 -1 -6 -10 -1 -10 -4 2 -16 21 -22 26 -19 26 15 0 23 -4 30 -20 30 -11 0 -20 -4 -20 -9z"></path><path id="p1E5JYXmVu" d="M1060 295 l0 -35 21 21 c22 22 19 49 -6 49 -11 0 -15 -10 -15 -35z"></path></g></g><g id="lsYs8299LYhOZYha8PXcfp" fill="rgb(119,137,107)" style="transform: none;"><g><path id="p1ADLGKpq" d="M673 803 c60 -7 43 -28 -20 -26 -7 1 -13 -8 -13 -18 0 -15 7 -19 40 -19 39 0 40 1 40 35 0 35 0 35 -42 33 l-43 -1 38 -4z"></path><path id="p1Cm6ULUrA" d="M520 771 c-20 -5 -26 -14 -28 -44 -4 -45 7 -47 37 -6 16 21 28 28 39 24 10 -4 23 -9 30 -12 8 -3 12 4 12 21 0 23 -4 26 -32 25 -18 -1 -44 -4 -58 -8z"></path><path id="prspp75Hs" d="M760 760 c0 -13 5 -17 14 -14 8 3 24 -4 35 -15 l21 -21 0 35 c0 33 -2 35 -35 35 -28 0 -35 -4 -35 -20z"></path><path id="pAZxcRTo4" d="M595 697 c-7 -16 -22 -24 -50 -28 l-40 -5 28 -12 c16 -7 42 -12 58 -12 26 0 29 3 29 34 0 42 -12 53 -25 23z"></path><path id="pWbuHodJ8" d="M753 666 c2 -6 21 -12 41 -14 48 -4 39 14 -9 20 -22 2 -34 0 -32 -6z"></path></g></g><g id="l5lxqAwR9BjnQM5mqFD7a9b" fill="rgb(153,156,61)" style="transform: none;"><g><path id="p4fQo9FVw" d="M600 1155 c0 -28 4 -35 19 -35 11 0 23 -4 26 -10 4 -6 -8 -10 -28 -10 -37 0 -47 -12 -47 -56 0 -21 -3 -23 -26 -14 -14 6 -43 10 -65 10 -38 0 -39 -1 -39 -35 0 -27 4 -35 18 -35 11 0 29 -9 42 -20 13 -11 37 -20 57 -20 31 0 33 2 33 35 0 30 3 35 24 35 24 0 34 19 37 70 1 17 3 19 6 8 2 -10 8 -18 13 -18 5 0 12 -16 16 -35 5 -30 10 -35 35 -35 22 0 29 -5 29 -20 0 -11 7 -20 15 -20 8 0 15 -9 15 -20 0 -16 7 -20 35 -20 29 0 35 4 35 20 0 11 7 23 15 26 21 8 20 70 -1 78 -26 10 -79 7 -92 -6 -9 -9 -12 -5 -12 19 0 17 -6 38 -13 45 -8 7 -18 31 -23 53 l-10 40 -57 3 -57 3 0 -36z"></path><path id="pN4DGRtNh" d="M550 865 c0 -24 5 -35 15 -35 10 0 15 -10 15 -30 0 -16 -4 -30 -10 -30 -18 0 -10 -16 14 -30 14 -7 22 -18 19 -26 -3 -8 1 -14 11 -14 9 0 16 8 16 20 0 12 7 20 18 20 9 0 27 3 40 6 19 5 22 2 22 -20 0 -17 5 -26 16 -26 10 0 14 6 11 15 -4 9 5 18 28 27 41 14 47 38 10 38 -20 0 -25 5 -25 25 0 14 5 25 10 25 6 0 10 16 10 35 0 33 -2 35 -35 35 -32 0 -35 -2 -35 -31 0 -27 -19 -59 -35 -59 -16 0 -35 32 -35 59 0 29 -2 31 -40 31 -39 0 -40 -1 -40 -35z m160 -74 c0 -14 -35 -23 -64 -15 -41 10 -30 24 19 24 25 0 45 -4 45 -9z"></path><path id="pV2zbk2Tx" d="M490 665 c0 -33 2 -35 35 -35 28 0 35 4 35 20 0 15 -7 20 -25 20 -16 0 -25 6 -25 15 0 8 -4 15 -10 15 -5 0 -10 -16 -10 -35z"></path><path id="pbDem5wr6" d="M250 655 c0 -53 13 -46 48 28 2 4 -8 7 -22 7 -23 0 -26 -4 -26 -35z"></path><path id="p19W9bKKzn" d="M820 185 c0 -33 2 -35 35 -35 33 0 35 2 35 32 0 25 -3 29 -12 20 -16 -16 -28 -15 -28 3 0 8 -7 15 -15 15 -10 0 -15 -11 -15 -35z"></path></g></g><g id="l2SMY7ei9PwC5TZiQtqYaXp" fill="rgb(128,186,76)" style="transform: none;"><g><path id="piMhVzKyF" d="M403 1167 c-23 -12 -54 -33 -70 -47 -16 -14 -38 -30 -49 -36 -26 -15 -29 -41 -9 -64 20 -22 14 -64 -10 -74 -12 -4 -15 1 -13 21 2 19 -2 28 -14 31 -24 5 -58 -54 -58 -100 0 -36 2 -38 33 -38 21 0 38 7 47 20 8 11 25 20 37 20 19 0 23 5 23 34 0 19 -6 37 -12 39 -7 3 2 6 20 6 25 1 32 5 32 21 0 11 6 20 14 20 7 0 16 9 19 20 3 11 12 20 20 20 9 0 17 14 21 40 3 22 11 40 16 40 6 0 10 11 10 25 0 30 -3 30 -57 2z"></path><path id="pQHMAFIG7" d="M793 1173 c-35 -3 -43 -8 -43 -24 0 -16 7 -19 45 -19 41 0 45 2 45 25 0 14 -1 24 -2 23 -2 -1 -22 -3 -45 -5z"></path><path id="pWQlbFRwt" d="M896 1148 c-11 -42 -6 -73 14 -91 11 -9 25 -17 30 -17 6 0 10 -11 10 -25 0 -14 7 -28 15 -31 8 -4 15 -17 15 -30 0 -21 5 -24 33 -24 31 0 33 2 29 29 -3 21 2 33 19 45 18 12 25 13 31 3 5 -8 0 -13 -13 -15 -14 -3 -19 -10 -17 -25 4 -26 39 -35 57 -13 10 12 5 24 -24 65 -20 28 -43 51 -52 51 -8 0 -12 4 -9 9 7 11 -17 31 -75 65 -55 32 -55 32 -63 4z"></path><path id="pipfc4hiz" d="M1070 865 c0 -28 4 -35 20 -35 15 0 20 -7 20 -25 0 -14 4 -25 9 -25 5 0 11 -12 13 -27 3 -25 7 -28 38 -28 33 0 35 2 38 38 3 33 -23 137 -33 137 -2 0 -16 -5 -30 -12 -19 -8 -31 -8 -50 0 -24 11 -25 10 -25 -23z"></path><path id="pcCIutwGS" d="M420 840 c0 -13 -7 -20 -20 -20 -11 0 -20 -7 -20 -15 0 -17 11 -19 26 -6 5 5 19 12 31 15 20 6 21 5 10 -18 -7 -14 -16 -26 -20 -26 -5 0 -5 5 -2 10 3 6 2 10 -3 10 -9 0 -7 -89 2 -98 2 -2 18 -4 35 -4 37 -1 40 -11 7 -26 -22 -10 -24 -14 -15 -44 5 -18 9 -33 9 -34 0 -6 45 7 84 24 27 12 51 21 53 19 1 -2 -9 -14 -23 -28 -24 -22 -33 -24 -120 -23 -85 2 -94 0 -94 -16 0 -15 10 -19 66 -22 36 -1 68 0 71 5 2 4 12 7 21 6 9 0 12 -3 6 -5 -8 -3 -1 -17 17 -36 l28 -31 20 24 c18 21 20 21 21 6 0 -10 -5 -28 -12 -40 -9 -19 -9 -20 3 -11 17 14 59 1 59 -18 0 -8 5 -5 11 5 7 12 17 16 30 12 20 -7 20 -6 4 24 -17 35 -9 40 21 13 28 -27 55 -35 47 -15 -5 13 -1 15 20 9 30 -7 44 8 27 29 -10 12 -10 15 1 15 11 0 11 2 -1 10 -13 8 -13 10 -1 10 8 0 25 -10 38 -22 20 -18 23 -19 23 -5 0 13 9 17 40 17 33 0 40 3 40 20 0 18 -5 19 -73 14 -77 -7 -139 10 -151 41 -3 9 12 6 47 -11 64 -29 65 -29 101 2 l30 26 -25 19 c-17 13 -20 19 -8 19 8 0 25 10 37 23 23 24 30 43 12 32 -8 -5 -15 22 -11 47 0 4 -16 19 -37 34 -36 26 -36 26 -8 19 17 -3 42 -15 58 -26 l28 -20 0 30 0 31 -70 0 -70 0 0 -29 c0 -16 4 -41 10 -55 6 -17 6 -26 0 -26 -17 0 -11 -19 12 -42 16 -16 17 -20 5 -15 -9 3 -17 3 -17 -2 0 -5 -18 -5 -40 -1 -22 4 -40 3 -40 -1 0 -5 -13 -9 -30 -9 -28 0 -30 -3 -30 -35 0 -22 6 -38 18 -44 13 -8 2 -10 -45 -11 -62 0 -87 16 -43 27 15 4 20 14 20 40 l0 34 -62 -3 -62 -3 -3 63 c-2 35 2 62 7 62 6 0 10 16 10 35 l0 35 -55 0 c-48 0 -55 -2 -55 -20z"></path><path id="pM5Wzt1O7" d="M105 769 c-6 -28 -1 -48 10 -37 3 2 8 19 11 36 8 42 -12 43 -21 1z"></path><path id="pJM0vc6rR" d="M1030 705 c0 -14 32 -65 40 -65 6 0 10 16 10 35 0 31 -3 35 -25 35 -14 0 -25 -2 -25 -5z"></path><path id="pVGxYCsPY" d="M1150 674 c0 -28 3 -35 18 -32 11 2 18 14 20 36 3 27 0 32 -17 32 -17 0 -21 -6 -21 -36z"></path><path id="p14LuCydY6" d="M150 688 c0 -8 -9 -24 -20 -36 -16 -17 -17 -22 -6 -22 21 0 66 -21 66 -31 0 -5 -12 -4 -26 1 -33 13 -66 -3 -57 -28 3 -9 21 -33 40 -53 25 -27 36 -49 42 -89 5 -30 6 -60 4 -67 -3 -7 0 -13 6 -13 6 0 10 -4 8 -9 -3 -13 22 -49 58 -84 45 -43 126 -107 136 -107 14 0 11 68 -3 73 -7 3 -3 6 10 6 23 1 26 10 16 48 -4 16 -15 23 -38 25 -23 2 -32 8 -34 25 -2 14 -11 23 -25 25 -17 2 -23 11 -25 38 -2 20 -12 40 -23 48 -13 9 -19 25 -19 53 0 25 -7 46 -18 57 -11 11 -22 36 -25 57 -3 21 -10 41 -15 44 -6 3 -11 15 -13 26 -5 23 -39 34 -39 13z"></path><path id="pBVTbqZOi" d="M1120 600 c0 -11 -7 -23 -15 -26 -8 -4 -15 -15 -15 -26 0 -19 -1 -20 -25 -4 -25 16 -25 16 -25 -13 0 -42 -9 -61 -31 -61 -13 0 -19 -7 -19 -22 0 -50 -11 -68 -41 -68 -28 0 -29 -1 -29 -52 -1 -29 -7 -64 -15 -78 -22 -38 -19 -69 7 -79 35 -13 55 -2 124 65 45 44 63 70 61 85 -1 12 4 23 11 25 7 1 8 0 2 -3 -12 -6 -13 -23 -2 -23 5 0 17 18 28 40 10 22 23 40 28 40 4 0 5 7 2 16 -4 10 -2 13 6 8 8 -5 9 2 4 22 -4 18 -3 24 2 16 16 -24 23 17 16 90 l-7 68 -33 0 c-28 0 -34 -4 -34 -20z"></path><path id="p12I225w5F" d="M380 380 c0 -45 23 -57 34 -17 11 41 7 57 -14 57 -17 0 -20 -7 -20 -40z"></path><path id="pTe9pl1CW" d="M651 382 c-18 -26 -19 -32 -7 -32 9 0 16 -4 16 -10 0 -5 17 -10 37 -10 l37 0 -26 28 c-14 15 -27 33 -30 41 -3 10 -11 5 -27 -17z"></path><path id="pLMPFtkqg" d="M690 226 c0 -8 12 -17 28 -21 15 -3 37 -16 50 -27 l22 -21 0 35 c0 40 -11 48 -66 48 -22 0 -34 -5 -34 -14z"></path><path id="pjWYz0V4f" d="M480 198 c-1 -22 -1 -23 -15 -4 -14 19 -15 18 -15 -12 0 -30 2 -32 35 -32 33 0 35 2 35 35 0 28 -4 35 -20 35 -14 0 -20 -7 -20 -22z"></path><path id="p1BcsPkNpX" d="M690 175 c0 -8 -5 -15 -12 -15 -9 0 -9 -3 0 -12 7 -7 20 -13 29 -13 9 0 18 -6 20 -12 8 -24 -45 -14 -65 12 -26 33 -32 32 -32 -10 0 -39 3 -40 84 -29 44 6 46 8 46 40 0 23 -6 37 -19 44 -28 15 -51 12 -51 -5z"></path></g></g><g id="l7NYxUmVonodSlhWpDUenh0" fill="rgb(136,187,103)" style="transform: none;"><g><path id="pYNU7RYWc" d="M533 1216 c-65 -16 -174 -68 -170 -81 2 -5 18 -11 35 -13 24 -2 32 1 32 12 0 9 9 16 21 16 11 0 30 5 42 12 24 13 177 17 177 5 0 -21 74 -38 133 -32 36 4 68 3 81 -3 11 -6 46 -18 76 -27 30 -9 62 -18 70 -21 8 -3 2 6 -14 21 -15 14 -41 29 -57 32 -16 3 -27 9 -24 13 9 14 -54 32 -87 25 -64 -13 -101 -7 -145 24 -48 34 -83 38 -170 17z"></path><path id="pTPjvCxvQ" d="M756 1220 c5 -5 25 -12 44 -15 l35 -5 -35 14 c-42 18 -58 20 -44 6z"></path><path id="pQadLN5Of" d="M273 1078 c-20 -26 -21 -45 -2 -56 25 -16 24 -47 -1 -72 -29 -29 -25 -40 16 -40 l35 0 -3 65 c-2 42 -7 66 -16 70 -7 3 -11 8 -8 13 2 4 1 14 -3 20 -6 10 -10 10 -18 0z"></path><path id="pu6eY1KNw" d="M1055 1041 c0 -17 5 -31 12 -31 21 0 23 17 5 39 l-17 22 0 -30z"></path><path id="pcMzN91gS" d="M220 989 c0 -5 4 -8 9 -5 5 4 11 0 14 -6 2 -7 8 -10 12 -6 4 4 4 11 0 17 -8 14 -35 14 -35 0z"></path><path id="pSpVGlRFT" d="M1000 976 c0 -57 13 -116 26 -116 8 0 14 -4 14 -10 0 -11 89 -14 116 -3 16 6 16 7 -2 14 -17 7 -17 8 4 8 12 1 22 -4 22 -11 0 -6 2 -9 5 -6 4 3 3 17 0 31 -7 25 -7 25 -35 9 -28 -16 -31 -16 -64 2 -33 18 -46 39 -46 81 0 14 -7 21 -20 22 -15 1 -20 -4 -20 -21z"></path><path id="ph2VCIhIA" d="M1062 968 c2 -15 11 -24 27 -26 23 -4 23 -3 7 14 -14 13 -15 19 -4 25 9 6 6 9 -10 9 -19 0 -23 -5 -20 -22z"></path><path id="pO5U7AqKt" d="M178 893 c-1 -16 -2 -52 -3 -81 -3 -61 -24 -143 -39 -155 -10 -7 41 1 55 9 6 3 17 91 25 202 3 46 2 52 -16 52 -15 0 -20 -7 -22 -27z"></path><path id="pVX8kDihu" d="M810 829 c0 -20 8 -38 23 -50 24 -20 42 -25 32 -9 -3 6 1 13 9 16 21 8 10 25 -12 18 -13 -5 -14 -4 -3 4 11 8 11 11 0 16 -8 3 0 4 16 1 17 -4 49 -20 73 -36 l42 -30 0 30 c0 29 -3 31 -35 31 -28 0 -35 4 -35 20 0 18 -7 20 -55 20 -55 0 -55 0 -55 -31z"></path><path id="pOf8t4Sky" d="M111 790 c-7 -36 -15 -74 -18 -85 -4 -19 -4 -19 11 -1 15 19 32 114 24 137 -2 7 -10 -16 -17 -51z"></path><path id="pbbh0FPMY" d="M400 824 c0 -14 3 -24 8 -22 73 35 80 48 27 48 -31 0 -35 -3 -35 -26z"></path><path id="p13duPDaRq" d="M1157 808 c3 -18 11 -39 17 -47 8 -11 8 -13 0 -8 -14 8 -25 -69 -23 -149 1 -49 2 -51 19 -34 13 13 17 31 16 62 -2 23 3 58 10 77 16 39 18 99 4 121 -8 13 -10 13 -10 -2 0 -9 -5 -20 -11 -24 -8 -4 -9 0 -4 15 4 15 2 21 -9 21 -12 0 -14 -7 -9 -32z"></path><path id="pDZbjdxMe" d="M475 800 c-3 -11 -4 -24 -1 -29 4 -5 0 -12 -6 -14 -8 -3 -6 -6 5 -6 13 -1 17 7 17 34 0 39 -6 45 -15 15z"></path><path id="p14cdv7ufz" d="M821 715 c24 -40 39 -38 39 6 0 26 -4 29 -30 29 l-29 0 20 -35z"></path><path id="pTo9KCAZd" d="M1223 645 c0 -33 2 -45 4 -27 2 18 2 45 0 60 -2 15 -4 0 -4 -33z"></path><path id="p1hFkx0RX" d="M230 614 c0 -44 18 -42 37 4 13 31 12 32 -12 32 -22 0 -25 -4 -25 -36z"></path><path id="poNtmnp1J" d="M509 624 c-5 -15 -8 -28 -6 -30 6 -6 87 38 87 47 0 5 -16 9 -35 9 -29 0 -37 -5 -46 -26z"></path><path id="pBQhUn33y" d="M1078 590 c9 -27 13 -52 9 -56 -3 -3 -18 3 -32 15 -32 25 -82 35 -124 26 -48 -10 -38 -32 17 -38 95 -11 112 -17 112 -43 0 -26 18 -31 51 -13 18 9 20 17 14 67 -10 83 -13 92 -40 92 l-23 0 16 -50z"></path><path id="p1FOW4narP" d="M569 595 c-8 -8 -39 -19 -69 -25 -30 -6 -61 -18 -67 -27 -14 -18 -18 -83 -5 -82 4 0 21 19 37 41 37 51 89 70 111 41 12 -16 13 -14 14 25 0 47 0 48 -21 27z"></path><path id="p16DyZwQFy" d="M314 569 c-17 -5 -39 -18 -49 -29 -18 -20 -18 -20 18 -20 21 0 37 5 37 10 0 6 23 10 50 10 36 0 50 4 50 14 0 24 -51 31 -106 15z"></path><path id="p1HcSvYt56" d="M167 519 c-4 -15 -2 -19 9 -15 16 6 18 -6 14 -72 -1 -23 2 -41 7 -40 15 5 71 -35 76 -54 3 -10 -3 -28 -13 -40 -17 -22 -17 -23 29 -64 35 -32 49 -39 59 -31 11 9 13 7 10 -8 -5 -31 76 -70 125 -61 34 6 37 10 37 41 0 19 5 37 10 40 6 3 10 15 10 26 0 12 7 19 20 19 11 0 23 7 26 15 4 8 12 15 20 15 9 0 14 11 14 30 l0 31 -42 -29 c-63 -44 -91 -77 -92 -112 -1 -16 -5 -29 -11 -27 -15 5 -52 87 -59 129 -8 46 -31 51 -40 7 -10 -53 -7 -69 19 -93 33 -31 32 -43 -1 -17 -15 12 -33 21 -41 21 -8 0 -12 4 -8 9 3 5 1 12 -5 16 -5 3 -10 -1 -10 -9 0 -21 -13 -20 -41 3 l-24 20 28 26 c17 17 27 36 27 55 0 29 -2 30 -42 30 -33 0 -39 3 -30 12 28 28 1 98 -36 98 -7 0 -12 11 -12 25 0 30 -25 34 -33 4z m79 -110 c8 -14 -10 -11 -32 6 -18 13 -18 14 4 8 12 -3 25 -9 28 -14z"></path><path id="p13PxoVOZD" d="M1178 532 c-10 -2 -18 -10 -18 -18 0 -16 9 -18 29 -5 18 12 10 28 -11 23z"></path><path id="p11g0NOVRk" d="M916 408 c6 -37 7 -65 1 -150 -1 -9 -4 -15 -8 -12 -4 2 -10 -4 -14 -15 -3 -10 -14 -26 -25 -36 -19 -18 -20 -17 -20 9 0 39 -23 68 -90 115 l-60 42 0 -30 c0 -20 5 -31 14 -31 8 0 16 -7 20 -15 3 -8 12 -15 21 -15 8 0 15 -4 15 -10 0 -5 9 -10 20 -10 11 0 20 -7 20 -15 0 -11 -12 -15 -45 -15 -25 0 -45 5 -45 10 0 6 -16 10 -35 10 -19 0 -35 -4 -35 -9 0 -5 -13 -11 -30 -14 -21 -5 -30 -12 -30 -27 0 -15 -7 -20 -25 -20 -16 0 -25 -6 -25 -15 0 -8 5 -15 11 -15 5 0 27 -11 47 -25 26 -18 38 -21 41 -13 2 7 8 16 13 19 5 3 5 17 -1 32 -12 31 2 45 52 54 29 4 38 1 66 -28 17 -19 34 -42 37 -51 3 -10 12 -18 19 -18 25 0 104 43 98 53 -3 6 -2 8 3 5 13 -8 54 9 54 22 0 6 -3 9 -7 7 -5 -3 -18 -1 -30 4 -23 8 -22 35 0 50 13 9 20 103 12 155 -5 35 -10 44 -26 44 -19 0 -20 -4 -13 -42z"></path><path id="p16fl3EM1a" d="M680 175 c-17 -20 3 -45 30 -38 22 6 29 -22 8 -30 -23 -8 1 -20 27 -13 20 5 25 13 25 36 0 47 -62 79 -90 45z"></path></g></g><g id="l3AnFbHjP7gEHscsGSqrdHf" fill="rgb(173,175,80)" style="transform: none;"><g><path id="p1CBGwff3y" d="M591 1152 c2 -42 -1 -56 -14 -64 -10 -5 -17 -22 -17 -41 0 -22 -3 -28 -9 -18 -5 7 -29 16 -55 18 l-46 6 0 -37 c0 -20 5 -36 10 -36 6 0 10 -10 10 -22 0 -46 12 -51 86 -42 69 9 69 9 75 44 3 19 11 46 18 59 18 32 34 14 41 -47 5 -46 6 -47 43 -50 46 -4 49 -20 5 -24 -28 -2 -34 -8 -36 -30 -3 -25 -8 -28 -38 -28 -30 0 -34 3 -34 25 0 23 -4 25 -40 25 -22 0 -40 -4 -40 -10 0 -5 -20 -10 -45 -10 -38 0 -45 -3 -45 -20 0 -14 7 -20 23 -21 12 0 16 -3 10 -6 -27 -10 -11 -23 27 -23 22 0 40 5 40 10 0 6 15 10 33 9 17 0 26 -3 20 -6 -7 -2 -13 -18 -13 -34 0 -16 -4 -29 -10 -29 -5 0 -10 7 -10 15 0 10 -11 15 -35 15 -33 0 -35 -2 -35 -35 l0 -35 20 20 c23 23 33 24 60 10 16 -9 17 -15 9 -39 -8 -23 -17 -31 -42 -33 -21 -2 -33 -9 -35 -20 -6 -33 84 -18 110 17 4 6 8 25 8 43 0 22 5 32 15 32 28 0 15 28 -15 35 -47 10 -35 25 20 25 28 0 50 5 50 10 0 6 16 10 35 10 32 0 35 2 35 30 0 26 3 30 29 30 29 0 41 14 41 51 0 12 9 21 25 25 21 5 25 12 25 44 0 34 -3 38 -31 44 -48 9 -77 7 -81 -6 -6 -18 -38 15 -38 38 0 9 -5 34 -12 55 -9 30 -16 39 -33 39 -14 0 -25 8 -28 20 -4 16 -13 20 -47 18 l-41 -1 2 -55z m97 -17 c3 -18 3 -19 -10 -3 -7 9 -22 19 -33 21 -12 3 -8 5 10 4 21 -1 31 -8 33 -22z m139 -137 c0 -7 -11 -14 -24 -14 -22 -2 -23 -1 -6 12 23 17 30 17 30 2z"></path><path id="ppD2FssjF" d="M790 835 c0 -32 2 -35 29 -35 32 0 50 15 29 23 -8 3 -6 6 5 6 10 1 17 9 17 21 0 17 -7 20 -40 20 -39 0 -40 -1 -40 -35z"></path><path id="pOef7pih2" d="M698 729 c2 -27 8 -49 13 -49 5 0 9 -9 9 -20 0 -16 7 -20 35 -20 39 0 46 14 14 30 -33 18 -41 52 -16 72 26 20 23 23 -23 31 l-35 5 3 -49z"></path><path id="pZQFOptv8" d="M770 204 c0 -14 4 -23 10 -19 6 3 10 -1 10 -9 0 -10 9 -16 25 -16 22 0 25 4 25 35 0 33 -2 35 -35 35 -31 0 -35 -3 -35 -26z"></path></g></g><g id="l43nteQnTY8kLBYJOAlsaXq" fill="rgb(151,193,90)" style="transform: none;"><g><path id="pwh3sO2Gu" d="M540 1211 c-84 -19 -144 -47 -134 -62 3 -6 -4 -7 -20 -3 -31 8 -35 -10 -6 -28 25 -16 26 -28 2 -21 -13 3 -18 -2 -19 -18 -2 -27 -2 -27 -38 -31 -19 -2 -30 2 -30 10 0 6 -4 12 -10 12 -12 0 -15 -39 -4 -46 5 -3 9 -26 8 -52 0 -26 -3 -42 -5 -36 -11 26 -97 -16 -99 -48 -14 -153 -18 -185 -27 -195 -5 -7 -7 -21 -3 -33 5 -15 2 -20 -12 -20 -11 -1 -6 -6 15 -15 17 -8 32 -21 32 -30 0 -12 -4 -14 -19 -5 -34 18 -37 11 -7 -15 16 -14 24 -25 18 -25 -7 0 -12 -12 -12 -26 0 -14 4 -23 9 -20 5 4 12 -7 16 -23 3 -17 23 -45 43 -63 21 -18 28 -28 17 -24 -11 4 -26 10 -32 13 -29 12 -10 -17 25 -38 20 -12 39 -24 41 -25 2 -2 -7 -17 -19 -33 -30 -44 -15 -56 22 -18 27 28 30 29 25 10 -3 -13 -1 -23 4 -23 5 0 9 -12 9 -26 0 -22 -3 -24 -22 -18 -21 6 -20 4 4 -15 15 -12 32 -19 38 -16 5 3 10 -1 10 -10 0 -18 59 -57 78 -50 6 2 12 0 12 -5 0 -6 7 -10 15 -10 8 0 15 3 15 8 0 4 29 5 65 4 36 -2 63 -7 60 -12 -12 -19 28 -40 76 -40 63 0 89 13 89 45 0 33 -51 61 -79 43 -26 -16 -11 -49 19 -41 14 4 20 0 20 -11 0 -17 -35 -22 -56 -8 -12 8 -34 46 -34 60 0 12 46 32 73 32 13 0 33 -7 45 -16 12 -8 22 -12 23 -7 1 4 5 -3 9 -17 6 -19 8 -13 9 29 l1 54 -52 -7 c-29 -3 -65 -6 -80 -6 -15 0 -34 -7 -43 -16 -20 -20 -85 -11 -85 12 0 10 -8 14 -22 12 -18 -2 -24 -11 -26 -36 -2 -20 -8 -32 -15 -29 -18 6 -55 77 -62 119 -4 21 -11 38 -16 38 -5 0 -9 16 -9 35 0 29 -4 35 -20 35 -11 0 -23 7 -26 15 -3 8 -14 17 -25 20 -14 5 -19 16 -19 46 0 32 3 39 20 39 13 0 20 7 20 20 0 26 -24 26 -61 -1 l-29 -20 0 30 c0 17 -4 31 -10 31 -5 0 -10 9 -10 20 0 11 5 20 10 20 16 0 11 62 -6 75 -15 10 -15 13 0 27 9 9 16 30 16 47 0 20 5 31 14 31 7 0 16 13 19 29 4 18 14 32 27 36 13 4 20 15 20 31 0 15 6 24 15 24 8 0 15 4 15 8 0 5 9 17 19 29 11 11 21 31 23 44 2 18 12 26 41 33 24 6 37 15 37 26 0 17 30 37 65 42 11 2 21 12 23 24 2 13 16 25 37 33 27 9 35 18 35 37 0 28 -1 28 -100 5z"></path><path id="p12ImdeZP2" d="M650 1185 c0 -15 6 -25 14 -25 7 0 19 -7 26 -15 7 -8 34 -15 68 -17 54 -3 57 -4 66 -35 5 -18 15 -33 22 -33 8 0 14 -4 14 -9 0 -5 9 -11 20 -14 14 -3 20 -14 20 -31 0 -19 5 -26 20 -26 11 0 20 -7 20 -15 0 -8 6 -15 14 -15 8 0 17 -11 20 -25 4 -14 13 -25 20 -25 9 0 17 -17 21 -50 6 -40 11 -50 26 -50 12 0 19 -7 19 -18 0 -11 10 -24 23 -30 12 -6 16 -11 10 -11 -15 -1 -18 -71 -3 -71 6 0 10 -7 10 -15 0 -8 -5 -15 -11 -15 -7 0 -8 -18 -4 -55 8 -58 3 -64 -29 -40 -25 19 -36 19 -36 1 0 -8 -9 -21 -20 -29 -14 -10 -22 -30 -27 -66 -4 -39 -10 -51 -23 -51 -14 0 -18 -13 -23 -77 -3 -42 -10 -79 -15 -82 -4 -3 -11 -14 -15 -23 -7 -20 -47 -44 -47 -28 0 5 -4 10 -10 10 -5 0 -10 -18 -10 -40 0 -29 4 -40 15 -40 8 0 15 5 15 10 0 6 9 10 19 10 11 0 26 6 33 13 7 8 26 17 41 21 15 3 27 11 27 17 0 6 -3 8 -7 6 -5 -3 -18 -1 -30 4 -26 9 -22 33 10 61 11 10 15 18 9 18 -7 0 -12 5 -12 10 0 6 7 10 15 10 8 0 15 5 15 11 0 6 9 9 19 6 17 -4 19 -1 14 29 -4 22 -2 34 6 34 6 0 11 9 11 20 0 27 18 25 30 -3 7 -17 8 -13 5 19 -4 40 -4 41 45 64 28 13 53 21 56 17 6 -6 34 16 34 27 0 3 -13 6 -30 6 -34 0 -37 5 -16 26 11 10 15 11 19 1 2 -6 5 16 6 51 1 35 8 81 15 102 7 21 10 44 5 51 -4 8 -3 16 3 20 6 4 8 15 4 24 -5 13 -9 15 -20 6 -10 -9 -15 -8 -20 4 -3 9 -2 13 4 10 6 -3 10 -1 10 4 0 6 -8 11 -17 11 -15 0 -16 2 -3 10 13 8 12 10 -3 10 -10 0 -15 5 -12 10 3 6 0 10 -9 10 -8 0 -16 -6 -19 -12 -3 -10 -7 -10 -19 -1 -8 7 -18 9 -22 5 -4 -4 -6 0 -4 8 2 9 -4 15 -13 14 -16 -1 -21 15 -20 79 0 15 -4 25 -9 22 -6 -4 -10 -2 -10 3 0 5 -9 12 -20 15 -11 3 -20 11 -20 17 0 10 3 10 15 0 10 -9 15 -9 15 -1 0 6 -5 11 -10 11 -6 0 -15 11 -20 25 -6 15 -17 25 -29 25 -11 0 -23 5 -27 11 -5 9 7 10 42 5 l49 -7 -30 20 c-16 12 -34 21 -39 21 -6 0 -20 9 -32 21 -20 19 -27 20 -72 10 -59 -12 -98 -7 -134 19 -38 28 -58 26 -58 -5z"></path><path id="pSAIsK5im" d="M478 859 c-14 -6 -29 -16 -31 -24 -5 -10 1 -11 26 -4 42 12 69 10 35 -2 -27 -10 -44 -40 -34 -58 4 -5 0 -12 -6 -14 -10 -4 -10 -6 0 -6 6 -1 12 -12 12 -26 0 -18 5 -25 19 -25 20 0 34 30 31 68 -1 16 5 25 19 29 16 4 21 13 21 39 0 32 -2 34 -32 33 -18 0 -45 -5 -60 -10z"></path><path id="pq04lJgmx" d="M760 835 c0 -31 3 -35 25 -35 20 0 25 -5 25 -24 0 -13 7 -39 15 -59 8 -19 11 -38 7 -42 -4 -5 -1 -5 6 -1 7 4 10 12 7 17 -3 5 1 6 10 2 14 -5 16 1 14 39 -2 24 1 49 5 56 4 8 1 12 -10 12 -10 0 -14 3 -10 7 3 4 -4 13 -16 20 -22 12 -21 12 10 7 20 -4 32 -3 32 5 0 6 -11 11 -25 11 -14 0 -25 5 -25 10 0 6 -16 10 -35 10 -33 0 -35 -2 -35 -35z"></path><path id="pFWPj8wJd" d="M360 800 l0 -30 35 22 c44 29 44 38 0 38 -32 0 -35 -2 -35 -30z"></path><path id="pPEyC4MnQ" d="M120 794 c0 -11 -5 -25 -12 -32 -9 -9 -9 -15 -1 -23 7 -7 12 0 17 26 4 20 5 40 2 43 -3 3 -6 -4 -6 -14z"></path><path id="pf4BXvjCg" d="M1032 695 c29 -44 38 -44 38 0 0 32 -2 35 -30 35 l-30 0 22 -35z"></path><path id="pUjYbz4Jn" d="M740 668 c0 -25 -4 -28 -35 -28 -30 0 -35 -3 -35 -24 0 -20 -16 -36 -36 -36 -2 0 -4 15 -4 33 0 52 -10 58 -74 53 -36 -4 -55 -2 -51 4 3 6 -1 7 -9 4 -21 -8 -20 -20 0 -28 10 -4 14 -14 11 -25 -4 -16 -1 -18 23 -11 15 4 37 13 48 19 35 19 37 12 7 -19 -25 -26 -27 -32 -17 -55 7 -16 19 -25 30 -24 9 1 28 -3 42 -9 18 -7 28 -7 35 1 6 7 28 13 49 14 38 2 89 32 56 34 -14 0 -69 59 -55 59 3 0 22 -7 43 -15 24 -10 38 -12 40 -5 2 5 10 10 17 10 8 0 16 4 19 8 10 16 -12 33 -49 37 -22 3 -43 11 -47 18 -5 7 -8 2 -8 -15z"></path><path id="pgnBlndAY" d="M928 573 c-10 -2 -18 -11 -18 -19 0 -10 13 -14 45 -14 32 0 45 4 45 14 0 11 -33 28 -50 25 -3 -1 -13 -3 -22 -6z"></path><path id="p1HscE5jqC" d="M450 550 c0 -13 7 -20 18 -20 11 0 27 9 37 20 18 20 17 20 -18 20 -30 0 -37 -4 -37 -20z"></path><path id="pg8wsS91o" d="M804 559 c-4 -8 -3 -9 5 -5 7 5 26 -7 47 -28 20 -20 38 -36 41 -36 2 0 3 17 1 38 -3 36 -4 37 -45 40 -24 2 -44 -2 -49 -9z"></path><path id="pyOLrE512" d="M400 454 c0 -44 18 -42 37 4 13 31 12 32 -12 32 -22 0 -25 -4 -25 -36z"></path><path id="p5vK99Uhh" d="M620 353 l-45 -43 38 0 c26 0 37 4 37 15 0 8 5 15 10 15 6 0 10 -4 10 -10 0 -5 17 -10 38 -10 l37 0 -32 31 c-18 16 -33 34 -33 40 0 16 -13 7 -60 -38z"></path></g></g><g id="l2iX5xGGIge3dfW6MpWmb6D" fill="rgb(190,186,90)" style="transform: none;"><g><path id="pJQcUlV6b" d="M583 1111 c2 -87 -4 -102 -28 -77 -10 10 -33 16 -60 16 -65 0 -75 -7 -75 -51 0 -32 3 -39 20 -39 13 0 24 -10 30 -27 6 -16 15 -36 20 -45 9 -15 6 -18 -15 -18 -19 0 -25 -5 -25 -21 0 -19 4 -21 33 -15 17 4 34 11 35 16 2 6 15 10 28 10 19 0 24 5 24 24 0 18 7 25 30 30 27 5 30 10 30 41 0 43 35 90 46 62 7 -20 44 -23 44 -4 0 6 -11 39 -25 72 -19 49 -28 60 -47 60 -14 0 -24 7 -26 18 -4 21 4 21 42 -2 22 -13 35 -33 53 -86 13 -39 22 -83 20 -100 l-3 -30 -11 25 c-11 24 -12 24 -12 -12 -1 -34 2 -38 24 -38 20 0 25 -5 25 -25 0 -21 5 -25 31 -25 37 0 57 18 65 59 4 17 12 31 19 31 16 0 25 22 25 61 0 29 0 29 -61 29 -52 0 -62 -3 -66 -20 -7 -28 -23 -25 -23 4 0 13 -11 48 -24 79 -26 58 -55 77 -117 77 l-27 0 1 -79z m37 -66 c-25 -48 -30 -53 -30 -30 0 22 48 97 58 90 1 -1 -11 -28 -28 -60z m-79 -61 c25 -26 45 -31 52 -11 4 9 6 9 6 -1 2 -23 -30 -25 -60 -3 l-30 22 6 -28 c5 -21 4 -25 -4 -13 -6 8 -11 23 -11 33 0 9 -7 17 -16 17 -8 0 -13 4 -10 9 9 14 42 2 67 -25z m329 15 c0 -5 -3 -8 -7 -7 -19 4 -43 -16 -43 -36 0 -11 -5 -28 -10 -36 -7 -11 -8 -5 -4 20 4 19 12 42 18 50 8 11 4 10 -16 -3 -33 -21 -38 -6 -6 15 22 15 68 13 68 -3z"></path><path id="pzo8HpCEV" d="M593 833 c-19 -4 -23 -11 -23 -39 0 -33 1 -34 38 -34 33 1 35 2 20 14 -25 19 -23 23 17 30 46 9 48 37 3 35 -18 -1 -43 -4 -55 -6z"></path><path id="pPPwLNBSM" d="M503 823 c-18 -7 -16 -23 2 -23 8 0 15 7 15 15 0 8 -1 15 -2 14 -2 0 -9 -3 -15 -6z"></path><path id="pauAtBktv" d="M690 810 c0 -5 7 -10 15 -10 8 0 15 -4 15 -10 0 -5 -7 -10 -15 -10 -8 0 -15 -7 -15 -15 0 -10 11 -15 35 -15 33 0 35 2 35 35 0 33 -2 35 -35 35 -19 0 -35 -4 -35 -10z"></path><path id="pRM16QXUW" d="M610 715 c0 -8 -9 -24 -20 -35 l-20 -20 35 0 c33 0 35 2 35 35 0 24 -5 35 -15 35 -8 0 -15 -7 -15 -15z"></path></g></g><g id="l6UHLSKjbHUr518xnYjJBn7" fill="rgb(168,204,109)" style="transform: none;"><g><path id="pOhs7yGMg" d="M540 1211 c-41 -9 -85 -23 -97 -29 -21 -12 -22 -13 -6 -32 18 -21 28 -27 18 -10 -3 6 1 7 10 4 11 -5 13 -10 6 -17 -6 -6 -25 -6 -57 2 -55 14 -68 9 -25 -10 30 -14 41 -29 20 -29 -5 0 -7 -4 -4 -10 3 -5 0 -10 -8 -10 -21 0 -51 -36 -37 -45 7 -4 8 -10 3 -14 -5 -3 -17 -17 -26 -30 -12 -18 -18 -21 -21 -10 -25 78 -30 95 -28 102 1 5 -2 6 -8 2 -10 -6 -9 -26 3 -55 9 -23 13 -109 5 -103 -5 2 -8 -1 -8 -6 0 -6 -11 -11 -24 -11 -26 0 -51 -24 -51 -49 0 -9 -6 -15 -12 -13 -8 1 -13 -8 -13 -20 0 -13 -3 -33 -6 -46 -5 -18 -3 -21 10 -16 12 5 15 2 10 -10 -3 -9 -10 -13 -15 -10 -5 3 -6 -10 -3 -28 4 -23 3 -29 -4 -19 -15 21 -25 -5 -10 -29 7 -11 16 -20 20 -20 4 0 5 -6 2 -14 -3 -8 -1 -17 5 -21 14 -8 14 -52 1 -60 -5 -3 -10 -11 -10 -16 0 -6 7 -3 16 5 19 20 38 11 31 -15 -3 -11 -1 -19 5 -19 5 0 6 -9 3 -21 -6 -18 -4 -20 17 -14 18 5 20 4 8 -4 -13 -10 -13 -12 0 -21 12 -8 12 -12 2 -18 -9 -6 -6 -12 13 -22 38 -20 30 -32 -11 -15 -56 23 -64 18 -16 -11 48 -29 50 -36 22 -71 -34 -43 -12 -40 30 4 21 23 41 39 44 36 3 -4 1 -12 -5 -20 -9 -10 -8 -13 5 -13 9 0 16 -4 16 -10 0 -5 -7 -10 -15 -10 -8 0 -15 -5 -15 -11 0 -6 9 -9 20 -6 11 3 23 0 27 -5 4 -7 1 -8 -8 -4 -8 4 -6 1 4 -7 21 -17 22 -27 2 -27 -20 0 -19 -10 2 -26 15 -11 16 -15 4 -23 -11 -7 -7 -13 18 -25 17 -9 36 -14 41 -11 6 3 10 1 10 -4 0 -19 30 -12 31 7 0 10 3 12 6 5 3 -9 26 -13 64 -13 34 0 58 -4 54 -9 -12 -20 27 -41 75 -41 63 0 79 7 73 31 -3 10 -10 19 -15 19 -5 0 -7 -4 -4 -8 2 -4 1 -14 -3 -20 -6 -10 -18 -9 -56 6 -27 11 -43 22 -37 26 6 4 8 14 5 23 -14 36 89 61 117 28 7 -8 16 -12 21 -9 5 3 9 -1 9 -8 0 -27 25 -68 38 -63 8 3 18 5 23 5 5 0 9 11 9 25 0 23 4 25 48 25 68 0 86 16 31 27 -33 7 -49 6 -66 -5 -21 -13 -23 -13 -23 7 0 11 -4 21 -10 21 -5 0 -7 6 -4 13 2 7 -1 20 -8 28 -18 22 -113 89 -127 89 -6 0 -13 11 -17 25 -7 28 -19 33 -27 11 -3 -8 -32 -33 -64 -56 -77 -56 -103 -88 -103 -127 0 -35 -14 -44 -24 -17 -3 8 -9 13 -14 10 -4 -2 -8 3 -9 12 -1 9 -8 35 -17 57 -19 51 -20 99 -2 160 l15 47 -35 -5 c-28 -5 -34 -3 -34 11 0 10 -9 24 -20 32 -22 16 -10 30 28 30 26 0 31 29 5 31 -48 3 -113 -16 -113 -32 0 -5 -7 -9 -16 -9 -21 0 -14 32 25 116 32 68 89 137 133 160 38 20 35 34 -7 34 -28 0 -35 -4 -35 -20 0 -35 -28 -22 -32 15 -4 31 -1 35 19 35 16 0 23 6 23 19 0 18 30 49 76 78 17 10 17 13 4 22 -13 10 -13 12 0 21 8 5 34 10 58 10 29 0 42 4 42 14 0 8 11 17 25 20 16 4 32 20 43 42 15 33 15 37 0 48 -10 7 -13 17 -9 25 13 21 73 -19 86 -59 6 -19 17 -36 23 -38 7 -2 12 -8 12 -14 0 -20 31 -39 63 -38 17 1 37 1 42 0 6 -1 14 -2 18 -1 5 1 6 -12 2 -29 -6 -26 -4 -32 14 -37 12 -3 21 -13 21 -22 1 -15 61 -61 81 -61 5 0 9 -19 9 -41 0 -28 6 -46 18 -55 16 -13 16 -13 -2 -14 -17 0 -16 -3 6 -32 34 -45 78 -145 78 -177 0 -19 3 -22 9 -12 7 11 11 9 20 -8 7 -11 10 -21 9 -21 -2 0 -28 -9 -58 -20 -68 -25 -73 -25 -32 1 40 26 41 44 2 64 -42 22 -58 19 -65 -14 -3 -16 -14 -31 -25 -34 -24 -6 -30 0 -30 34 0 28 -1 28 -55 27 l-56 -2 29 -18 c32 -20 76 -107 88 -173 7 -41 18 -55 44 -55 12 1 12 3 -2 13 -19 15 -9 40 13 35 10 -2 15 9 17 36 3 36 5 38 32 34 16 -3 28 0 27 6 -2 12 75 53 116 61 35 7 35 27 0 23 -22 -2 -30 3 -45 32 -21 44 -22 61 -2 35 15 -19 16 -19 12 13 -5 38 9 43 18 7 9 -37 24 -30 24 10 0 19 -4 35 -10 35 -5 0 -10 5 -10 11 0 5 4 8 9 5 12 -8 40 69 30 85 -4 8 -3 16 3 20 6 4 8 15 3 25 -5 13 -9 15 -12 7 -7 -19 -30 -16 -74 9 -24 14 -38 27 -34 36 3 7 0 10 -6 7 -17 -11 -38 15 -39 48 0 18 -1 42 -1 55 -1 12 -7 22 -16 22 -8 0 -11 5 -7 12 4 7 3 8 -5 4 -16 -10 -41 12 -42 38 0 11 -3 15 -6 9 -7 -18 -43 3 -43 25 0 14 -2 15 -10 2 -5 -8 -12 -11 -16 -7 -4 4 0 15 10 26 16 18 41 20 88 6 20 -6 19 -3 -7 14 -16 12 -38 21 -47 21 -10 0 -22 9 -28 20 -6 11 -18 20 -26 20 -11 0 -13 -6 -9 -20 4 -11 2 -20 -4 -20 -6 0 -11 7 -11 15 0 11 -10 13 -48 8 -50 -6 -87 7 -127 44 -26 24 -55 25 -145 4z m-34 -30 c-7 -11 -56 -21 -56 -10 0 6 13 11 53 18 5 0 6 -3 3 -8z m374 -75 l-22 -21 18 35 c10 21 19 30 22 21 2 -7 -6 -23 -18 -35z m140 -153 c0 -22 -2 -25 -10 -13 -13 20 -13 40 0 40 6 0 10 -12 10 -27z m-775 -83 c-10 -11 -20 -18 -23 -15 -7 6 18 35 31 35 5 0 2 -9 -8 -20z m900 -91 c35 -21 41 -39 17 -47 -7 -2 -12 1 -12 7 0 6 6 11 13 11 6 1 -8 12 -33 25 -25 13 -40 24 -33 25 6 0 28 -10 48 -21z m-825 -14 c0 -8 -4 -15 -10 -15 -5 0 -10 7 -10 15 0 8 5 15 10 15 6 0 10 -7 10 -15z m360 -455 c0 -15 -7 -20 -25 -20 -15 0 -25 6 -25 14 0 8 -6 17 -12 19 -7 3 4 6 25 6 31 1 37 -2 37 -19z"></path><path id="paBBqy6Hr" d="M1063 1043 c4 -3 1 -13 -6 -21 -10 -13 -9 -14 3 -10 19 6 26 38 9 38 -7 0 -9 -3 -6 -7z"></path><path id="p1Cg00ZDvN" d="M216 921 c-11 -4 -15 -10 -10 -13 5 -4 18 0 29 8 20 15 12 17 -19 5z"></path><path id="pJWUIzbyt" d="M500 871 c0 -5 -9 -13 -20 -16 -35 -11 -21 -23 23 -19 39 4 40 3 14 -7 -18 -7 -26 -16 -23 -25 3 -8 0 -14 -6 -14 -7 0 -6 -5 2 -15 10 -12 10 -15 -1 -15 -10 0 -10 -3 -3 -8 6 -4 15 -18 19 -32 l8 -25 8 24 c5 12 18 25 29 28 23 6 26 23 8 41 -9 9 -8 12 6 12 14 0 17 7 14 38 -3 35 -5 37 -40 40 -21 2 -38 -1 -38 -7z"></path><path id="pQRnSQi8C" d="M750 835 c0 -28 4 -35 20 -35 14 0 20 -7 20 -23 0 -13 9 -32 20 -42 11 -10 20 -25 20 -34 1 -13 3 -12 15 3 14 18 13 32 -3 75 -3 8 -1 12 4 8 5 -3 10 3 10 13 0 10 -3 17 -6 15 -3 -1 -11 3 -17 10 -10 11 -6 13 22 8 20 -3 35 -1 35 4 0 16 -48 33 -95 33 -45 0 -45 0 -45 -35z"></path><path id="pWYb3tiON" d="M910 823 c0 -5 16 -18 35 -31 l35 -22 0 30 c0 28 -3 30 -35 30 -19 0 -35 -3 -35 -7z"></path><path id="ppHX561E3" d="M591 679 c-13 -11 -30 -18 -38 -15 -15 6 -43 -3 -43 -13 0 -3 7 -15 15 -25 14 -18 16 -18 40 -2 36 24 51 16 26 -13 -22 -25 -28 -47 -11 -36 6 3 10 -3 10 -15 0 -17 4 -20 20 -15 12 4 28 1 37 -6 13 -11 17 -10 29 5 11 16 16 17 29 6 12 -10 16 -9 21 4 3 9 4 23 1 30 -4 11 -1 13 11 9 14 -5 14 -3 -3 16 l-19 22 29 -7 c17 -4 36 -12 44 -18 12 -9 12 -8 2 11 -10 19 -9 22 4 17 8 -4 15 -1 15 5 0 6 0 14 0 19 0 4 -10 8 -22 9 -13 2 -45 5 -72 7 -27 3 -54 10 -60 16 -15 15 -38 12 -65 -11z"></path><path id="pU6IifLRU" d="M420 550 c0 -11 7 -20 15 -20 8 0 15 -8 15 -17 0 -13 3 -14 8 -5 5 6 23 23 41 36 l32 24 -55 1 c-49 0 -56 -2 -56 -19z"></path><path id="p1FJHCja2J" d="M930 311 c0 -5 -3 -18 -7 -28 -6 -16 -5 -16 10 -4 19 15 23 41 7 41 -5 0 -10 -4 -10 -9z"></path><path id="pMtvNBTTn" d="M688 176 c-15 -11 -16 -15 -3 -32 8 -10 15 -14 15 -8 0 6 14 11 31 12 43 1 46 8 10 26 -35 19 -32 19 -53 2z"></path></g></g><g id="llSdL7CNGzhoLlrpUJSrMm" fill="rgb(195,208,110)" style="transform: none;"><g><path id="p12LeouIvH" d="M616 1205 c4 -10 0 -15 -15 -15 -12 0 -21 -4 -21 -9 0 -14 39 -20 43 -7 3 7 9 6 22 -4 14 -11 19 -12 22 -2 3 6 11 12 19 12 8 0 14 5 14 10 0 6 -9 10 -19 10 -11 0 -23 5 -26 10 -10 17 -45 12 -39 -5z"></path><path id="pLXV7Ipxw" d="M624 1127 c-6 -7 -14 -19 -17 -27 -4 -12 -6 -11 -6 3 -1 23 -18 22 -31 -3 -6 -11 -20 -20 -31 -20 -15 0 -19 -5 -15 -15 3 -8 1 -15 -3 -15 -15 0 -18 24 -5 37 7 7 21 13 30 13 13 0 15 3 7 11 -15 15 -73 -28 -70 -51 1 -9 -5 -14 -14 -12 -11 1 -19 -7 -23 -23 -3 -13 -19 -31 -34 -39 -15 -8 -38 -25 -51 -39 -13 -14 -29 -23 -37 -20 -10 3 -14 -3 -14 -20 0 -16 -12 -33 -35 -51 -19 -15 -35 -34 -35 -43 0 -13 3 -13 15 -3 12 10 15 10 15 -3 0 -8 -6 -18 -12 -21 -9 -4 -10 -8 -2 -11 6 -3 9 -17 6 -30 -2 -14 -8 -23 -12 -20 -11 7 -24 -34 -15 -43 4 -4 10 -1 12 6 3 6 9 12 14 12 15 0 10 -22 -9 -36 -16 -13 -16 -13 3 -14 13 0 27 12 39 34 19 36 104 126 118 126 4 0 8 9 8 20 0 14 -7 20 -22 21 -17 1 -19 2 -5 6 9 2 17 9 17 14 0 5 9 9 20 9 11 0 20 5 20 10 0 16 19 11 41 -11 17 -17 19 -23 8 -31 -10 -7 -6 -8 14 -5 15 2 30 0 33 -4 3 -5 -1 -9 -9 -9 -20 0 -28 -25 -17 -54 6 -16 5 -28 -3 -36 -9 -9 -6 -8 10 1 30 18 77 2 81 -28 4 -27 -37 -57 -64 -47 -18 7 -18 7 -1 -13 9 -11 14 -23 10 -26 -18 -19 18 -4 39 16 14 13 31 20 39 17 8 -4 29 -14 47 -23 18 -9 30 -12 27 -7 -9 15 29 12 44 -2 10 -11 11 -9 5 6 -6 16 -4 18 9 13 9 -3 17 -2 17 4 0 5 -6 12 -14 15 -15 6 -42 61 -34 69 2 3 18 7 34 11 21 4 35 0 51 -16 l23 -21 -6 38 c-3 21 -7 47 -8 58 -2 11 -13 22 -27 26 -13 3 9 6 48 5 40 0 73 -5 73 -10 0 -5 21 -27 46 -49 25 -22 58 -63 74 -91 17 -28 30 -45 30 -38 0 7 11 17 25 22 29 11 32 25 9 34 -9 4 -14 13 -10 21 3 8 1 15 -5 15 -6 0 -7 15 -3 38 6 34 5 35 -8 18 -15 -19 -15 -19 -36 2 -26 26 -30 65 -7 56 17 -7 21 11 5 21 -5 3 -10 18 -10 33 0 24 -1 24 -13 8 -12 -17 -15 -17 -50 6 -23 15 -36 31 -37 45 0 12 -5 25 -12 29 -7 5 -8 3 -3 -6 5 -8 3 -11 -6 -8 -8 3 -13 11 -11 18 2 7 -5 21 -14 31 -14 15 -15 21 -4 34 18 21 4 32 -17 13 -24 -21 -73 -29 -66 -12 3 9 15 12 32 9 25 -5 25 -5 -4 9 -16 9 -35 15 -42 16 -6 0 -14 4 -17 9 -4 5 3 7 14 4 11 -3 20 -1 20 5 0 5 -9 12 -20 15 -13 3 -21 -1 -25 -14 -4 -10 -15 -19 -26 -19 -23 0 -23 3 -4 -50 8 -23 15 -53 15 -66 0 -32 10 -30 45 6 20 21 37 29 57 28 32 -3 38 -23 9 -31 -11 -3 -22 -17 -26 -35 -3 -17 -12 -35 -19 -41 -9 -8 -12 -3 -10 24 3 33 2 34 -23 24 -37 -14 -53 -5 -53 30 0 34 -19 81 -32 81 -5 0 -6 -10 -1 -22 4 -13 6 -46 5 -75 -3 -47 -1 -52 20 -56 l23 -4 -22 -2 c-19 -1 -23 -7 -23 -31 0 -25 -4 -30 -25 -30 -21 0 -25 5 -26 33 -3 61 3 122 12 125 12 5 12 62 0 62 -18 0 -51 -58 -51 -88 0 -31 -19 -46 -45 -36 -10 4 -18 -2 -24 -17 l-9 -24 -11 30 c-6 17 -14 36 -16 43 -2 6 -14 12 -25 12 -24 0 -27 15 -4 24 28 11 41 7 75 -23 39 -35 49 -32 49 14 0 20 10 50 25 71 30 44 37 82 9 51z m260 -250 c6 -4 -2 -6 -19 -5 -18 2 -31 9 -33 20 -4 21 32 29 37 8 2 -8 8 -19 15 -23z m-160 -87 c15 -15 -80 -23 -105 -9 l-24 13 25 7 c28 9 90 2 104 -11z m-4 -60 c0 -5 -9 -10 -20 -10 -11 0 -20 -4 -20 -9 0 -5 -9 -7 -20 -4 -37 10 -23 33 20 33 22 0 40 -4 40 -10z"></path><path id="ptaSl1SRR" d="M310 563 c-60 -22 -64 -67 -10 -113 31 -26 40 -41 40 -65 0 -18 8 -37 20 -48 31 -26 47 -21 48 16 1 30 11 71 27 110 5 12 2 17 -9 17 -10 0 -16 9 -16 25 0 22 4 25 35 25 43 0 49 26 8 33 -38 7 -125 6 -143 0z m-10 -37 c0 -15 -14 -35 -21 -30 -15 9 -10 34 6 34 8 0 15 -2 15 -4z m27 -51 c8 -8 13 -20 11 -26 -2 -7 -12 0 -21 15 -19 29 -14 35 10 11z m43 -97 c0 -21 -3 -29 -10 -22 -5 5 -7 19 -4 32 9 31 14 27 14 -10z m21 -31 c-13 -13 -15 1 -4 30 7 17 8 17 11 -1 2 -10 -1 -23 -7 -29z"></path><path id="pbPQNCTye" d="M933 563 c-24 -3 -33 -9 -33 -23 0 -10 -5 -20 -11 -22 -8 -3 -7 -14 5 -35 9 -18 16 -39 16 -48 0 -19 19 -19 70 1 37 15 54 34 30 34 -5 0 -10 9 -10 20 0 14 7 20 22 20 21 0 21 0 2 21 -19 22 -19 22 6 15 24 -7 24 -6 6 8 -19 16 -37 17 -103 9z"></path><path id="phaEldMRg" d="M607 338 c-39 -28 -54 -45 -47 -52 15 -15 12 -30 -4 -17 -11 9 -12 7 -9 -13 4 -17 10 -22 24 -19 13 4 22 -2 28 -18 9 -23 10 -22 10 9 1 32 23 45 35 20 5 -10 7 -10 12 1 5 11 11 8 26 -10 11 -13 17 -18 13 -11 -4 7 1 12 14 12 11 0 22 4 26 10 3 5 13 6 22 3 10 -4 14 -2 10 4 -4 6 0 14 9 17 24 9 24 9 24 -30 0 -19 5 -44 10 -55 8 -15 7 -19 -5 -19 -8 0 -15 -4 -15 -9 0 -11 47 -24 59 -16 10 6 3 72 -10 97 -7 13 -163 139 -171 138 -2 -1 -29 -19 -61 -42z m161 -47 c11 -7 11 -9 -2 -14 -9 -4 -23 -4 -32 0 -13 5 -13 7 -2 14 16 11 20 11 36 0z"></path></g></g><g id="lgOvfB4GKNuVceulua2MIn" fill="rgb(182,215,131)" style="transform: none;"><g><path id="pgZDzNJ7x" d="M615 1211 c5 -16 -1 -20 -34 -26 -22 -4 -45 -4 -50 -1 -5 4 -12 2 -16 -4 -11 -17 80 -16 102 2 7 5 18 6 25 2 7 -5 27 -9 45 -9 24 0 29 3 21 13 -6 6 -18 12 -28 12 -10 0 -23 7 -30 15 -18 22 -43 19 -35 -4z"></path><path id="p12gaKDSCW" d="M910 1138 c0 -8 -12 -26 -27 -40 -26 -24 -30 -25 -53 -13 -29 17 -80 20 -80 5 0 -5 10 -10 23 -10 12 0 17 -3 11 -8 -6 -4 -16 -16 -23 -27 -12 -19 -12 -19 -7 4 3 17 2 21 -6 13 -14 -14 -3 -42 17 -42 8 0 14 3 13 8 -2 4 4 17 13 30 14 19 20 21 42 13 18 -7 25 -15 21 -26 -13 -33 12 -12 31 26 10 23 28 44 38 48 17 6 17 8 3 20 -13 11 -16 11 -16 -1z"></path><path id="pmqFtRgS1" d="M770 1120 c0 -5 7 -10 15 -10 8 0 15 5 15 10 0 6 -7 10 -15 10 -8 0 -15 -4 -15 -10z"></path><path id="pFDyF9D5m" d="M513 1098 c-22 -21 -23 -21 -42 -4 -11 10 -26 16 -33 14 -8 -3 -4 -9 12 -18 30 -16 41 -31 35 -47 -3 -9 8 -13 35 -13 34 0 40 3 40 21 0 12 -8 23 -20 26 -26 7 -26 23 1 23 11 0 17 5 14 10 -9 15 -18 12 -42 -12z m7 -29 c0 -6 7 -9 15 -5 9 3 15 0 15 -9 0 -19 -15 -19 -34 1 -19 18 -20 24 -6 24 6 0 10 -5 10 -11z"></path><path id="pZY3w91g9" d="M577 1113 c-12 -12 -7 -22 8 -17 8 4 15 10 15 15 0 11 -14 12 -23 2z"></path><path id="p1EsvqKVrt" d="M942 1004 c-7 -8 -18 -11 -24 -8 -7 5 -8 2 -3 -6 6 -10 4 -12 -9 -7 -14 6 -16 3 -11 -14 6 -18 4 -20 -15 -14 -16 5 -21 3 -18 -6 7 -22 51 -17 63 7 6 12 17 29 24 38 17 21 11 29 -7 10z"></path><path id="p10ybLapf2" d="M296 932 l6 -57 -45 -33 c-49 -35 -62 -39 -71 -19 -3 6 -3 2 -1 -10 3 -12 1 -24 -5 -28 -5 -3 -10 -13 -10 -22 0 -14 3 -13 23 4 34 30 119 83 134 83 7 0 13 4 13 9 0 5 11 12 25 15 15 4 30 17 35 31 5 14 16 26 25 26 8 1 20 3 25 4 6 1 14 3 20 4 5 0 9 12 8 26 -4 40 -57 35 -108 -11 l-39 -36 -15 36 c-8 20 -18 36 -21 36 -3 0 -3 -26 1 -58z m117 8 c-18 -16 -33 -35 -33 -42 0 -9 -3 -8 -10 2 -16 26 19 62 70 69 3 0 -10 -13 -27 -29z"></path><path id="pjwOC9BtW" d="M1020 927 c0 -8 -11 -24 -24 -36 -14 -13 -22 -29 -20 -36 8 -19 32 -26 40 -13 4 7 3 8 -4 4 -7 -4 -12 -2 -12 3 0 15 14 14 55 -6 40 -19 41 -23 18 -51 -22 -26 -67 -33 -69 -12 -2 34 -5 37 -29 35 -19 -3 -25 1 -25 15 0 25 -31 33 -93 24 l-52 -7 38 -9 c84 -18 166 -84 204 -163 12 -24 19 -31 25 -23 13 21 9 38 -7 32 -8 -4 -15 -2 -15 4 0 6 5 12 11 14 8 3 6 10 -5 20 -21 21 -20 30 1 26 11 -2 20 7 27 27 6 17 11 31 12 33 1 2 20 -6 43 -18 27 -13 41 -27 41 -40 0 -11 4 -20 9 -20 5 0 8 18 7 39 0 22 -4 35 -8 28 -8 -14 -53 6 -114 51 -36 26 -40 34 -36 61 2 19 0 31 -7 31 -6 0 -11 -6 -11 -13z"></path><path id="p4858uWRc" d="M390 840 c0 -5 -9 -10 -19 -10 -11 0 -23 -4 -26 -10 -10 -17 -25 -11 -19 8 5 13 4 14 -4 3 -5 -7 -15 -10 -21 -7 -16 10 -13 0 5 -18 14 -14 14 -18 0 -31 -13 -13 -16 -13 -30 0 -17 17 -26 19 -26 6 0 -11 39 -26 58 -22 7 1 4 -7 -7 -18 -11 -11 -18 -27 -15 -35 6 -15 -34 -49 -47 -40 -4 2 -10 0 -14 -5 -4 -7 -15 -7 -31 -1 -19 8 -23 7 -17 -3 4 -6 13 -28 20 -47 l12 -35 -5 33 c-5 31 -4 32 24 30 27 -2 29 -5 20 -21 -5 -10 -8 -21 -5 -23 2 -3 19 24 36 59 36 72 100 142 148 162 43 18 42 35 -2 35 -19 0 -35 -4 -35 -10z"></path><path id="poKSM8xkm" d="M790 806 c0 -14 5 -26 10 -26 6 0 10 9 10 19 0 11 -4 23 -10 26 -6 4 -10 -5 -10 -19z"></path><path id="pfnChqJHx" d="M530 755 l-23 -25 26 13 c15 6 27 18 27 25 0 17 -3 16 -30 -13z"></path><path id="pmPOmSfO4" d="M780 762 c0 -5 11 -15 25 -22 14 -7 25 -20 25 -28 0 -9 3 -12 6 -9 13 12 -18 67 -37 67 -11 0 -19 -4 -19 -8z"></path><path id="p19qxfCFn3" d="M236 715 c-8 -23 -8 -35 3 -35 13 0 23 32 13 42 -6 6 -12 3 -16 -7z"></path><path id="p19BPTt4wc" d="M1090 688 c0 -23 12 -23 38 1 l22 18 -30 -1 c-21 -1 -30 -6 -30 -18z"></path><path id="p3uT1pZNQ" d="M1070 625 c0 -13 25 -55 32 -55 6 0 7 6 4 13 -3 6 -9 20 -12 30 -6 15 -24 25 -24 12z"></path><path id="paM0bXebK" d="M303 560 c-12 -5 -30 -21 -39 -35 -16 -24 -16 -27 -1 -43 22 -21 32 -10 15 17 -17 28 4 43 50 35 28 -5 32 -3 32 15 0 23 -19 26 -57 11z"></path><path id="prrMtwBIk" d="M488 563 c-10 -2 -18 -11 -18 -19 0 -12 4 -12 25 2 36 23 34 28 -7 17z"></path><path id="pPVaj2r2h" d="M843 548 c31 -25 87 -24 87 1 0 17 -7 19 -55 18 -54 -2 -54 -2 -32 -19z"></path><path id="pSbcLomWC" d="M950 545 c0 -16 6 -25 15 -25 8 0 15 -3 15 -7 0 -5 3 -18 6 -30 5 -17 2 -23 -9 -23 -8 0 -17 9 -20 20 -5 20 -37 29 -37 9 0 -5 -5 -7 -11 -3 -8 4 -9 -4 -4 -27 9 -43 20 -55 37 -42 7 5 34 16 60 23 60 16 87 42 35 33 -32 -5 -34 -3 -41 27 -9 48 -9 49 27 45 30 -4 31 -3 13 10 -11 8 -35 15 -53 15 -29 0 -33 -3 -33 -25z"></path><path id="pcM9s75n2" d="M300 510 c0 -5 7 -10 15 -10 8 0 15 5 15 10 0 6 -7 10 -15 10 -8 0 -15 -4 -15 -10z"></path><path id="p1ANIkM5TW" d="M348 515 c-8 -13 16 -47 27 -37 4 4 6 0 3 -8 -3 -8 -12 -14 -22 -12 -9 2 -16 -2 -16 -9 0 -8 -5 -7 -17 2 -17 13 -17 13 0 -13 22 -36 8 -83 -24 -75 -15 4 -18 2 -10 -7 6 -7 6 -17 1 -26 -19 -30 -9 -33 18 -7 27 26 62 29 62 6 0 -5 7 -9 15 -9 16 0 30 -42 22 -63 -3 -8 1 -14 8 -14 10 0 10 10 1 51 -14 57 -3 125 27 183 9 18 17 34 17 38 0 12 -48 4 -54 -10 -8 -21 -44 -19 -48 3 -2 9 -6 12 -10 7z m48 -160 c-4 -13 -10 -14 -26 -5 -22 12 -20 40 4 66 8 9 13 6 20 -16 5 -16 6 -36 2 -45z"></path><path id="pUozXbEiJ" d="M641 360 c-13 -16 -27 -28 -30 -27 -3 1 -19 -7 -34 -17 l-28 -19 24 -23 c16 -15 32 -21 46 -17 12 3 21 1 21 -6 0 -6 5 -11 10 -11 6 0 6 7 -1 18 -9 15 -8 24 6 45 17 27 35 36 35 18 0 -5 10 -7 23 -4 19 4 20 3 5 -7 -29 -18 -21 -26 22 -24 22 1 37 -2 34 -7 -3 -5 1 -7 8 -4 16 6 38 -39 38 -77 0 -18 -5 -28 -15 -28 -19 0 -19 -14 0 -30 8 -7 12 -17 8 -23 -4 -7 0 -8 11 -4 10 4 21 7 25 7 10 0 2 100 -10 122 -6 10 -43 43 -84 74 -41 31 -75 60 -75 65 0 16 -15 8 -39 -21z m-1 -47 c-1 -21 -30 -45 -46 -39 -15 6 -14 10 12 26 35 22 34 22 34 13z"></path><path id="ptrF0XKHt" d="M666 282 c-3 -6 -1 -14 5 -17 15 -10 25 3 12 16 -7 7 -13 7 -17 1z"></path><path id="pls6JuGEw" d="M516 264 c-3 -9 -6 -28 -6 -42 0 -21 -2 -24 -10 -12 -8 13 -10 13 -10 -1 0 -9 7 -19 15 -23 8 -3 15 -15 15 -27 0 -20 4 -21 46 -15 26 3 53 6 60 6 8 0 14 5 14 11 0 7 -18 8 -54 4 -49 -6 -55 -5 -61 14 -4 12 -4 40 0 61 7 41 2 53 -9 24z"></path><path id="pJV6i2kRx" d="M683 236 c3 -8 -1 -17 -9 -19 -11 -4 -11 -5 1 -3 9 0 16 6 15 11 -1 6 9 13 22 17 21 5 21 6 -6 7 -21 1 -27 -3 -23 -13z"></path><path id="pk4mGXzd" d="M874 191 c-12 -13 1 -17 43 -14 62 5 65 10 8 15 -26 2 -48 1 -51 -1z"></path><path id="pRtxRNbxQ" d="M680 154 c0 -11 5 -14 16 -10 9 3 30 6 47 6 24 0 28 3 17 10 -25 16 -80 12 -80 -6z"></path></g></g><g id="l1toEHcEIO0u0sUuyt2sVl9" fill="rgb(219,225,116)" style="transform: none;"><g><path id="pdeOgySWG" d="M660 1072 c-25 -8 -50 -45 -50 -77 -1 -48 -14 -62 -48 -49 -25 10 -28 9 -30 -12 -2 -23 42 -61 66 -56 6 2 12 -1 12 -6 0 -15 -47 -42 -72 -42 -13 0 -18 -4 -12 -8 18 -12 25 -44 13 -58 -9 -11 -6 -14 14 -14 57 0 75 -33 40 -72 -9 -11 -11 -18 -5 -18 7 0 12 4 12 9 0 7 14 7 103 -3 23 -3 26 -1 15 12 -11 13 -10 14 9 4 21 -12 22 -11 11 19 -8 25 -8 33 3 40 19 12 46 11 71 -2 19 -10 20 -9 13 7 -4 11 -10 33 -14 49 -4 19 -14 31 -26 33 -28 4 -71 39 -62 49 5 4 14 1 20 -7 7 -8 47 -22 90 -31 73 -14 77 -14 77 3 0 11 7 18 19 18 20 0 39 32 22 38 -5 2 -7 10 -4 18 6 17 -8 19 -25 2 -17 -17 -28 -2 -12 17 10 12 10 15 -4 15 -10 0 -19 -11 -22 -30 -4 -16 -13 -30 -20 -30 -19 0 -18 36 1 44 24 9 18 28 -7 22 -13 -3 -17 -3 -10 0 18 8 15 35 -3 28 -8 -4 -15 -13 -15 -21 0 -23 -33 -73 -47 -73 -7 0 -13 -5 -13 -12 0 -6 -3 -8 -7 -5 -3 4 3 17 14 30 11 12 20 32 21 45 1 19 -2 20 -18 12 -10 -5 -28 -10 -39 -10 -17 0 -21 6 -21 35 0 60 -26 98 -60 87z m20 -262 c0 -5 11 -10 25 -10 14 0 25 -4 25 -9 0 -19 -93 -28 -120 -11 -16 10 -15 11 20 27 32 15 50 16 50 3z"></path><path id="ppZvl8cBR" d="M740 1056 c-10 -10 2 -86 14 -86 6 0 22 12 35 25 l23 25 -30 0 c-23 0 -31 5 -34 21 -2 11 -5 18 -8 15z"></path><path id="pRLakh43M" d="M857 1054 c-4 -4 -7 -14 -7 -23 0 -11 3 -12 11 -4 6 6 10 16 7 23 -2 6 -7 8 -11 4z"></path><path id="pNAX5Dgy8" d="M547 990 c14 -16 28 -30 30 -30 1 0 3 14 3 30 0 27 -3 30 -30 30 l-30 0 27 -30z"></path><path id="p14ZqkVeMe" d="M438 961 c-24 -25 -27 -35 -24 -81 2 -28 6 -53 9 -56 2 -2 30 2 63 11 32 8 66 15 76 15 10 0 18 5 18 10 0 6 -4 10 -10 10 -15 0 -60 42 -60 56 0 22 -23 64 -34 64 -6 -1 -23 -14 -38 -29z"></path><path id="p8G1LoNKt" d="M300 851 c0 -5 10 -7 23 -4 16 3 18 2 8 -5 -7 -5 -11 -15 -7 -21 5 -7 1 -9 -8 -5 -9 3 -16 2 -16 -4 0 -6 6 -12 12 -14 19 -7 -13 -36 -32 -31 -13 4 -13 3 -1 -5 8 -6 21 -8 30 -5 12 3 12 2 -1 -7 -22 -14 -23 -30 -3 -30 8 0 15 4 15 9 0 5 13 22 30 37 17 17 25 31 19 35 -7 4 -4 9 6 12 10 5 14 3 9 -4 -4 -7 -1 -10 7 -7 8 2 15 17 17 31 3 26 2 27 -52 27 -31 0 -56 -4 -56 -9z"></path><path id="pWxacDAvK" d="M326 561 c-4 -6 0 -11 11 -12 16 0 16 -1 -2 -9 -19 -8 -18 -9 4 -9 18 -1 21 -4 13 -14 -11 -13 9 -52 21 -40 4 3 7 1 7 -5 0 -7 7 -12 15 -12 8 0 15 9 15 20 0 14 7 20 23 20 23 0 57 43 45 55 -12 12 -145 18 -152 6z"></path><path id="padXmvDlH" d="M883 563 c-29 -6 -29 -7 5 -70 22 -44 31 -53 52 -52 23 2 24 2 3 6 -28 5 -30 23 -3 23 14 0 19 6 17 21 -1 12 4 24 11 26 6 3 12 -2 12 -11 0 -9 5 -16 10 -16 15 0 1 53 -18 68 -16 12 -45 14 -89 5z"></path></g></g><g id="luHaftVxa9DNmGKfwYu1WF" fill="rgb(208,221,133)" style="transform: none;"><g><path id="pemY4YRYv" d="M630 1201 c13 -26 31 -36 39 -24 3 6 13 13 21 16 9 3 4 6 -12 6 -15 1 -30 6 -33 11 -12 19 -26 11 -15 -9z"></path><path id="pm4Cozcaa" d="M487 1064 c4 -11 -2 -23 -18 -35 l-24 -18 36 8 c30 7 39 5 49 -10 17 -22 50 -21 50 3 0 10 -4 18 -10 18 -5 0 -11 10 -11 23 -1 16 -2 18 -6 5 -6 -23 -18 -23 -43 2 -24 24 -31 25 -23 4z"></path><path id="p12FNT4VaU" d="M860 1061 c-13 -25 -13 -31 0 -31 6 0 10 9 10 19 0 11 6 22 13 24 9 4 9 6 0 6 -7 1 -17 -8 -23 -18z"></path><path id="pKFuuX9OT" d="M743 1058 c-9 -15 -5 -59 7 -72 14 -14 70 32 62 52 -6 16 -7 16 -10 -1 -5 -24 -28 -15 -24 9 2 18 2 18 -14 -1 -16 -20 -16 -20 -11 3 6 25 2 28 -10 10z"></path><path id="pSJ6pDqnY" d="M394 963 c-17 -16 -23 -22 -14 -15 9 6 21 12 27 12 6 0 16 7 23 15 21 25 -4 17 -36 -12z"></path><path id="pZi6GrriF" d="M418 948 c-21 -22 -38 -45 -38 -52 0 -7 -4 -6 -9 3 -7 11 -9 11 -14 0 -4 -11 -11 -9 -25 9 -26 28 -34 28 -26 -2 4 -19 -3 -30 -38 -59 -44 -37 -50 -62 -6 -28 13 11 38 23 54 27 l29 7 -25 -22 c-15 -13 -20 -25 -14 -29 12 -8 14 -52 2 -52 -4 0 -12 -9 -18 -19 -18 -34 13 -19 54 26 21 23 54 48 73 55 35 13 35 13 30 60 -5 37 -3 48 8 48 16 0 35 30 35 54 0 27 -33 15 -72 -26z m-37 -133 c0 -5 -7 -12 -16 -13 -23 -5 -47 6 -40 19 8 13 56 8 56 -6z"></path><path id="pN3d4hj62" d="M836 958 c-9 -12 -16 -30 -16 -39 0 -9 -9 -24 -20 -34 -11 -10 -20 -21 -20 -25 0 -11 39 -20 45 -10 7 12 55 9 55 -4 0 -6 21 -24 46 -39 38 -23 49 -25 63 -15 13 10 14 10 4 -1 -9 -11 -7 -21 10 -47 12 -19 26 -34 30 -34 5 0 6 4 3 8 -2 4 0 14 5 22 8 13 12 12 24 -4 8 -11 18 -16 22 -11 5 4 2 10 -4 12 -7 3 -13 11 -13 20 0 10 -9 14 -32 11 -24 -2 -33 1 -34 12 -2 35 -5 39 -19 34 -11 -5 -13 -2 -9 10 4 10 13 15 20 12 7 -3 16 0 20 6 4 7 3 8 -4 4 -7 -4 -12 -3 -12 3 0 17 20 23 35 11 11 -9 15 -9 15 -1 0 6 -4 11 -10 11 -5 0 -10 12 -10 28 -1 23 -2 25 -13 11 -7 -8 -25 -24 -41 -34 l-29 -19 7 22 c4 13 3 22 -3 22 -6 0 -8 7 -5 15 4 8 1 15 -5 15 -6 0 -11 -9 -11 -20 0 -11 -5 -20 -11 -20 -5 0 -8 4 -5 9 4 5 0 11 -6 14 -10 3 -8 10 6 26 l19 21 -49 -5 c-31 -3 -44 -1 -34 5 8 5 12 12 8 15 -3 4 -13 -4 -22 -17z"></path><path id="pggHXffLt" d="M496 885 c-11 -8 -16 -15 -12 -15 5 0 2 -7 -5 -17 -13 -15 -10 -16 29 -10 55 7 60 12 37 37 -21 24 -24 24 -49 5z"></path><path id="pyz4y7vCI" d="M665 771 c-30 -5 -35 -8 -22 -13 10 -4 32 -1 50 6 35 16 32 16 -28 7z"></path><path id="p3Zfzg4Sh" d="M535 760 c-3 -6 5 -10 19 -10 13 0 33 -3 43 -6 10 -3 7 2 -7 10 -29 18 -46 20 -55 6z"></path><path id="p5KlqWUaZ" d="M789 749 c14 -5 32 -15 40 -22 12 -10 13 -9 2 11 -8 15 -21 22 -39 21 l-27 0 24 -10z"></path><path id="pCcXJpVLm" d="M720 707 c0 -8 6 -20 14 -26 12 -10 13 -8 9 9 -7 25 -23 37 -23 17z"></path><path id="pccvAPoYY" d="M315 563 c-38 -9 -37 -21 4 -28 33 -5 40 -10 31 -20 -9 -11 -7 -12 9 -8 12 3 21 1 21 -6 0 -6 -4 -11 -10 -11 -5 0 -10 -5 -10 -11 0 -5 5 -7 11 -3 7 4 10 1 7 -7 -3 -8 -11 -13 -18 -11 -6 1 -10 -3 -7 -10 2 -7 -2 -25 -10 -40 -17 -35 -2 -36 23 -3 17 22 19 23 26 7 6 -15 7 -15 7 3 1 17 3 17 11 5 6 -9 10 -10 10 -3 0 6 -5 15 -10 18 -6 4 -7 11 -4 17 4 6 10 5 15 -3 7 -11 9 -11 9 1 0 9 11 32 25 52 29 42 31 58 10 58 -8 0 -15 -7 -15 -16 0 -13 -7 -15 -35 -11 -23 4 -35 2 -35 -6 0 -9 -2 -9 -8 -1 -4 7 -18 14 -32 17 -18 3 -14 5 15 6 64 4 90 20 30 19 -27 0 -59 -2 -70 -5z"></path><path id="pYChpm1Qg" d="M878 563 c-31 -5 -35 -15 -14 -32 8 -6 23 -34 35 -60 l21 -49 37 11 38 12 -36 3 c-28 2 -38 8 -43 25 -8 31 -7 37 4 37 6 0 10 -9 10 -20 0 -11 7 -20 15 -20 31 0 4 43 -35 55 -24 8 -26 21 -4 29 22 9 24 8 24 -9 0 -10 10 -15 29 -15 24 0 29 4 28 20 -1 17 -8 20 -42 19 -22 -1 -52 -4 -67 -6z"></path><path id="p13QtCik3E" d="M637 352 c-31 -32 -39 -64 -10 -41 18 15 18 16 -3 -36 -3 -8 -1 -15 5 -15 6 0 11 7 11 15 0 9 7 18 15 21 8 4 15 12 15 20 0 8 5 14 10 14 6 0 10 -5 10 -11 0 -8 5 -7 15 1 9 7 18 10 22 6 4 -3 -2 -13 -13 -20 -10 -8 -16 -17 -13 -20 3 -4 16 2 28 11 l23 18 -41 33 c-22 17 -41 32 -44 32 -2 0 -15 -13 -30 -28z"></path><path id="p1BFYfpXB2" d="M566 307 c-16 -12 -15 -14 9 -35 15 -13 30 -21 33 -17 4 4 -1 11 -11 16 -20 12 -23 35 -4 42 6 3 7 6 1 6 -5 1 -18 -5 -28 -12z"></path><path id="ptFpYBeSf" d="M667 284 c-8 -8 1 -24 14 -24 5 0 9 7 9 15 0 15 -12 20 -23 9z"></path><path id="pntnX3OnX" d="M810 254 c6 -14 10 -41 10 -61 0 -27 -3 -34 -15 -29 -20 7 -19 0 3 -21 30 -29 39 -24 41 24 1 31 -5 56 -20 79 -25 40 -32 44 -19 8z"></path><path id="prsx8o60Q" d="M888 183 c12 -2 30 -2 40 0 9 3 -1 5 -23 4 -22 0 -30 -2 -17 -4z"></path></g></g><g id="l6JUd84nChNb9akLsV4xVR2" fill="rgb(197,231,148)" style="transform: none;"><g><path id="pxgSeMm17" d="M629 1201 c19 -26 24 -28 46 -18 l25 12 -24 3 c-14 2 -30 10 -36 18 -23 27 -31 14 -11 -15z"></path><path id="poWRqWg97" d="M295 956 c17 -85 19 -79 -36 -116 -56 -39 -89 -69 -89 -83 0 -4 7 -1 16 8 9 9 29 24 43 33 59 38 101 78 101 95 0 6 -9 30 -20 52 -17 34 -19 35 -15 11z"></path><path id="pYlqswil7" d="M1007 899 c-25 -37 -25 -40 -6 -34 11 4 26 1 34 -5 11 -9 15 -9 15 -1 0 6 -5 11 -11 11 -7 0 -9 12 -5 35 4 19 5 35 3 35 -2 0 -15 -18 -30 -41z"></path><path id="pVDhZGdy8" d="M390 850 c-11 -7 -11 -11 -1 -24 9 -11 10 -16 2 -16 -14 0 -91 -79 -91 -93 0 -5 18 11 40 36 23 25 56 52 75 59 19 6 35 15 35 18 0 13 -47 28 -60 20z"></path><path id="ptlWn9Xt0" d="M887 854 c-14 -14 -7 -22 16 -18 12 2 16 2 9 -2 -8 -4 4 -17 33 -36 25 -16 53 -43 62 -59 10 -16 21 -29 25 -29 5 0 -2 15 -14 32 -32 45 -40 53 -63 62 -13 5 -15 10 -7 13 6 3 12 11 12 19 0 8 -6 14 -12 14 -7 0 -22 3 -33 6 -11 3 -24 2 -28 -2z"></path><path id="pqT3IsHjn" d="M1078 831 c12 -12 27 -21 33 -19 5 2 -5 12 -23 22 l-33 19 23 -22z"></path><path id="pb8PN0Tgq" d="M1178 761 c9 -16 18 -28 20 -27 6 7 -18 56 -27 56 -6 0 -2 -13 7 -29z"></path><path id="p1AjBrdDup" d="M330 566 c0 -2 11 -6 25 -8 14 -3 25 -1 25 3 0 5 -11 9 -25 9 -14 0 -25 -2 -25 -4z"></path><path id="poNMul4Z8" d="M925 560 c3 -5 17 -10 30 -10 13 0 27 5 30 10 4 6 -8 10 -30 10 -22 0 -34 -4 -30 -10z"></path><path id="pweSZL6qJ" d="M450 540 c0 -11 -6 -20 -12 -20 -14 0 -84 -89 -102 -130 -6 -14 -18 -30 -26 -37 -8 -7 -10 -12 -5 -13 19 0 33 15 54 60 12 25 32 53 45 62 23 17 24 17 19 -5 -3 -12 5 -3 17 21 12 23 34 51 47 62 l26 20 -32 0 c-24 0 -31 -4 -31 -20z"></path><path id="pMScf3fAw" d="M882 503 c12 -21 23 -40 24 -42 2 -1 2 13 1 32 -1 19 -5 33 -9 31 -4 -2 -9 0 -13 6 -3 5 -10 10 -15 10 -5 0 0 -17 12 -37z"></path><path id="p981OEDfb" d="M989 455 c-3 -2 -22 -5 -42 -7 -21 -1 -36 -7 -34 -13 4 -11 56 -8 72 5 6 4 19 10 30 13 19 5 19 5 -1 6 -11 0 -23 -1 -25 -4z"></path><path id="py0KCNjVd" d="M647 364 c-11 -14 -16 -28 -13 -31 3 -4 6 -2 6 4 0 20 32 23 61 6 16 -10 27 -23 25 -30 -6 -14 6 -18 17 -6 5 4 -70 85 -77 83 -1 0 -9 -12 -19 -26z"></path><path id="phpHBFjYc" d="M565 306 c-18 -13 -18 -14 3 -25 18 -10 21 -9 15 5 -3 9 0 20 8 25 8 5 9 9 3 9 -5 0 -19 -6 -29 -14z"></path><path id="p1AaRwiBnJ" d="M823 231 c12 -27 23 -43 25 -35 3 13 -34 84 -43 84 -2 0 6 -22 18 -49z"></path><path id="pPCIaGGuI" d="M820 171 c0 -8 -6 -11 -15 -7 -8 3 -15 1 -15 -4 0 -6 5 -10 10 -10 6 0 15 -10 20 -22 5 -13 9 -17 9 -10 1 7 6 10 11 7 14 -8 13 -2 -5 31 -8 16 -15 23 -15 15z"></path><path id="ptV3TAWJU" d="M573 162 c-24 -2 -43 -8 -43 -14 0 -6 12 -8 31 -4 17 3 42 6 55 6 13 0 24 4 24 8 0 5 -6 8 -12 8 -7 -1 -32 -2 -55 -4z"></path><path id="pUKuzGCjc" d="M680 159 c0 -5 19 -9 42 -9 23 0 38 3 34 7 -11 11 -76 13 -76 2z"></path></g></g><g id="l36Evha5vnVHk8kFWU84GnP" fill="rgb(222,237,153)" style="transform: none;"><g><path id="pThoIhWDO" d="M818 913 c-7 -15 -24 -33 -36 -39 -31 -15 -14 -25 37 -22 44 3 51 11 24 27 -10 6 -14 11 -10 11 17 0 55 -32 51 -44 -3 -8 4 -12 18 -12 13 1 22 -4 21 -11 -1 -6 4 -14 13 -17 8 -3 12 -2 9 4 -3 6 -3 10 2 10 13 1 76 61 70 67 -3 3 -19 -4 -35 -16 -42 -30 -54 -27 -101 24 -23 25 -43 45 -46 45 -2 0 -10 -12 -17 -27z"></path><path id="pEwIwMu4q" d="M310 890 c0 -11 -4 -20 -10 -20 -5 0 -10 -5 -10 -11 0 -6 8 -8 18 -5 10 4 33 -1 50 -10 32 -15 50 -34 35 -34 -4 0 -19 -10 -33 -21 -29 -24 -14 -17 48 22 l43 27 -60 23 c-34 12 -61 28 -61 35 0 8 -4 14 -10 14 -5 0 -10 -9 -10 -20z"></path><path id="p156VOVVcA" d="M509 878 c0 -13 -3 -17 -6 -10 -2 6 -10 12 -15 12 -6 0 -8 -3 -5 -7 4 -3 1 -13 -5 -20 -10 -13 -5 -14 38 -8 27 4 51 9 53 11 5 5 -40 44 -51 44 -4 0 -8 -10 -9 -22z"></path><path id="pXyEKgDgP" d="M648 763 c12 -2 30 -2 40 0 9 3 -1 5 -23 4 -22 0 -30 -2 -17 -4z"></path><path id="pWoHTl9xH" d="M863 533 c22 -22 29 -25 39 -14 11 10 10 12 -1 9 -21 -5 -25 20 -4 25 10 3 0 5 -22 6 l-40 1 28 -27z"></path><path id="p62LN5cmP" d="M387 521 c3 -11 9 -18 14 -15 16 10 9 -6 -21 -48 -16 -22 -30 -48 -30 -57 0 -9 7 -2 15 14 8 17 29 39 45 50 17 11 37 29 45 41 13 20 12 21 -13 21 -15 0 -35 3 -44 7 -13 6 -15 3 -11 -13z"></path></g></g><g id="l4m2GONO4WQawcBSWe6eE8k" fill="rgb(235,247,177)" style="transform: none;"><g><path id="p6z28htfj" d="M825 920 c-3 -5 0 -10 9 -10 8 0 17 -6 19 -12 4 -8 6 -9 6 -2 1 18 -26 37 -34 24z"></path><path id="pa5x8iEfm" d="M320 873 c0 -7 41 -28 98 -50 6 -3 12 0 12 6 0 7 -15 18 -32 25 -53 22 -78 28 -78 19z"></path><path id="pqalI726o" d="M520 865 c-10 -12 -10 -15 4 -15 9 0 16 7 16 15 0 8 -2 15 -4 15 -2 0 -9 -7 -16 -15z"></path><path id="pml88eisw" d="M960 850 c-8 -5 -24 -7 -35 -3 -17 5 -18 4 -8 -9 7 -8 10 -18 6 -21 -18 -19 16 -3 41 18 28 24 26 34 -4 15z"></path><path id="p18YUTFhmI" d="M450 520 c0 -5 -8 -10 -17 -10 -10 0 -23 -11 -30 -25 -6 -14 -7 -25 -2 -25 5 0 12 7 15 15 4 8 11 15 18 15 6 0 17 9 24 20 7 12 8 20 2 20 -5 0 -10 -4 -10 -10z"></path></g></g></svg>