<svg class="img-fluid" id="outputsvg" xmlns="http://www.w3.org/2000/svg" style="transform: none; transform-origin: 50% 50%; cursor: move; max-height: 371.92px;" width="132" height="132" viewBox="0 0 1320 1320"><g id="l1R2zJOvPMvCI6gBoJPPo8x" fill="rgb(28,18,45)" style="transform: none;"><g><path id="p1DbG9EqLc" d="M490 1304 c-77 -20 -185 -75 -253 -129 -56 -45 -157 -168 -157 -192 0 -18 54 -43 93 -43 43 0 97 27 97 48 1 9 11 30 24 46 l24 29 105 -6 c117 -7 117 -8 117 61 1 31 6 41 36 60 20 12 48 22 64 22 53 0 60 8 60 66 l0 54 -77 -1 c-43 0 -103 -7 -133 -15z"></path></g></g><g id="l1wBTsfNy1qeSAHLQSciUBS" fill="rgb(77,53,15)" style="transform: none;"><g><path id="pFNLMae7r" d="M670 1283 c0 -27 -5 -43 -15 -47 -29 -11 -14 -24 35 -31 49 -7 50 -7 50 -42 l0 -36 63 6 c34 3 70 8 80 12 15 6 17 0 17 -64 l0 -71 34 0 c29 0 36 5 45 31 14 40 40 36 63 -10 9 -18 30 -42 47 -52 17 -10 31 -26 31 -34 0 -23 78 -20 110 4 l25 20 -49 71 c-106 155 -287 264 -463 277 l-73 6 0 -40z"></path><path id="pKzW2rrCI" d="M543 675 c-18 -20 -16 -72 3 -79 32 -12 84 -7 84 9 0 8 7 15 15 15 10 0 15 11 15 35 l0 35 -52 0 c-33 -1 -58 -6 -65 -15z"></path><path id="peVa9j9HT" d="M780 675 c0 -8 -9 -15 -20 -15 -16 0 -20 -7 -20 -35 0 -33 2 -35 35 -35 24 0 35 5 35 15 0 8 9 15 20 15 16 0 20 7 20 35 0 33 -2 35 -35 35 -24 0 -35 -5 -35 -15z"></path></g></g><g id="l2kdNfMYArRkNGXKSVECOT9" fill="rgb(74,61,93)" style="transform: none;"><g><path id="pmSB3buW1" d="M274 1201 c-79 -56 -106 -83 -164 -166 l-41 -60 31 -3 c38 -4 52 6 27 19 -9 6 -17 16 -17 23 0 21 123 149 184 191 51 35 63 45 53 45 -2 0 -35 -22 -73 -49z"></path><path id="pS32ONA96" d="M616 1233 c-22 -3 -51 -13 -64 -24 -14 -10 -31 -19 -38 -19 -8 0 -14 -7 -14 -15 0 -17 -50 -21 -66 -5 -5 5 -15 6 -24 0 -11 -7 -10 -12 10 -28 21 -17 22 -22 11 -36 -7 -9 -26 -16 -42 -16 -24 0 -29 4 -29 25 0 22 -3 24 -18 16 -34 -18 -102 -93 -102 -112 0 -13 -14 -25 -40 -36 -52 -23 -55 -53 -5 -53 19 0 35 3 35 8 0 4 10 12 22 17 13 6 26 24 31 45 5 19 14 38 20 42 7 4 56 8 109 8 53 0 103 3 112 6 11 4 16 19 16 50 0 36 4 46 23 55 12 5 33 16 47 24 14 8 40 15 58 15 25 0 32 4 32 20 0 21 -1 21 -84 13z m-106 -115 c0 -7 -4 -19 -9 -27 -11 -17 -25 3 -17 24 7 18 26 20 26 3z"></path><path id="pUtGGgLbR" d="M100 400 c-6 -11 -17 -20 -25 -20 -8 0 -15 -3 -15 -7 0 -16 40 -73 51 -73 6 0 28 12 50 27 31 23 39 34 39 61 0 31 -1 32 -45 32 -34 0 -47 -5 -55 -20z"></path></g></g><g id="l6Fc1wszXkrZ78TKxrlhmYG" fill="rgb(62,123,50)" style="transform: none;"><g><path id="pOgxoGqEv" d="M1130 396 c0 -9 -12 -16 -32 -18 -27 -2 -34 -8 -36 -30 -2 -20 -10 -28 -33 -33 -31 -7 -59 -47 -59 -85 0 -13 -12 -26 -35 -37 -32 -15 -36 -15 -54 1 -14 13 -32 16 -72 14 l-54 -3 -3 -42 -3 -42 -55 -7 -54 -6 0 -56 0 -55 87 6 c192 11 371 117 483 283 27 42 50 79 50 82 0 4 -14 15 -31 25 -38 21 -99 23 -99 3z"></path></g></g><g id="l66V2nazZ8quaraltZbBMRP" fill="rgb(123,95,24)" style="transform: none;"><g><path id="pUv81zpPD" d="M658 1233 c-33 -8 -20 -33 16 -33 54 0 66 -8 66 -46 0 -34 0 -34 48 -34 26 0 53 5 59 11 6 6 21 9 34 7 21 -3 22 -7 20 -70 l-2 -68 35 0 c27 0 36 5 42 23 12 40 25 49 45 32 9 -9 20 -26 23 -38 9 -32 70 -66 129 -72 61 -7 82 3 72 34 l-7 22 -34 -21 c-42 -24 -54 -25 -54 -5 0 8 -14 24 -32 35 -17 10 -37 33 -44 49 -8 18 -27 38 -48 48 -41 19 -59 10 -80 -41 l-12 -30 0 37 c0 20 4 37 8 37 4 0 8 11 8 25 0 32 -41 60 -75 51 -14 -4 -28 -7 -32 -7 -5 -1 -17 -6 -28 -11 -20 -11 -20 -11 -1 11 26 29 14 39 -60 51 -62 10 -68 11 -96 3z"></path><path id="pC1TrwMqw" d="M614 775 c-4 -9 -19 -15 -40 -15 -30 0 -34 -3 -34 -25 0 -18 -5 -25 -20 -25 -17 0 -20 -7 -20 -49 0 -33 5 -53 17 -62 20 -17 117 -19 134 -2 6 6 14 35 17 62 2 28 8 51 11 51 4 0 5 -16 3 -35 -3 -22 2 -45 12 -60 14 -22 24 -25 76 -25 70 0 90 19 90 88 0 35 -4 45 -20 49 -11 3 -20 12 -20 19 0 9 -12 14 -34 14 -30 0 -35 -4 -39 -27 -3 -20 -4 -15 -6 15 l-1 42 -60 0 c-45 0 -62 -4 -66 -15z"></path></g></g><g id="l1uwrHumgAxjRNyYgs2fHBg" fill="rgb(32,75,146)" style="transform: none;"><g><path id="piYIbhl6G" d="M60 947 c-45 -95 -60 -169 -60 -287 0 -115 15 -189 57 -282 23 -52 29 -58 56 -58 38 0 77 40 77 81 0 16 6 32 14 35 21 8 27 45 20 124 -6 62 -9 70 -28 70 -12 0 -32 3 -45 7 -22 6 -23 9 -18 63 8 73 15 90 37 90 10 0 22 6 27 13 13 16 25 177 14 177 -5 0 -11 -4 -13 -10 -1 -5 -27 1 -56 15 l-53 25 -29 -63z m109 -560 c-2 -1 -15 -11 -28 -22 l-24 -20 12 23 c6 12 19 22 28 22 9 0 14 -1 12 -3z"></path></g></g><g id="l5q2BKVGtqt31cyGDr7nQ0K" fill="rgb(204,39,30)" style="transform: none;"><g><path id="poxTWB48o" d="M163 394 c4 -4 -10 -19 -31 -35 -29 -22 -40 -25 -51 -16 -22 18 17 -45 67 -109 104 -132 306 -234 464 -234 l58 0 0 40 c0 30 4 40 16 40 9 0 14 6 12 13 -3 6 -27 14 -55 17 -55 6 -85 26 -109 72 -12 22 -21 28 -49 28 -19 0 -35 -4 -35 -10 0 -5 -13 -10 -29 -10 -20 0 -42 13 -75 43 -39 36 -46 49 -46 80 0 36 -1 37 -35 37 -28 0 -38 5 -47 25 -8 17 -19 25 -36 25 -14 0 -22 -3 -19 -6z"></path></g></g><g id="l5hNytF01UDqEnsr0WDdlX6" fill="rgb(209,77,16)" style="transform: none;"><g><path id="pWvbNxo06" d="M165 390 c3 -5 1 -10 -4 -10 -6 0 -11 -4 -11 -10 0 -5 6 -7 13 -4 8 3 18 -6 25 -21 9 -20 19 -25 47 -25 32 0 34 -2 23 -19 -10 -16 -7 -25 20 -58 41 -52 106 -97 128 -89 11 4 24 -1 36 -14 10 -11 28 -20 38 -20 23 0 23 0 10 37 -8 24 -8 25 3 9 39 -62 64 -80 118 -86 69 -7 91 -3 87 18 -2 12 -18 19 -55 23 -63 8 -65 9 -99 63 -27 43 -29 44 -97 51 -47 4 -72 3 -77 -4 -14 -23 -53 37 -54 81 l-1 43 -44 3 c-33 3 -44 8 -48 23 -4 13 -14 19 -35 19 -17 0 -27 -4 -23 -10z"></path></g></g><g id="l1FSrRGIHcWkgb9lzGtohAG" fill="rgb(172,78,83)" style="transform: none;"><g><path id="phrN743Qv" d="M158 398 c17 -17 -57 -71 -77 -55 -12 10 -12 9 -2 -12 7 -13 16 -20 20 -15 10 15 69 54 81 54 5 0 10 -7 10 -15 0 -8 7 -15 15 -15 10 0 15 11 15 35 0 34 -1 35 -37 35 -28 0 -34 -3 -25 -12z"></path><path id="pXlU1bkG9" d="M120 272 c12 -18 24 -31 27 -28 3 2 -7 17 -22 33 l-28 28 23 -33z"></path><path id="pfuH34TOl" d="M185 191 c21 -22 41 -41 43 -41 8 0 -44 58 -63 70 -11 7 -2 -6 20 -29z"></path></g></g><g id="l4EaBJaDiuCgOpYiOP3DuPS" fill="rgb(67,109,162)" style="transform: none;"><g><path id="pdCOuiTLP" d="M81 992 c-17 -31 -13 -40 5 -14 9 13 14 26 11 29 -3 2 -10 -4 -16 -15z"></path><path id="p1FQMmT9J7" d="M183 954 c-25 -28 -29 -49 -13 -59 14 -9 13 -48 -2 -63 -7 -7 -20 -12 -29 -12 -21 0 -27 -16 -35 -86 -6 -50 -5 -54 15 -54 16 0 21 6 21 28 0 49 11 70 38 77 15 4 30 12 34 18 10 16 10 177 1 177 -5 0 -18 -12 -30 -26z"></path><path id="pv935lyVX" d="M44 915 c-32 -78 -44 -150 -42 -265 l1 -115 8 135 c5 105 13 151 32 208 27 74 27 99 1 37z"></path><path id="p12nJ5c2Co" d="M100 631 c0 -12 6 -21 14 -21 23 0 31 -22 12 -32 -27 -15 -19 -35 13 -30 54 8 78 -71 25 -84 -33 -8 -31 -37 6 -76 l30 -31 0 36 c0 19 7 43 16 52 14 13 15 30 9 105 -7 83 -9 90 -29 90 -11 0 -38 3 -58 6 -34 6 -38 4 -38 -15z"></path><path id="pSysORVsH" d="M11 519 c-1 -18 40 -142 45 -136 2 2 -7 37 -21 78 -13 41 -24 67 -24 58z"></path></g></g><g id="l235fdHM31zHPP4VJS2ewAV" fill="rgb(177,141,24)" style="transform: none;"><g><path id="p1HG3kQxnw" d="M790 1205 c0 -10 -10 -15 -30 -15 -28 0 -30 -3 -30 -35 0 -33 2 -35 35 -35 29 0 35 4 35 21 0 15 -5 19 -15 15 -9 -3 -15 0 -15 9 0 8 8 15 19 15 27 0 46 26 25 34 -22 9 -24 8 -24 -9z"></path><path id="pAv80oBLL" d="M873 1183 c-28 -11 -13 -33 22 -33 39 0 46 14 16 30 -11 5 -21 10 -23 9 -2 0 -9 -3 -15 -6z"></path><path id="p11okdu4Wf" d="M1040 1035 c0 -34 1 -35 37 -35 l37 0 -22 20 c-12 12 -22 27 -22 35 0 8 -7 15 -15 15 -10 0 -15 -11 -15 -35z"></path><path id="py2HvXdir" d="M900 1025 c0 -33 2 -35 35 -35 33 0 35 2 35 35 0 38 -13 46 -29 18 -10 -17 -10 -17 -11 0 0 9 -7 17 -15 17 -10 0 -15 -11 -15 -35z"></path><path id="pjngjmh1w" d="M581 980 c-60 -81 -74 -90 -133 -90 -24 0 -60 -3 -81 -6 -35 -6 -37 -8 -37 -46 0 -31 4 -41 19 -45 13 -3 21 -17 26 -46 11 -67 11 -137 0 -145 -19 -13 -45 -73 -45 -102 0 -36 17 -46 95 -55 96 -10 97 -11 155 -90 52 -70 57 -75 93 -75 20 0 37 3 37 8 0 4 14 23 30 42 16 19 30 39 30 44 0 5 13 21 29 36 24 23 40 28 107 35 43 4 85 12 92 17 20 17 14 59 -20 136 -32 72 -32 74 -15 104 9 16 17 40 17 53 0 13 5 27 10 30 6 3 10 26 10 50 l0 44 -47 6 c-138 16 -133 14 -192 93 -50 67 -56 72 -91 72 -35 0 -41 -5 -89 -70z m129 -94 l41 -54 74 -7 c68 -6 75 -9 75 -28 -1 -12 -7 -33 -15 -47 -21 -37 -19 -123 5 -172 11 -23 20 -45 20 -49 0 -4 -32 -11 -70 -15 -67 -6 -120 -30 -120 -54 0 -5 -11 -21 -25 -36 -28 -31 -40 -26 -70 31 -22 39 -47 51 -124 59 -29 3 -56 8 -59 10 -3 3 5 29 17 57 11 28 21 63 21 77 0 30 -20 103 -32 116 -19 23 -4 33 67 45 75 12 75 12 113 66 20 30 38 54 39 55 1 0 21 -24 43 -54z"></path><path id="p17MDQeX7x" d="M610 776 c0 -12 -9 -16 -34 -16 -44 0 -66 -9 -66 -26 0 -8 -4 -14 -10 -14 -5 0 -10 -22 -10 -50 0 -73 23 -94 101 -88 32 2 62 8 66 12 5 4 11 35 14 69 l6 62 1 -57 c2 -69 22 -88 94 -88 71 0 93 25 84 98 -8 69 -19 82 -66 82 -21 0 -40 4 -42 9 -1 5 -33 12 -70 16 -59 6 -68 5 -68 -9z m210 -124 c-21 -37 -71 -43 -94 -11 -20 30 -14 37 36 37 24 1 44 6 46 12 3 9 7 9 15 1 9 -9 8 -19 -3 -39z m-189 -4 c-5 -14 -18 -28 -29 -30 -28 -8 -66 14 -70 39 -3 18 1 21 31 18 18 -2 40 1 48 5 21 13 31 -3 20 -32z"></path><path id="pMetn7LSe" d="M620 120 c0 -17 5 -30 13 -30 6 0 22 -3 35 -6 20 -6 22 -3 22 30 0 34 -1 36 -35 36 -32 0 -35 -2 -35 -30z"></path></g></g><g id="l5CTHVaULQQ5GoKFEOhLWWm" fill="rgb(113,169,79)" style="transform: none;"><g><path id="pnF1msh8P" d="M1050 400 c0 -22 -4 -40 -10 -40 -5 0 -10 -9 -10 -20 0 -14 -9 -21 -35 -26 -34 -6 -35 -7 -35 -55 0 -45 -3 -51 -27 -60 -20 -7 -34 -7 -50 2 -25 13 -92 6 -123 -14 -12 -7 -20 -23 -20 -39 0 -26 -3 -28 -40 -28 -25 0 -40 -5 -40 -12 0 -9 -4 -8 -10 2 -8 13 -10 13 -10 -2 0 -23 31 -31 98 -23 66 8 102 27 102 54 0 27 -31 36 -48 14 -13 -17 -14 -17 -10 2 5 27 45 31 71 7 34 -30 48 -31 100 -5 33 16 47 29 47 44 0 44 28 77 72 86 34 7 44 13 46 31 4 26 -14 30 -21 5 -4 -16 -5 -16 -6 -1 -1 23 15 31 39 18 17 -9 20 -7 26 15 3 14 8 25 10 25 1 0 19 -10 39 -22 31 -17 38 -19 46 -7 14 22 11 29 -18 40 -16 6 -44 20 -64 30 -20 11 -55 19 -78 19 l-41 0 0 -40z"></path><path id="pZPTafbyw" d="M1056 255 c-9 -9 -16 -22 -16 -28 0 -6 10 -2 22 11 12 12 19 24 16 27 -3 3 -13 -1 -22 -10z"></path></g></g><g id="l3qQHooywAufmTv6ya8jksN" fill="rgb(178,147,62)" style="transform: none;"><g><path id="pT0nEktjg" d="M680 1211 c0 -14 6 -21 20 -21 17 0 20 -7 20 -40 l0 -40 61 0 c40 0 65 5 75 15 28 27 34 16 34 -60 l0 -75 31 0 c35 0 59 20 59 49 0 16 6 21 25 21 16 0 25 -6 25 -15 0 -8 4 -15 10 -15 6 0 7 -23 3 -60 l-6 -60 37 0 c25 0 36 4 36 15 0 10 11 15 35 15 19 0 35 5 35 10 0 6 -6 10 -14 10 -8 0 -16 7 -20 15 -3 9 -21 25 -41 36 -19 12 -35 29 -35 38 0 23 -41 61 -67 61 -24 0 -47 -24 -61 -65 -10 -29 -10 -29 -11 16 -1 25 4 50 10 56 27 27 -35 78 -76 62 -74 -29 -106 -33 -98 -13 3 8 13 14 23 14 22 0 36 18 24 30 -5 5 -37 12 -71 16 -60 6 -63 5 -63 -15z"></path><path id="pttos0uUt" d="M623 1040 c-3 -11 -8 -20 -12 -20 -4 0 -25 -24 -46 -52 -22 -29 -44 -56 -49 -60 -6 -4 -43 -10 -83 -14 -52 -4 -73 -10 -73 -20 0 -8 -7 -14 -15 -14 -24 0 -18 -54 15 -126 l29 -65 -25 -57 c-14 -31 -28 -80 -31 -108 l-5 -50 97 -12 c92 -12 125 -25 125 -52 0 -7 13 -10 33 -8 28 3 32 7 35 36 2 17 -1 32 -7 32 -5 0 -11 12 -13 28 -3 27 -3 27 -86 28 -46 1 -86 4 -89 7 -3 3 5 27 17 52 19 39 22 58 18 116 -3 38 -11 75 -17 83 -7 8 -11 25 -9 38 3 21 9 23 70 28 70 5 77 10 139 89 17 22 30 30 42 25 9 -3 17 -11 17 -18 0 -20 46 -68 62 -65 13 3 5 20 -35 76 -29 40 -54 72 -57 72 -3 0 -29 -33 -58 -74 -31 -44 -60 -75 -70 -75 -16 1 -16 1 0 11 9 5 40 41 69 80 29 38 56 68 61 67 5 -2 33 -35 61 -73 31 -41 62 -72 77 -76 16 -4 19 -7 8 -8 -24 -1 -23 -28 1 -36 11 -3 35 -5 55 -3 19 1 37 0 40 -2 2 -3 -2 -22 -9 -43 -7 -21 -16 -64 -20 -95 -5 -48 -2 -66 19 -114 l26 -58 -40 0 c-29 0 -40 -4 -40 -15 0 -12 9 -14 43 -9 75 10 73 8 53 69 -4 11 2 4 12 -15 24 -42 14 -60 -32 -60 -47 0 -76 -11 -76 -28 0 -12 11 -14 71 -8 39 3 76 9 81 13 16 9 2 92 -26 155 -22 49 -24 60 -13 90 7 18 15 35 18 38 11 10 29 74 29 105 0 38 -8 42 -122 51 -48 4 -78 11 -78 18 0 6 -13 26 -29 43 -15 17 -31 38 -34 47 -4 9 -13 16 -22 16 -8 0 -15 9 -15 20 0 17 -7 20 -41 20 -32 0 -42 -4 -46 -20z m-133 -191 c-19 -4 -52 -9 -72 -10 -21 -2 -38 -7 -38 -12 0 -4 -4 -5 -10 -2 -32 20 4 32 100 32 50 1 52 0 20 -8z m428 4 c-10 -2 -28 -2 -40 0 -13 2 -5 4 17 4 22 1 32 -1 23 -4z m52 -13 c0 -6 -7 -22 -16 -35 -9 -13 -13 -28 -10 -33 3 -5 -4 -26 -14 -48 -24 -46 -25 -66 -4 -105 8 -17 13 -33 10 -36 -7 -7 -36 65 -36 89 0 10 9 36 20 57 10 21 16 41 13 44 -3 4 2 18 12 33 14 22 15 28 4 35 -11 7 -10 9 4 9 9 0 17 -5 17 -10z m-531 -148 c8 -26 6 -40 -10 -75 -11 -23 -17 -33 -13 -22 15 49 15 83 0 125 -9 25 -16 50 -16 55 0 13 25 -40 39 -83z m-54 -171 c-7 -23 7 -29 83 -37 78 -8 104 -19 125 -56 25 -43 14 -47 -13 -4 -23 38 -30 41 -125 51 -80 9 -99 19 -82 45 15 25 20 25 12 1z"></path><path id="pM9eEjwg2" d="M621 754 c2 -25 6 -47 11 -50 11 -7 10 -56 -2 -74 -5 -9 -25 -15 -49 -15 -23 0 -41 -3 -41 -7 0 -5 7 -8 15 -8 8 0 15 -4 15 -10 0 -5 15 -10 34 -10 38 0 46 14 46 88 0 35 3 42 20 42 16 0 20 -7 20 -30 0 -16 5 -30 10 -30 6 0 10 11 10 23 0 24 22 49 50 60 10 4 7 6 -7 6 -19 1 -23 7 -23 31 0 30 -1 30 -55 30 l-56 0 2 -46z"></path><path id="pN1iuWCMB" d="M814 708 c22 -30 20 -54 -5 -79 -16 -16 -29 -20 -50 -15 -16 3 -29 1 -29 -4 0 -11 72 -13 108 -4 20 6 22 13 22 65 l0 59 -31 0 c-29 0 -30 -1 -15 -22z"></path><path id="p7olOAoqh" d="M500 686 c0 -19 6 -36 13 -39 10 -4 13 2 9 19 -4 23 -3 24 21 13 21 -10 30 -9 44 2 11 9 14 10 9 2 -5 -9 -2 -11 8 -7 20 8 20 18 1 34 -12 10 -21 10 -40 2 -15 -7 -25 -8 -25 -2 0 6 -9 10 -20 10 -16 0 -20 -7 -20 -34z"></path><path id="p4tyHg5Du" d="M734 706 c-30 -23 -1 -36 49 -21 22 6 25 10 16 21 -15 18 -40 18 -65 0z"></path><path id="p14UUJMHuO" d="M583 653 c-7 -2 -13 -9 -13 -15 0 -12 41 -6 41 7 1 12 -11 15 -28 8z"></path><path id="p18hMOPU3R" d="M773 653 c-20 -8 -15 -23 7 -23 11 0 20 7 20 15 0 15 -6 17 -27 8z"></path><path id="pWDMqznVy" d="M740 471 c-17 -15 -30 -34 -30 -40 0 -13 -24 -41 -35 -41 -4 0 -13 -6 -20 -14 -12 -11 -12 -17 -1 -32 12 -16 16 -17 32 -4 18 14 18 14 4 -5 -8 -11 -15 -22 -16 -23 -2 -2 -16 11 -33 30 l-30 33 -1 -38 c0 -45 12 -52 76 -42 34 5 48 12 51 26 3 10 9 19 14 19 5 0 9 5 9 10 0 6 18 29 40 51 22 22 40 47 40 55 0 22 -39 16 -65 -11 -14 -13 -25 -20 -25 -15 0 14 51 50 71 50 11 0 19 5 19 10 0 6 -16 10 -35 10 -25 0 -44 -8 -65 -29z m-12 -90 c-7 -12 -16 -21 -21 -21 -4 0 0 11 9 25 20 30 31 26 12 -4z"></path></g></g><g id="l38zM5y2iq1F22ySfz0AhoE" fill="rgb(125,104,162)" style="transform: none;"><g><path id="ppWQ8sA0j" d="M580 1215 c-14 -8 -35 -19 -48 -24 -12 -6 -25 -18 -28 -26 -7 -18 -55 -20 -72 -3 -6 6 -15 9 -18 5 -4 -4 4 -15 17 -26 23 -19 24 -19 5 -40 -12 -13 -31 -21 -53 -21 -29 0 -33 3 -33 26 l0 27 -42 -35 c-24 -20 -48 -50 -54 -69 -6 -18 -20 -38 -30 -44 -19 -11 -53 -46 -54 -56 -1 -16 60 -29 135 -29 80 0 85 1 85 21 0 22 27 49 73 74 15 9 27 22 27 30 0 8 9 15 20 15 10 0 24 9 30 20 9 16 21 20 68 20 32 0 63 5 70 12 7 7 12 39 12 75 l0 63 -42 0 c-24 0 -54 -7 -68 -15z m-74 -121 c-7 -19 -22 -18 -30 3 -5 11 0 22 11 31 15 11 18 11 21 -3 2 -9 1 -23 -2 -31z"></path><path id="pb9gqGoM8" d="M1140 905 c0 -33 2 -35 35 -35 33 0 35 2 35 35 0 33 -2 35 -35 35 -33 0 -35 -2 -35 -35z"></path></g></g><g id="l2ssFXYHpvwdDQxQ4002Hf8" fill="rgb(244,136,27)" style="transform: none;"><g><path id="pgjyjUaq2" d="M800 490 c0 -5 18 -10 40 -10 22 0 40 5 40 10 0 6 -18 10 -40 10 -22 0 -40 -4 -40 -10z"></path><path id="pxKG29Uo6" d="M807 463 c-19 -19 -5 -33 33 -33 33 0 40 3 40 20 0 16 -7 20 -33 20 -19 0 -37 -3 -40 -7z"></path><path id="p6PSWPfzf" d="M230 435 c0 -10 -11 -15 -35 -15 -37 0 -44 -10 -21 -32 8 -8 15 -23 18 -34 2 -14 13 -20 38 -22 56 -5 66 -10 45 -26 -18 -13 -18 -14 1 -47 19 -33 96 -99 115 -99 5 0 9 12 10 28 0 15 3 20 6 12 8 -22 55 -70 69 -70 13 0 8 36 -9 58 -6 8 -5 12 4 12 8 0 27 -21 43 -46 16 -25 39 -49 51 -54 20 -8 78 -13 118 -11 18 1 25 31 7 31 -5 0 -10 25 -10 56 0 66 -13 94 -43 94 -14 0 -28 11 -39 31 -17 28 -21 30 -70 27 -49 -3 -53 -5 -62 -35 -7 -27 -15 -34 -45 -39 -20 -3 -43 -8 -52 -10 -20 -5 -45 21 -29 31 5 3 10 15 10 26 0 10 7 19 15 19 12 0 15 14 15 65 l0 65 -75 0 c-60 0 -75 -3 -75 -15z"></path></g></g><g id="l26Nv22c6Y6wN4nuUzQPHf6" fill="rgb(211,166,34)" style="transform: none;"><g><path id="pRXOqHaxf" d="M863 1173 c-7 -2 -13 -18 -13 -34 0 -27 2 -29 40 -29 35 0 40 3 40 23 0 38 -29 56 -67 40z"></path><path id="pSUTL0vQT" d="M973 1095 c-7 -8 -13 -28 -13 -45 0 -28 3 -30 34 -30 30 0 35 4 41 30 8 35 -1 54 -22 46 -8 -3 -11 -1 -8 4 10 15 -18 11 -32 -5z"></path><path id="p14e4TjlhF" d="M583 966 c-51 -71 -53 -73 -109 -85 -32 -6 -72 -11 -91 -11 -37 0 -39 -6 -27 -107 5 -42 11 -53 25 -53 11 0 19 -9 21 -22 4 -26 -10 -78 -21 -78 -11 0 -31 -71 -31 -108 0 -36 11 -41 103 -49 47 -4 67 -10 67 -19 0 -8 7 -14 15 -14 8 0 19 -9 25 -20 10 -18 8 -20 -25 -20 -36 0 -36 -1 -33 -37 2 -31 7 -39 26 -41 13 -2 31 -16 40 -32 10 -18 27 -30 44 -32 26 -4 28 -2 28 26 0 31 1 31 40 28 32 -3 40 -1 40 12 0 9 19 41 41 71 33 44 47 55 70 55 16 0 29 4 29 9 0 5 28 13 63 18 l62 8 3 41 c2 28 -5 59 -22 97 -31 67 -32 72 -5 121 11 22 23 63 26 92 6 60 9 59 -105 69 l-72 7 -53 74 c-47 67 -55 73 -87 73 -32 0 -39 -5 -87 -73z m151 -15 l59 -78 70 -7 c39 -4 81 -9 94 -12 28 -7 26 -15 -19 -116 l-31 -67 37 -86 c20 -47 34 -89 31 -94 -4 -7 -73 -20 -145 -27 -8 0 -21 -2 -28 -3 -6 0 -32 -28 -56 -61 -44 -59 -71 -90 -79 -90 -3 0 -103 131 -112 147 0 1 -45 8 -98 14 -53 7 -97 16 -97 20 0 5 16 47 35 94 34 80 35 87 21 119 -8 19 -12 37 -8 40 3 3 1 6 -5 6 -11 0 -48 88 -40 96 3 3 46 11 96 18 50 7 92 14 94 17 64 87 113 149 117 149 3 0 32 -36 64 -79z"></path><path id="pnslMjR9U" d="M613 936 l-52 -74 -63 -11 c-35 -6 -75 -12 -90 -13 -34 -3 -34 -4 -5 -59 41 -78 47 -114 30 -159 -9 -22 -20 -40 -25 -40 -5 0 -6 -5 -2 -11 3 -6 2 -14 -3 -18 -6 -3 -13 -16 -17 -27 -8 -28 7 -34 102 -41 65 -5 75 -9 90 -32 27 -44 86 -121 92 -121 3 0 28 29 54 65 26 36 55 69 64 74 10 5 50 12 90 16 44 4 75 12 78 20 3 7 -9 42 -25 79 -36 78 -37 94 -12 144 10 20 16 43 13 51 -3 9 0 11 8 6 9 -5 11 -4 6 4 -4 6 -2 19 5 27 19 23 0 30 -92 38 l-79 7 -52 74 c-29 41 -55 74 -58 74 -3 0 -28 -33 -57 -73z m97 -61 c37 -49 39 -50 123 -60 34 -4 57 -11 57 -18 -1 -21 -39 -83 -40 -64 0 10 -8 17 -20 17 -11 0 -20 5 -20 10 0 6 -13 10 -29 10 -16 0 -31 6 -35 15 -3 9 -19 15 -41 15 -31 0 -35 -3 -35 -25 0 -25 15 -35 22 -14 2 7 9 5 17 -5 12 -14 9 -16 -28 -16 -22 0 -41 5 -41 10 0 16 -113 12 -137 -5 -19 -14 -22 -13 -33 16 -7 16 -10 32 -8 35 3 2 31 9 63 14 62 10 84 25 116 77 11 18 24 33 28 33 4 0 22 -20 41 -45z m-92 -161 c44 -30 20 -104 -34 -104 -29 0 -64 32 -64 59 0 14 7 18 33 18 71 0 73 1 55 20 -14 14 -22 15 -43 5 -14 -6 -25 -8 -25 -3 0 23 48 26 78 5z m196 -3 c25 -28 17 -72 -16 -91 -25 -13 -31 -13 -55 0 -54 30 -34 110 27 110 15 0 35 -9 44 -19z m-18 -133 c76 0 82 -1 92 -23 13 -28 1 -35 -59 -35 -28 0 -39 4 -39 15 0 10 -10 15 -34 15 -37 0 -46 -12 -46 -60 0 -15 -6 -33 -13 -39 -15 -12 -27 -5 -27 16 0 27 -29 45 -65 41 -19 -2 -35 0 -35 4 0 4 -17 8 -37 8 -59 0 -83 9 -76 28 13 35 21 37 140 33 65 -2 155 -4 199 -3z"></path><path id="pDKwjAleG" d="M742 708 c-20 -20 -14 -24 23 -20 21 3 34 9 32 16 -5 16 -40 19 -55 4z"></path><path id="pbQ6p2lxY" d="M1030 950 c0 -38 2 -40 29 -40 49 0 61 9 61 46 0 34 -1 34 -45 34 l-45 0 0 -40z"></path><path id="p16jMyFFNb" d="M320 430 c0 -5 7 -10 16 -10 14 0 14 -3 3 -16 -10 -13 -10 -17 2 -25 8 -5 24 -9 37 -9 19 0 22 5 22 35 0 34 -1 35 -40 35 -22 0 -40 -4 -40 -10z"></path><path id="pLbfLKNXD" d="M310 236 c0 -16 37 -46 57 -46 8 0 13 12 13 30 0 28 -3 30 -35 30 -24 0 -35 -5 -35 -14z"></path><path id="puBfLu2xi" d="M652 145 c4 -28 1 -46 -6 -49 -6 -2 1 -5 17 -5 26 -1 27 1 27 49 0 44 -2 50 -21 50 -20 0 -21 -4 -17 -45z"></path></g></g><g id="l7kYvs34oQjdVGZ1YzfD8G6" fill="rgb(146,194,92)" style="transform: none;"><g><path id="pyB9hEXGw" d="M948 443 c-9 -2 -19 -15 -22 -29 -4 -13 -11 -24 -16 -24 -6 0 -10 -7 -10 -15 0 -8 -4 -15 -8 -15 -5 0 -14 -16 -22 -35 -8 -19 -20 -35 -27 -35 -7 0 -13 -6 -13 -14 0 -10 -19 -16 -65 -21 -36 -4 -65 -11 -65 -16 0 -5 -8 -9 -19 -9 -22 0 -29 -32 -23 -98 l4 -42 47 0 c86 0 145 29 125 61 -8 14 -31 10 -38 -7 -3 -8 -10 -12 -16 -9 -7 4 -7 13 0 26 14 25 62 25 85 -1 23 -25 29 -25 81 0 35 18 42 26 48 59 6 42 28 65 67 75 22 5 25 10 21 31 -2 15 0 25 7 25 15 0 14 33 -1 48 -17 17 10 15 42 -3 30 -17 40 -18 40 -5 0 6 -9 10 -20 10 -15 0 -20 7 -20 25 0 25 -1 25 -82 24 -46 -1 -90 -3 -100 -6z"></path></g></g><g id="l24aNKf0lqr5dQfI5YmGYlo" fill="rgb(238,174,24)" style="transform: none;"><g><path id="p15fNyVrTR" d="M680 1021 c0 -5 7 -14 15 -21 13 -10 15 -9 15 9 0 12 -6 21 -15 21 -8 0 -15 -4 -15 -9z"></path><path id="pvnW77XMq" d="M655 980 c-18 -20 -17 -20 15 -20 29 0 31 2 19 18 -7 9 -14 18 -15 20 0 1 -9 -7 -19 -18z"></path><path id="pgaZIUNSQ" d="M533 848 c-45 -15 -43 -38 2 -38 31 0 35 3 35 25 0 14 -1 25 -2 24 -2 -1 -18 -6 -35 -11z"></path><path id="pJHFTNBty" d="M880 781 c0 -5 -9 -11 -20 -14 -12 -3 -20 -14 -20 -25 0 -12 -4 -23 -10 -27 -5 -3 -6 -15 -1 -28 4 -12 6 -28 4 -34 -14 -40 49 25 68 69 6 15 14 26 18 24 3 -2 6 7 6 20 0 18 -5 24 -22 24 -13 0 -23 -4 -23 -9z"></path><path id="pPjHMdCrc" d="M550 750 c0 -16 7 -20 33 -20 42 0 90 -48 85 -85 -2 -14 -7 -25 -13 -25 -13 1 -23 -34 -24 -82 -1 -37 0 -38 34 -38 34 0 35 1 35 40 0 22 5 40 10 40 6 0 10 9 10 20 0 13 -7 20 -20 20 -18 0 -19 3 -10 20 8 14 8 20 0 20 -6 0 -2 10 10 22 30 32 25 41 -20 35 -39 -5 -40 -4 -40 24 0 28 -2 29 -45 29 -38 0 -45 -3 -45 -20z"></path><path id="pcF4EtBmB" d="M933 726 c-29 -60 -29 -65 3 -31 16 17 24 36 22 52 -3 23 -5 21 -25 -21z"></path><path id="pjQWcgK9J" d="M457 686 c4 -21 7 -22 29 -12 33 15 30 36 -5 36 -24 0 -28 -3 -24 -24z"></path><path id="p9fp6RECd" d="M933 610 c6 -16 13 -27 15 -25 7 7 -8 55 -17 55 -5 0 -4 -13 2 -30z"></path><path id="p9MT9O3gU" d="M448 611 c-24 -29 -58 -98 -51 -105 3 -3 20 -6 36 -6 29 0 30 1 25 45 -5 42 -4 45 18 45 14 0 24 6 24 14 0 21 -37 26 -52 7z"></path><path id="paMAYk0XZ" d="M829 592 c6 -20 16 -29 44 -35 30 -7 37 -14 37 -33 0 -17 6 -24 20 -24 25 0 25 6 -1 61 -27 56 -23 53 -68 55 -37 2 -38 1 -32 -24z"></path><path id="pRtf7KQaL" d="M370 561 c-7 -17 -10 -35 -9 -40 2 -6 12 8 21 29 9 22 13 40 8 40 -4 0 -13 -13 -20 -29z"></path><path id="pkOQZnTYO" d="M961 553 c0 -5 4 -17 9 -28 8 -18 9 -17 9 8 1 15 -3 27 -9 27 -5 0 -10 -3 -9 -7z"></path><path id="p1HOvbnr2f" d="M710 485 c0 -28 4 -35 19 -35 24 0 37 18 23 32 -6 6 -8 17 -5 24 3 9 -2 14 -16 14 -17 0 -21 -6 -21 -35z"></path><path id="pJn15ybNd" d="M757 506 c-7 -18 1 -26 25 -26 11 0 18 7 18 20 0 23 -35 28 -43 6z"></path><path id="pgejz8Su6" d="M577 482 c-7 -11 40 -62 56 -62 8 0 15 -6 14 -12 -1 -40 4 -49 26 -46 19 3 22 10 25 54 3 46 1 51 -23 62 -29 13 -91 16 -98 4z"></path><path id="pxICBl0sG" d="M940 480 l-35 -7 38 -2 c20 0 37 4 37 9 0 6 -1 9 -2 9 -2 -1 -19 -5 -38 -9z"></path><path id="pACKNQvAt" d="M383 473 c9 -2 25 -2 35 0 9 3 1 5 -18 5 -19 0 -27 -2 -17 -5z"></path><path id="p9kSZ9TUT" d="M315 441 c-3 -5 -21 -7 -41 -4 -58 10 -116 -36 -63 -50 17 -5 19 -9 10 -25 -12 -22 2 -32 44 -32 13 0 31 -3 40 -6 14 -6 13 -10 -10 -29 l-28 -21 32 -37 c40 -45 66 -54 90 -32 17 15 19 15 25 -1 6 -15 9 -15 27 4 11 12 29 22 40 22 13 0 19 5 16 13 -8 22 9 50 32 54 16 2 27 -5 39 -27 11 -19 25 -30 39 -30 28 0 41 -24 49 -94 4 -30 11 -53 16 -50 4 3 6 10 3 15 -4 5 2 9 12 10 16 0 16 1 -1 8 -14 5 -16 10 -8 15 15 9 16 56 2 56 -5 0 -10 13 -10 29 0 40 -9 61 -27 61 -8 0 -20 15 -28 34 -9 22 -23 36 -40 40 -14 4 -25 13 -25 21 0 10 -11 15 -35 15 -28 0 -35 -4 -35 -19 0 -40 -19 -30 -25 13 -7 41 -9 44 -43 50 -54 9 -90 7 -97 -3z m45 -32 c13 -8 12 -9 -4 -7 -10 2 -21 -3 -23 -9 -3 -7 0 -13 6 -13 6 0 11 -7 11 -15 0 -22 -21 -18 -27 4 -3 12 -17 23 -34 26 -16 4 -29 11 -29 16 0 12 81 11 100 -2z"></path></g></g><g id="l3EqIm46UedtPoC7Fsoohnj" fill="rgb(104,162,212)" style="transform: none;"><g><path id="pi9xe61L0" d="M64 959 c-14 -28 -24 -53 -22 -55 2 -2 16 21 31 51 15 30 25 55 22 55 -3 0 -16 -23 -31 -51z"></path><path id="pRb8AQh5Z" d="M176 938 c-14 -19 -14 -24 -1 -38 29 -32 16 -74 -27 -85 -30 -8 -35 -21 -44 -122 -6 -66 -5 -71 15 -78 24 -7 28 -33 6 -41 -25 -10 -17 -25 9 -18 17 4 31 -1 45 -15 28 -28 26 -55 -4 -79 -28 -22 -31 -39 -12 -63 14 -19 70 -15 88 7 6 8 20 14 30 14 15 0 19 8 19 39 0 43 -20 71 -51 71 -12 0 -19 7 -19 19 0 11 -4 23 -10 26 -5 3 -10 19 -10 36 0 22 -5 29 -19 29 -11 0 -23 5 -26 10 -3 6 3 10 14 10 18 0 21 6 21 40 0 38 2 40 29 40 26 0 30 4 33 33 2 24 8 33 26 35 18 3 22 10 22 41 0 38 -26 81 -49 81 -7 0 -25 7 -41 15 -27 14 -30 14 -44 -7z"></path></g></g><g id="l5AGwiolJDzxX5ASyXF4vbp" fill="rgb(211,178,93)" style="transform: none;"><g><path id="pKdvBGav2" d="M660 1195 c0 -25 -4 -34 -12 -29 -7 4 -8 3 -4 -4 4 -7 9 -20 11 -29 2 -10 7 -28 11 -40 5 -17 2 -23 -10 -23 -9 0 -16 -7 -16 -15 0 -8 -7 -15 -15 -15 -9 0 -19 -8 -22 -17 -4 -10 -12 -22 -20 -26 -7 -4 -13 -23 -13 -40 0 -32 -2 -33 -57 -45 -32 -6 -88 -14 -125 -18 l-68 -7 0 -38 c0 -22 4 -39 9 -39 5 0 11 -18 15 -40 3 -22 10 -40 15 -40 5 0 12 -16 15 -35 5 -26 0 -51 -24 -106 -16 -39 -30 -84 -30 -100 0 -24 -4 -29 -23 -29 -13 0 -33 -9 -45 -20 -26 -25 -33 -25 -25 -3 4 12 3 15 -4 8 -6 -5 -14 -20 -18 -32 -5 -18 -2 -23 13 -23 11 0 25 7 32 15 7 8 25 15 41 15 19 0 29 5 29 15 0 15 26 20 54 9 9 -3 16 -12 16 -20 0 -8 7 -14 15 -14 8 0 15 -9 15 -20 0 -13 7 -20 20 -20 16 0 20 7 20 30 0 25 4 30 24 30 24 0 76 -41 76 -60 0 -5 5 -10 10 -10 6 0 10 -4 10 -10 0 -5 -7 -10 -15 -10 -16 0 -15 -2 43 -66 27 -30 52 -100 52 -146 0 -15 5 -28 11 -28 5 0 8 4 4 9 -3 5 3 12 12 14 17 4 17 5 0 6 -10 0 -15 6 -12 11 4 6 10 8 15 5 8 -5 5 37 -6 93 -2 12 -12 23 -22 23 -9 1 -2 4 17 8 19 3 39 14 45 25 6 10 21 30 34 44 12 14 22 29 22 34 0 5 11 19 25 32 18 17 42 25 88 30 125 13 127 14 127 51 0 18 -14 66 -31 106 -27 64 -30 78 -20 104 6 17 11 39 11 48 0 9 4 17 8 17 15 0 32 49 32 90 0 39 -1 40 -34 40 -61 0 -66 6 -47 51 9 21 22 39 30 39 16 0 37 -24 52 -59 9 -22 13 -23 80 -19 39 3 74 10 78 15 3 6 18 13 34 17 20 5 27 12 27 31 0 30 0 30 -45 8 -35 -17 -36 -17 -61 10 -14 15 -31 27 -39 27 -7 0 -19 16 -25 36 -8 24 -22 40 -45 51 -31 15 -34 14 -53 -3 -10 -11 -22 -31 -26 -46 -3 -16 -10 -28 -14 -28 -9 0 -8 87 1 96 29 29 -18 69 -66 58 -18 -4 -35 -7 -39 -6 -5 1 -8 -5 -8 -14 0 -14 -3 -14 -15 -4 -12 10 -18 10 -30 0 -9 -7 -18 -10 -21 -7 -9 8 19 34 41 38 10 2 20 9 22 16 4 12 -17 18 -104 28 l-53 7 0 -37z m160 -160 c0 -10 9 -15 26 -15 21 0 25 -3 18 -17 -4 -10 -9 -35 -12 -55 -2 -21 -8 -38 -12 -38 -20 0 -40 13 -40 26 0 8 -7 17 -15 20 -8 4 -15 13 -15 20 0 8 -7 17 -15 20 -8 4 -15 12 -15 19 0 7 -7 18 -15 25 -21 17 -19 30 5 30 10 0 25 6 32 14 11 12 16 11 36 -9 12 -13 22 -31 22 -40z m-86 -84 l59 -78 70 -7 c39 -4 81 -9 94 -12 28 -7 26 -15 -19 -116 l-31 -67 37 -86 c20 -47 35 -89 32 -94 -3 -4 -46 -14 -97 -21 l-91 -13 -55 -74 c-29 -40 -58 -73 -63 -73 -4 0 -33 33 -64 74 -60 80 -57 78 -183 92 -35 4 -63 10 -63 15 0 5 16 47 35 94 l36 86 -24 52 c-37 81 -50 117 -44 123 3 3 46 11 96 18 50 7 92 14 94 17 64 87 113 149 117 149 3 0 32 -36 64 -79z"></path><path id="pqTvQxENK" d="M640 959 c-12 -16 -20 -33 -17 -36 9 -8 27 7 27 23 0 8 9 14 20 14 11 0 20 -7 20 -15 0 -9 7 -18 15 -21 9 -4 15 -19 15 -39 0 -37 2 -38 133 -51 46 -4 70 -11 77 -23 8 -14 9 -13 10 5 0 19 -7 22 -67 28 -96 10 -95 10 -148 81 -26 36 -51 65 -55 65 -5 0 -18 -14 -30 -31z"></path><path id="pL5YQyMuN" d="M561 859 c-13 -11 -18 -19 -10 -19 21 0 42 16 38 28 -2 6 -14 2 -28 -9z"></path><path id="pG5DesFcc" d="M630 790 c0 -5 -7 -10 -15 -10 -21 0 -19 -33 3 -53 10 -10 28 -17 40 -17 11 0 22 -7 24 -17 2 -13 9 -11 38 15 l34 32 -44 1 c-25 1 -51 1 -57 0 -7 -1 -13 2 -13 7 0 17 13 22 27 10 11 -9 16 -9 23 1 4 8 13 10 19 7 6 -4 11 -1 11 7 0 8 -7 18 -16 21 -25 10 -74 7 -74 -4z"></path><path id="pssMW6AFR" d="M808 720 c12 -12 22 -25 22 -30 0 -6 7 -10 15 -10 10 0 15 10 15 30 0 28 -3 30 -37 30 l-37 0 22 -20z"></path><path id="pMwjjchXw" d="M523 723 c-7 -2 -13 -14 -12 -26 0 -15 2 -17 6 -7 3 8 12 21 21 28 16 12 8 15 -15 5z"></path><path id="pzrz6EO02" d="M753 710 c-33 -13 -30 -32 3 -20 14 6 31 7 37 3 7 -4 6 1 -2 10 -7 9 -14 17 -15 16 0 0 -11 -4 -23 -9z"></path><path id="pThE50psS" d="M550 700 c-8 -5 -11 -12 -7 -16 3 -4 13 -1 22 6 8 7 22 10 30 6 9 -3 13 -2 10 4 -8 12 -35 13 -55 0z"></path><path id="pjuCUdyLn" d="M770 650 c-12 -8 -11 -10 8 -10 12 0 22 5 22 10 0 13 -11 13 -30 0z"></path><path id="pEH3w9KOP" d="M914 556 c9 -22 15 -40 14 -41 -2 -2 -22 -6 -45 -10 -29 -4 -43 -3 -43 4 0 6 -18 11 -40 11 -25 0 -40 -5 -40 -12 0 -9 -4 -8 -10 2 -6 9 -10 10 -10 3 0 -25 36 -32 114 -24 43 5 80 11 83 14 9 10 -8 65 -24 78 -13 11 -13 8 1 -25z"></path><path id="pJgKMriNa" d="M510 509 c0 -8 -16 -9 -47 -5 -33 4 -42 3 -28 -3 11 -5 38 -10 60 -10 22 -1 55 -10 73 -21 18 -11 38 -18 44 -14 18 12 58 -18 58 -43 0 -14 -4 -21 -10 -18 -5 3 -10 -3 -10 -14 0 -39 35 -23 73 32 39 56 43 67 27 67 -5 0 -12 -11 -16 -25 -6 -24 -24 -35 -24 -15 0 6 -11 10 -25 10 -20 0 -25 5 -25 25 0 21 -5 25 -30 25 -16 0 -30 5 -30 10 0 6 -20 10 -45 10 -26 0 -45 -5 -45 -11z"></path></g></g><g id="l7J1uA2bzEGZ5Xiuh7TWEbO" fill="rgb(243,209,41)" style="transform: none;"><g><path id="pfbWhmAac" d="M599 973 c-18 -27 -41 -58 -52 -70 -11 -13 -15 -23 -9 -23 6 0 30 26 53 58 23 31 46 63 52 70 6 8 6 12 -1 12 -6 0 -25 -21 -43 -47z"></path><path id="p1AodjAKit" d="M716 983 c15 -21 39 -53 52 -70 13 -18 32 -33 41 -32 10 0 12 2 3 6 -7 2 -33 34 -58 69 -25 35 -50 64 -56 64 -6 0 2 -17 18 -37z"></path><path id="pYfHXiEo1" d="M1000 965 c0 -32 2 -35 30 -35 24 0 28 3 23 18 -8 22 -34 52 -45 52 -4 0 -8 -16 -8 -35z"></path><path id="pgChOhbGs" d="M620 930 c-50 -74 -69 -86 -145 -94 -33 -4 -63 -10 -67 -14 -3 -4 7 -37 24 -74 27 -60 35 -68 58 -68 19 0 29 6 33 19 2 11 21 24 42 31 36 12 39 11 67 -19 33 -36 50 -38 75 -12 35 36 60 43 93 26 16 -9 30 -22 30 -31 0 -13 15 -14 59 -5 2 1 -2 8 -9 16 -13 16 -6 35 14 35 13 0 46 60 46 84 0 9 -21 16 -67 20 -97 10 -98 11 -149 82 -25 35 -50 64 -55 64 -4 0 -27 -27 -49 -60z m80 -64 c0 -7 15 -21 33 -31 l32 -20 -31 -3 c-23 -2 -34 -10 -39 -25 -6 -19 -8 -19 -12 -4 -4 14 -16 17 -61 17 -46 1 -53 3 -38 11 27 17 75 72 76 88 0 11 5 10 20 -4 11 -10 20 -23 20 -29z m143 -63 c-13 -2 -35 -2 -50 0 -16 2 -5 4 22 4 28 0 40 -2 28 -4z m-173 -44 c0 -8 4 -8 15 1 15 12 35 6 35 -11 0 -5 -21 -9 -46 -9 -40 0 -45 2 -34 15 15 18 30 20 30 4z"></path><path id="pDSMunzC1" d="M848 873 c12 -2 30 -2 40 0 9 3 -1 5 -23 4 -22 0 -30 -2 -17 -4z"></path><path id="p1BbECl9qQ" d="M923 863 c9 -2 25 -2 35 0 9 3 1 5 -18 5 -19 0 -27 -2 -17 -5z"></path><path id="p13UfqYnc6" d="M753 709 c-13 -5 -23 -14 -23 -21 0 -9 2 -10 8 -2 4 7 18 14 32 16 14 1 21 6 15 9 -5 4 -20 3 -32 -2z"></path><path id="pSU7f7a3q" d="M550 700 c-11 -8 -7 -9 15 -4 37 8 45 14 19 14 -10 0 -26 -5 -34 -10z"></path><path id="pB1aN2UO1" d="M625 620 c-5 -7 -33 -9 -89 -4 -95 7 -105 1 -112 -69 -5 -51 4 -57 91 -57 39 0 54 -5 65 -20 17 -24 27 -25 32 -5 2 11 11 7 36 -16 33 -31 44 -66 17 -55 -18 6 -21 -19 -4 -30 11 -7 54 35 87 84 12 19 13 25 3 32 -11 6 -11 12 -1 26 10 16 11 16 6 2 -5 -16 3 -18 67 -18 106 0 120 6 113 44 -7 33 -25 56 -47 60 -8 1 -23 7 -35 14 -13 7 -32 8 -50 3 -16 -4 -42 -4 -59 0 -16 5 -43 7 -60 5 -16 -2 -35 1 -42 6 -7 6 -14 5 -18 -2z"></path><path id="pVExQSFM7" d="M940 605 c1 -6 7 -21 16 -35 l15 -25 -7 25 c-7 26 -24 52 -24 35z"></path><path id="pgsqv8hq7" d="M888 463 c12 -2 30 -2 40 0 9 3 -1 5 -23 4 -22 0 -30 -2 -17 -4z"></path><path id="pabaP83Ed" d="M767 424 c-10 -13 -13 -24 -8 -24 10 0 36 39 29 45 -2 2 -11 -8 -21 -21z"></path><path id="pA6HojoCZ" d="M390 421 c0 -6 8 -11 18 -11 13 0 17 -8 16 -33 0 -17 -4 -39 -8 -48 -4 -8 -1 -27 7 -42 l14 -26 35 37 c20 20 38 46 41 57 4 17 5 17 6 2 0 -10 5 -15 11 -12 5 3 20 -4 32 -15 l23 -21 3 25 c2 17 -6 36 -25 56 -25 27 -37 32 -101 37 -51 4 -72 3 -72 -6z"></path></g></g><g id="l5qMx7dzpuNnFgpCsG21Xx5" fill="rgb(163,149,191)" style="transform: none;"><g><path id="p1EPOskd2u" d="M660 1195 c0 -32 -2 -36 -15 -25 -18 15 -18 15 -30 -24 -14 -41 -29 -42 -66 -7 -29 28 -34 30 -49 16 -9 -8 -24 -15 -32 -15 -9 0 -18 -11 -20 -25 -3 -14 -1 -25 3 -25 5 0 9 -11 9 -25 0 -17 -9 -29 -28 -39 -16 -8 -34 -22 -41 -30 -16 -19 -41 -21 -41 -3 0 7 -9 18 -20 25 -19 11 -20 10 -20 -21 0 -35 -25 -67 -51 -67 -8 0 -27 7 -44 16 -28 14 -28 13 10 -26 45 -47 25 -45 237 -19 87 11 87 12 114 53 15 22 45 63 67 90 41 49 47 70 35 144 -7 47 -18 52 -18 7z m-150 -105 c-15 -28 -28 -25 -36 7 -5 17 -3 28 5 31 7 2 17 10 24 17 10 10 13 8 15 -11 2 -12 -2 -32 -8 -44z"></path><path id="pp5DYrpZZ" d="M185 1128 l-40 -43 43 40 c23 21 42 40 42 42 0 8 -9 0 -45 -39z"></path><path id="pX908KxgY" d="M1146 948 c4 -7 3 -8 -4 -4 -6 4 -19 2 -29 -3 -10 -5 -25 -12 -34 -15 -26 -7 -38 -195 -15 -228 9 -12 16 -33 16 -45 0 -16 6 -23 19 -23 10 0 21 -7 25 -15 7 -18 67 -20 84 -3 19 19 15 86 -5 91 -16 4 -17 5 -1 6 22 1 31 51 26 143 -2 44 -9 73 -16 76 -7 2 -12 10 -12 18 0 9 -11 14 -31 14 -20 0 -28 -4 -23 -12z"></path></g></g><g id="l74mLrFKHJKooqkNKDmQ1GA" fill="rgb(183,208,126)" style="transform: none;"><g><path id="pXW6mQSWx" d="M189 438 c0 -7 -2 -22 -4 -34 -4 -18 0 -20 20 -17 28 6 62 40 50 51 -4 4 -10 1 -12 -5 -3 -7 -9 -13 -14 -13 -4 0 -6 7 -3 15 4 8 1 15 -5 15 -6 0 -11 -9 -11 -20 0 -11 -4 -20 -9 -20 -5 0 -7 9 -4 20 3 11 3 20 -1 20 -3 0 -6 -6 -7 -12z"></path><path id="pNENLEZ1V" d="M895 443 c-43 -9 -76 -27 -86 -44 -5 -11 -18 -19 -27 -19 -17 0 -62 -48 -109 -115 -27 -39 -22 -135 8 -142 10 -3 15 -11 12 -19 -3 -8 0 -14 6 -14 6 0 11 14 11 31 0 24 4 30 18 27 9 -2 16 -11 14 -19 -2 -8 8 -1 23 15 14 16 25 30 25 30 0 1 -21 2 -47 1 -33 0 -47 4 -50 15 -4 12 -3 13 5 1 8 -11 12 -10 23 6 11 19 14 19 28 5 15 -14 16 -14 19 1 5 22 22 22 23 0 1 -12 4 -10 9 7 5 15 8 19 9 8 1 -17 54 -61 63 -52 3 2 26 5 51 6 70 1 75 14 9 22 -57 6 -60 8 -64 36 -3 19 0 30 8 30 6 0 14 9 17 20 3 11 12 20 21 20 19 0 22 20 4 20 -7 1 -2 7 12 15 14 8 19 14 12 15 -10 0 -10 4 2 16 9 8 16 21 16 29 0 7 14 16 30 20 17 4 30 13 30 21 0 10 -13 14 -52 13 -29 -1 -62 -3 -73 -6z"></path><path id="p1DI4usVhA" d="M1070 437 c0 -7 32 -27 71 -45 102 -48 99 -47 99 -20 0 19 -11 30 -53 51 -57 29 -117 36 -117 14z"></path><path id="p17Bki2cF9" d="M951 321 c-7 -5 -11 -15 -9 -22 3 -10 8 -7 17 9 13 24 12 26 -8 13z"></path><path id="p25Ex7YQl" d="M801 133 c0 -25 1 -26 9 -8 6 13 9 15 9 5 1 -13 3 -13 10 0 12 17 5 30 -15 30 -9 0 -14 -10 -13 -27z"></path></g></g><g id="l2NzH9G7h39XNlOXuOXRdSx" fill="rgb(128,186,226)" style="transform: none;"><g><path id="puKuujvgN" d="M221 923 c27 -29 32 -70 12 -95 -6 -7 -9 -23 -8 -34 1 -19 -3 -21 -35 -17 -58 8 -95 -48 -72 -109 7 -21 7 -28 -1 -28 -7 0 -4 -7 6 -14 22 -17 22 -53 0 -59 -10 -3 -2 -5 18 -6 19 0 40 -6 47 -13 13 -13 17 -88 4 -88 -5 0 -7 -14 -6 -30 1 -17 -2 -30 -7 -30 -5 0 -9 -5 -9 -10 0 -13 50 -2 71 16 8 8 21 14 27 14 7 0 12 5 12 10 0 6 7 10 15 10 17 0 30 59 20 98 -15 62 2 172 28 172 13 0 2 93 -12 98 -6 2 -11 16 -11 30 0 46 -22 74 -75 94 l-50 20 26 -29z m53 -59 c9 -24 7 -27 -9 -10 -17 17 -19 26 -6 26 5 0 12 -7 15 -16z m-104 -130 c0 -9 -31 -37 -36 -32 -9 9 8 38 22 38 8 0 14 -3 14 -6z m20 -139 c0 -8 -4 -15 -10 -15 -5 0 -10 7 -10 15 0 8 5 15 10 15 6 0 10 -7 10 -15z m64 -111 c21 -20 21 -21 -11 -54 -35 -38 -54 -30 -40 16 11 35 27 46 27 19 0 -8 5 -15 10 -15 15 0 12 16 -6 34 -8 9 -11 16 -5 16 5 0 17 -7 25 -16z"></path><path id="pPk5yhshI" d="M210 428 c0 -19 2 -20 10 -8 13 19 13 30 0 30 -5 0 -10 -10 -10 -22z"></path></g></g><g id="l19by5lbZBzlRZVgsSNYZ7H" fill="rgb(243,226,90)" style="transform: none;"><g><path id="p1FqpsRIJv" d="M772 1092 c-32 -3 -33 -5 -30 -40 3 -32 7 -37 31 -40 15 -2 27 -9 27 -18 0 -8 9 -14 20 -14 15 0 20 -7 20 -29 0 -27 3 -29 53 -35 129 -15 164 3 137 74 -2 3 -2 8 -1 13 0 4 -15 7 -34 7 -24 0 -35 -5 -35 -15 0 -9 -9 -15 -23 -15 -16 0 -28 -9 -36 -26 -6 -15 -14 -24 -17 -21 -3 3 4 23 15 46 29 56 28 81 -4 81 -17 0 -25 5 -25 18 0 19 -24 22 -98 14z"></path><path id="p1AIU06yFC" d="M648 955 c-10 -13 -18 -27 -18 -32 -1 -23 -99 -104 -125 -103 -77 3 -92 -7 -71 -49 19 -35 31 -38 58 -14 12 11 18 12 18 3 0 -8 6 -10 18 -5 27 12 142 14 142 2 0 -5 7 -4 15 3 12 10 18 10 29 1 11 -9 15 -9 18 2 2 12 11 13 51 2 26 -6 47 -8 47 -3 0 5 16 6 35 2 33 -6 36 -4 49 27 14 32 13 34 -7 41 -12 3 -41 6 -65 7 -39 1 -112 35 -112 53 0 10 -53 88 -59 88 -3 0 -14 -11 -23 -25z"></path><path id="pQexZnWSe" d="M506 511 c-4 -5 8 -13 26 -17 18 -3 41 -16 51 -27 9 -11 20 -17 23 -14 11 10 -18 39 -53 54 -38 16 -40 16 -47 4z"></path><path id="pFAzotsN4" d="M780 506 c0 -17 16 -19 65 -6 28 7 28 8 5 9 -14 1 -35 4 -47 7 -17 5 -23 2 -23 -10z"></path><path id="pi5CnaQ4C" d="M793 453 c-7 -2 -13 -11 -13 -19 0 -10 12 -14 40 -14 33 0 40 3 40 20 0 15 -6 20 -27 19 -16 0 -34 -3 -40 -6z"></path><path id="pxecfYoFc" d="M703 433 c-13 -8 -23 -21 -23 -28 0 -8 -5 -15 -12 -17 -6 -2 -8 -10 -4 -17 10 -15 36 4 36 26 0 7 6 16 13 19 8 3 14 11 14 19 0 8 -1 15 -1 14 -1 0 -11 -7 -23 -16z"></path><path id="pPmw51SgG" d="M430 415 c0 -9 14 -17 38 -21 24 -4 52 -21 80 -48 l43 -41 -3 40 c-3 35 -6 40 -30 43 -20 2 -28 9 -28 23 0 16 -7 19 -50 19 -37 0 -50 -4 -50 -15z"></path></g></g><g id="l6TStDKhhUPUCG0sf5dPSyE" fill="rgb(237,212,130)" style="transform: none;"><g><path id="pyp0T3a6d" d="M668 1185 c-3 -6 -9 -29 -13 -53 -6 -39 -5 -44 14 -49 34 -9 24 -23 -15 -23 -27 0 -37 -5 -41 -20 -3 -11 -9 -20 -14 -20 -5 0 -9 -9 -9 -20 0 -11 -7 -20 -15 -20 -8 0 -15 -6 -15 -13 0 -7 -11 -21 -25 -31 -30 -23 -34 -56 -5 -56 12 0 35 21 61 58 23 31 51 67 62 79 l20 23 60 -80 c37 -51 66 -80 78 -80 10 0 19 6 19 14 0 9 8 12 25 8 14 -2 25 -10 25 -17 0 -13 30 -25 68 -25 15 0 22 6 22 20 0 17 3 18 26 10 46 -18 84 -12 119 19 19 16 31 33 27 37 -4 5 3 0 16 -10 22 -19 22 -19 22 2 0 26 -27 29 -56 7 -27 -20 -57 -18 -77 5 -9 11 -14 20 -11 20 4 0 2 6 -5 13 -8 10 -7 17 2 26 10 11 8 12 -10 7 -15 -5 -28 -1 -43 14 -20 20 -20 21 -3 47 10 15 12 24 5 19 -12 -7 -29 -37 -71 -123 -22 -47 -26 -50 -35 -27 -3 8 -2 13 3 10 13 -8 44 70 44 110 0 19 -5 40 -11 46 -9 9 -12 9 -12 0 0 -19 -30 -14 -31 6 0 13 -2 12 -9 -5 -13 -32 -25 -29 -44 12 -18 36 -30 43 -42 23 -5 -8 -2 -9 10 -5 10 4 15 3 11 -3 -3 -6 -17 -7 -31 -4 -17 4 -24 2 -24 -9 0 -8 -7 -18 -16 -21 -25 -9 -30 2 -9 17 10 8 16 20 13 27 -3 10 -8 9 -21 -4 -15 -16 -17 -15 -25 16 -4 18 -11 28 -14 23z"></path><path id="pjdcjWtOZ" d="M380 885 c0 -10 -10 -15 -30 -15 -28 0 -30 -2 -30 -40 0 -27 5 -43 15 -46 9 -4 15 -19 15 -35 0 -16 4 -29 9 -29 14 0 26 -83 12 -88 -6 -2 -11 -19 -11 -38 0 -22 -5 -34 -14 -34 -8 0 -17 -7 -20 -16 -10 -25 -7 -74 4 -74 6 0 10 -11 10 -24 0 -26 10 -30 100 -42 66 -8 94 -30 167 -126 43 -56 53 -78 55 -111 1 -41 1 -41 5 -7 3 19 9 39 14 44 12 13 12 46 -1 46 -5 0 -10 5 -10 10 0 6 11 10 25 10 16 0 25 6 25 15 0 8 5 15 10 15 6 0 10 8 10 19 0 10 9 21 20 24 12 3 22 17 26 35 7 35 40 48 147 57 48 5 67 11 67 21 0 8 5 14 10 14 6 0 10 18 10 41 0 32 -4 42 -19 46 -13 3 -21 18 -26 51 -9 63 -7 116 5 120 6 2 10 17 10 33 0 19 5 29 15 29 10 0 15 11 15 35 0 61 -23 39 -66 -62 l-41 -97 39 -89 c21 -49 37 -91 35 -93 -3 -3 -88 -17 -175 -29 -13 -2 -25 -5 -26 -7 -2 -2 -27 -36 -55 -75 -29 -40 -56 -73 -61 -73 -5 0 -32 33 -61 73 -29 39 -56 75 -61 78 -5 3 -50 11 -100 18 -51 6 -94 13 -95 15 -2 2 14 43 35 92 l38 89 -37 90 c-21 50 -38 93 -38 98 -1 4 14 7 32 7 47 0 77 10 77 26 0 10 -13 14 -40 14 -29 0 -40 -4 -40 -15z"></path><path id="pcAx0QK3a" d="M767 513 c-14 -13 -6 -23 18 -23 16 0 25 6 25 15 0 15 -31 21 -43 8z"></path><path id="p12zvn0trZ" d="M240 425 c-12 -13 -26 -22 -30 -20 -4 3 -13 -1 -19 -9 -9 -11 -6 -12 14 -9 13 3 30 11 36 19 6 8 18 14 25 14 8 0 14 7 14 15 0 22 -13 18 -40 -10z"></path><path id="px3v6FBpt" d="M680 410 c-1 -8 -3 -24 -5 -34 -3 -17 -2 -17 12 -4 12 12 13 20 4 34 -8 15 -11 16 -11 4z"></path></g></g><g id="l5nfS0DLnBTdWcdr00Hj4AY" fill="rgb(193,187,210)" style="transform: none;"><g><path id="pR9ov9K3z" d="M661 1159 c-1 -16 -21 -52 -51 -89 -27 -34 -59 -77 -70 -95 -20 -32 -23 -33 -123 -45 -56 -6 -106 -13 -112 -14 -5 -2 -28 3 -50 11 l-40 13 33 -31 34 -32 96 7 c162 12 166 14 212 76 53 73 51 70 83 109 18 21 24 37 19 45 -5 6 -14 25 -20 41 -10 30 -10 30 -11 4z"></path><path id="p160F2a8v4" d="M1173 962 c-13 -2 -23 -8 -23 -13 0 -5 -6 -9 -12 -9 -7 0 -32 -8 -55 -17 -36 -15 -46 -27 -67 -73 -43 -96 -52 -143 -37 -198 7 -26 20 -76 27 -111 8 -35 17 -67 20 -72 3 -5 25 -14 50 -20 24 -6 44 -17 44 -23 0 -12 51 -46 69 -46 6 0 11 8 11 18 0 10 13 44 29 75 25 50 29 67 29 147 0 49 -4 92 -9 96 -5 3 -9 38 -9 77 0 116 -24 176 -67 169z m11 -67 c16 -34 14 -81 -3 -70 -5 2 -5 -15 0 -38 9 -49 4 -58 -15 -31 -21 27 -36 7 -28 -35 4 -19 16 -39 27 -45 11 -6 22 -12 24 -13 2 -2 -2 -9 -9 -18 -14 -17 -34 -9 -26 11 3 8 -1 14 -9 14 -8 0 -15 6 -15 13 0 6 -12 23 -25 36 -31 29 -32 58 -3 88 18 20 19 23 5 23 -30 0 -21 55 14 84 36 30 41 29 63 -19z"></path><path id="psok6uTeG" d="M1120 790 c-13 -13 -18 -26 -13 -33 5 -8 9 -5 11 11 2 12 10 22 18 22 8 0 14 5 14 10 0 15 -8 12 -30 -10z"></path><path id="pJbK58RGK" d="M578 638 c9 -9 15 -9 24 0 9 9 7 12 -12 12 -19 0 -21 -3 -12 -12z"></path></g></g><g id="ltDkJiCTzeZxMoxm255F6t" fill="rgb(164,212,243)" style="transform: none;"><g><path id="p1HkZQxxVv" d="M242 917 c14 -14 32 -43 39 -65 11 -38 10 -42 -15 -67 -22 -22 -33 -26 -58 -21 -47 9 -75 -2 -87 -36 -8 -23 -7 -38 4 -62 8 -17 16 -47 19 -66 2 -21 9 -35 17 -35 9 0 13 8 11 23 -2 12 2 22 8 22 6 0 25 14 41 31 26 26 30 38 26 65 -5 29 -2 35 28 53 32 18 33 19 38 1 3 -14 1 -17 -11 -13 -9 4 -13 2 -9 -3 3 -6 -1 -29 -8 -52 -8 -23 -13 -47 -11 -54 1 -7 1 -10 -1 -5 -8 14 -22 7 -17 -8 5 -11 2 -13 -10 -9 -20 8 -21 -6 -1 -32 8 -10 15 -27 15 -37 0 -10 4 -16 9 -13 15 10 21 -22 10 -52 -6 -15 -22 -40 -37 -57 -15 -16 -20 -24 -11 -17 9 7 28 13 43 14 31 3 38 9 56 58 7 19 22 55 33 80 11 25 22 68 25 95 4 49 0 63 -75 243 -3 6 -12 12 -20 12 -8 0 -28 7 -46 16 l-32 15 27 -24z m-32 -176 c0 -4 -9 -20 -20 -34 -11 -14 -20 -30 -20 -36 0 -20 -31 -11 -39 12 -9 24 -4 48 13 59 15 11 66 10 66 -1z m20 -38 c0 -5 -5 -15 -10 -23 -8 -12 -10 -11 -10 8 0 12 5 22 10 22 6 0 10 -3 10 -7z"></path></g></g><g id="l4riWbYkPYRTYCpsufYbxHF" fill="rgb(234,229,171)" style="transform: none;"><g><path id="p6sDPZFlZ" d="M657 1118 c-17 -29 -17 -31 0 -44 16 -12 15 -13 -14 -14 -28 0 -33 -4 -33 -24 0 -15 -7 -26 -20 -29 -11 -3 -20 -12 -20 -21 0 -9 -7 -16 -15 -16 -8 0 -15 -9 -15 -20 0 -11 -7 -20 -15 -20 -8 0 -23 -4 -33 -10 -9 -5 -52 -12 -94 -15 l-78 -7 0 -63 c0 -35 4 -66 9 -70 5 -3 17 -27 25 -53 17 -51 10 -98 -20 -133 -8 -8 -14 -34 -14 -57 0 -30 -4 -42 -14 -42 -14 0 -46 -36 -46 -51 0 -3 33 -7 73 -8 114 -3 185 -23 216 -62 81 -101 111 -147 112 -169 0 -16 3 -19 6 -10 13 33 122 170 135 170 5 0 7 -3 4 -8 -2 -4 2 -16 10 -27 13 -18 20 -10 15 19 -8 42 41 73 129 83 l60 6 0 72 c0 50 -4 76 -14 84 -8 7 -17 24 -21 39 -4 15 -11 29 -16 33 -6 3 -3 17 6 35 8 16 15 36 15 45 0 9 7 22 15 29 10 8 15 30 15 61 0 42 3 49 19 49 11 0 33 12 48 26 15 15 37 30 48 35 18 7 18 8 2 8 -10 1 -32 -6 -48 -15 -23 -11 -38 -13 -62 -5 -18 5 -70 12 -116 14 -94 6 -88 2 -158 107 -21 30 -43 59 -51 63 -7 5 -16 17 -20 27 -6 17 -9 16 -25 -12z m93 -174 c48 -61 71 -74 128 -74 69 0 112 -11 112 -29 0 -9 -4 -21 -10 -27 -5 -5 -21 -40 -35 -78 l-26 -69 26 -68 c15 -38 31 -71 36 -75 19 -12 9 -44 -16 -49 -14 -3 -37 -8 -52 -11 -16 -4 -48 -8 -73 -10 -49 -3 -55 -9 -120 -102 -19 -28 -42 -51 -50 -51 -8 0 -31 23 -50 51 -58 85 -85 109 -122 107 -38 -1 -135 15 -144 24 -4 3 10 44 31 92 24 58 34 92 30 108 -9 29 -32 85 -51 120 -24 49 -20 55 54 62 127 12 128 12 186 95 56 78 67 86 86 60 8 -11 35 -46 60 -76z"></path><path id="p1Ad3AjS3X" d="M1192 968 c-36 -22 -34 -38 6 -38 36 0 55 13 50 35 -4 26 -18 26 -56 3z"></path><path id="pxUgR3PQI" d="M1080 436 c0 -8 11 -17 25 -20 13 -3 51 -22 82 -40 57 -34 58 -34 68 -14 11 24 -15 48 -52 48 -16 0 -23 6 -23 20 0 17 -7 20 -50 20 -36 0 -50 -4 -50 -14z"></path></g></g><g id="l5ap2BCAK6z9sA7iDBV4bL8" fill="rgb(220,219,220)" style="transform: none;"><g><path id="pgNvYWI0V" d="M660 1124 c0 -5 -15 -26 -33 -46 -17 -21 -49 -62 -71 -92 -38 -54 -38 -55 -105 -62 -36 -5 -94 -8 -127 -9 -61 0 -61 0 -50 -24 11 -25 12 -25 223 -8 12 1 25 5 29 10 4 4 16 7 26 7 10 0 18 6 18 14 0 8 16 32 35 53 19 21 35 44 35 51 0 11 21 17 44 13 11 -2 26 19 26 36 0 7 -11 24 -25 39 -14 15 -25 23 -25 18z"></path><path id="p80jHosc9" d="M716 1012 c-8 -14 37 -72 57 -72 22 0 21 29 -2 58 -19 22 -45 29 -55 14z"></path><path id="pthKQxB7R" d="M1220 981 c0 -5 -13 -14 -30 -19 l-30 -11 21 -36 c29 -49 38 -157 15 -181 -16 -15 -18 -15 -31 2 -13 18 -14 17 -15 -13 0 -33 22 -49 53 -38 26 11 28 -12 6 -58 -14 -29 -19 -52 -14 -63 7 -18 7 -18 14 0 4 11 10 15 14 10 8 -14 -41 -114 -56 -113 -7 0 -34 8 -62 17 -49 17 -50 18 -62 72 -7 30 -19 77 -27 104 -14 45 -13 52 8 110 13 33 31 78 40 99 l16 37 -29 0 c-16 0 -32 -6 -34 -12 -4 -8 -6 -7 -6 3 -1 18 -21 29 -52 29 -14 0 -19 -7 -19 -25 0 -20 5 -25 24 -25 13 0 26 -7 30 -15 6 -18 -12 -75 -25 -75 -5 0 -9 -8 -9 -17 0 -10 -7 -31 -15 -47 -22 -41 -19 -64 15 -129 17 -32 30 -71 30 -87 0 -29 0 -29 -80 -36 -44 -3 -80 -11 -80 -15 0 -5 -9 -9 -20 -9 -10 0 -27 -12 -37 -26 -10 -14 -30 -40 -44 -57 -14 -18 -28 -40 -32 -50 -15 -42 -72 2 -109 85 -14 32 -75 68 -115 68 -17 0 -51 3 -77 6 -43 6 -46 9 -46 37 0 17 6 38 14 46 14 17 36 75 36 97 0 20 -40 17 -47 -3 -3 -10 -14 -36 -23 -58 -9 -22 -23 -56 -30 -75 -8 -19 -20 -44 -27 -55 -20 -30 -16 -40 8 -19 18 17 22 17 32 3 11 -14 74 -22 178 -23 24 0 39 -6 45 -17 14 -26 87 -132 101 -147 7 -7 13 -18 13 -23 0 -26 39 -2 70 42 19 27 47 63 63 79 15 17 27 34 27 38 0 17 48 31 111 32 110 3 255 -1 242 -7 -24 -9 -13 -22 26 -34 54 -16 71 -7 71 36 0 19 -4 35 -10 35 -5 0 -3 18 5 41 10 29 14 68 11 128 -6 110 -22 268 -31 304 -6 21 -4 27 9 27 14 0 15 4 6 20 -11 20 -30 27 -30 11z"></path><path id="pzmyciUk6" d="M1104 918 c-19 -23 -19 -23 1 -7 11 9 27 19 35 22 13 5 13 6 -1 6 -9 1 -24 -9 -35 -21z"></path><path id="p102jmBEgV" d="M790 918 c0 -27 24 -38 82 -38 51 0 58 2 58 20 0 17 -7 20 -39 20 -21 0 -53 3 -70 6 -23 5 -31 3 -31 -8z"></path><path id="plcGH3jwR" d="M326 763 c9 -21 18 -44 21 -50 7 -18 43 -16 43 2 0 9 -7 31 -14 50 -12 27 -21 35 -41 35 l-25 0 16 -37z"></path></g></g><g id="l7UpmN45xYsPqolduWZ33Pz" fill="rgb(246,247,240)" style="transform: none;"><g><path id="p1GmScV7To" d="M660 1099 c0 -5 -4 -7 -10 -4 -6 3 -7 -1 -4 -10 5 -11 0 -18 -12 -21 -11 -3 -41 -36 -69 -75 -42 -59 -54 -69 -80 -70 -16 0 -43 -3 -60 -6 -16 -2 -58 -5 -92 -6 -35 -1 -63 -3 -63 -4 0 -1 21 -53 46 -114 50 -124 51 -130 4 -234 -10 -22 -26 -58 -36 -80 -10 -22 -20 -44 -22 -50 -3 -5 5 -1 17 10 20 18 24 18 34 4 7 -9 28 -16 51 -16 22 -1 63 -4 93 -8 47 -6 53 -4 53 12 1 13 6 9 18 -13 9 -17 36 -59 59 -93 31 -47 42 -58 46 -44 3 13 5 10 6 -8 0 -14 7 -34 15 -44 15 -21 12 -23 76 60 17 22 41 52 55 68 14 15 25 31 25 36 0 19 61 31 177 33 l122 3 -33 31 c-19 18 -39 48 -46 69 -7 20 -18 49 -26 63 -15 29 -19 132 -6 148 5 5 19 38 32 74 12 36 27 70 31 76 12 15 -34 24 -148 31 l-82 4 -53 67 c-29 37 -55 69 -59 72 -3 3 -11 15 -18 28 -12 22 -41 31 -41 11z m18 -57 c9 -10 37 -45 61 -77 58 -77 68 -84 117 -85 23 0 62 -3 88 -6 44 -6 46 -8 46 -39 0 -18 -7 -38 -15 -45 -8 -7 -15 -19 -15 -27 0 -8 -7 -30 -16 -49 -9 -19 -14 -38 -10 -41 3 -3 6 1 6 11 0 9 5 14 10 11 6 -3 10 -19 10 -36 0 -16 -4 -29 -10 -29 -5 0 -10 5 -10 12 0 6 -2 9 -5 6 -3 -3 1 -18 10 -34 8 -16 15 -33 15 -38 0 -5 6 -17 14 -25 13 -15 20 -41 17 -68 -1 -8 -16 -13 -38 -14 -38 -1 -38 -1 -8 -9 26 -6 28 -8 11 -15 -11 -5 -26 -3 -37 3 -27 17 -52 15 -77 -8 -24 -22 -57 -28 -47 -7 4 6 -4 0 -17 -15 -44 -52 -73 -92 -80 -110 -11 -28 -45 -22 -63 11 -16 32 -39 52 -29 27 3 -9 2 -16 -4 -16 -6 0 -9 8 -7 17 4 29 -13 52 -33 46 -14 -3 -21 2 -25 17 -4 17 -2 20 11 15 14 -5 14 -4 5 6 -8 8 -44 12 -105 12 -80 -1 -96 1 -111 18 -10 10 -13 19 -8 19 6 0 14 12 17 28 4 15 12 34 19 42 7 8 20 37 29 65 16 47 15 52 -5 112 -11 35 -25 65 -30 68 -5 4 -9 21 -9 40 l0 33 78 7 c87 7 108 15 104 39 -3 15 0 16 17 6 17 -8 21 -8 21 4 0 7 7 16 15 20 8 3 15 10 15 16 0 6 -4 8 -10 5 -16 -10 -11 1 7 16 15 12 16 12 8 -1 -4 -8 2 -5 14 7 11 12 21 27 21 33 0 5 5 10 11 10 6 0 9 7 5 15 -7 20 0 19 22 -3z m-316 -460 c-7 -2 -12 -10 -12 -17 0 -8 -4 -16 -10 -20 -5 -3 -5 7 1 25 7 18 15 27 22 23 8 -5 8 -8 -1 -11z m378 -251 c0 -5 -7 -14 -15 -21 -12 -10 -15 -10 -15 2 0 8 3 18 7 21 9 10 23 9 23 -2z"></path><path id="p10qqeZExN" d="M350 466 c0 -8 51 -13 56 -5 3 5 -9 9 -25 9 -17 0 -31 -2 -31 -4z"></path><path id="p16s3aJMTc" d="M1201 967 c-19 -11 -29 -23 -23 -25 7 -2 10 -8 6 -13 -3 -5 0 -9 7 -9 7 0 9 -3 6 -7 -4 -3 -3 -11 3 -18 5 -6 12 -37 16 -68 5 -44 3 -66 -11 -97 -18 -39 -32 -39 -48 0 -5 13 -6 13 -6 -1 -1 -8 6 -24 14 -35 15 -19 15 -19 34 3 l19 23 10 -28 c10 -28 1 -65 -17 -77 -6 -3 -11 -16 -10 -28 0 -12 3 -17 5 -10 6 13 34 6 34 -7 0 -5 -5 -21 -12 -37 -6 -15 -12 -30 -13 -33 -1 -3 -5 -12 -9 -21 -4 -9 -8 -29 -10 -44 -2 -17 -11 -32 -22 -36 -17 -6 -15 -8 11 -19 16 -6 37 -18 46 -26 15 -13 18 -10 38 35 37 87 51 161 51 271 0 114 -15 191 -55 278 -13 28 -25 52 -27 51 -2 0 -18 -10 -37 -22z"></path></g></g></svg>